<?xml version="1.0" encoding="utf-8"?>
<!-- Generator: Adobe Illustrator 13.0.0, SVG Export Plug-In  -->
<!DOCTYPE svg [
	<!ENTITY ns_flows "http://ns.adobe.com/Flows/1.0/">
]>
<svg version="1.2" baseProfile="tiny"
	 xmlns="http://www.w3.org/2000/svg" xmlns:xlink="http://www.w3.org/1999/xlink" xmlns:a="http://ns.adobe.com/AdobeSVGViewerExtensions/3.0/"
	 x="0px" y="0px" width="239px" height="209px" viewBox="-0.8 -0.7 239 209" xml:space="preserve">
<defs>
</defs>
<path fill="#FFFFFF" stroke="#1971B0" stroke-width="5" d="M232.9,101.5l-14.5-8.3L204,84.8v0.5c-8.8-47.1-50.2-82.8-99.9-82.8
	C48,2.5,2.5,48,2.5,104.1c0,56.1,45.5,101.6,101.6,101.6c51.5,0,94.1-38.3,100.7-88l13.6-7.9L232.9,101.5z"/>
<polygon fill="#1971B0" points="104.1,118.7 126.7,118.7 115.4,138.3 104.1,157.8 92.8,138.3 81.5,118.7 "/>
<polygon fill="#1971B0" points="104.1,100.2 81.5,100.2 92.8,80.6 104.1,61 115.4,80.6 126.7,100.2 "/>
</svg>
