<?xml version="1.0" encoding="iso-8859-1"?>
<!-- Generator: Adobe Illustrator 13.0.0, SVG Export Plug-In  -->
<!DOCTYPE svg [
	<!ENTITY ns_flows "http://ns.adobe.com/Flows/1.0/">
]>
<svg version="1.2" baseProfile="tiny"
	 xmlns="http://www.w3.org/2000/svg" xmlns:xlink="http://www.w3.org/1999/xlink" xmlns:a="http://ns.adobe.com/AdobeSVGViewerExtensions/3.0/"
	 x="0px" y="0px" width="96px" height="134px" viewBox="-0.9 -0.2 96 134" xml:space="preserve">
<defs>
</defs>
<path fill="#D6D5D5" d="M93.3,74.9c0,4.6-3.7,8.3-8.3,8.3l-57.1,0.1c20.7-8.9,21.4-38.1,13.9-47.2L84.9,36c4.6,0,8.3,3.7,8.3,8.3
	L93.3,74.9z"/>
<path fill="#D6D5D5" d="M27.9,83.3c-6.2,0-12.1-2-17.1-5.6C6,74.1,2.4,69.1,0.6,63.4c-1.1-3.3,0.8-6.8,4.1-7.9
	c3.3-1.1,6.8,0.8,7.9,4.1c2.1,6.7,8.3,11.2,15.3,11.2c8.9,0,16.1-7.2,16.1-16.1c0-3.5,2.8-6.3,6.3-6.3s6.3,2.8,6.3,6.3
	C56.6,70.5,43.7,83.3,27.9,83.3"/>
<path fill="#D6D5D5" d="M50.3,61c-3.5,0-6.3-2.8-6.3-6.3c0-8.9-7.2-16.1-16.1-16.1c-7.1,0-13.2,4.5-15.4,11.1
	c-0.1,0.2-0.1,0.5-0.2,0.7c-0.9,3.4-4.3,5.3-7.7,4.5c-3.4-0.9-5.3-4.3-4.5-7.7c0.1-0.4,0.2-0.9,0.4-1.3C2.4,40.2,6,35.2,10.8,31.6
	c5-3.7,10.9-5.6,17.1-5.6c15.8,0,28.6,12.9,28.6,28.7C56.6,58.1,53.7,61,50.3,61"/>
<path fill="#D6D5D5" d="M58.4,50.6c-3.5,0-6.3-2.8-6.3-6.3c0-10.2-3.9-25-14.8-32.9c-2.8-2-3.4-6-1.4-8.8c2-2.8,6-3.4,8.8-1.4
	c6.8,4.9,12.2,12.2,15.7,21c2.8,7,4.3,14.8,4.3,22.1C64.7,47.7,61.9,50.6,58.4,50.6"/>
<path fill="#D6D5D5" d="M72.6,50.6c-3.5,0-6.3-2.8-6.3-6.3c0-14.1-3.3-25.6-9.8-34.2c-2.1-2.8-1.6-6.7,1.2-8.8
	c2.8-2.1,6.7-1.6,8.8,1.2c4.6,6,8,13.2,10,21.4c1.6,6.3,2.4,13.1,2.4,20.4C78.9,47.7,76.1,50.6,72.6,50.6"/>
<path fill="#D6D5D5" d="M87,50.6c-3.5,0-6.3-2.8-6.3-6.3c0-12.6-2.3-24.9-5.8-31.5c-1.6-3.1-0.5-6.9,2.5-8.5
	c3.1-1.7,6.9-0.5,8.5,2.5c6.8,12.6,7.3,31.8,7.3,37.4C93.3,47.7,90.5,50.6,87,50.6"/>
<rect x="44.5" y="80.2" fill="#D6D5D5" width="44.2" height="29.7"/>
<rect x="24" y="95.8" fill="#1972B1" width="70.2" height="37.2"/>
</svg>
