<?xml version="1.0" encoding="iso-8859-1"?>
<!-- Generator: Adobe Illustrator 13.0.0, SVG Export Plug-In  -->
<!DOCTYPE svg [
	<!ENTITY ns_flows "http://ns.adobe.com/Flows/1.0/">
]>
<svg version="1.2" baseProfile="tiny"
	 xmlns="http://www.w3.org/2000/svg" xmlns:xlink="http://www.w3.org/1999/xlink" xmlns:a="http://ns.adobe.com/AdobeSVGViewerExtensions/3.0/"
	 x="0px" y="0px" width="89px" height="79px" viewBox="-0.6 -0.4 89 79" xml:space="preserve">
<defs>
</defs>
<path fill="#1972B0" d="M21.2,1.1H3.4C1.5,1.1,0,2.6,0,4.5v69C0,75.4,1.5,77,3.4,77h17.7c1.9,0,3.4-1.5,3.4-3.4v-69
	C24.6,2.6,23.1,1.1,21.2,1.1 M18.3,44.1h-12c-0.4,0-0.7-0.3-0.7-0.7V9.7C5.6,9.3,5.9,9,6.3,9h12C18.7,9,19,9.3,19,9.7v33.7
	C19,43.8,18.7,44.1,18.3,44.1 M18.7,64.9c0,3.5-2.8,6.4-6.4,6.4c-3.5,0-6.3-2.8-6.3-6.4s2.8-6.4,6.3-6.4
	C15.8,58.6,18.7,61.4,18.7,64.9"/>
<path fill="#1972B0" d="M47.2,1.1H29.4c-1.9,0-3.4,1.5-3.4,3.4v69c0,1.9,1.5,3.4,3.4,3.4h17.7c1.9,0,3.4-1.5,3.4-3.4v-69
	C50.6,2.6,49.1,1.1,47.2,1.1 M44.3,44.1h-12c-0.4,0-0.7-0.3-0.7-0.7V9.7c0-0.4,0.3-0.7,0.7-0.7h12C44.7,9,45,9.3,45,9.7v33.7
	C45,43.8,44.7,44.1,44.3,44.1 M44.7,64.9c0,3.5-2.8,6.4-6.4,6.4c-3.5,0-6.3-2.8-6.3-6.4s2.8-6.4,6.3-6.4
	C41.8,58.6,44.7,61.4,44.7,64.9"/>
<path fill="#1972B0" d="M68.6,0.1L51.3,4c-1.9,0.4-3,2.3-2.6,4.1l15.1,67.3c0.4,1.8,2.2,3,4.1,2.6l17.3-3.9c1.9-0.4,3-2.3,2.6-4.1
	L72.7,2.7C72.3,0.8,70.5-0.3,68.6,0.1 M75.3,42.7l-11.8,2.6c-0.4,0.1-0.8-0.2-0.9-0.5l-7.4-32.9c-0.1-0.4,0.2-0.8,0.5-0.9l11.8-2.6
	c0.4-0.1,0.8,0.2,0.9,0.5l7.4,32.9C75.9,42.2,75.7,42.6,75.3,42.7 M80.2,62.9c0.8,3.4-1.4,6.8-4.8,7.6c-3.4,0.8-6.8-1.4-7.6-4.8
	c-0.8-3.4,1.4-6.8,4.8-7.6C76,57.3,79.4,59.5,80.2,62.9"/>
</svg>
