<?xml version="1.0" encoding="iso-8859-1"?>
<!-- Generator: Adobe Illustrator 13.0.0, SVG Export Plug-In  -->
<!DOCTYPE svg PUBLIC "-//W3C//DTD SVG 1.1 Tiny//EN" "http://www.w3.org/Graphics/SVG/1.1/DTD/svg11-tiny.dtd" [
	<!ENTITY ns_flows "http://ns.adobe.com/Flows/1.0/">
]>
<svg version="1.1" baseProfile="tiny"
	 xmlns="http://www.w3.org/2000/svg" xmlns:xlink="http://www.w3.org/1999/xlink" xmlns:a="http://ns.adobe.com/AdobeSVGViewerExtensions/3.0/"
	 x="0px" y="0px" width="115px" height="123px" viewBox="-0.1 -1 115 123" xml:space="preserve">
<defs>
</defs>
<path fill="#1972B1" d="M34.9,1.8c-0.9-0.5-1.9-0.4-2.9,0.3C31,2.9,30.9,3.6,31.6,5c0.4,0.8-0.8,1.8-1.8,2.1l4.8,3.3
	c1-1.1,2.9-3.1,2.4-5.1C37,5.1,37.1,5,36.9,4.9c-0.2-0.1-0.9,0.6-1.4-0.4c-0.3-0.5,0.9-0.9,0.8-1C36.2,3.3,36,3.1,36,3.1l0.5-0.4
	C36.5,2.7,35.8,2.2,34.9,1.8"/>
<path fill="#1972B1" d="M34.4,2.7c0.1,0.1,0.2,0.3,0.1,0.4c-0.1,0.1-0.3,0.2-0.4,0.1c-0.1-0.1-0.2-0.3-0.1-0.4
	C34.1,2.7,34.2,2.6,34.4,2.7"/>
<path fill="#1972B1" d="M30.8,3.3c-0.3-0.4-0.1-1.1,0.4-1.3c0.5-0.2,0.8-0.6,0.6-0.7c0.6,0,0.8,0.7,0.7,1.1c-0.2,0.5-1,1.1-1.2,1.2
	c0.2,0.2,0.5,1.2,0.3,1.4C30.9,4.9,30.3,3.8,30.8,3.3"/>
<path fill="#1972B1" d="M34.6,10.4c-2.6,4.6-1.9,11.8,2.7,19.2c-4.7,0.4-9.9,0.9-12.8,1.1c-2.1-8.3-5.1-19.7,5.3-23.6
	C30.6,7.7,33.2,9.5,34.6,10.4"/>
<path fill="#1972B1" d="M6.1,34.7l-1,0.7c-0.2-0.1-0.9,0.1-1.1,0.4c-0.2,0.3-0.7,0.3-0.5-0.3c0.2-0.6,1.1-1,1.5-0.9
	c-0.1-0.1-0.1-0.2-0.1-0.2l0.8-0.5L6.1,34.7z"/>
<path fill="#1972B1" d="M31.3,30.1c-0.8,13.7-17.9,20.4-26.1,5.6c0.2-0.1,0.8-0.6,1-0.7c8.1,11.9,18.8,5.1,18.2-4.3
	C24.3,26.7,31.6,26.1,31.3,30.1"/>
<path fill="#1972B1" d="M54.9,40.7c0.2,0,0.7-0.3,0.9-0.7c0.2-0.3,0.8-0.4,0.5,0.2c-0.3,0.7-0.8,1.3-1.2,1.3
	c0.1,0.1,0.2,0.2,0.2,0.2l-0.6,0.7l-0.7-0.7L54.9,40.7z"/>
<path fill="#1972B1" d="M32.7,27.9c7.9,1.2,18,6.8,21.9,12.4c-0.2,0.3,0,0-0.8,1c-4.3-5.1-15.8-9.6-27.2-10.9
	C22.6,29.9,28.7,27.3,32.7,27.9"/>
<path fill="#1972B1" d="M9.3,15.6c0,0.1,0.2,0.2,0.3,0.2c0.1,0,0.2-0.2,0.2-0.3l-0.3-0.9c0-0.1-0.2-0.2-0.3-0.2
	c-0.1,0-0.2,0.2-0.2,0.3L9.3,15.6z"/>
<path fill="#1972B1" d="M9.4,15.8c0.1-0.2,0-0.4-0.1-0.5l-2.2-1.2c-0.2-0.1-0.4,0-0.5,0.1c-0.1,0.2,0,0.4,0.1,0.5L8.9,16
	C9.1,16.1,9.3,16,9.4,15.8"/>
<path fill="#1972B1" d="M9.1,17.8l-0.4-0.2l0.7-1.3c0,0,0-0.1,0-0.1c0-0.1-0.1-0.1-0.1-0.1l-2.8-1.5c-0.1,0-0.2,0-0.3,0.1l-0.7,1.3
	l-0.4-0.2l0.7-1.3c0.2-0.3,0.5-0.4,0.9-0.2l2.8,1.5c0.1,0.1,0.3,0.2,0.3,0.4c0.1,0.2,0.1,0.3,0,0.5L9.1,17.8z"/>
<path fill="#1972B1" d="M0.1,19.2c-0.2,0.4-0.1,1,0.3,1.2l7.1,3.9c0.4,0.2,1,0.1,1.2-0.3l2.6-4.6c0.2-0.4,0.1-1-0.3-1.2l-7.1-3.9
	c-0.4-0.2-1-0.1-1.2,0.3L0.1,19.2z"/>
<path fill="#1972B1" d="M3.9,14.2l7.1,3.9c0.4,0.2,0.6,0.8,0.3,1.2l-1.1,1.9l-8.6-4.8l1.1-1.9C2.9,14.2,3.4,14,3.9,14.2"/>
<path fill="#1972B1" d="M6.3,18.2c0.3,0.2,0.4,0.5,0.2,0.8l-0.3,0.5c-0.2,0.3-0.5,0.4-0.8,0.2C5.1,19.6,5,19.3,5.2,19l0.3-0.5
	C5.6,18.2,6,18.1,6.3,18.2"/>
<path fill="#1972B1" d="M5.8,18.8c0.1-0.1,0.2-0.2,0.3-0.1c0.1,0.1,0.2,0.2,0.1,0.3c0,0.1-0.1,0.1-0.2,0.1l-0.1,0.2
	c0,0.1-0.1,0.1-0.2,0c-0.1,0-0.1-0.1,0-0.2L5.8,19C5.7,18.9,5.7,18.8,5.8,18.8"/>
<path fill="#1972B1" d="M6.6,15.1c-0.1,0.1,0,0.3,0.1,0.4c0.1,0.1,0.3,0,0.4-0.1l0.4-0.7c0.1-0.1,0-0.3-0.1-0.3
	c-0.1-0.1-0.3,0-0.4,0.1L6.6,15.1z"/>
<path fill="#1972B1" d="M7.4,13.7c0.1-0.1,0.3-0.2,0.4-0.1l1.6,0.9c0.1,0.1,0.2,0.3,0.1,0.4l-0.6,1C8.9,16,8.7,16,8.5,16L7,15.1
	c-0.1-0.1-0.2-0.3-0.1-0.4L7.4,13.7z"/>
<path fill="#1972B1" d="M8.3,16c-0.1,0.1,0,0.3,0.1,0.4c0.1,0.1,0.3,0,0.4-0.1l0.4-0.7c0.1-0.1,0-0.3-0.1-0.4
	c-0.1-0.1-0.3,0-0.4,0.1L8.3,16z"/>
<path fill="#1972B1" d="M7.7,15.7c-0.1,0.1,0,0.3,0.1,0.4c0.1,0.1,0.3,0,0.4-0.1l0.4-0.7c0.1-0.1,0-0.3-0.1-0.3
	c-0.1-0.1-0.3,0-0.3,0.1L7.7,15.7z"/>
<path fill="#1972B1" d="M7.2,15.4c-0.1,0.1,0,0.3,0.1,0.4c0.1,0.1,0.3,0,0.3-0.1L8,15c0.1-0.1,0-0.3-0.1-0.4c-0.1-0.1-0.3,0-0.3,0.1
	L7.2,15.4z"/>
<path fill="#1972B1" d="M29.8,7.1c-6.8-1.4-17.4-3.3-22,6.4l1.6,0.9c4.3-7.7,12.5-3.7,18.7-3C30.3,11.7,30.6,8.4,29.8,7.1"/>
<path fill="#1972B1" d="M32.2,14.2C46.4,20,54.6,10,43,1.6l-1.3,1.2c7.1,5.7,5,13.8-7.1,7.6C31.1,8.6,29,12.9,32.2,14.2"/>
<path fill="#1972B1" d="M43.1,1.3c0.1,0.1,0.1,0.3,0,0.4l-1.3,1.2c-0.1,0.1-0.3,0.1-0.4,0l-0.8-0.8c-0.1-0.1-0.1-0.3,0-0.4l1.3-1.2
	c0.1-0.1,0.3-0.1,0.4,0L43.1,1.3z"/>
<path fill="#1972B1" d="M40.6,2.5c-0.1,0-0.3,0.1-0.3,0.2c0,0.1,0.1,0.3,0.2,0.3l0.9,0c0.1,0,0.3-0.1,0.3-0.2c0-0.1-0.1-0.3-0.2-0.3
	L40.6,2.5z"/>
<path fill="#1972B1" d="M42,0.1c-0.1-0.1-0.3-0.1-0.4,0c-0.1,0.1-0.1,0.3,0,0.4l0.3,0.3c0.1,0.1,0.3,0.1,0.4,0
	c0.1-0.1,0.1-0.3,0-0.4L42,0.1z"/>
<path fill="#1972B1" d="M40.6,1.4c-0.1-0.1-0.3-0.1-0.4,0c-0.1,0.1-0.1,0.3,0,0.4l0.3,0.3c0.1,0.1,0.3,0.1,0.4,0
	C41,2,41,1.8,40.9,1.7L40.6,1.4z"/>
<path fill="#1972B1" d="M41,0.9c-0.1-0.1-0.3-0.1-0.4,0c-0.1,0.1-0.1,0.3,0,0.4L41,1.6c0.1,0.1,0.3,0.1,0.4,0c0.1-0.1,0.1-0.3,0-0.4
	L41,0.9z"/>
<path fill="#1972B1" d="M41.5,0.5c-0.1-0.1-0.3-0.1-0.4,0c-0.1,0.1-0.1,0.3,0,0.4l0.3,0.3c0.1,0.1,0.3,0.1,0.4,0
	c0.1-0.1,0.1-0.3,0-0.4L41.5,0.5z"/>
<path fill="#1972B1" d="M40.4,2.5c-0.1,0.1-0.1,0.3,0,0.4c0.1,0.1,0.3,0.1,0.4,0l0.5-0.5c0.1-0.1,0.1-0.3,0-0.4
	c-0.1-0.1-0.3-0.1-0.4,0L40.4,2.5z"/>
<path fill="#1972B1" d="M32.9,10.6c0.4-0.6,1-0.2,0.8,0.4c-1.4,3.1-4.8,4.4-8.7,5.1c-0.6-0.6-1.6-1.5-1.6-1.5s1.1-1.1,1.6-1.5
	C28.8,13.1,31.7,12.6,32.9,10.6"/>
<polygon fill="#1972B1" points="33.4,9.6 34.3,10.2 33.9,11.3 32.5,10.6 "/>
<rect x="2" y="57.8" fill="#1972B1" width="22.7" height="63.7"/>
<rect x="91.7" y="38.1" fill="#1972B1" width="22.7" height="83.5"/>
<rect x="48.1" y="46.6" fill="#1972B1" width="22.7" height="74.9"/>
</svg>
