<?xml version="1.0" encoding="iso-8859-1"?>
<!-- Generator: Adobe Illustrator 13.0.0, SVG Export Plug-In  -->
<!DOCTYPE svg [
	<!ENTITY ns_flows "http://ns.adobe.com/Flows/1.0/">
]>
<svg version="1.2" baseProfile="tiny"
	 xmlns="http://www.w3.org/2000/svg" xmlns:xlink="http://www.w3.org/1999/xlink" xmlns:a="http://ns.adobe.com/AdobeSVGViewerExtensions/3.0/"
	 x="0px" y="0px" width="126px" height="137px" viewBox="-0.2 -0.9 126 137" xml:space="preserve">
<defs>
</defs>
<path fill="#1972B1" d="M119.2,76.7H20.2c1.6-12.6,13.3-12.8,25.7-13c8.8-0.1,17.8-0.3,22.5-5.5c2.6-2.9,3.7-7.2,3.2-12.9l-0.9,0.1
	c0.5,5.5-0.5,9.5-3,12.2c-4.4,4.9-13.3,5-21.9,5.2c-12.3,0.2-25,0.4-26.6,13.9H5.9c-3.2,0-5.9,2.6-5.9,5.9v46.9
	c0,3.2,2.6,5.9,5.9,5.9h113.4c3.2,0,5.9-2.6,5.9-5.9V82.5C125.1,79.3,122.5,76.7,119.2,76.7 M106.9,86.4c0-1.1,0.9-2.1,2.1-2.1h8.2
	c1.1,0,2.1,0.9,2.1,2.1v8.2c0,1.1-0.9,2.1-2.1,2.1h-8.2c-1.1,0-2.1-0.9-2.1-2.1V86.4z M92.7,86.4c0-1.1,0.9-2.1,2.1-2.1h8.2
	c1.1,0,2.1,0.9,2.1,2.1v8.2c0,1.1-0.9,2.1-2.1,2.1h-8.2c-1.1,0-2.1-0.9-2.1-2.1V86.4z M77.3,86.4c0-1.1,0.9-2.1,2.1-2.1h8.2
	c1.1,0,2.1,0.9,2.1,2.1v8.2c0,1.1-0.9,2.1-2.1,2.1h-8.2c-1.1,0-2.1-0.9-2.1-2.1V86.4z M63.2,86.4c0-1.1,0.9-2.1,2.1-2.1h8.2
	c1.1,0,2.1,0.9,2.1,2.1v8.2c0,1.1-0.9,2.1-2.1,2.1h-8.2c-1.1,0-2.1-0.9-2.1-2.1V86.4z M49.1,86.4c0-1.1,0.9-2.1,2.1-2.1h8.2
	c1.1,0,2.1,0.9,2.1,2.1v8.2c0,1.1-0.9,2.1-2.1,2.1h-8.2c-1.1,0-2.1-0.9-2.1-2.1V86.4z M49.1,101.1c0-1.1,0.9-2.1,2.1-2.1h8.2
	c1.1,0,2.1,0.9,2.1,2.1v8.2c0,1.1-0.9,2.1-2.1,2.1h-8.2c-1.1,0-2.1-0.9-2.1-2.1V101.1z M35,86.4c0-1.1,0.9-2.1,2.1-2.1h8.2
	c1.1,0,2.1,0.9,2.1,2.1v8.2c0,1.1-0.9,2.1-2.1,2.1h-8.2c-1.1,0-2.1-0.9-2.1-2.1V86.4z M35,101.1c0-1.1,0.9-2.1,2.1-2.1h8.2
	c1.1,0,2.1,0.9,2.1,2.1v8.2c0,1.1-0.9,2.1-2.1,2.1h-8.2c-1.1,0-2.1-0.9-2.1-2.1V101.1z M20.9,86.4c0-1.1,0.9-2.1,2.1-2.1h8.2
	c1.1,0,2.1,0.9,2.1,2.1v8.2c0,1.1-0.9,2.1-2.1,2.1H23c-1.1,0-2.1-0.9-2.1-2.1V86.4z M20.9,101.1c0-1.1,0.9-2.1,2.1-2.1h8.2
	c1.1,0,2.1,0.9,2.1,2.1v8.2c0,1.1-0.9,2.1-2.1,2.1H23c-1.1,0-2.1-0.9-2.1-2.1V101.1z M6.8,86.4c0-1.1,0.9-2.1,2.1-2.1h8.2
	c1.1,0,2.1,0.9,2.1,2.1v8.2c0,1.1-0.9,2.1-2.1,2.1H8.8c-1.1,0-2.1-0.9-2.1-2.1V86.4z M6.8,101.1c0-1.1,0.9-2.1,2.1-2.1h8.2
	c1.1,0,2.1,0.9,2.1,2.1v8.2c0,1.1-0.9,2.1-2.1,2.1H8.8c-1.1,0-2.1-0.9-2.1-2.1V101.1z M64.7,123.7c0,1-0.8,1.8-1.8,1.8H8.6
	c-1,0-1.8-0.8-1.8-1.8v-7.3c0-1,0.8-1.8,1.8-1.8h54.2c1,0,1.8,0.8,1.8,1.8V123.7z M63.2,109.4v-8.2c0-1.1,0.9-2.1,2.1-2.1h8.2
	c1.1,0,2.1,0.9,2.1,2.1v8.2c0,1.1-0.9,2.1-2.1,2.1h-8.2C64.1,111.4,63.2,110.5,63.2,109.4 M78.7,123.9c0,1.1-0.9,1.9-1.9,1.9h-7.7
	c-1.1,0-1.9-0.9-1.9-1.9v-7.7c0-1.1,0.9-1.9,1.9-1.9h7.7c1.1,0,1.9,0.9,1.9,1.9V123.9z M77.3,109.4v-8.2c0-1.1,0.9-2.1,2.1-2.1h8.2
	c1.1,0,2.1,0.9,2.1,2.1v8.2c0,1.1-0.9,2.1-2.1,2.1h-8.2C78.3,111.4,77.3,110.5,77.3,109.4 M92,123.9c0,1.1-0.9,1.9-1.9,1.9h-7.7
	c-1.1,0-1.9-0.9-1.9-1.9v-7.7c0-1.1,0.9-1.9,1.9-1.9H90c1.1,0,1.9,0.9,1.9,1.9V123.9z M105.2,123.9c0,1.1-0.9,1.9-1.9,1.9h-7.7
	c-1.1,0-1.9-0.9-1.9-1.9v-7.7c0-1.1,0.9-1.9,1.9-1.9h7.7c1.1,0,1.9,0.9,1.9,1.9V123.9z M118.4,123.9c0,1.1-0.9,1.9-1.9,1.9h-7.7
	c-1.1,0-1.9-0.9-1.9-1.9v-7.7c0-1.1,0.9-1.9,1.9-1.9h7.7c1.1,0,1.9,0.9,1.9,1.9V123.9z M119.6,109.4c0,1.1-0.9,1.9-1.9,1.9H94.2
	c-1.1,0-1.9-0.9-1.9-1.9v-7.6c0-1.1,0.9-1.9,1.9-1.9h23.4c1.1,0,1.9,0.8,1.9,1.9V109.4z"/>
<path fill="#1972B1" d="M42.3,35.9h55.8V0H42.3V35.9z M94.7,33.8H45.6V2.1h49.1V33.8z"/>
<rect x="68.8" y="35.4" fill="#1972B1" width="2.7" height="8.6"/>
<rect x="61.1" y="43.4" fill="#1972B1" width="18.2" height="1.6"/>
</svg>
