<?xml version="1.0" encoding="iso-8859-1"?>
<!-- Generator: Adobe Illustrator 13.0.0, SVG Export Plug-In  -->
<!DOCTYPE svg [
	<!ENTITY ns_flows "http://ns.adobe.com/Flows/1.0/">
]>
<svg version="1.2" baseProfile="tiny"
	 xmlns="http://www.w3.org/2000/svg" xmlns:xlink="http://www.w3.org/1999/xlink" xmlns:a="http://ns.adobe.com/AdobeSVGViewerExtensions/3.0/"
	 x="0px" y="0px" width="118px" height="118px" viewBox="-0.1 -0.4 118 118" xml:space="preserve">
<defs>
</defs>
<path fill="#1972B1" d="M106.6,28.7L88.4,10.5L13.3,85.7L0.2,114.3c-0.4,0.9-0.2,1.9,0.5,2.5c0.4,0.4,1,0.6,1.5,0.6
	c0.3,0,0.6-0.1,1-0.2l28.2-13.4L106.6,28.7z"/>
<path fill="#1972B1" d="M113.3,3.8c-2.5-2.5-5.8-3.8-9.1-3.8c-3.3,0-6.6,1.3-9.1,3.8L93,5.9l18.2,18.2l2.1-2.1
	C118.3,16.9,118.3,8.8,113.3,3.8"/>
</svg>
