<?xml version="1.0" encoding="iso-8859-1"?>
<!-- Generator: Adobe Illustrator 13.0.0, SVG Export Plug-In  -->
<!DOCTYPE svg PUBLIC "-//W3C//DTD SVG 1.1 Tiny//EN" "http://www.w3.org/Graphics/SVG/1.1/DTD/svg11-tiny.dtd" [
	<!ENTITY ns_flows "http://ns.adobe.com/Flows/1.0/">
]>
<svg version="1.1" baseProfile="tiny"
	 xmlns="http://www.w3.org/2000/svg" xmlns:xlink="http://www.w3.org/1999/xlink" xmlns:a="http://ns.adobe.com/AdobeSVGViewerExtensions/3.0/"
	 x="0px" y="0px" width="128px" height="100px" viewBox="-0.9 -0.7 128 100" xml:space="preserve">
<defs>
</defs>
<path fill="#1972B1" d="M78.5,4c-1.9-1-4.3-1-6.4,0.7c-2.4,1.9-2.7,3.4-1.1,6.6c0.9,1.8-1.7,4.1-4,4.8l10.9,7.4
	c2.3-2.6,6.5-6.9,5.3-11.4c-0.2-0.6,0.1-0.9-0.3-1.1c-0.5-0.2-2.1,1.2-3.1-1c-0.6-1.2,2.1-2.1,1.9-2.3c-0.2-0.2-0.8-0.8-0.8-0.8
	L82,6C82,6,80.5,5,78.5,4"/>
<path fill="#1972B1" d="M77.2,6.1c0.3,0.2,0.3,0.6,0.1,0.9c-0.2,0.3-0.6,0.3-0.8,0.1c-0.3-0.2-0.3-0.6-0.1-0.8
	C76.6,6,77,5.9,77.2,6.1"/>
<path fill="#1972B1" d="M69.3,7.4c-0.6-1-0.1-2.4,1-2.8c1.1-0.4,1.7-1.3,1.3-1.6c1.2,0.1,1.9,1.5,1.5,2.5c-0.4,1-2.3,2.5-2.7,2.8
	c0.5,0.3,1.2,2.7,0.6,3.1C69.6,11,68,8.5,69.3,7.4"/>
<path fill="#1972B1" d="M77.9,23.5c-5.7,10.3-4.4,26.5,6.1,43.1c-10.5,0.9-22.2,1.9-28.8,2.5C50.3,50.4,43.7,24.8,67,16
	C68.8,17.3,74.6,21.3,77.9,23.5"/>
<path fill="#1972B1" d="M13.7,77.9l-2.3,1.6C11,79.3,9.4,79.7,9,80.4C8.7,81.1,7.4,81,8,79.7c0.6-1.3,2.6-2.2,3.4-2
	c-0.1-0.2-0.3-0.5-0.3-0.5l1.7-1.2L13.7,77.9z"/>
<path fill="#1972B1" d="M70.5,67.7c-1.8,30.8-40.3,46-58.7,12.6c0.5-0.3,1.8-1.2,2.3-1.6c18.1,26.7,42.2,11.4,41-9.7
	C54.6,60,71,58.7,70.5,67.7"/>
<path fill="#1972B1" d="M123.4,91.4c0.5,0.1,1.6-0.7,2.1-1.6c0.4-0.7,1.7-1,1.2,0.4c-0.6,1.7-1.8,2.9-2.7,2.9
	c0.2,0.2,0.4,0.4,0.4,0.4l-1.3,1.6l-1.5-1.5L123.4,91.4z"/>
<path fill="#1972B1" d="M73.5,62.8c17.7,2.8,40.5,15.2,49.1,28c-0.5,0.6,0,0-1.8,2.2c-9.7-11.6-35.5-21.5-61.1-24.6
	C50.7,67.3,64.5,61.4,73.5,62.8"/>
<path fill="#1972B1" d="M20.9,35.1c0.1,0.3,0.4,0.5,0.7,0.4c0.3-0.1,0.5-0.4,0.4-0.7l-0.6-2c-0.1-0.3-0.4-0.5-0.7-0.4
	c-0.3,0.1-0.5,0.4-0.4,0.7L20.9,35.1z"/>
<path fill="#1972B1" d="M21.2,35.6c0.2-0.4,0.1-0.9-0.3-1.1l-4.8-2.7c-0.4-0.2-0.9-0.1-1.1,0.3c-0.2,0.4-0.1,0.9,0.3,1.1l4.8,2.7
	C20.5,36.1,21,35.9,21.2,35.6"/>
<path fill="#1972B1" d="M20.4,40.1l-0.9-0.5l1.7-3c0.1-0.1,0-0.2,0-0.3c-0.1-0.1-0.2-0.2-0.3-0.3l-6.2-3.5c-0.2-0.1-0.5-0.1-0.6,0.1
	l-1.7,3l-0.9-0.5l1.7-3c0.4-0.7,1.2-0.9,1.9-0.5l6.2,3.5c0.3,0.2,0.6,0.5,0.7,0.8c0.2,0.4,0.1,0.8-0.1,1.1L20.4,40.1z"/>
<path fill="#1972B1" d="M0.3,43.1c-0.5,1-0.2,2.2,0.8,2.7l15.9,8.9c1,0.5,2.2,0.2,2.7-0.8l5.8-10.3c0.5-1,0.2-2.2-0.8-2.7L8.7,32
	c-1-0.5-2.2-0.2-2.7,0.8L0.3,43.1z"/>
<path fill="#1972B1" d="M8.7,32l15.9,8.9c1,0.5,1.3,1.7,0.8,2.7L23,47.8L3.6,37.1L6,32.8C6.5,31.8,7.8,31.5,8.7,32"/>
<path fill="#1972B1" d="M14.2,41c0.7,0.4,0.9,1.2,0.5,1.9L14.1,44c-0.4,0.7-1.2,0.9-1.9,0.5c-0.7-0.4-0.9-1.2-0.5-1.9l0.6-1.1
	C12.7,40.8,13.5,40.6,14.2,41"/>
<path fill="#1972B1" d="M12.9,42.1c0.1-0.3,0.5-0.4,0.7-0.2c0.3,0.1,0.4,0.5,0.2,0.7c-0.1,0.2-0.3,0.3-0.5,0.3l-0.3,0.5
	c-0.1,0.1-0.2,0.2-0.4,0.1c-0.1-0.1-0.2-0.2-0.1-0.4l0.3-0.5C12.8,42.5,12.8,42.3,12.9,42.1"/>
<path fill="#1972B1" d="M14.9,33.9c-0.2,0.3,0,0.6,0.2,0.8c0.3,0.2,0.6,0,0.8-0.2l0.8-1.5c0.2-0.3,0.1-0.6-0.2-0.8
	c-0.3-0.2-0.6-0.1-0.8,0.2L14.9,33.9z"/>
<path fill="#1972B1" d="M16.6,30.7c0.2-0.3,0.6-0.4,0.9-0.3l3.5,2c0.3,0.2,0.5,0.6,0.3,0.9l-1.2,2.2c-0.2,0.3-0.6,0.5-0.9,0.3
	l-3.5-2c-0.3-0.2-0.5-0.6-0.3-0.9L16.6,30.7z"/>
<path fill="#1972B1" d="M18.6,36c-0.2,0.3-0.1,0.6,0.2,0.8c0.3,0.2,0.6,0.1,0.8-0.2l0.8-1.5c0.2-0.3,0.1-0.6-0.2-0.8
	c-0.3-0.2-0.6-0.1-0.8,0.2L18.6,36z"/>
<path fill="#1972B1" d="M17.3,35.3c-0.2,0.3-0.1,0.6,0.2,0.8c0.3,0.2,0.6,0.1,0.8-0.2l0.8-1.5c0.2-0.3,0.1-0.6-0.2-0.8
	c-0.3-0.2-0.6-0.1-0.8,0.2L17.3,35.3z"/>
<path fill="#1972B1" d="M16.1,34.6c-0.2,0.3-0.1,0.6,0.2,0.8c0.3,0.2,0.6,0.1,0.8-0.2l0.8-1.5c0.2-0.3,0.1-0.6-0.2-0.8
	c-0.3-0.2-0.6-0.1-0.8,0.2L16.1,34.6z"/>
<path fill="#1972B1" d="M67,16c-15.3-3.2-39.1-7.4-49.4,14.4l3.5,2c9.7-17.3,28.2-8.4,42.1-6.7C68.2,26.3,68.8,18.9,67,16"/>
<path fill="#1972B1" d="M72.4,32c31.9,12.9,50.3-9.6,24.3-28.3l-3,2.7c16,12.8,11.1,31-15.9,17.1C69.9,19.4,65.3,29.1,72.4,32"/>
<path fill="#1972B1" d="M96.8,2.9c0.3,0.3,0.2,0.7,0,1l-3,2.7c-0.3,0.3-0.7,0.2-1,0l-1.7-1.9c-0.3-0.3-0.2-0.7,0-1l3-2.7
	c0.3-0.3,0.7-0.2,1,0L96.8,2.9z"/>
<path fill="#1972B1" d="M91.3,5.5c-0.3,0-0.6,0.2-0.6,0.6c0,0.3,0.2,0.6,0.6,0.6l2.1,0.1c0.3,0,0.6-0.2,0.6-0.6
	c0-0.3-0.2-0.6-0.6-0.6L91.3,5.5z"/>
<path fill="#1972B1" d="M94.3,0.2c-0.2-0.2-0.6-0.3-0.8,0c-0.2,0.2-0.2,0.6,0,0.8l0.7,0.8C94.4,2,94.8,2,95,1.8
	c0.2-0.2,0.3-0.6,0-0.8L94.3,0.2z"/>
<path fill="#1972B1" d="M91.2,3.1c-0.2-0.2-0.6-0.3-0.8,0c-0.2,0.2-0.2,0.6,0,0.8L91,4.6c0.2,0.2,0.6,0.2,0.8,0
	c0.2-0.2,0.3-0.6,0-0.8L91.2,3.1z"/>
<path fill="#1972B1" d="M92.2,2.1c-0.2-0.2-0.6-0.2-0.8,0c-0.2,0.2-0.2,0.6,0,0.8l0.7,0.8c0.2,0.2,0.6,0.2,0.8,0
	c0.2-0.2,0.3-0.6,0-0.8L92.2,2.1z"/>
<path fill="#1972B1" d="M93.3,1.1c-0.2-0.2-0.6-0.3-0.8,0c-0.2,0.2-0.3,0.6,0,0.8l0.7,0.8c0.2,0.2,0.6,0.2,0.8,0
	c0.2-0.2,0.3-0.6,0-0.8L93.3,1.1z"/>
<path fill="#1972B1" d="M90.9,5.7c-0.2,0.2-0.3,0.6,0,0.8c0.2,0.2,0.6,0.2,0.8,0l1.2-1.1c0.2-0.2,0.3-0.6,0-0.8
	c-0.2-0.2-0.6-0.3-0.8,0L90.9,5.7z"/>
<path fill="#1972B1" d="M73.9,23.9c0.8-1.5,2.3-0.4,1.7,1c-3.2,7-10.7,9.8-19.6,11.4c-1.4-1.3-3.5-3.4-3.5-3.4s2.5-2.6,3.5-3.4
	C64.7,29.5,71.4,28.4,73.9,23.9"/>
<polygon fill="#1972B1" points="75,21.6 77,22.9 76.1,25.3 73.2,23.8 "/>
</svg>
