<?xml version="1.0" encoding="iso-8859-1"?>
<!-- Generator: Adobe Illustrator 13.0.0, SVG Export Plug-In  -->
<!DOCTYPE svg [
	<!ENTITY ns_flows "http://ns.adobe.com/Flows/1.0/">
]>
<svg version="1.2" baseProfile="tiny"
	 xmlns="http://www.w3.org/2000/svg" xmlns:xlink="http://www.w3.org/1999/xlink" xmlns:a="http://ns.adobe.com/AdobeSVGViewerExtensions/3.0/"
	 x="0px" y="0px" width="99px" height="148px" viewBox="-0.4 -0.4 99 148" xml:space="preserve">
<defs>
</defs>
<rect x="42.7" y="131.3" fill="#1972B0" width="6.1" height="6.1"/>
<rect x="34.8" y="75.2" fill="#1972B0" width="6.1" height="6.1"/>
<rect x="34.8" y="60.1" fill="#1972B0" width="6.1" height="6.1"/>
<rect x="34.8" y="89.3" fill="#1972B0" width="6.1" height="6.1"/>
<rect x="42.7" y="60.1" fill="#1972B0" width="6.1" height="6.1"/>
<rect x="42.7" y="103.7" fill="#1972B0" width="6.1" height="6.1"/>
<rect x="42.7" y="75.2" fill="#1972B0" width="6.1" height="6.1"/>
<rect x="42.7" y="89.3" fill="#1972B0" width="6.1" height="6.1"/>
<rect x="26.9" y="117.3" fill="#1972B0" width="6.1" height="6.1"/>
<rect x="26.9" y="103.7" fill="#1972B0" width="6.1" height="6.1"/>
<rect x="50.6" y="131.3" fill="#1972B0" width="6.1" height="6.1"/>
<rect x="26.9" y="89.3" fill="#1972B0" width="6.1" height="6.1"/>
<rect x="26.9" y="131.3" fill="#1972B0" width="6.1" height="6.1"/>
<rect x="34.8" y="103.7" fill="#1972B0" width="6.1" height="6.1"/>
<rect x="34.8" y="117.3" fill="#1972B0" width="6.1" height="6.1"/>
<rect x="34.8" y="131.3" fill="#1972B0" width="6.1" height="6.1"/>
<rect x="26.9" y="60.1" fill="#1972B0" width="6.1" height="6.1"/>
<rect x="26.9" y="75.2" fill="#1972B0" width="6.1" height="6.1"/>
<rect x="42.7" y="117.3" fill="#1972B0" width="6.1" height="6.1"/>
<rect x="58.5" y="75.2" fill="#1972B0" width="6.1" height="6.1"/>
<rect x="66.4" y="131.3" fill="#1972B0" width="6.1" height="6.1"/>
<rect x="66.4" y="117.3" fill="#1972B0" width="6.1" height="6.1"/>
<rect x="58.5" y="60.1" fill="#1972B0" width="6.1" height="6.1"/>
<rect x="66.4" y="103.7" fill="#1972B0" width="6.1" height="6.1"/>
<rect x="66.4" y="60.1" fill="#1972B0" width="6.1" height="6.1"/>
<path fill="#1972B0" d="M98.1,22.2H76.3C74.6,9.7,63.8,0,50.9,0c-1.2,0-2.4,0.1-3.6,0.3C46.1,0.1,44.9,0,43.7,0
	c-13,0-23.7,9.7-25.5,22.2H0v125.1h24.5v-90c0-1.2,1-2.2,2.2-2.2h6.7V48c0-0.8,0.6-1.4,1.4-1.4h29.5c0.8,0,1.4,0.6,1.4,1.4v7.2h6.7
	c1.2,0,2.2,1,2.2,2.2v90h23.6V22.2z M25.4,22.2h-4.7C22.2,12.7,29.4,5,38.8,3C31.7,6.8,26.5,13.9,25.4,22.2 M27.9,22.2
	c1.5-10,9.4-17.9,19.3-19.4c10,1.5,17.8,9.4,19.3,19.4H27.9z M69.1,22.2C68,13.9,62.9,6.8,55.7,3c9.3,2,16.6,9.6,18,19.2H69.1z"/>
<rect x="66.4" y="89.3" fill="#1972B0" width="6.1" height="6.1"/>
<rect x="66.4" y="75.2" fill="#1972B0" width="6.1" height="6.1"/>
<rect x="50.6" y="103.7" fill="#1972B0" width="6.1" height="6.1"/>
<rect x="50.6" y="60.1" fill="#1972B0" width="6.1" height="6.1"/>
<rect x="50.6" y="89.3" fill="#1972B0" width="6.1" height="6.1"/>
<rect x="50.6" y="75.2" fill="#1972B0" width="6.1" height="6.1"/>
<rect x="58.5" y="89.3" fill="#1972B0" width="6.1" height="6.1"/>
<rect x="50.6" y="117.3" fill="#1972B0" width="6.1" height="6.1"/>
<rect x="58.5" y="103.7" fill="#1972B0" width="6.1" height="6.1"/>
<rect x="58.5" y="117.3" fill="#1972B0" width="6.1" height="6.1"/>
<rect x="58.5" y="131.3" fill="#1972B0" width="6.1" height="6.1"/>
</svg>
