<?xml version="1.0" encoding="utf-8"?>
<!-- Generator: Adobe Illustrator 13.0.0, SVG Export Plug-In  -->
<!DOCTYPE svg PUBLIC "-//W3C//DTD SVG 1.1//EN" "http://www.w3.org/Graphics/SVG/1.1/DTD/svg11.dtd" [
	<!ENTITY ns_flows "http://ns.adobe.com/Flows/1.0/">
]>
<svg version="1.1"
	 xmlns="http://www.w3.org/2000/svg" xmlns:xlink="http://www.w3.org/1999/xlink" xmlns:a="http://ns.adobe.com/AdobeSVGViewerExtensions/3.0/"
	 x="0px" y="0px" width="415px" height="455px" viewBox="0 0 415 455" enable-background="new 0 0 415 455" xml:space="preserve">
<defs>
</defs>
<path fill="#2E74A6" d="M346.6,101.7c21.6,0,39.1-17.5,39.1-39.1c0-21.7-17.5-39.2-39.1-39.2s-39.1,17.5-39.1,39.2
	C307.5,84.1,325,101.7,346.6,101.7"/>
<path fill="#2E74A6" d="M385.2,117.9h-74.4c6,7.9,9.6,17.6,9.6,28.3v109c0,15.4-7.5,29-19,37.6v75.5c0,12.6,10.2,22.9,22.9,22.9
	c10.9,0,20-7.6,22.3-17.8c2.3,10.2,11.4,17.8,22.3,17.8c12.7,0,22.9-10.2,22.9-22.9V261.8c13.1-3,22.9-14.8,22.9-28.7v-85.7
	C414.7,131.2,401.4,117.9,385.2,117.9"/>
<path fill="#2E74A6" d="M92.9,255.2v-109c0-10.6,3.7-20.4,9.6-28.3h-73C13.3,117.9,0,131.2,0,147.4v85.7c0,14,9.8,25.7,22.9,28.7
	v106.4c0,12.6,10.2,22.9,22.9,22.9c10.9,0,20-7.6,22.3-17.8c2.3,10.2,11.4,17.8,22.3,17.8c12.7,0,22.9-10.2,22.9-22.9v-74.3
	C101,285.4,92.9,271.2,92.9,255.2"/>
<path fill="#2E74A6" d="M68.1,101.7c21.7,0,39.2-17.5,39.2-39.1c0-21.7-17.5-39.2-39.2-39.2C46.5,23.3,29,40.9,29,62.5
	C29,84.1,46.5,101.7,68.1,101.7"/>
<path fill="#2E74A6" d="M263.7,284.7h9.5c16.2,0,29.5-13.3,29.5-29.5v-109c0-16.2-13.3-29.5-29.5-29.5h-37.1l-29.4,81.5l-29.5-81.5
	h-37c-16.2,0-29.5,13.3-29.5,29.5v109c0,16.3,13.3,29.5,29.5,29.5h9.5v17.7v123c0,16.3,13.2,29.5,29.5,29.5
	c12.5,0,23.2-7.9,27.5-18.9c4.3,11.1,14.9,18.9,27.5,18.9c16.3,0,29.5-13.2,29.5-29.5v-123V284.7z"/>
<path fill="#2E74A6" d="M221.2,94.1c19.5-6.2,33.8-24.3,33.8-45.8c0-26.7-21.6-48.3-48.3-48.3s-48.3,21.6-48.3,48.3
	c0,21.6,14.2,39.6,33.7,45.8c4.6,1.5,9.4,2.5,14.5,2.5C211.8,96.6,216.5,95.6,221.2,94.1"/>
</svg>
