<?xml version="1.0" encoding="iso-8859-1"?>
<!-- Generator: Adobe Illustrator 13.0.0, SVG Export Plug-In  -->
<!DOCTYPE svg [
	<!ENTITY ns_flows "http://ns.adobe.com/Flows/1.0/">
]>
<svg version="1.2" baseProfile="tiny"
	 xmlns="http://www.w3.org/2000/svg" xmlns:xlink="http://www.w3.org/1999/xlink" xmlns:a="http://ns.adobe.com/AdobeSVGViewerExtensions/3.0/"
	 x="0px" y="0px" width="164px" height="119px" viewBox="-0.6 0 164 119" xml:space="preserve">
<defs>
</defs>
<path fill="#1972B0" d="M145.9,51.2C145.9,51.2,145.9,51.2,145.9,51.2C145.9,51.2,146,51.2,145.9,51.2
	C146,51.2,145.9,51.2,145.9,51.2"/>
<path fill="#1972B0" d="M100.3,85.4c0-0.2,0,0-0.2,0.2C100.2,85.5,100.3,85.5,100.3,85.4"/>
<path fill="#1972B0" d="M148.3,33.3c0,0,0,0.1-0.1,0.1C148.3,33.4,148.3,33.4,148.3,33.3"/>
<path fill="#1972B0" d="M144.8,38.6C144.8,38.6,144.9,38.6,144.8,38.6c0,0.2,0,0.4,0,0.4S144.9,38.8,144.8,38.6
	C144.9,38.7,144.9,38.7,144.8,38.6C144.9,38.4,144.9,38.5,144.8,38.6"/>
<polygon fill="#1972B0" points="50.9,106.1 50.9,105.9 50.7,105.7 50.7,105.6 50.7,105.4 50.6,105.2 50.5,105 50.3,105.1 
	50.1,105.1 49.9,105 49.7,105 49.5,104.9 49.1,104.9 48.9,104.9 48.6,104.8 48.4,104.8 48.2,104.9 48.1,104.8 48,104.7 47.8,104.6 
	47.6,104.3 47.4,104.2 47.2,104.2 47.2,104 47.1,103.8 46.9,103.7 46.5,103.4 46,103 45.6,102.7 45.5,102.5 45.1,102.3 44.9,102.1 
	45,102.1 44.6,101.9 44.3,101.7 44.1,101.6 43.8,101.6 43.6,101.5 43.3,101.1 43.1,101.1 42.9,101 42.7,101 42.4,100.6 42.3,100.4 
	42.2,100.4 42,100.3 41.8,100.2 41.6,100.3 41.5,100.5 41.3,100.7 41.1,100.8 41.1,101 41,101.4 41.1,101.6 41.1,101.8 40.9,101.9 
	40.6,102.3 40.5,102.5 40.4,102.7 40,102.1 38.6,101.4 38.4,101.2 38.2,101.1 38,101.1 37.8,100.9 37.8,100.7 37.7,100.5 
	37.5,100.4 37.1,100.5 36.9,100.9 36.9,101 36.5,100.9 36.3,101.1 35.9,101.1 35.7,100.9 30.6,83.3 30.1,81.9 30.1,81.8 29.9,81.8 
	29.8,81.8 29.5,81.7 29.4,81.7 29.3,81.7 29,81.5 28.8,81.4 28.6,81.3 28.4,81.3 28.3,81.5 28.1,81.4 27.9,81.4 27.7,81.5 
	27.7,81.7 27.6,81.6 27.3,81.8 27.1,81.9 26.8,81.9 26.8,81.8 26.6,81.8 26.4,81.7 26.2,81.7 26,81.7 25.8,81.7 25.6,81.7 
	25.5,81.8 25.1,81.8 24.9,81.7 24.8,81.6 24.7,81.6 24.6,81.6 24.4,81.7 24.2,81.5 24,81.5 23.9,81.4 23.7,81.5 23.5,81.4 
	23.3,81.5 23.2,81.6 23,81.7 22.9,81.6 22.7,81.6 22.6,81.7 22.4,81.7 22.4,81.9 22.2,81.8 21.8,81.7 21.9,81.5 21.7,81.5 
	21.6,81.6 21.4,81.5 21.6,81.5 21.4,81.3 21.5,81.1 21.4,80.9 21.2,81 21.1,81 20.9,80.9 20.7,81 20.5,81 20.1,81.2 19.9,81.2 
	19.7,81 19.8,80.9 19.7,80.7 19.5,80.6 19.5,80.8 19.3,80.7 19.3,80.8 19.1,81.2 18.9,81.2 18.7,81.1 18.8,81 19,80.9 19.1,80.7 
	19.1,80.5 18.9,80.4 18.7,80.5 18.6,80.3 18.4,80.3 18.5,80.1 18.3,80.2 18.1,80.6 18,80.8 17.8,80.9 17.5,81.3 16.9,81.4 
	16.7,81.4 16.5,81.6 16.5,81.4 16.5,81.2 16.4,81.3 16,81.7 16,81.7 16.1,81.9 16.3,82 16.5,82 16.1,82.1 16.1,82.5 16,82.3 
	15.9,82.3 16,82.2 16,81.8 16,81.8 15.8,81.9 15.4,82.3 15.1,82.5 15.1,82.5 14.9,82.6 14.7,82.7 14.5,82.7 14.7,82.6 14.7,82.5 
	14.5,82.5 14.1,83.1 14.1,83.1 13.8,83.5 13.7,83.8 13.7,83.8 13.6,84.2 13.4,84.6 13.2,84.9 13,85.1 12.8,85.2 12.6,85.3 
	11.7,85.3 11.3,85.3 11.2,85.4 11.1,85.9 11,86.1 10.8,86.3 10.7,86.3 10.7,86.3 10.9,86.4 11,86.5 11.3,86.9 11.5,87 11.7,87.1 
	12.2,87.6 12.3,87.7 12.4,87.9 12.6,88.1 12.7,88.3 12.8,88.6 12.8,89 13,89.2 13.4,89.3 13.7,89.4 13.9,89.3 14,89.1 14.1,89.3 
	14.1,89.4 14.3,89.4 14.5,89.4 14.6,89.6 14.4,89.9 14.4,90.1 14.7,90.4 14.9,90.5 15,90.2 15.2,90.2 15.4,90.3 15.6,90.3 
	15.8,90.4 15.8,90.6 15.8,90.8 15.4,90.8 15.2,90.7 15,90.6 14.8,90.6 14.7,90.7 14.5,90.5 14.3,90.3 14.2,90.2 14.3,90 14.2,89.8 
	14,89.6 13.8,89.7 13.8,89.9 14.2,90.2 14.3,90.4 14.4,90.6 14.4,90.9 14.5,90.8 14.7,90.8 15,90.9 15.1,91.1 15,91.3 15,91.1 
	14.8,91 14.6,91.1 14.6,91.3 14.5,91.5 14.5,91.5 14.3,91.6 14.2,91.5 14,91.5 13.8,91.5 13.7,91.5 13.6,91.4 13.2,91.4 13,91.4 
	12.8,91.4 12.7,91.3 12.6,91.1 12.4,91.1 12.6,91 12.7,90.7 12.8,90.5 12.7,90.3 12.9,90.3 12.7,90.2 12.3,90.2 12.1,90.3 12,90.4 
	11.8,90.5 11.7,90.6 11.3,90.6 11.2,90.6 11,90.8 11.1,91 11.1,91.2 10.9,91.2 10.6,91 10,91.3 9.9,91.5 9.8,91.6 9.6,91.5 
	9.4,91.7 9.3,91.9 9.1,91.9 8.9,91.9 8.8,92 9.3,92.5 9.5,92.6 9.7,92.6 9.9,92.7 10.1,92.8 9.8,92.6 10.4,92.9 10.6,93 10.4,93 
	10.3,93 10.2,93.2 10,93.2 9.8,93.1 9.8,93 9.8,93.2 9.9,93.3 10,93.5 10.2,93.7 10.2,93.7 10.1,94.1 10.2,94.3 10.4,94.4 
	10.9,94.6 11.3,94.8 11.5,94.7 11.6,94.7 12,94.6 12.6,94.6 12.8,94.6 13.1,94.9 13.1,94.8 12.9,94.6 13.1,94.5 13.3,94.7 
	13.5,95.1 13.7,94.7 13.9,94.6 14.1,94.4 14.2,94.3 14.4,94.1 14.6,94.3 14.8,94.1 14.9,93.9 15.1,93.9 15,94 15.2,94.2 15.3,94.4 
	15.3,94.5 15.1,94.7 14.9,94.8 14.7,94.8 14.7,94.8 14.7,95 14.9,95.1 15.1,95.4 15.1,95.8 15.3,96.4 15.2,96.5 14.9,96.9 
	14.8,97.1 14.4,97.1 14.2,97.1 14,97 13.8,97 13.7,97.2 13.4,97.6 13,97.9 12.9,97.9 12.7,97.8 12.5,97.9 12.3,98 12.5,97.7 
	12.4,97.6 12,97.4 11.9,97.4 11.7,97.6 11.6,97.8 11.8,97.9 11.6,97.9 11.4,98 11.3,98.2 11.4,98.4 11.2,98.5 11.4,98.6 11.6,98.5 
	11.4,98.7 11.2,98.9 11.3,99 11.3,99 11.5,99.1 11.4,99.1 11.3,99 11.3,99 11.3,99 11.2,98.9 11.1,98.9 10.9,99.1 10.3,99.8 
	10.2,100 10.3,100.2 10.2,100.3 9.9,100.4 10,100.6 10.1,100.7 9.9,100.7 9.8,100.7 9.7,100.8 9.8,101 10,100.9 10.1,101.1 
	10,101.3 10,101.5 10.2,101.6 10.2,101.8 10.3,102 10.5,101.9 10.5,101.7 10.7,101.3 11.1,101.1 11.2,100.9 11.2,101 11,101.2 
	10.7,101.5 10.6,101.7 10.6,101.8 10.8,101.8 10.7,102 11.1,102 10.9,102.2 10.7,102.2 10.8,102.4 11,102.4 11.2,102.4 11.4,102.6 
	11.7,102.6 11.9,102.6 12.1,102.4 12.2,102.6 12,102.6 12.2,102.7 12.4,102.9 12.3,103.1 12.1,103.2 12,103.1 12,103 11.9,102.8 
	11.7,102.9 11.5,103 11.3,103.2 11.6,102.9 11.5,102.7 11.3,102.6 11.1,102.6 11.1,102.4 10.9,102.6 10.8,102.7 10.7,102.9 
	10.5,103 10.4,103.2 10.7,103.3 10.7,103.5 10.8,103.7 11,103.8 11.1,103.7 11.1,103.8 11.2,104 11.3,104.1 11.4,104.3 11.6,104.4 
	11.5,104.6 11.6,104.8 12,104.9 12.3,104.9 12.7,104.8 12.9,104.7 13.1,104.5 13.1,104.5 13.3,104.5 13.4,104.5 13.4,104.1 
	13.2,104 13.3,103.8 13.5,103.7 13.6,103.3 13.8,103.1 13.7,102.9 13.9,103.1 14,103 13.9,103.1 13.7,103.2 13.7,103.4 13.5,103.8 
	13.5,104 13.6,104.2 13.6,104.3 13.7,104.5 13.8,104.6 13.8,104.8 14.1,105.6 13.8,106.1 13.8,106.3 14.2,106.6 14,106.7 
	14.1,107.1 14,107.3 13.9,107.4 13.7,107.5 13.9,107.5 14.1,107.6 14.5,107.3 14.6,107.1 14.8,107.1 15,107 15.1,106.9 15.5,106.6 
	15.7,106.7 15.8,106.9 16,107 16,107.1 16.2,107.1 16.4,106.9 16.4,107.1 16.6,107.2 17.1,107.9 17.1,108 17.3,108 17.4,107.8 
	17.3,107.6 17.2,107.3 17.3,107.2 17.3,106.8 17.5,106.9 17.7,106.5 17.6,106.3 17.7,106.5 18.1,106.7 18.2,106.9 18.1,106.9 
	18,106.7 17.9,106.6 17.7,106.8 17.6,107.1 17.8,107.2 17.9,107.4 17.9,107.5 18.1,107.5 18.5,107.3 19,107 19.2,106.9 19.4,106.7 
	19.4,106.5 19.4,106.5 19.5,106.3 19.4,106.5 19.5,106.6 19.3,106.8 19.3,107 19.4,107.2 19.1,107.4 19,107.6 18.8,107.8 18.7,108 
	18.7,108.2 18.8,108.4 19,108.3 19.2,108.4 19.1,108.4 18.9,108.4 18.7,108.6 18.7,109.2 18.6,109.5 18.8,109.7 18.8,109.9 
	19,109.8 18.9,110 18.7,110 18.6,109.8 18.5,109.9 17.9,110.4 17.8,110.6 17.6,110.9 17.5,111.1 17.5,111.3 17.4,111.5 17.2,111.3 
	17,111.5 16.9,111.7 16.5,111.8 16.2,112 16,112.2 15.9,112.3 15.5,112.6 15.4,112.8 15.4,113.2 15.5,113.4 15.6,113.5 15.6,113.6 
	15.4,113.6 15.3,113.5 15.1,113.5 15.1,113.7 14.9,113.6 14.8,113.4 14.8,113.3 14.6,113.3 14.5,113.2 13.9,113.4 13.3,113.8 
	13,114.2 13,114.3 12.8,114.5 12.5,114.7 12.4,114.9 12.2,114.8 12,114.9 11.9,115.1 12,115.3 11.9,115.4 11.9,115.6 12.1,115.5 
	12.2,115.3 12,115.2 12.1,115 12.3,115 12.4,115.2 12.5,115.4 12.8,115.3 12.8,115.1 12.8,114.9 12.7,114.7 12.9,114.6 13,115 
	13,115.2 13.2,115.2 13.4,115.1 13.6,114.9 13.5,114.8 13.7,114.7 13.9,114.5 14,114.1 14.1,114 14.3,114 14.5,114.2 14.3,114.1 
	14.2,114.3 14.3,114.5 14.5,114.6 14.6,114.5 14.8,114.3 15,114.3 15.2,114.3 15.1,114.1 15.3,114.1 15.4,114.3 15.6,113.9 
	15.7,113.9 15.9,113.8 16,113.6 16.2,113.5 16.4,113.5 16.4,113.7 16.4,113.9 16.4,114.1 16.5,113.9 16.6,113.5 17,113.4 
	17.2,113.4 17.3,113.2 17.5,113.1 17.6,112.9 17.8,112.8 17.7,113 17.8,113.2 17.9,113.1 17.9,112.8 18.1,112.7 17.9,112.7 
	18,112.5 17.8,112.4 17.7,112.5 17.9,112.1 18.1,112.2 18.3,112.1 18.5,112.1 18.5,111.9 18.4,111.8 18.5,111.7 18.7,111.8 
	18.9,111.7 19,111.5 19,111.3 19.1,111.4 19.3,111.3 19.3,111.3 19.5,111.2 19.5,111 19.7,111.1 20.2,110.6 20.1,110.4 20.2,110.2 
	20,110.2 20.4,109.9 20.6,109.9 20.5,109.7 20.7,109.7 20.9,109.7 20.9,109.5 21,109.3 21,109.2 21.2,109.2 21.4,109.2 21.4,109 
	21.5,109 21.6,108.8 21.8,108.6 22,108.5 22.1,108.6 22.1,108.4 22.3,108.4 22.5,108.3 22.6,108.1 22.5,107.9 22.3,108 22.5,107.8 
	22.7,107.7 22.6,107.5 22.7,107.4 22.8,107.2 23,107.2 23.2,107 23.4,106.6 23.3,106.5 23.1,106.4 22.9,106.2 22.7,106.3 
	22.5,106.3 22.4,106.3 22.3,106.2 22.4,106 22.4,105.8 22.4,105.6 22.8,105.4 22.7,105.2 22.8,105 23,105 23.1,104.8 23.2,105 
	23.3,104.9 23.5,104.7 23.4,104.5 23.2,104.5 23.4,104.4 23.6,104.4 23.8,104.3 23.9,103.9 23.7,103.8 23.5,103.7 23.3,103.5 
	23.5,103.5 23.7,103.6 23.9,103.6 24.1,103.3 24,103.1 24.1,102.9 24.4,102.5 24.6,102.4 24.5,102.2 24.6,102 24.8,101.8 25,101.7 
	25.1,101.6 25.2,101.4 25.6,101.1 25.6,100.9 25.6,100.9 25.7,101.1 25.9,101.2 26,101.1 26.2,101.1 26.3,100.8 26.5,100.6 
	26.6,100.5 26.8,100.5 26.6,100.7 26.3,101 26.2,101.2 26.3,101.3 26.7,101.6 27,101.6 27.2,101.8 26.7,101.7 26.5,101.7 
	26.3,101.8 26.2,101.8 25.8,101.7 25.6,101.8 25.3,102.2 24.9,102.4 25.1,102.8 25.1,103.1 25.1,103.3 25.1,103.5 24.9,103.8 
	24.8,104 24.7,104.5 24.9,104.7 25,104.7 25.2,104.7 25.4,104.5 25.6,104.5 25.4,104.8 25.2,105 25.3,105.2 25.1,105.1 25,105.2 
	24.8,105.3 24.7,105.5 24.8,105.7 25,105.8 25.2,105.8 25.3,105.6 25.5,105.6 25.7,105.6 25.5,105.4 25.9,105.5 25.9,105.3 
	26.2,105 26.1,104.8 26.3,104.8 26.5,104.5 26.4,104.7 26.5,104.8 26.6,104.7 26.7,104.5 26.8,104.5 26.7,104.2 26.8,104.3 
	27,104.4 26.9,104.2 26.9,104 27,103.9 27,104 27.2,104.2 27.1,104 27.1,103.9 27.3,103.7 27.3,103.5 27.4,103.8 27.5,103.6 
	27.6,103.6 28.1,103.7 28.2,103.5 28.3,103.5 28.3,103.3 28.4,103.1 28.4,102.9 28.2,102.9 28.4,102.8 28.4,102.6 28.6,102.5 
	28.5,102.3 28.3,102.2 28.3,102.4 28.1,102.3 27.9,102.4 28,102.3 28.2,102.2 28.3,102 28.2,101.9 28,102 28,101.9 27.8,102 
	27.9,101.8 27.7,101.9 28.1,101.6 28.1,101.4 28,101.2 27.9,101.4 27.9,101.2 28.1,101.1 28.3,101.2 28.3,101 28.4,100.8 
	28.5,100.6 28.5,100.9 28.4,101.1 28.4,101.3 28.4,101.5 28.6,101.5 28.7,101.3 28.8,101.5 28.7,101.2 28.8,101 28.9,101.3 
	28.9,101.2 29.1,101.3 29.1,101.1 29.3,101.2 29.5,101.1 29.7,100.7 29.9,100.7 30.1,100.8 29.7,100.9 29.7,101 29.7,101.2 
	29.9,101.3 30,101.4 30.2,101.2 30.3,101.3 30,101.5 29.9,101.7 30,101.6 30.4,101.3 30.3,101.7 30.5,101.6 30.7,101.7 30.9,101.6 
	30.8,101.8 30.8,102 31,101.9 31.2,102 31.3,102.1 31.5,101.9 31.6,101.7 31.7,101.5 31.8,101.3 31.9,101.2 31.8,101.4 31.8,101.5 
	31.8,101.7 31.8,101.9 31.9,102.1 32.1,102.2 32.5,102.2 32.7,102.3 32.8,102.5 33,102.5 33.1,102.5 33.2,102.3 33.8,102.1 
	34.2,101.9 35.1,101.9 35.3,102 35.6,101.8 35.5,101.6 35.7,101.8 35.7,101.9 35.7,102.1 36.2,102.2 36.8,102.1 37,102 37.3,101.6 
	37.4,101.2 37.6,101.2 37.9,101.4 38,101.4 38.2,101.4 38,101.4 37.8,101.5 37.9,101.7 38,101.9 37.9,101.7 37.8,101.5 37.7,101.3 
	37.5,101.4 37.5,101.6 37.7,101.8 37.7,102 37.7,102.1 37.5,102.3 37.8,102.4 38,102.4 38.2,102.4 38.4,102.5 38.6,102.5 
	38.9,102.6 39.2,102.5 39.1,102.7 39.3,102.7 39.5,102.8 39.9,103 40,103.2 40.4,103.3 40.6,103.2 40.4,103.4 41,103.6 41.3,103.6 
	41.5,103.7 41.7,103.8 41.8,103.7 41.8,103.5 41.7,103.3 42.1,103.5 42.2,103.3 42.1,103.1 42,102.9 41.8,102.8 41.6,102.9 
	41.6,102.7 41.5,102.7 41.4,102.6 41,102.6 40.8,102.7 40.9,102.5 40.8,102.3 41,102.4 41.1,102.3 41.3,102.3 41.4,102.5 
	41.6,102.6 41.8,102.5 41.8,102.3 41.7,102.1 42.1,102.1 41.9,102.3 42,102.5 42.3,102.9 42.3,103.1 42.4,103.1 42.6,103 
	42.8,102.9 43,103.1 43.1,103.2 43.3,103.2 43.3,103 43,102.6 42.9,102.4 43,102.5 42.8,102.3 42.4,101.7 42.3,101.5 42.2,101.4 
	42.4,101.5 42.2,101.3 42.1,101.2 42.1,101.2 42.1,100.8 42.2,101.1 42.4,101.3 42.7,101.7 42.8,101.9 42.9,102.1 43.1,102.1 
	43.1,102.3 43.5,102.6 43.6,102.7 43.8,102.7 43.8,102.7 43.9,102.7 44,102.8 44.1,102.8 44.3,102.7 44.3,102.2 44.5,102 
	44.3,102.2 44.3,102.4 44.4,102.5 44.4,102.7 44.5,102.9 44.6,103.1 44.8,103.1 44.8,103 44.9,102.8 44.9,103.1 45,103.3 
	45.2,103.3 45.2,103.1 45.6,103.1 45.2,103.2 45.3,103.3 45.5,103.5 45.7,103.5 45.8,103.6 46,103.7 45.7,103.6 45.3,103.6 
	45.4,103.8 45.6,103.9 45.7,104 45.8,104 45.8,104.2 46.2,104.1 46,104.3 45.8,104.4 45.8,104.6 46,104.6 46.2,104.5 46.4,104.6 
	46.6,104.6 46.7,104.5 46.8,104.6 46.8,104.8 47,104.9 47.2,105 47.4,104.9 47.3,105 47.4,105.2 47.6,105.1 47.7,105.3 47.9,105.4 
	48.1,105.5 48.2,105.5 48.4,105.7 48.6,105.6 48.7,105.7 48.6,105.7 48.4,105.9 48.5,106.1 48.6,106.5 48.6,106.6 48.4,106.8 
	48.6,107 48.8,107.1 49,107 48.8,106.9 49,106.9 48.9,106.5 48.8,106.3 49.1,106 49.3,105.9 49.5,105.6 49.4,105.7 49.5,105.9 
	49.9,106.2 50.1,106.3 50.2,106.7 50.3,106.9 50.5,107 50.3,107 50.3,107.2 50.3,107.4 50.5,107.4 50.7,107.3 50.7,107.2 
	50.8,106.8 50.7,107.2 50.7,107.3 50.6,107.4 50.5,107.6 50.7,108 50.9,107.9 50.8,107.6 51.1,107.9 51.1,107.9 51.2,107.7 
	51.3,107.5 51.3,107.3 51.3,106.8 51.3,106.6 "/>
<path fill="#1972B0" d="M117.5,45.8c0,0,0.1,0,0.2-0.1c0.2-0.1,0.1-0.1,0.4,0c0.3,0.1,0.2,0,0.4,0c0.2,0,0.3,0,0.5,0.1
	c0.2,0.1,0.3,0.3,0.4,0.5c0,0.1,0.1,0.4,0.3,0.4c0.3,0,0.5,0,0.7,0c0.2,0.1,0.5,0.4,0.7,0.3c0.3,0,0.3-0.1,0.5-0.1
	c0.2,0,0.4,0,0.6,0.1c0.2,0.1,0.2,0.1,0.3,0c0.1-0.1,0.2,0.1,0.3-0.1c0.2-0.3,0.4-0.4,0.5-0.4c0.1-0.1,0.2,0.1,0.2,0.3
	c0.1,0.2,0,0.3,0.3,0.3c0.3,0,0.3,0,0.4,0.2c0.1,0.2,0.1,0.2,0.3,0.4c0,0,0,0,0,0c0.2-0.1,0.4-0.2,0.5-0.2c0.1-0.1,0.1-0.2,0.2-0.4
	c0.1-0.2,0.3-0.1,0.3-0.3c0-0.2-0.1-0.2-0.1-0.5c0-0.3-0.1-0.2,0-0.5c0.1-0.3,0-0.4,0.1-0.6c0.1-0.2,0.1-0.2,0.3-0.2
	c0.1,0.1,0.1,0.3,0.3,0.3c0.3-0.1,0.3-0.1,0.3-0.2c0-0.1-0.3,0-0.1-0.3c0.2-0.3,0-0.1,0.1-0.4c0.1-0.3,0-0.3,0.2-0.4
	c0.2-0.1,0.1,0.1,0.2-0.2c0.1-0.3,0-0.5,0.3-0.5c0.3,0.1,0.2,0.3,0.4,0.1c0.2-0.1,0.4-0.5,0.7-0.8c0.3-0.3,0.4-0.1,0.5-0.5
	c0.1-0.4-0.1-0.8,0.1-1.1c0.1-0.3,0.2-0.1,0.2-0.5c0-0.4-0.2-0.4,0-0.8c0.2-0.4,0.2-0.4,0.1-0.7c-0.1-0.3-0.2-0.4-0.2-0.6
	c0-0.2-0.1-0.3,0.1-0.3c0.1,0,0.2-0.1,0.3-0.1c-0.4-2.2-0.8-4.8-0.9-5.5c-0.6,0.4-1.4,0.9-1.6,1.1c-0.4,0.2-0.5,0.3-0.8,0.7
	c-0.3,0.3-0.2,0.6-0.4,0.7c-0.2,0.1-0.1,0.3-0.4,0.3c-0.3,0-0.5-0.2-0.8,0c-0.3,0.1-0.8,0.5-1,0.5c-0.2,0-0.2,0.1-0.5,0
	c-0.4-0.1-0.5,0-0.6-0.1c-0.1-0.1,0.1-0.3-0.1-0.3c-0.2,0-0.1,0.2-0.3,0.2c-0.2,0-0.1,0-0.3-0.1c-0.2-0.1-0.3-0.2-0.5-0.2
	c-0.3,0-0.4-0.2-0.6-0.2c-0.2,0-0.3,0.1-0.3,0c-1,0.2-3.1,0.6-3.8,0.7C116.4,36.8,117.2,44.2,117.5,45.8"/>
<path fill="#1972B0" d="M108.8,63.2c1.3-0.1,2.5-0.2,3.2-0.3c1-0.1,2.9-0.3,5-0.6"/>
<path fill="#1972B0" d="M80.3,10.3c-0.1,0.5-0.3,1-0.2,1.2c0.1,0.3,0,1,0.1,1.2c0.1,0.2,0.3,0.6,0.5,0.9c0.1,0.3,0.2,0.3,0.3,1
	c0.1,0.7,0,0.8,0,1.4c0,0.5,0,0.6,0.1,0.9c0.1,0.3,0.1,0.6,0.1,0.8c0,0.2,0.2,1.3,0.3,1.6c0.2,0.3,0.3,0.9,0.3,1.2s0.1,0.8-0.2,1.2
	c-0.3,0.3-0.5,0.3-0.5,0.7c0,0.4-0.1,0.5,0.2,0.7c0.3,0.2,0.8,0.3,0.8,0.7c0,0.3,0.1,5.5,0.2,7c2.3,0,11.9-0.2,14.8-0.5
	c0-0.2-0.1-0.6-0.1-0.7c0-0.2-0.2-0.7-0.4-1c-0.3-0.3-0.3-0.3-0.6-0.4c-0.3,0-0.9-0.7-1.1-1c-0.2-0.3-0.4-0.3-0.6-0.4
	c-0.3-0.1-0.4-0.3-0.5-0.5c-0.1-0.2-0.5,0-0.6-0.2c-0.1-0.2-0.5-0.4-0.6-0.5c-0.2-0.2-0.1-0.3,0-0.7c0.2-0.4-0.1-0.3-0.1-0.5
	c0-0.2,0-0.4,0-0.7c0-0.3,0.1-0.5,0.2-0.7c0.1-0.3-0.1-0.3-0.2-0.5c-0.1-0.2-0.3-0.1-0.4-0.3c-0.2-0.1,0-0.4,0.2-0.6
	c0.2-0.2,0.1-0.3,0.2-0.5c0.1-0.2,0.5-0.4,0.9-0.5c0.3-0.2,0.3-0.9,0.3-1.2c0-0.3-0.2-0.8-0.1-1c0-0.2,0.2-0.5,0.3-0.6
	c0-0.1,0.2-0.1,0.3-0.2v0c0.1-0.3,0.1-0.3,0.4-0.5c0.3-0.2,1.2-1,1.4-1.4c0.2-0.4,0.4-0.6,0.7-0.9c0.4-0.4,0.5-0.7,0.8-0.7
	c0.3-0.1,0.7-0.4,1-0.6c0.3-0.2,0.7-0.2,1-0.4c0.3-0.2,0.6-0.3,0.8-0.5c0.2-0.2,0.1-0.3,0.1-0.3s-0.4,0.1-0.6,0.1
	c-0.2,0-0.2,0.1-0.4-0.1c-0.2-0.2-0.3-0.5-0.7-0.4C98.2,11.9,98,12,97.7,12c-0.3,0-0.3,0.2-0.5,0c-0.1-0.2-0.3-0.5-0.4-0.4
	c-0.1,0-1.1,0.9-1.4,0.8c-0.4-0.1-0.7-0.2-0.8-0.4c-0.1-0.2-0.1-0.1-0.2-0.2c-0.1-0.1-0.4-0.2-0.5-0.4c-0.2-0.1-0.2-0.2-0.4-0.1
	c-0.2,0.1,0,0.3-0.3,0.3c-0.2,0-0.4-0.2-0.5-0.4c-0.1-0.2-0.2-0.2-0.3-0.3c-0.2-0.1-0.2-0.5-0.5-0.5c-0.3,0-0.5-0.2-0.8-0.2
	c-0.4,0-0.7,0.1-0.9,0.2c-0.1,0.1-0.3,0.3-0.5,0.3c-0.3-0.1-0.3,0.1-0.5-0.1c-0.2-0.2-0.2-0.2-0.7-0.3c-0.5,0-0.7-0.3-1-0.3
	c-0.3,0-0.4,0.1-0.6-0.2c-0.1-0.3-0.1-0.4-0.2-0.7c-0.1-0.3-0.1-0.4-0.2-0.7c-0.1-0.3,0.1-0.8-0.3-0.8c-0.3-0.1-0.7-0.1-0.7-0.1
	s0,1.4-0.1,1.5c0,0-2,0.1-5.5,0.1C79.9,9.3,80,9.4,80,9.5C80.1,9.8,80.4,9.8,80.3,10.3"/>
<path fill="#1972B0" d="M97,30.2c0,0.1,0,0.2,0.1,0.2c0.1,0.2,0.1,0.3,0.2,0.4c0.1,0.1,0.3,0.3,0.1,0.5c-0.1,0.2-0.2,0.3-0.1,0.7
	c0.1,0.5,0.3,0.5,0.3,0.7c0,0.3,0,0.5,0.3,0.6c0.4,0.1,0.6,0,0.8,0.2c0.1,0.1,0.2,0.3,0.2,0.4c0.9,0,4.5-0.2,8.2-0.5
	c0-0.1,0-0.3,0-0.5c0-0.5,0.1-0.6,0-0.8c-0.1-0.2-0.1-0.4-0.3-0.6c-0.2-0.2,0-0.3-0.1-0.6c-0.1-0.3-0.3-0.1-0.1-0.5
	c0.1-0.4,0-0.2,0.1-0.6c0.1-0.4,0.1-0.3,0.1-0.6c0-0.3,0.1-0.1,0.1-0.5c0-0.4-0.2-0.3-0.2-0.8c0-0.5,0-0.7,0.3-0.9
	c0.3-0.2,0.4-0.3,0.4-0.5c-0.1-0.2-0.4-0.3-0.2-0.9c0.1-0.6,0.1-0.6,0.3-0.8c0.1-0.3,0.1-0.3,0.1-0.5c0-0.2-0.3-0.2-0.1-0.3
	c0.2-0.1,0.3,0,0.4-0.2c0.1-0.1,0-0.4,0.1-0.6c0.1-0.2,0.3-0.1,0.2-0.3c0-0.2-0.1-0.2,0-0.4c0.2-0.2,0.3-0.4,0.1-0.4
	c-0.2,0.1-0.3,0.1-0.5,0.4c-0.1,0.2-0.2,0.2-0.3,0.5c-0.1,0.3-0.3,0.3-0.3,0.5c0,0.1,0.1,0.4,0.1,0.4s0.1,0-0.2,0
	c-0.3,0-0.3,0-0.4,0.2c-0.1,0.2-0.2,0.3-0.3,0.5c-0.1,0.2-0.3,0.2-0.3,0.4c0,0.1,0,0.4-0.3,0.3c-0.3-0.1-0.4,0.1-0.2-0.4
	c0.2-0.5,0.2-0.5,0.3-0.8c0.1-0.3-0.1-0.4,0.2-0.5c0.3-0.1,0.3,0.3,0.4-0.3c0-0.1,0-0.2,0-0.3c-0.1-0.1-0.2-0.2-0.4-0.3
	c-0.2-0.2,0-0.3,0-0.6c0-0.3-0.1-0.1-0.4-0.1c-0.2,0-0.1-0.1,0-0.4c0-0.3,0-0.6-0.1-0.9c-0.1-0.3-0.3-0.2-0.7-0.4
	c-0.4-0.2-0.1-0.3-0.2-0.4c-0.1-0.1-0.5,0-0.8-0.1c-0.4-0.1-0.4-0.1-0.5-0.1c-0.2,0-0.4,0-0.7,0c-0.2,0-0.3-0.1-0.7-0.3
	c-0.3-0.2-1-0.2-1.4-0.4c-0.4-0.2-1-0.1-1.4-0.2c-0.4,0-0.3-0.5-0.7-0.8c-0.1-0.1-0.1-0.1-0.2-0.2c0,0-0.1,0-0.2,0
	c-0.4-0.1-0.5-0.1-0.6-0.2c-0.1,0-0.1-0.1-0.3,0c-0.2,0.1-0.5,0.3-0.4,0.1c0-0.2,0.1-0.3,0.2-0.6c0.1-0.3,0.3-0.2,0.2-0.5
	c-0.1-0.3-0.1-0.4-0.3-0.3c-0.1,0.1-0.4,0.1-0.6,0.3c-0.2,0.1-0.3,0.1-0.6,0.3c-0.3,0.3-0.4,0.2-0.7,0.3c-0.3,0.1-0.1,0.4-0.7,0.3
	c-0.6-0.1-0.7,0.2-0.6-0.1c-0.1,0-0.2,0.1-0.3,0.2c-0.1,0.1-0.3,0.4-0.3,0.6c0,0.2,0.2,0.7,0.1,1c0,0.3,0,1-0.3,1.2
	c-0.3,0.2-0.8,0.3-0.9,0.5c-0.1,0.2,0,0.3-0.2,0.5c-0.2,0.2-0.4,0.5-0.2,0.6c0.2,0.1,0.3,0.1,0.4,0.3c0.1,0.2,0.3,0.3,0.2,0.5
	c-0.1,0.3-0.1,0.4-0.2,0.7c0,0.3-0.1,0.5,0,0.7c0,0.2,0.3,0.1,0.1,0.5c-0.2,0.4-0.2,0.5,0,0.7c0.2,0.2,0.5,0.4,0.6,0.5
	c0.1,0.2,0.5,0,0.6,0.2c0.1,0.2,0.3,0.4,0.5,0.5c0.3,0.1,0.5,0.1,0.6,0.4c0.2,0.3,0.8,1,1.1,1c0.3,0,0.3,0.1,0.6,0.4
	c0.3,0.3,0.4,0.8,0.4,1C96.9,29.7,97,30,97,30.2"/>
<path fill="#1972B0" d="M103.7,15.9C103.7,15.9,103.7,15.9,103.7,15.9"/>
<path fill="#1972B0" d="M116.2,35.6c0,0,0,0.1,0,0.1c0.8-0.1,2.8-0.5,3.8-0.7c0,0,0-0.1,0.1-0.2c0.2-0.4,0.5-0.7,0.7-1.1
	c0.1-0.4,0-0.8,0.2-1.1c0.3-0.3,0.4-0.3,0.4-0.6c0-0.3,0-0.4,0.1-0.6c0.1-0.2,0-0.3,0.2-0.3c0.2,0,0,0.4,0.3,0.3
	c0.3-0.2,0.3-0.6,0.3-0.9c0-0.3-0.1-0.7-0.2-1c-0.1-0.3-0.2-0.9-0.3-1.2c-0.1-0.3-0.3-0.2-0.3-0.7c0-0.6,0-0.6-0.1-0.9
	c-0.2-0.3-0.3-0.5-0.6-0.6c-0.3-0.1-0.4-0.2-0.6-0.1c-0.2,0.1-0.3,0.2-0.5,0.3c-0.3,0.1-0.5,0.1-0.5,0.3c0,0.2,0,0.4-0.1,0.5
	c-0.1,0.2-0.1,0.1-0.3,0.3c-0.1,0.2-0.1,0.5-0.4,0.5c-0.3,0-0.3-0.1-0.5-0.1c-0.2,0-0.2,0-0.3-0.1c0-0.1-0.1-0.4,0-0.7
	c0-0.3-0.1-0.2,0.2-0.4c0.3-0.2,0.4,0.1,0.6-0.3c0.1-0.4,0-0.5,0.2-0.8c0.2-0.3,0.1,0.1,0.4-0.4c0.3-0.5-0.1-0.4,0-1
	c0.1-0.6-0.1-0.8-0.1-1c0-0.2,0-0.2-0.3-0.4c-0.2-0.2-0.3-0.3-0.1-0.5c0.2-0.2,0.4-0.1,0.3-0.3c-0.1-0.2-0.4-0.3-0.5-0.6
	c0-0.2,0-0.2-0.2-0.3c-0.2-0.1-1-0.2-1.1-0.3c-0.1-0.1-0.2-0.1-0.4-0.2c-0.2-0.1-0.3-0.1-0.4-0.2c-0.1-0.1,0-0.3-0.3-0.3
	c-0.3,0-0.5,0.1-0.7,0c-0.1-0.1-0.1-0.2-0.3-0.3c-0.2-0.1-0.2-0.2-0.4-0.1c-0.2,0.1-0.3,0.2-0.5,0.4c-0.2,0.2-0.4,0.2-0.4,0.4
	c0,0.2,0.1,0.4,0.2,0.5c0.1,0.1,0.3,0.4,0.1,0.5c-0.2,0-0.3,0-0.5,0.1c-0.2,0.1-0.4,0.6-0.3,0.8c0.1,0.2,0.1,0.3,0,0.6
	c-0.1,0.3-0.2,0.9-0.2,0.7c-0.1-0.2,0-0.5,0-0.4c-0.1,0.2-0.1,0.3-0.2,0.4c-0.1,0.1-0.3,0.2-0.2,0c0.1-0.3,0.1-0.2,0.1-0.4
	c-0.1-0.2-0.1-0.2-0.1-0.3c0.1-0.2,0-0.2,0.1-0.4c0.1-0.2,0.1-0.5-0.1-0.3c-0.2,0.2-0.2,0.3-0.3,0.6c-0.1,0.3,0,0.4-0.2,0.4
	c-0.2,0.1-0.3-0.1-0.4,0c-0.1,0.1-0.1,0.3-0.3,0.4c-0.1,0.1,0.1,0.3-0.1,0.4c-0.2,0.1-0.5,0.2-0.4,0.4c0,0.2,0.2,0.4,0.1,0.7
	c0,0.3,0.1,0.4,0,0.8c-0.2,0.4-0.2,0.6-0.4,0.7c-0.2,0.2-0.3,0.3-0.1,0.6c0.1,0.3,0.4,0.6,0.2,0.9c-0.1,0.3-0.2,0.3-0.2,0.5
	c0,0.3,0.3,0.8,0.4,1.1c0.1,0.3,0.2,0.5,0.3,0.5s0,0.1,0.1,0.4c0.1,0.2,0.4,0.5,0.4,1.1c-0.1,0.6,0.2,1.1,0,1.5
	c-0.1,0.4-0.2,0.8-0.3,1.1c-0.1,0.3-0.4,0.7-0.4,0.9c0,0.2-0.2,0.7-0.5,0.9c0,0-0.1,0-0.1,0.1c1-0.1,3.1-0.2,3.9-0.4
	C115.3,35.5,116,35.3,116.2,35.6"/>
<path fill="#1972B0" d="M99.5,18.9c0.4,0,1,0,1.4,0.2c0.4,0.2,1.1,0.1,1.4,0.4c0.3,0.2,0.4,0.3,0.7,0.3c0.2,0,0.5,0,0.7,0
	c0.2,0,0.2,0,0.5,0.1c0.4,0.1,0.7,0,0.8,0.1c0.1,0.1-0.2,0.3,0.2,0.4c0.4,0.2,0.6,0.1,0.7,0.4c0.1,0.3,0.2,0.6,0.1,0.9
	c0,0.3-0.2,0.4,0,0.4c0.2,0,0.4-0.2,0.4,0.1c0,0.3-0.3,0.3,0,0.6c0.1,0.1,0.3,0.2,0.4,0.3c0-0.3,0-0.4,0.2-0.5
	c0.2-0.2,0.3-0.4,0.5-1.1c0.2-0.6,0.3-0.6,0.4-0.8c0.1-0.2,0.1-0.1,0.2-0.5c0.1-0.4,0.2-0.8,0.2-0.5c0,0.3-0.1,0.8,0.1,0.7
	c0.2-0.1,0.1-0.2,0.4-0.4c0.3-0.3,0.4-0.4,0.5-0.3c0.1,0.1,0.1,0.2,0,0.3c-0.2,0.2-0.4,0.3-0.3,0.4c0,0.1,0.1,0.3,0.3,0.2
	c0.2-0.1,0.5-0.6,0.6-0.7c0.1-0.1,0,0,0.1-0.3c0.1-0.2-0.2-0.3,0.3-0.4c0.5-0.1,0.7-0.1,1-0.3c0.3-0.1,0.4,0.1,0.5-0.2
	c0.2-0.3,0.2-0.3,0.4-0.3c0.3,0,0.4,0,0.6,0c0.3,0,0.3,0.1,0.6,0.2c0.2,0.1,0.5,0.5,0.6,0.4c0.1-0.1,0,0.1,0.1-0.3
	c0.1-0.4,0.5-0.5,0.6-0.4c0.1,0.1-0.2,0.1,0.1,0.1c0.3,0,0.4,0,0.6,0c0.1,0,0.2,0,0.5,0c0.3,0,0.4-0.1,0.4-0.1c0.1,0,0.1,0,0.2,0
	c0.1,0.1,0.1,0.1,0.4,0.1c0.2,0,0.3,0.1,0.4-0.1c0.1-0.1,0.3-0.2,0.1-0.3c-0.2-0.1-0.4-0.2-0.4-0.2s-0.3-0.2-0.3-0.1
	c0,0.1,0.1,0.2,0,0.3c-0.1,0.1-0.1,0.2-0.2,0.2c-0.1,0-0.3,0.1-0.4,0.1c-0.1-0.1,0-0.1-0.1-0.2c-0.1-0.1-0.2,0-0.3-0.1
	c-0.1-0.1,0-0.2-0.1-0.3c-0.2-0.1-0.2,0-0.3-0.2c-0.1-0.1-0.2-0.1-0.2-0.3s-0.1-0.5-0.3-0.6c-0.2-0.1-0.4-0.1-0.5,0
	c-0.1,0.2-0.2,0.3-0.3,0.2c-0.1-0.1-0.1-0.3-0.2-0.2c-0.2,0.1-0.1,0.1-0.3,0.1c-0.2,0-0.4,0-0.5,0c-0.1-0.1-0.1,0.2-0.1-0.2
	c0-0.3,0-0.7,0-0.8c0-0.1,0-0.1-0.4-0.1c-0.4,0.1-0.2,0-0.5,0.2c-0.3,0.2-0.2,0.3-0.8,0.2c-0.6,0-0.7,0.1-0.9,0.1
	c-0.2,0-0.5,0.1-0.7,0.3c-0.2,0.1-0.1,0.2-0.4,0.3c-0.3,0.1-0.3,0.1-0.4,0.3c-0.1,0.2,0.1,0.3-0.2,0.3c-0.4,0-0.6,0-0.8-0.1
	c-0.2-0.1,0-0.3-0.4-0.1s-0.3,0.3-0.6,0.2c-0.3-0.1-0.3,0-0.4-0.2c-0.1-0.2-0.3-0.2-0.5-0.5c-0.2-0.3-0.3-0.3-0.5-0.4
	c-0.2-0.1,0.1-0.2-0.4-0.2c-0.6,0-0.6-0.2-0.7,0c-0.2,0.2-0.1,0.3-0.2,0.3c-0.1,0-0.2,0-0.3,0.1c-0.1,0.1-0.2,0.4-0.2,0.1
	c-0.1-0.3,0.2-0.3,0-0.6c0-0.1,0-0.1-0.1-0.1c0,0,0,0,0,0c0,0,0.1,0,0.2-0.2c0.3-0.4,0.1-0.4,0.5-0.8c0.5-0.4,0.4-0.4,0.5-0.6
	c0.1-0.1,0.3,0.1,0.5-0.1c0.2-0.2,0.3-0.4-0.1-0.4c-0.3,0-0.4,0-0.7,0.1c-0.3,0.1-0.8,0.3-0.8,0.4c-0.1,0.1-0.4,0.3-0.4,0.4
	c0,0.2-0.2,0.2,0,0.3c0.1,0.1,0.1,0.4,0.3,0.2c0.2-0.1,0.2-0.3,0.2-0.1c0,0.2-0.1,0.2-0.1,0.3c0,0.1,0.1,0.5-0.2,0.2
	c-0.2-0.3-0.3-0.2-0.4-0.4c0-0.2,0.2-0.4-0.2-0.3c-0.3,0.2-0.4,0.3-0.5,0.5c-0.1,0.2-0.1,0.4-0.4,0.5c-0.3,0.1-0.4,0.2-0.6,0.3
	c-0.2,0.1-0.4,0.4-0.7,0.4s-0.4-0.1-0.6,0c-0.2,0.1-0.2,0.3-0.5,0.5c-0.3,0.2-0.2,0.3-0.7,0.4c-0.4,0.1-0.3,0.2-0.4,0.3
	c0,0.1,0.1,0.1,0.2,0.2C99.2,18.4,99.1,18.9,99.5,18.9"/>
<path fill="#1972B0" d="M88.8,67.3c-0.1-0.9,0-3.8-0.2-4.9c-0.2-1.1-0.5-2.9-0.6-3.7c0-0.1,0-0.1,0-0.2c0-0.4,0-1.2-0.1-2
	c-8.4,0.2-16.1,0.1-23.1-0.2c-1.1-0.1-2.1-0.1-3.1-0.2c0,0.5-0.1,1.1-0.1,1.9l9,0.5c0,0,0.5,0,0.5,0.7c0,0.7-0.2,5.9-0.2,5.9
	s-0.1,0.7-0.1,0.9c0.1,0.2,0.6,0.3,0.8,0.5c0.1,0.2,0.3,0.5,0.4,0.4c0.1,0,0.2-0.2,0.4-0.1c0.2,0.1,0.2,0.1,0.3,0
	c0.1-0.1,0-0.3,0.3-0.1c0.3,0.2,0.3,0.2,0.4,0.5c0,0.3-0.1,0.4,0.1,0.4c0.3,0,0.5-0.1,0.7,0c0.1,0,0.4,0.3,0.6,0.3
	c0.2,0,0.5-0.1,0.7,0c0.1,0.1,0.1,0.4,0.3,0.3c0.3-0.1,0.2-0.1,0.4-0.2c0.2,0,0.3-0.1,0.5,0c0.2,0,0.3,0.1,0.3,0.2
	c0,0.1,0,0.3,0.2,0.4c0.2,0.1,0.1,0.2,0.1,0.4c0,0.1,0.2,0.3,0.4,0.2c0.1-0.1,0.2-0.3,0.4-0.4c0.2,0,0.4,0,0.4,0.1
	c0,0.1,0.1,0,0.3,0.1c0.2,0.1,0.2,0.3,0.4,0.2c0.1-0.1,0.1-0.2,0.4-0.2c0.2,0,0.1,0.5,0.3,0.5c0.2,0,0.2-0.1,0.2-0.2
	c0.1-0.1,0.1-0.2,0.2-0.3c0.1-0.1,0-0.3,0.2-0.3c0.3,0,0.3,0.2,0.6,0.2c0.2,0,0.4-0.1,0.6,0c0.1,0.1,0.4,0.4,0.6,0.5
	c0.1,0.1,0.2,0.2,0.3,0.2c0.1,0,0-0.2,0.2-0.2c0.3-0.1,0.3-0.1,0.5-0.2c0.2-0.2,0.3-0.1,0.5-0.2c0.2-0.1,0.4,0,0.5,0
	c0.1,0,0.3-0.2,0.5-0.3c0.2-0.1,0.3,0.1,0.5,0.2c0.2,0.1,0.2,0.2,0.5,0.1c0.2-0.1,0.3-0.4,0.5-0.3c0.2,0.1,0.3,0.2,0.6,0.4
	c0.3,0.2,0.5,0.4,0.8,0.5c0.3,0.1,0.5,0.1,0.6,0.2c0.1,0.1,0.3,0.1,0.4,0.1C88.8,69,88.9,67.8,88.8,67.3"/>
<path fill="#1972B0" d="M109.3,47.7c0-0.3,0.1-0.3,0-0.5c-0.2-0.2-0.3-0.2-0.3-0.5c0-0.3,0.1-0.5,0.1-0.6c0-0.2-0.1,0,0.1-0.3
	c0.1-0.3,0.1-0.4,0-0.8c0-0.3-0.6-6.5-0.8-8.6c-0.2-0.3-0.3-0.4-0.3-0.6c-0.1-0.2-0.2-0.6-0.3-0.7c-0.1-0.1-0.5-0.1-0.5-0.7
	c0-0.4,0-0.6,0-0.9c-3.7,0.3-7.4,0.5-8.2,0.5c0.1,0.1,0.1,0.3,0.2,0.4c0.2,0.2,0.5,0.3,0.5,0.5s0.2,0.4,0.4,0.5
	c0.2,0.1,0.6,0.4,0.4,0.6c-0.1,0.2,0,0.8-0.2,1c-0.2,0.2-0.2,0.2-0.2,0.5s0.1,0.4-0.2,0.5c-0.3,0.1-0.4,0.1-0.6,0.3
	c-0.2,0.2-0.3,0.2-0.6,0.2c-0.3,0-0.4-0.1-0.5,0.2c-0.1,0.4-0.1,0.6,0.1,0.8c0.2,0.1,0.3,0.3,0.3,0.6c0,0.2-0.3,0.6-0.4,0.8
	c-0.1,0.3,0.1,0.6-0.2,0.7c-0.3,0.1-0.8,0.3-0.7,0.5c0.1,0.2,0.3,0.5,0.1,0.6c-0.1,0-0.1,0.1-0.2,0.2c-0.1,0.1-0.2,0.3-0.2,0.5
	c0,0.3,0.1,1,0.3,1.3c0.1,0.3,0.2,0.6,0.3,0.7c0.1,0.1,0.7,0.5,0.8,0.7c0.1,0.2,0.2,0.2,0.4,0.4c0.2,0.1,0.8,0.6,0.8,1
	c0,0.4,0.1,1.1,0.4,1c0.3-0.1,0.4-0.2,0.7-0.1c0.3,0.1,0.7,0.1,0.8,0.4c0.1,0.3-0.2,0.7-0.3,1c-0.1,0.3-0.2,0.5-0.2,0.7
	c0,0.3-0.1,0.5,0.1,0.7c0.2,0.2,0.8,0.7,1,0.8c0.2,0.1,0.2,0.2,0.2,0.3c0,0.1,0.1,0,0.3,0.1c0.2,0.1,0.2,0.1,0.4,0.3
	c0.1,0.2,0.5,0.4,0.6,0.4c0.1,0,0.1,0.4,0.2,0.6c0,0.2,0.4,0.3,0.3,0.6c-0.1,0.3-0.3,0.3-0.2,0.5c0.1,0.2,0.3,0.8,0.5,0.9
	c0.2,0.1,0.4-0.1,0.6,0c0-0.1,0.1-0.2,0.1-0.3c0.1-0.3,0.1-0.5,0.5-0.5c0.4,0,0.8,0.2,0.9,0.3c0.1,0.1,0.4,0.6,0.6,0.3
	c0.1-0.3,0.3-0.4,0.1-0.7c-0.2-0.3-0.3-0.4-0.2-0.6c0.1-0.2,0.2-0.2,0.5-0.4c0.3-0.1,0.7-0.1,0.7-0.4c-0.1-0.3-0.3-0.5-0.2-0.7
	c0.1-0.2,0.2-0.2,0.2-0.3c0,0,0-0.1,0-0.1c0-0.2-0.2-0.1-0.1-0.4c0.1-0.2,0.2-0.4,0.2-0.5c0-0.1,0-0.4,0-0.7s0.2-0.3,0.4-0.6
	c0.2-0.2,0.3-0.5,0.4-0.8c0.1-0.3,0.3-0.4,0.4-0.7C109.5,48.1,109.3,48,109.3,47.7"/>
<path fill="#1972B0" d="M116.2,35.7c0-0.1,0-0.1,0-0.1c-0.1-0.2-0.9-0.1-1.9,0.1c-0.8,0.1-3,0.3-3.9,0.4c-0.3,0.3-0.9,0.8-1.2,0.7
	c-0.3-0.1-0.5,0.1-0.7-0.3c0,0,0,0,0-0.1c0.2,2.2,0.7,8.3,0.8,8.6c0.1,0.4,0.1,0.5,0,0.8c-0.1,0.3-0.1,0.2-0.1,0.3
	c0,0.2-0.1,0.3-0.1,0.6c0,0.3,0.1,0.2,0.3,0.5c0.2,0.2,0.1,0.2,0,0.5c0,0.3,0.2,0.4,0.1,0.7c-0.1,0.3-0.3,0.4-0.4,0.7
	c-0.1,0.3-0.2,0.6-0.4,0.8c-0.2,0.2-0.4,0.3-0.4,0.6s0,0.6,0,0.7s-0.1,0.3-0.2,0.5c-0.1,0.2,0.1,0.2,0.1,0.4c0,0.1,0,0.1,0,0.1
	c0.1,0,0.2,0.1,0.3-0.1c0.1-0.3-0.1-0.4,0.1-0.4c0.2-0.1,0.2,0,0.4,0c0.2,0,0.3-0.2,0.3-0.1c0,0.1,0.1,0.3,0.1,0.2
	c0.1-0.1-0.1-0.2,0.1-0.3c0.1-0.1,0.2,0,0.4-0.1c0.2-0.1,0.1-0.2,0.3,0c0.1,0.1,0.2,0.2,0.4,0.2c0.1,0,0.2,0,0.3,0.1
	c0.1,0.1,0.2,0.2,0.2,0.1c0.1-0.1,0,0,0.1-0.3c0.1-0.3,0.2-0.4,0.4-0.4c0.2-0.1,0.3-0.3,0.3-0.2c0.1,0.1,0,0.3,0.2,0.3
	c0.2,0,0.2-0.1,0.3,0s0.1,0.2,0.2,0.1c0.1-0.1,0,0,0.1-0.2c0.2-0.2,0.2-0.2,0.2-0.3c0-0.2-0.1-0.1,0.1-0.3c0.2-0.2,0.3,0.1,0.2-0.2
	c-0.1-0.3-0.2-0.2-0.1-0.3c0.1,0,0.3,0.1,0.4,0.3c0.1,0.1-0.1,0.2,0.2,0.3c0.3,0.1,0.4,0.1,0.6,0.1c0.2-0.1,0.3-0.2,0.3-0.4
	c0-0.2,0-0.5,0.1-0.5c0.1-0.1,0.1-0.2,0.2-0.2c0.1,0,0.3,0.1,0.4-0.3c0.1-0.4,0.2-0.3,0.3-0.5c0.2-0.2,0.3-0.3,0.3-0.6
	c0-0.3-0.3-0.4,0-0.5c0.2-0.1,0.1-0.2,0.4-0.1c0.3,0.1,0.3,0.3,0.4,0.2c0.2-0.2,0.2-0.4,0.5-0.4c0.3-0.1,0.4,0,0.4-0.2
	c0-0.2-0.1-0.1-0.1-0.3c0-0.2,0-0.3-0.1-0.4c-0.1-0.1-0.2-0.1-0.1-0.3c0.1-0.1,0.1-0.1,0.1-0.1C117.2,44.2,116.4,36.8,116.2,35.7"/>
<path fill="#1972B0" d="M146.9,52.6C146.9,52.6,146.9,52.6,146.9,52.6C146.9,52.6,146.9,52.6,146.9,52.6"/>
<path fill="#1972B0" d="M22.6,30.6c-3-0.7-5.8-1.3-8.3-2l-3.1,11.6l13.2,19.1c0-0.1,0.1-0.2,0.1-0.3c0.2-0.3,0.2-0.5,0.2-1.1
	c0-0.6,0.1-0.8,0.2-1.2c0.1-0.4,0-0.8,0-1.1c0-0.3,0.2-0.5,0.5-0.7c0.3-0.2,0.3,0,0.7,0.2c0.3,0.3,0.2,0.3,0.5,0.4
	c0.3,0.1,0.3-0.2,0.4-0.7c0-0.1,0.3-1.3,0.6-3.1c1.1-5.6,3.2-16.9,3.7-19.5C28.3,31.8,25.4,31.2,22.6,30.6"/>
<path fill="#1972B0" d="M146.3,17.7c0,0.3,0,0.5,0.2,0.8c0.2,0.2,0.1,0.4,0.2,0.8c0.1,0.4,0,0.3-0.1,0.7c-0.1,0.5,0,0.2,0.2,0.6
	c0.2,0.4,0.3,0.6,0.3,0.9c0.1,0.3-0.1,0.4,0,0.6c0.1,0.2,0.1-0.1,0.3-0.1c0.1-0.1,0.3,0.3,0.3,0.6c0.1,0.4,0.4,1.1,0.5,1.7
	c0.1,0.6,0.1,0.6,0.2,0.9c0,0,0,0.1,0,0.1c0.1,0,0.3,0,0.4-0.1c0.3-0.1,1-0.3,1.5-0.4c0.1,0,0.2-0.1,0.3-0.1
	c-0.1-0.1-0.2-0.2-0.2-0.3c-0.1-0.2-0.1-0.5,0-0.7c0.1-0.2-0.2-0.4-0.2-0.8c0-0.4,0-0.3,0-0.7c0-0.5-0.2-0.6-0.1-0.8
	c0.1-0.3-0.1-0.1,0.1-0.6c0.1-0.4,0.1-0.2,0.2-0.6c0.1-0.5,0.1-0.5,0.1-0.9c0-0.4,0-0.4-0.1-0.7c0-0.2-0.2-0.1,0-0.4
	c0.2-0.3,0.4-0.3,0.6-0.6c0.2-0.3,0.4-0.4,0.2-0.9c-0.2-0.5-0.2-0.4-0.2-0.8c0-0.2-0.1-0.5-0.2-0.7c-0.2,0.1-0.5,0.1-0.9,0.2
	c-0.2,0.1-2.1,0.6-3.8,1.1c0,0.2,0,0.5,0,0.6C146,17.5,146.3,17.4,146.3,17.7"/>
<path fill="#1972B0" d="M11.9,6.6L11.9,6.6C11.8,6.7,11.8,6.7,11.9,6.6"/>
<path fill="#1972B0" d="M146.1,51.2c0,0-0.1,0-0.1,0C146.1,51.2,146.1,51.3,146.1,51.2"/>
<path fill="#1972B0" d="M148.3,33.5C148.3,33.5,148.3,33.5,148.3,33.5C148.3,33.5,148.2,33.6,148.3,33.5
	C148.2,33.6,148.3,33.6,148.3,33.5"/>
<path fill="#1972B0" d="M41.1,23.7c0,0.1,0,0.2,0,0.3l-1.4,9.7"/>
<path fill="#1972B0" d="M65.5,44.1c-0.2,4.1-0.5,10.6-0.6,12.1c7,0.3,14.7,0.4,23.1,0.2c0-1.6,0-3.5,0-4c0-1,0.1-4.1-0.1-4.3
	c-0.1-0.2-0.3-0.2-0.5-0.3c-0.2-0.2-0.1,0.2-0.2-0.2C87,47.2,87.1,47.2,87,47c-0.1-0.2-0.2-0.1-0.4-0.3c-0.2-0.2-0.3,0-0.2-0.4
	c0.1-0.4,0.1-0.5,0.3-0.6c0.2-0.2,0.4,0,0.4-0.2c0-0.2,0.2-0.2-0.1-0.4c-0.3-0.2-0.1-0.3-0.3-0.2c-0.2,0.1-0.1,0.3-0.5,0.1
	c-0.4-0.2-0.2,0.1-0.4-0.2c-0.1-0.1-0.2-0.2-0.3-0.3C77.5,44.9,67.6,44.2,65.5,44.1"/>
<path fill="#1972B0" d="M39.1,37.6l0.6-3.9c-2.8-0.4-5.6-0.9-8.4-1.4c-0.5,2.6-2.6,14-3.7,19.5c1.7,0.4,7.1,1.5,15.6,2.5
	c0.9-7.3,1.8-13.9,2-16C41.7,38,39.1,37.6,39.1,37.6"/>
<path fill="#1972B0" d="M84.3,42.2c0-0.1,0.1-0.2,0-0.3c-0.1-0.1-0.2,0.1-0.2-0.2v-0.6c0-0.3,0-0.2-0.1-0.5c-0.1-0.3,0-0.5,0-0.7
	c0-0.2,0.1-0.1,0-0.3c-0.1-0.2-0.1-0.1-0.1-0.4c0-0.3-0.1-0.2-0.1-0.4c0-0.2,0.1-0.2-0.1-0.3c-0.2-0.1-0.3-0.1-0.3-0.2
	c0-0.1-0.1,0.2-0.1-0.2c0-0.4-0.1-0.3,0-0.6c0.1-0.3,0.2-0.3,0-0.5c-0.2-0.2-0.2-0.3-0.3-0.6c-0.1-0.3-0.2-0.2-0.3-0.4
	c-0.1-0.3-0.2-0.1-0.2-0.5c0-0.4,0.1-0.5,0-0.6c-0.1-0.2,0-0.4-0.1-0.5c0,0,0,0-0.1-0.1c0,0-0.1,0-0.1,0c-0.3-0.1-0.3,0-0.5-0.2
	c-0.1-0.2-0.1-0.2-0.3-0.3C81.1,34,81.1,34,81,33.9c-0.1-0.1-0.2-0.1-0.3-0.2c-0.1-0.1-0.2-0.1-0.4-0.2c-0.3,0-0.3,0-0.4-0.2
	c-0.1-0.1,0-0.1-0.2-0.1c-0.3,0-0.8,0.2-1.1,0.1c-0.3-0.1-0.4-0.2-0.5-0.1c-0.1,0.1,0,0.3-0.3,0.3c-0.3,0-0.1,0-0.6-0.2
	c-0.5-0.2-0.5-0.2-0.7-0.4c-0.2-0.2-0.2-0.2-0.2-0.2S64,32.3,60.3,32.1c-0.2,3.4-0.4,6.8-0.5,7.9c2.1,0.2,3.8,0.3,4.9,0.3
	c1.2,0,0.9,0.1,0.9,0.4c0,0-0.1,1.4-0.2,3.5c2,0.1,11.9,0.8,20,0.4c-0.1-0.1-0.2-0.2-0.2-0.2s-0.1-0.2-0.1-0.3
	c-0.1-0.1,0-0.1-0.1-0.3c-0.1-0.2,0,0-0.2-0.2c-0.2-0.3-0.2-0.5-0.3-0.7c-0.1-0.2-0.4,0-0.3-0.3C84.2,42.3,84.2,42.3,84.3,42.2"/>
<path fill="#1972B0" d="M126.7,50.8c-0.2-0.1-0.5-0.2-0.5-0.3c-0.1-0.1-0.3-0.3-0.4-0.4c-0.1-0.1-0.1-0.4-0.4-0.6
	c-0.3-0.3-0.4-0.4-0.5-0.7c-0.1-0.3,0-0.8-0.1-1c0,0,0,0,0,0c-0.1-0.1-0.1-0.2-0.3-0.4c-0.1-0.2-0.2-0.2-0.5-0.2
	c-0.3,0-0.2-0.1-0.3-0.3c-0.1-0.2-0.1-0.3-0.2-0.3c-0.1,0.1-0.4,0.2-0.5,0.5c-0.2,0.3-0.2,0.1-0.3,0.1c0,0,0,0-0.1,0l-3.2-0.9
	c-0.1-0.1-0.2-0.3-0.3-0.4c-0.2-0.1-0.3-0.1-0.5-0.1s-0.1,0.1-0.4,0c-0.3-0.1-0.3-0.1-0.4,0c-0.1,0-0.1,0.1-0.2,0.1
	c0,0-0.1,0.1-0.1,0.1c-0.1,0.2,0,0.1,0.1,0.3c0.1,0.1,0,0.2,0.1,0.4c0,0.2,0.1,0.1,0.1,0.3c0,0.2-0.1,0.1-0.4,0.2
	c-0.3,0.1-0.4,0.2-0.5,0.4c-0.2,0.2-0.1-0.1-0.4-0.2c-0.3-0.1-0.2,0.1-0.4,0.1c-0.2,0.1,0,0.2,0,0.5c0,0.3-0.1,0.4-0.3,0.6
	c-0.2,0.2-0.3,0.1-0.3,0.5c-0.1,0.4-0.2,0.3-0.4,0.3c-0.1,0-0.1,0.1-0.2,0.2c-0.1,0.1-0.1,0.3-0.1,0.5c0,0.2-0.1,0.3-0.3,0.4
	c-0.2,0.1-0.3,0-0.6-0.1c-0.3-0.1-0.1-0.1-0.2-0.3c-0.1-0.1-0.3-0.3-0.4-0.3c-0.1,0,0,0,0.1,0.3c0.1,0.3,0,0-0.2,0.2
	c-0.2,0.2-0.1,0.1-0.1,0.3c0,0.2,0,0.1-0.2,0.3c-0.2,0.2-0.1,0.1-0.1,0.2c-0.1,0.1-0.1,0-0.2-0.1s-0.1,0-0.3,0
	c-0.2,0-0.1-0.1-0.2-0.3c-0.1-0.1-0.1,0.1-0.3,0.2c-0.2,0.1-0.2,0.1-0.4,0.4c-0.1,0.3-0.1,0.2-0.1,0.3c-0.1,0.1-0.1-0.1-0.2-0.1
	c-0.1-0.1-0.2-0.1-0.3-0.1c-0.1,0-0.2-0.1-0.4-0.2c-0.1-0.1-0.1-0.1-0.3,0c-0.2,0.1-0.3,0-0.4,0.1c-0.1,0.1,0,0.2-0.1,0.3
	c-0.1,0.1-0.1-0.1-0.1-0.2c0-0.1-0.2,0.1-0.3,0.1c-0.2,0-0.2,0-0.4,0c-0.2,0.1,0,0.2-0.1,0.4c-0.1,0.1-0.2,0.1-0.3,0.1
	c0,0.1-0.1,0.2-0.2,0.3c-0.1,0.2,0.1,0.4,0.2,0.7c0.1,0.3-0.4,0.2-0.7,0.4c-0.3,0.1-0.3,0.2-0.5,0.4c-0.1,0.2,0,0.3,0.2,0.6
	c0.2,0.3,0,0.4-0.1,0.7c-0.1,0.3-0.4-0.2-0.6-0.3c-0.1-0.1-0.4-0.3-0.9-0.3c-0.5,0-0.4,0.3-0.5,0.5c0,0.1-0.1,0.2-0.1,0.3
	c0.2,0.1,0.2,0.5,0.2,0.7c-0.1,0.2,0,0.3,0,0.5c-0.1,0.2,0,0.3-0.1,0.4c0,0.1-0.1,0.1-0.3,0.1c-0.2,0-0.2,0.1-0.3,0.2
	c-0.1,0.1-0.2,0.2-0.3,0.2c-0.1,0-0.1-0.1-0.2,0.1c0,0,0,0,0,0.1c0.2,0,0.4,0,0.5,0c0.3-0.1,1.2-0.2,1.6-0.2
	c0.4-0.1,2.4-0.1,2.5-0.3c0.1-0.1,0.1-0.2,0.1-0.4c-0.1-0.2-0.2-0.3,0.1-0.3c0.3,0,1.3,0.1,1.6,0c0.3-0.1,4.1-0.5,4.8-0.5
	c0.8-0.1,2.2-0.1,2.5-0.2c0.3-0.1,2.8-0.3,3.3-0.4c0.3-0.1,0.8-0.1,1.3-0.1c0.1-0.1,0.2-0.2,0.4-0.3c0.3-0.1,0.4-0.1,0.7-0.3
	c0.3-0.2,0.4,0,0.6-0.2c0.2-0.3-0.1-0.3,0.3-0.5c0.3-0.2,0.4-0.1,0.4-0.3c0.1-0.2,0.2-0.3,0.3-0.5c0.1-0.2,0,0,0.2-0.4
	c0.2-0.3,0.6-0.2,1-0.8c0.3-0.5,0.7-0.9,0.9-1.1C126.8,50.8,126.8,50.8,126.7,50.8"/>
<path fill="#1972B0" d="M143.9,38.7C143.9,38.7,143.9,38.7,143.9,38.7c-0.2,0.2-0.9,0.2-1.7,0.4c-0.6,0.1-5.7,1.2-9.1,1.9
	c0.1,0.6,0.3,2,0.3,2s0.1-0.1,0.2-0.1c0.1-0.1,0.4-0.4,0.5-0.6c0.1-0.2,0.2-0.3,0.3-0.5c0.1-0.1,0.3,0,0.4-0.1
	c0.2,0,0.1-0.1,0.3-0.3c0.2-0.2,0-0.2,0.1-0.3c0.1-0.2,0-0.1,0.2,0c0.2,0.1,0.1,0.1,0.2,0.1c0.1,0,0.4,0,0.5,0
	c0.2,0,0.1-0.1,0.1-0.3c0-0.2,0.1-0.1,0.2-0.1c0.1,0,0.2-0.1,0.3-0.2c0.1-0.1,0.1-0.1,0.3-0.1c0.2-0.1,0.1,0,0.3,0.1
	c0.2,0.1,0,0,0.3,0c0.3,0,0.3-0.1,0.4-0.1c0.1,0,0,0.1,0,0.3c0.1,0.3,0.1,0,0.1,0.1c0.1,0.1,0.1,0.2,0.2,0.3
	c0.1,0.1,0.1,0.1,0.1,0.3c0.2,0,0.4,0,0.5,0c0.2,0.1,0.4,0.3,0.4,0.5c0,0.2-0.1,0.3,0.2,0.3c0.3,0,0.3,0.1,0.6,0.2
	c0.2,0.1,0.3,0,0.4,0.2c0.1,0.2,0.2,0.1,0.3,0.3c0.1,0.2,0.1,0.2,0.1,0.5c-0.1,0.2-0.1,0.2-0.2,0.5c-0.1,0.3-0.1,0.3-0.2,0.5
	c0,0.2,0,0.3,0,0.3c0.2,0.1,0.3,0.4,0.5,0.1c0.2-0.3,0.1-0.5,0.4-0.3c0.2,0.2,0.4,0.3,0.6,0.4c0.1,0.1,0,0.2,0.3,0.3
	c0.3,0.1,0.1,0.1,0.6,0.2c0.4,0,0.3-0.1,0.6,0c0.3,0.2,0.4,0.4,0.5,0.3c0.1-0.2,0-0.2-0.1-0.4c-0.1-0.2-0.2-0.3-0.4-0.4
	c-0.2-0.2-0.3-0.1-0.4-0.3c-0.2-0.1-0.5-0.5-0.3-0.3c0.3,0.2,0.2,0.4,0.5,0.3c0.2-0.1-0.2-0.3-0.3-0.5c-0.1-0.3,0-0.3-0.1-0.5
	c-0.1-0.3-0.1-0.1-0.1-0.4c0-0.4,0-0.2,0-0.6c0-0.5,0.2-0.5,0-0.7c-0.2-0.2-0.3-0.2-0.4-0.3c-0.1-0.1-0.3-0.2,0-0.3
	c0.3-0.1,0.3,0.2,0.4-0.1c0.1-0.3-0.1-0.4,0-0.5c0.1-0.1,0.1,0.2,0.2,0c0.1-0.2,0-0.3,0.1-0.3c0.1,0.1,0.1,0.2,0.3,0
	c0.2-0.1,0.3-0.2,0.2-0.4c-0.1-0.1-0.2-0.3,0-0.3c0.1-0.1,0.2-0.1,0.3,0c0.1,0.1,0.3-0.1,0.3,0c0,0.1-0.1,0.1-0.1,0.3
	c-0.1,0.2,0.3,0.1,0.1,0.3c-0.2,0.1-0.4,0-0.5,0.2c-0.1,0.2-0.1,0.2-0.2,0.4c0,0.2-0.1,0.3,0,0.5c0,0.2,0.4,0,0.4,0.2
	c0,0.2-0.1,0.3-0.2,0.4c-0.1,0.1-0.2,0.3,0,0.3c0.2,0,0.4,0,0.4,0.1c0,0.2,0,0.2-0.2,0.3c-0.2,0.1-0.3,0.2-0.2,0.2
	c0.1,0.1,0.5,0.3,0.4,0.4c0,0.1-0.1,0.4-0.1,0.6c0,0.2,0,0.3,0.2,0.4c0.1,0.1,0.3,0.1,0.4,0.2c0.2,0.1,0.2,0.1,0.3,0
	c0.1-0.2,0.1-0.3,0.2-0.1c0.1,0.1,0.4,0.1,0.3,0.3c-0.1,0.1-0.3,0.1-0.2,0.3c0.1,0.1,0.4,0,0.5,0.2c0,0.2,0,0.3-0.1,0.4
	c-0.1,0.1-0.4,0.2-0.3,0.3c0.1,0.1,0.2,0.2,0.4,0.1c0.2-0.1,0.4-0.1,0.4,0c0.1,0.1,0.3,0.2,0.1,0.3c-0.2,0.1-0.2,0.2-0.3,0.4
	c-0.1,0.2-0.2,0.3-0.2,0.6c0,0.3,0.1,0.7,0.1,0.8c0,0.1-0.2,0.1-0.1,0.4c0,0.2,0.1,0.7,0.3,0.5c0.2-0.2,0.2,0,0.2-0.5
	c0-0.5,0-0.6,0-0.8c0.1-0.2,0-0.2,0.2-0.3c0.2,0,0.2,0.2,0.2-0.2c0-0.4,0-0.6,0.1-0.9c0.1-0.3,0.2-0.2,0.3-0.5c0-0.3,0-0.5,0.1-0.8
	c0-0.3,0.1-0.5,0.2-0.6c0.1-0.1,0.2,0,0.3-0.3c0-0.3,0.1-0.3,0-0.4c0,0,0-0.1-0.1-0.1c-0.7,0.1-1.7,0.2-1.8,0.2
	C145.2,43.6,144.3,39.9,143.9,38.7"/>
<path fill="#1972B0" d="M144.5,38.3c-0.3-0.2-0.4,0.2-0.6,0.4c0.3,1.2,1.3,4.9,1.4,4.9c0.1,0,1.1-0.1,1.8-0.2c0-0.1,0-0.1,0.1-0.2
	c0.1-0.1,0-0.3,0-0.3s0.2,0-0.1-0.1c-0.3-0.2-0.3,0.1-0.3-0.3c0-0.3,0.1-0.4,0.1-0.5c0-0.1,0.2,0-0.2-0.1c-0.4-0.1-0.3,0-0.5-0.3
	c-0.2-0.3-0.1,0-0.3-0.5c-0.2-0.4-0.3-0.4-0.4-0.6c-0.1-0.2,0-0.2-0.3-0.4c-0.2-0.2-0.3-0.2-0.4-0.4c0-0.1-0.1-0.1-0.1-0.3
	c0-0.2-0.1-0.3-0.1-0.5c0-0.1,0.1-0.3,0.1-0.3C144.8,38.5,144.7,38.4,144.5,38.3"/>
<path fill="#1972B0" d="M148.4,32.9c0-0.2-0.1-0.3-0.3-0.4c-0.2-0.1-0.6-0.2-0.8-0.2c-0.2-0.1-0.8-0.3-1.2-0.4
	c-0.1-0.1-0.3-0.1-0.4-0.2c-0.1,0.1-0.1,0.2-0.3,0.3c-0.4,0.4-0.1,0.5-0.2,0.8c-0.1,0.3-0.1,0.3-0.3,0.6c-0.2,0.2,0,0.1,0.2,0.3
	c0.2,0.2,0.1,0.1-0.1,0.6c-0.2,0.5,0,0.6,0,0.7c0.1,0.1,0.4,0.1,0.4,0.4c0,0.2,0,0.2,0.5,0.3c0.5,0,0.3,0.4,0.7,0.6
	c0.3,0.3,0,0.3-0.2,0.6c-0.2,0.3-0.4,0.4-0.6,0.8c-0.2,0.5-0.2,0.2-0.4,0.4c-0.1,0.1-0.2,0.4-0.3,0.7c0,0.5,0,0.5,0.1,0.7
	c0.2,0.2,0.1,0.3,0.3,0.4c0.2,0.1,0.5,0.2,0.5,0.3c0.1,0.1,0.2,0.2,0.3,0.2c0.2,0,0.4-0.1,0.5-0.1c0.1,0,0.2,0,0.3,0.1
	c0,0.1-0.1,0.8,0,0.8c0.1,0.1,0.3,0.1,0.4-0.1c0.1-0.2,0-0.3,0.1-0.5c0.1-0.2,0.1-0.2,0.1-0.5c0-0.3-0.1-0.1,0.1-0.3
	c0.2-0.2,0.2-0.1,0.3-0.4c0.1-0.4,0.1-0.3,0.1-0.4c0-0.1,0-0.1,0-0.2c0-0.1,0-0.2,0-0.2s0.1-0.1,0.2-0.2c0.1,0,0,0.1,0.1,0
	c0.1-0.1,0.1,0.1,0.1-0.1l0-0.2l0.1,0c0,0,0,0,0-0.4c0-0.4,0-0.3,0-0.4c0-0.1,0.1-0.3,0.1-0.3s0,0,0-0.2c0-0.1-0.1-0.2-0.1-0.3
	c0-0.1-0.1,0.1,0-0.1c0.1-0.2,0.2-0.1,0.2-0.2V36c0-0.1-0.1-0.4-0.1-0.5c0-0.1,0-0.3,0-0.4s0-0.2,0-0.2s0.2,0,0-0.1
	c-0.2-0.1,0,0-0.2-0.1c-0.2,0-0.2,0-0.4,0H148c0,0-0.1,0.1-0.2,0c-0.1-0.1-0.2-0.1-0.1-0.2c0.1-0.2,0.1-0.2,0.2-0.3
	c0-0.1,0-0.1,0.1-0.2c0.1-0.1,0-0.1,0.1-0.2c0.1-0.1,0.1,0,0.2-0.1c0-0.1,0.1-0.1,0.1-0.1c0,0,0-0.1,0-0.1c0,0,0,0,0,0
	C148.3,33.2,148.4,33.1,148.4,32.9"/>
<path fill="#1972B0" d="M144.1,52.9c0,0,0,0.1,0,0.1C144.1,52.9,144.1,52.8,144.1,52.9"/>
<path fill="#1972B0" d="M128.5,54.3c0.4,0,0.8,0,1.2,0c0.5-0.1,6.5-1,7.6-1.3c0.9-0.2,6.4-1.3,8.7-1.8c0,0,0,0,0,0c0,0,0.1,0,0.1,0
	c0,0,0.1,0,0.1,0c0,0,0,0,0-0.1c0-0.3,0-0.2,0-0.3c0-0.1-0.1-0.4-0.2-0.6c0-0.2,0-0.4-0.2-0.4c-0.2,0-0.9-0.1-1,0
	c-0.1,0,0,0.1,0,0.2s0.1,0.3-0.1,0.2c-0.2-0.1-0.3-0.2-0.4-0.1c0,0.1-0.1,0.3-0.1,0.2c0-0.1,0-0.1-0.2-0.3c-0.1-0.2-0.2-0.1-0.3-0.3
	c-0.1-0.2,0-0.2-0.2-0.3c-0.2-0.2-0.1-0.1-0.3-0.1c-0.2,0,0,0-0.3-0.1c-0.3,0-0.4-0.1-0.4-0.1c-0.1,0-0.5,0-0.6-0.1
	c-0.1-0.1,0-0.1,0.3-0.1c0.3,0,0.4,0.2,0.5,0.1c0.1-0.1,0-0.2,0.2-0.1c0.2,0.1,0.1,0.2,0.3,0.2c0.2,0,0.1-0.1,0.3,0
	c0.2,0.1,0.3,0.2,0.4,0.3c0.1,0.1,0.2,0.1,0.3,0.2c0.1,0.1,0,0.3,0.2,0.2c0.2-0.1,0.3-0.1,0.4-0.2c0.1-0.1,0.2,0.1,0.1-0.3
	c-0.2-0.3-0.1-0.4-0.3-0.4c-0.2-0.1-0.1-0.1-0.2-0.1c-0.2,0-0.2,0-0.4,0c-0.2-0.1-0.1,0-0.3-0.2c-0.2-0.2-0.2-0.2-0.3-0.3
	c-0.1-0.1-0.2-0.2,0.1,0c0.2,0.2,0.3,0.3,0.5,0.3c0.2,0,0.4,0.1,0.4-0.1c0-0.2-0.3-0.2-0.2-0.3c0.1-0.1,0.2-0.1,0.3,0
	c0.1,0.1,0.2,0.3,0.2,0.1s0.1-0.4,0-0.6c-0.1-0.1,0.1-0.1-0.2-0.1c-0.3,0-0.3,0-0.3-0.1c-0.1-0.1,0-0.1-0.2-0.2
	c-0.2,0-0.2,0.1-0.4-0.1c-0.2-0.2,0-0.1-0.3-0.3c-0.3-0.1-0.3-0.1-0.4-0.3c-0.2-0.2,0.1,0-0.3-0.2c-0.3-0.3-0.3-0.3-0.4-0.5
	c-0.1-0.2,0.2,0.1,0.6,0.3c0.3,0.2,0.4,0.3,0.6,0.4c0.2,0.1,0.1,0.2,0.3,0.2c0.2,0.1,0.6,0.3,0.6,0.1c0-0.2,0.2-0.3,0.1-0.5
	c-0.1-0.2-0.3-0.3-0.2-0.3c0.1-0.1,0.2,0,0.2-0.2c0-0.1-0.3-0.2-0.6-0.3c-0.3-0.1-0.4-0.1-0.5-0.3c-0.1-0.1-0.3-0.2-0.5-0.2
	c-0.3,0-0.3,0.1-0.5,0c-0.3-0.1-0.5-0.2-0.6-0.4c-0.1-0.1-0.3-0.3-0.4-0.2c-0.1,0.1,0,0.4-0.3,0.2c-0.3-0.1-0.5-0.5-0.3-0.4
	c0-0.1,0-0.1,0-0.3c0-0.2,0-0.1,0.2-0.5c0.1-0.3,0.2-0.3,0.2-0.5c0.1-0.2,0-0.3-0.1-0.5c-0.1-0.2-0.2-0.2-0.3-0.3
	c-0.1-0.2-0.2-0.1-0.4-0.2c-0.2-0.1-0.3-0.1-0.6-0.2c-0.3,0-0.2-0.1-0.2-0.3c0-0.2-0.3-0.4-0.5-0.5c-0.1,0-0.3,0-0.5,0
	c0,0,0,0.1,0,0.2c0,0.2,0,0.2-0.1,0.4c-0.1,0.2-0.1,0-0.4-0.1c-0.3-0.1-0.5-0.2-0.7-0.3c-0.3-0.1-0.3-0.3-0.5-0.2
	c-0.2,0.1,0,0.2-0.1,0.5c-0.1,0.3,0,0.3,0,0.6c0,0.3-0.1,0.2-0.3,0.6c-0.2,0.4-0.1,0.3-0.3,0.4c-0.1,0.1-0.2,0-0.3,0.3
	c-0.1,0.3-0.5,0.4-0.7,0.4c-0.3,0.1,0,0.2-0.1,0.5c-0.1,0.3-0.2,0.2-0.2,0.6c0,0.3-0.1,0.3-0.3,0.5c-0.2,0.2-0.3,0.1-0.6,0
	c-0.2-0.1-0.4-0.3-0.6-0.3c-0.2,0-0.2,0.4-0.1,0.7c0.1,0.4-0.1,0.3-0.1,0.6c-0.1,0.2-0.2,0.4-0.3,0.6c0,0.2-0.1,0.4-0.2,0.7
	c-0.1,0.3-0.2,0.4-0.2,0.6c0,0.1-0.2,0.3-0.2,0.5c0,0.2,0.1,0.2,0.1,0.3c0.1,0.1-0.1,0.1-0.2,0.3c-0.1,0.1,0,0.3-0.1,0.4
	c-0.1,0.1-0.2,0.1-0.5,0.2c-0.3,0.1-0.4,0.1-0.5,0.3c-0.1,0.2-0.1,0.1-0.5,0c-0.4-0.2,0,0-0.1,0.3c-0.1,0.3-0.5,0.5-0.8,0.5
	c-0.3,0-0.4-0.1-0.6-0.1c-0.2,0-0.2,0.3-0.5,0.5c-0.3,0.1-0.5-0.1-0.7-0.2c-0.2-0.1-0.7-0.3-0.8-0.5c0-0.1-0.1-0.2-0.2-0.2
	c-0.2,0.2-0.6,0.7-0.9,1.1c-0.4,0.6-0.8,0.5-1,0.8c-0.2,0.3-0.1,0.2-0.2,0.4c-0.1,0.2-0.3,0.3-0.3,0.5c-0.1,0.2-0.1,0.1-0.4,0.3
	c-0.3,0.2,0,0.2-0.3,0.5c-0.2,0.3-0.3,0-0.6,0.2c-0.3,0.2-0.4,0.2-0.6,0.3c-0.1,0.1-0.3,0.2-0.4,0.3c0.2,0,0.5,0,0.7-0.1
	c0.5-0.1,4.9-0.8,5.2-0.9C128.2,54.3,128.3,54.3,128.5,54.3"/>
<path fill="#1972B0" d="M158.8,26.7c0-0.2,0-0.2-0.1-0.4c-0.1-0.2,0-0.3-0.2-0.4s-0.2-0.2-0.3-0.3c-0.1-0.1-0.3-0.1-0.4-0.1
	c-0.1,0,0.1,0.2,0.3,0.3c0.2,0.1,0.4,0.2,0.4,0.3c0,0.2-0.2,0.4-0.3,0.5c-0.1,0.1-0.1,0.3-0.4,0.3c-0.3,0-0.3,0.1-0.5,0
	c-0.1-0.1,0,0-0.2-0.3c-0.2-0.3,0-0.2-0.3-0.3c-0.3-0.1-0.4-0.2-0.3-0.2c0.1-0.1-0.1-0.3-0.1-0.4c0-0.1-0.3-0.3-0.5-0.3
	c-0.2,0-0.2,0.1-0.4,0.1c-0.2-0.1-0.2,0-0.2-0.3c0-0.3,0.1-0.4,0.1-0.6c0-0.2,0-0.3,0.1-0.4c0.1-0.1,0.3-0.1,0.4-0.3
	c0.1-0.1,0.3-0.4,0.2-0.4c-0.2,0-0.4,0.4-0.5,0.2c-0.1-0.2-0.2-0.3-0.3-0.5c-0.1-0.1-0.1-0.1-0.1-0.2c-0.1,0-0.3,0.1-0.4,0.2
	c-0.3,0.3-0.3,0.3-0.5,0.6c-0.2,0.3-0.3,0.3-0.5,0.3c-0.2,0-0.5,0-0.9,0.1c-0.4,0.2-0.8,0.2-1.4,0.3c-0.4,0.1-0.6,0.1-0.8,0.1
	c-0.1,0-0.2,0-0.3,0.1c-0.4,0.1-1.2,0.3-1.5,0.4c-0.1,0-0.2,0-0.4,0.1c0,0.2,0,0.3-0.1,0.8c-0.1,0.5,0.1,1.2,0,1.7
	c0,0.3,0,0.3,0.1,0.4c0.1,0,0.3-0.1,0.5-0.1c0.4-0.1,1.5-0.3,1.9-0.4c0.4-0.1,0.7-0.1,1.2-0.3c0.6-0.1,0.7-0.1,1.2-0.2c0,0,0,0,0,0
	c0.5-0.1,0.7-0.3,0.9-0.3c0.2,0,0.1-0.2,0.3,0.1c0.2,0.4,0.2,0.2,0.4,0.5c0.1,0.2,0.1,0.3,0.1,0.4c0.2,0,0.2,0,0.3-0.1
	c0.1-0.2,0.1-0.4,0.1-0.2s0,0.4,0,0.5c0,0.1,0,0.3,0.1,0.4c0.1,0.1,0.2-0.2,0.3-0.2c0.1-0.1,0.2,0,0.3-0.1c0.1-0.1,0.1-0.1,0.2-0.3
	c0.2-0.2,0.2-0.1,0.3-0.3c0.1-0.2,0.2-0.5,0.3-0.4c0,0.1,0.1,0.3,0.1,0.5c0,0.1,0.1,0.4,0.3,0.3c0.2-0.1,0.7-0.6,0.9-0.7
	c0.2-0.1,0.1,0,0.4-0.2C158.8,26.9,158.9,26.9,158.8,26.7"/>
<path fill="#1972B0" d="M154.7,21.7c-0.1-0.2-0.2-0.1-0.3-0.2c-0.1-0.1-0.1-0.1-0.3-0.3c-0.2-0.1-0.1-0.2-0.1-0.5
	c0-0.2-0.1-0.5-0.1-0.8c-0.1-0.2-1.6-4.5-2.1-6c0,0-0.1,0.1-0.1,0.1c-0.2,0.1-0.5,0-0.5,0.3c-0.1,0.3-0.1,0.9-0.1,0.9s-0.1,0-0.2,0
	c0.1,0.2,0.3,0.5,0.2,0.7c0,0.4-0.1,0.3,0.2,0.8c0.2,0.5,0,0.6-0.2,0.9c-0.2,0.3-0.4,0.4-0.6,0.7c-0.2,0.3-0.1,0.2,0,0.4
	c0,0.2,0.1,0.2,0.1,0.7c0,0.4,0.1,0.4-0.1,0.9c-0.1,0.5-0.1,0.2-0.2,0.6c-0.1,0.4,0,0.3-0.1,0.6c-0.1,0.2,0.1,0.4,0.1,0.8
	c0,0.5,0,0.3,0,0.7c0,0.4,0.2,0.6,0.2,0.8c-0.1,0.2,0,0.5,0,0.7c0,0.1,0.1,0.2,0.2,0.3c0.2,0,0.4,0,0.8-0.1c0.5-0.1,1-0.1,1.4-0.3
	c0.4-0.2,0.6-0.1,0.9-0.1c0.2,0,0.3,0,0.5-0.3c0.2-0.3,0.1-0.3,0.4-0.6c0.1-0.1,0.3-0.1,0.4-0.2c0,0,0-0.1,0-0.2
	c0.1-0.3,0.1-0.4,0.1-0.6c0-0.1,0-0.1,0-0.2C155,22,154.8,21.8,154.7,21.7"/>
<path fill="#1972B0" d="M163.3,12.5c-0.2-0.1-0.1,0-0.3,0c-0.2,0-0.5,0.1-0.3-0.2c0.1-0.3,0.2-0.3,0.1-0.4c-0.1-0.1-0.6-0.5-0.6-0.5
	s-0.3,0.3-0.4,0.1c-0.1-0.2-0.3-0.4-0.3-0.6c0-0.2-0.3-0.3-0.2-0.5c0-0.2,0.1-0.3-0.1-0.4c-0.3,0-0.8,0-0.9-0.2
	c-0.1-0.1-0.2-0.1-0.2-0.3c0-0.2-0.3-1.4-0.5-2c-0.2-0.6-0.9-2.4-0.9-2.5c0-0.1-0.1-0.1-0.3-0.2C158,4.5,157.2,4,157,4
	c-0.2,0-0.4,0.2-0.6,0.4c-0.2,0.2-0.3,0.3-0.6,0.4c-0.3,0.1-0.3,0.4-0.6,0.2c-0.3-0.2-0.3-0.6-0.5-0.7c-0.2-0.1-0.2-0.1-0.4,0.1
	c-0.1,0.2-0.8,1.8-0.9,2.3c-0.2,0.5-0.2,0.8-0.2,1c0,0.2,0.1,0.4,0,0.7c0,0.2-0.3,0.9-0.3,1.1c0.1,0.2,0.1,0.7,0.1,0.9
	c0,0.2,0.3,0.2,0.2,0.6c-0.1,0.3-0.7,1.2-0.7,1.5c0,0.2,0.2,0.4,0,0.6c-0.1,0.2-0.2,0.2-0.2,0.4c-0.1,0.2-0.2,0.3-0.3,0.3
	c-0.1,0-0.2,0.1-0.3,0.2c0.5,1.4,2,5.8,2.1,6c0.1,0.3,0.1,0.5,0.1,0.8c0,0.2,0,0.3,0.1,0.5c0.2,0.1,0.2,0.2,0.3,0.3
	c0.1,0.1,0.2,0,0.3,0.2c0.1,0.1,0.3,0.3,0.5,0.4c0.1-0.1,0.1-0.2,0.2-0.4c0-0.3-0.2-0.3,0-0.5c0.2-0.2,0.2-0.2,0.3-0.4
	c0.1-0.2,0.3-0.2,0.2-0.4c-0.1-0.2-0.3-0.1-0.1-0.3c0.2-0.3,0.4-0.3,0.2-0.4c-0.1-0.1-0.4,0.3-0.2-0.3c0.2-0.6,0.2-0.7,0.3-0.7
	c0.1,0,0,0.3,0.2,0.3c0.2,0,0.2-0.1,0.3-0.1c0.1-0.1,0.1,0.1,0.2,0.2c0.1,0.1,0.2,0.1,0.2,0c0-0.1,0-0.2,0-0.2s-0.1,0,0-0.1l0-0.1
	c0,0,0,0,0.1,0c0-0.1,0-0.1,0-0.1s0,0-0.1,0c0-0.1,0,0.1,0-0.1c0-0.1-0.1,0,0-0.1c0-0.1-0.1,0,0-0.1c0.1-0.1,0.1-0.2,0.1-0.1
	c0.1,0.1,0.1,0,0.1,0.1c0,0.1,0,0.1,0,0.2c0,0.1,0.1,0,0,0.1c-0.1,0.1-0.1,0.2,0.1,0.1c0.2-0.1,0.1,0,0.2-0.1l0.1-0.1
	c0,0,0.1,0,0.1-0.2c0-0.2,0-0.2,0-0.3c0-0.1-0.1-0.2,0.1-0.2c0.2,0,0.3,0.2,0.4,0.1c0.1-0.1,0.1-0.1,0.2-0.2c0.1-0.1,0.3,0,0.2-0.2
	c0-0.3-0.2,0.3-0.1-0.4c0.1-0.6,0,0,0-0.3c0-0.2,0.1,0,0-0.5c0-0.5,0-0.4,0.1-0.8c0.1-0.4,0.3-0.2,0.3-0.1c0,0.2,0.1,0,0,0.3
	c0,0.2-0.2,0.3,0,0.3c0.2,0,0.3,0,0.4,0c0.1,0.1,0.3,0.2,0.3,0.1c0-0.1,0-0.1-0.1-0.3c0-0.2,0-0.2,0-0.4c0-0.2,0-0.4,0.1-0.3
	c0.1,0.1,0.1,0.1,0.3,0.1c0.1,0,0.4,0,0.1,0.1c-0.2,0.1-0.3,0.2-0.2,0.3c0,0.1,0,0.2,0.1,0.2c0.2-0.1,0.2,0,0.3-0.1
	c0.1-0.1,0.2-0.2,0.2-0.3c0-0.1,0.1-0.1-0.1-0.2c-0.2-0.1-0.2-0.1-0.3-0.1c-0.1,0-0.5-0.1-0.1-0.2c0.3-0.1,0.5-0.1,0.6,0
	c0.1,0.1,0.1,0.2,0.2,0.3c0.1,0,0.1,0.1,0.2,0c0.1-0.1,0-0.3,0.1-0.3c0.1,0,0.2,0.2,0.2,0c0-0.2-0.1-0.3,0-0.5
	c0.1-0.1,0.3,0,0.4,0.1c0.1,0,0.1,0.1,0.2-0.1c0.1-0.1,0.1-0.1,0.2-0.2c0.1-0.1,0.1-0.1,0.2-0.2c0.1-0.1,0-0.2,0.2-0.3
	c0.2-0.1,0.2,0,0.4-0.1c0.2-0.1,0.2-0.2,0.3-0.4C163.3,12.7,163.5,12.6,163.3,12.5"/>
<path fill="#1972B0" d="M133,60.8c-0.6,0.1-0.5,0.1-0.6-0.2c-0.1-0.3-0.2-0.4-0.4-0.6c-0.2-0.2-0.3,0-0.6-0.2
	c-0.3-0.1-0.1-0.1-0.5-0.1c-0.4,0-1.4,0.1-2.3,0.2c-0.8,0.1-1.3,0.1-1.6,0.3c-0.3,0.2-0.8,0.4-0.9,0.5c-0.1,0.1-0.2,0.1-0.4,0.2
	c-0.2,0-0.5,0.1-0.7,0.3c-0.1,0.2-0.2,0.4-0.3,0.5c-0.1,0.2-0.3,0.4-0.4,0.7c0,0.3,0.1,0.4,0.3,0.5c0.2,0.1,0.4,0.2,0.6,0.3
	c0.1,0.1,0.2,0.1,0.4,0.1c0.2,0,0.3,0.2,0.5,0.3c0.1,0.1,0.5,0.8,0.7,1.1c0.3,0.2,0.3,0.5,0.5,0.5c0.2,0,0.6,0.2,0.7,0.3
	c0.1,0.1,0.3,0.7,0.6,0.8c0.3,0.1,0.5,0.1,0.7,0.2c0.2,0.1,0.3,0.4,0.3,0.5c0.1,0.2,0.1,0.1,0.3,0.3c0.1,0.1,0.1,0.3,0.2,0.4
	c0.1,0.1,0.4,0.3,0.6,0.4c0.2,0.1,0.5,0.2,0.6,0.3c0.1,0.1,0.2,0.4,0.3,0.5c0.1,0.1,0.1,0.5,0.2,0.6c0,0.2,0,0.3,0.3,0.4
	c0.3,0.1,0.6,0.2,0.6,0.4c0.1,0.3,0.3,0.4,0.3,0.7c0,0.3-0.1,0.4,0.1,0.5c0.2,0.1,0.7,0.2,1,0.4c0,0,0,0,0,0c0-0.1,0,0,0-0.1
	c-0.1-0.1-0.1,0-0.1-0.1l0-0.1c0,0-0.1-0.1,0-0.2c0.1-0.1,0.2-0.3,0.2-0.3c0.1,0.1,0.1,0.3,0.3,0l0.1-0.2c0,0-0.3,0-0.3-0.2
	c-0.1-0.1-0.1-0.2-0.1-0.2c0-0.1,0-0.1,0-0.1s-0.2-0.2-0.2-0.4c0-0.1-0.2-0.4,0-0.1c0.2,0.2,0.2,0.3,0.3,0.4
	c0.1,0.1-0.1,0.1,0.1,0.1c0.1,0,0.1,0.2,0.1,0c0.1-0.2,0-0.2,0.1-0.2c0.1,0,0-0.1,0.1,0.1c0.1,0.2,0.2,0.4,0.3,0.3
	c0.1-0.1-0.1,0,0.1-0.1c0.1-0.1,0.2,0,0.2-0.2c0-0.2,0-0.1,0-0.3c0-0.1,0.1-0.1,0-0.2c0-0.1-0.3-0.1-0.4-0.1c-0.1,0-0.1,0-0.2,0
	c-0.1,0-0.4,0-0.1-0.1c0.2-0.1,0.2-0.2,0.5-0.1c0.2,0.1,0.2,0.1,0.4,0c0.1-0.1,0-0.1,0.2-0.1c0.2,0,0.3,0,0.3-0.1
	c0-0.1-0.1-0.2,0.1-0.2c0.2,0,0,0,0.3-0.1s0.3,0,0.4-0.2c0-0.1,0-0.1,0.1-0.2c0.1-0.1,0.3-0.1,0.2-0.2c-0.1-0.1,0.1,0.1-0.1-0.1
	c-0.2-0.2-0.3-0.3-0.2-0.4c0.1-0.1,0.1-0.2,0.2,0c0.1,0.1,0,0.2,0.2,0.2c0.1-0.1,0.1,0,0.3-0.2c0.2-0.2,0-0.3,0.1-0.3
	c0.2,0,0.2,0.1,0.2-0.1c0-0.2-0.1-0.2,0-0.3c0.1-0.1,0-0.2,0.2-0.2c0.2,0,0.4,0.1,0.5-0.1c0-0.2,0-0.3,0.1-0.4
	c0.1-0.1,0.2,0,0.3-0.2c0-0.1-0.1-0.2-0.1-0.4c0-0.1-0.1-0.2-0.1-0.3c0-0.1,0-0.1,0.1,0.1c0.1,0.2,0,0.6,0.2,0.3
	c0.1-0.3,0-0.3,0-0.5c0-0.2-0.1-0.1,0.1-0.5c0.2-0.3,0.2-0.4,0.3-0.6c0.1-0.2,0.1-0.2,0.2-0.4c0.1-0.2,0.1-0.1,0.2-0.2
	c0.1-0.1,0-0.1,0.2-0.3c0.2-0.1,0.5-0.2,0.6-0.4c0,0,0,0,0,0c-1.1-0.8-4-3-4.1-3C135.9,60.3,133.6,60.7,133,60.8"/>
<path fill="#1972B0" d="M154.4,26.9c-0.2-0.4-0.1-0.1-0.3-0.1c-0.2,0-0.4,0.1-0.9,0.3c0,0.3,0.1,0.8,0.3,1.1
	c0.2,0.4,0.3,0.8,0.3,0.9c0,0.1,0,0.4,0,0.7c0.1,0,0.1-0.1,0.3-0.1c0.4-0.2,0.4-0.1,0.6-0.3c0.2-0.2,0.4,0.1,0.3-0.3
	c-0.1-0.4,0-0.3-0.1-0.5c-0.1-0.2-0.1-0.3-0.1-0.4c0-0.1,0-0.3,0-0.4c0.1-0.1,0,0.2,0.2,0.2c0,0,0,0,0,0c0-0.1,0-0.2-0.1-0.4
	C154.7,27.1,154.7,27.3,154.4,26.9"/>
<path fill="#1972B0" d="M148.4,28.1c0,0-0.1-0.1-0.1-0.4c0.1-0.5-0.1-1.2,0-1.7c0-0.5,0.1-0.6,0.1-0.8"/>
<path fill="#1972B0" d="M153.6,28.1c-0.1-0.3-0.2-0.8-0.3-1.1c0,0,0,0,0,0c-0.5,0.1-0.7,0.1-1.2,0.2s-0.8,0.2-1.2,0.3
	c-0.4,0.1-1.5,0.3-1.9,0.4c-0.2,0.1-0.4,0.1-0.5,0.1c0,0,0.1,0,0.1,0.1c0,0.2,0,0.6,0.1,1.1c0.1,0.6,0.3,0.9,0.3,1.2
	c0,0.3,0.2,0.4,0.2,0.7s-0.1,0.2-0.3,0.5c-0.2,0.3,0,0.2,0.1,0.3c0,0,0.1,0.1,0.1,0.1c0,0,0.1-0.1,0.2-0.2c0.2-0.2,0.1,0,0.4-0.3
	c0.3-0.4,0.3-0.5,0.5-0.5c0.2,0-0.1,0.3,0.2,0c0.3-0.3,0.4-0.5,0.5-0.5c0.1,0,0.2-0.2,0.5-0.2c0.3,0,0.3,0,0.6-0.1
	c0.2-0.1,0.1-0.1,0.3-0.2c0.2,0,0.2,0,0.3,0c0.1,0,0.2-0.1,0.4-0.2c0.1-0.1,0.1-0.1,0.4-0.2c0.2,0,0.3-0.1,0.4-0.1
	c0-0.2,0-0.5,0-0.7C153.8,28.9,153.8,28.6,153.6,28.1"/>
<path fill="#1972B0" d="M125.1,61.2c0.2-0.1,0.5-0.2,0.7-0.3c0.2,0,0.3-0.1,0.4-0.2c0.1-0.1,0.6-0.4,0.9-0.5
	c0.3-0.2,0.7-0.2,1.5-0.3c0.8-0.1,1.9-0.2,2.3-0.2c0.4,0,0.3,0,0.5,0.1c0.3,0.1,0.4,0,0.6,0.2c0.2,0.2,0.3,0.3,0.4,0.6
	c0.1,0.3,0,0.3,0.6,0.2c0.6-0.1,2.9-0.5,3-0.5c0.1,0,3,2.2,4.1,3c0-0.1-0.1-0.1,0.1-0.2c0.2,0,0.4-0.1,0.6-0.2c0.2-0.1,0,0,0.2-0.1
	c0.2,0,0.3,0,0.5-0.1c0.2,0,0.3,0.1,0.4-0.1c0.1-0.3,0.1-0.2,0.1-0.5c0-0.3,0.1-0.5,0.2-0.8c0.1-0.3,0.1-0.4,0.4-0.8
	c0.3-0.4,0.6-0.3,0.6-0.6c0-0.3,0-0.2,0-0.4c0-0.2,0-0.4,0.1-0.3c0,0.1,0,0.4,0.1,0.4c0.1,0,0.2-0.1,0.3-0.3
	c0.1-0.2,0.1-0.4,0.3-0.5c0.1-0.1-0.1,0.1,0.2,0c0.3,0,0.5-0.2,0.7-0.3c0.2-0.1,0.2-0.3,0.3-0.2c0.1,0,0.1,0.2,0.2,0.1
	c0.1-0.1-0.1-0.1,0.1-0.1c0.2,0,0.2,0.1,0.3,0c0.1-0.1,0,0,0.2-0.4c0.2-0.4,0.4-0.4,0.4-0.6s0-0.4-0.1-0.3c-0.1,0.1-0.1,0.3-0.2,0.3
	c-0.1,0-0.1,0-0.1-0.2c0-0.2,0-0.3-0.1-0.2c-0.1,0.1-0.1,0.1-0.2,0.2c-0.1,0.1-0.1,0.1-0.2,0.2c-0.1,0,0-0.1-0.1,0
	c-0.1,0.1-0.1,0.1-0.2,0.2c-0.1,0.1-0.2,0.1-0.3,0.1c-0.1,0-0.1,0.1-0.3,0c-0.2-0.1-0.1,0-0.3-0.1c-0.2-0.2-0.2-0.1-0.3-0.3
	c-0.1-0.1-0.3-0.2-0.1-0.1c0.2,0,0.4,0,0.6,0.1c0.1,0.1,0.1,0.2,0.3,0.2c0.2,0,0.2,0.1,0.4-0.1c0.2-0.3,0.3-0.2,0.3-0.4
	c0-0.2-0.2,0-0.2-0.2c0-0.2,0-0.1,0.2-0.2c0.2-0.1,0.2-0.1,0.1-0.3c-0.1-0.2,0-0.2-0.5-0.2c-0.4,0-0.3,0.1-0.7,0
	c-0.3-0.1-0.7,0-0.7-0.1c0-0.2,0.4-0.1,0.8-0.1c0.4,0,0.4,0.1,0.5-0.1c0.1-0.2,0-0.5,0.1-0.3c0.1,0.2,0,0.3,0.2,0.3
	c0.2,0,0.1-0.3,0.3-0.1c0.2,0.1,0.2,0.3,0.4,0.3c0.2,0,0.5,0.1,0.7-0.4c0.2-0.4,0.3-0.5,0.3-0.7c0-0.2,0.1-0.3,0.2-0.3
	c0.1,0,0.2,0.2,0.3,0c0.1-0.2,0-0.2,0-0.5c0-0.3,0.1-0.3,0-0.5s-0.1-0.4-0.3-0.3c-0.1,0-0.1,0-0.1,0.1c-0.1,0.1-0.1,0.1-0.2,0.1
	c-0.1,0.1-0.2,0.1-0.2,0.2c0,0.2,0,0,0,0.3c0,0.3,0,0.4-0.1,0.4c-0.2,0-0.3,0-0.2-0.1c0.1-0.1,0.3,0,0.1-0.1c-0.1-0.1-0.2,0-0.2-0.2
	c0-0.2,0.1-0.5,0.1-0.6c0-0.1-0.3-0.1-0.5-0.1c-0.2,0.1-0.2,0-0.3,0.2c-0.1,0.2-0.1,0.2-0.3,0.1c-0.1-0.1-0.1-0.2-0.3,0
	c-0.2,0.1-0.4,0.3-0.6,0.3c-0.1,0-0.1,0-0.2-0.2c-0.1-0.2-0.2-0.2-0.2-0.4c0-0.1,0-0.3,0-0.4c0,0,0-0.1,0-0.1c0-0.1,0,0,0,0.1
	c0.1,0.2,0.2,0.5,0.3,0.5c0.1,0,0.1,0,0.4,0c0.2,0,0.3-0.2,0.5-0.3c0.2-0.1,0-0.3,0.3-0.3c0.3,0,0.3,0,0.4-0.1
	c0.1-0.1,0.4,0.1,0.2-0.1c-0.2-0.3-0.3-0.3-0.4-0.4c-0.1,0,0.3-0.1,0.5,0c0.1,0.1,0.2,0.2,0.3,0.2c0.1-0.1,0.3-0.1,0.4,0
	c-0.1-0.1-0.3-0.5-0.4-0.6c-0.1-0.2-0.1-0.2-0.2-0.2c-0.1,0-0.1,0-0.3-0.2c-0.1-0.2-0.2-0.2-0.1-0.3c-2.2,0.4-7.8,1.6-8.7,1.8
	c-1.1,0.3-7.1,1.2-7.6,1.3c-0.4,0.1-0.8,0-1.2,0c0,0.4-0.1,0.8-0.2,1c-0.1,0.3-0.3,0.3-0.4,0.5c-0.1,0.3-0.1,0.4-0.2,0.6
	c-0.1,0.2-0.2,0.1-0.3-0.1c-0.1-0.1-0.5,0.1-0.8,0.2c-0.2,0.1-0.2,0.4-0.5,0.6c-0.2,0.1-0.2-0.1-0.4-0.1c-0.2-0.1-0.3,0.2-0.3,0.4
	c0,0.1-0.1,0.1-0.3,0c-0.2-0.1-0.1,0.3-0.2,0.6c-0.1,0.3-0.2,0.1-0.5,0.3c-0.2,0.2-0.8,0.6-1.1,0.8c-0.3,0.3-0.3,0.1-0.6,0.2
	c-0.3,0-0.3,0.1-0.6,0.3c-0.3,0.2-0.3,0.4-0.4,0.8c-0.1,0.4-0.6,0.3-0.7,0.5c-0.1,0.1-0.1,0.6-0.1,0.9c1.5-0.2,2.6-0.3,2.8-0.4
	c0.5-0.1,0.8,0,1-0.2C124.9,61.3,125,61.2,125.1,61.2"/>
<path fill="#1972B0" d="M23.2,68.1c0.4-0.1,0.1-0.3,0.1-0.7c0-0.3-0.3-0.4-0.5-0.8c-0.2-0.3,0.1-0.7,0.3-0.9
	c0.2-0.3,0.3-0.5,0.4-0.8c0.1-0.3,0.4-1,0.6-1.4c0.2-0.3,0.6-0.7,1.1-0.8c0.5-0.2,0.2-0.3,0.1-0.7c-0.2-0.3-0.5-0.8-0.7-1.1
	c-0.2-0.3-0.2-0.8-0.2-1.1c0-0.2,0-0.4,0-0.5L11.2,40.3l3.1-11.6c-6.2-1.5-10.8-2.9-12.1-3.3c0,0,0,0,0,0.1c0.1,0.2,0.2,0.3,0.1,0.5
	C2.2,26,2,26.2,2,26.4c0,0.1,0.2,0.3,0.2,0.6c0,0.3-0.1,0.7-0.1,0.8c0,0.1-0.2,0.5-0.3,0.7c-0.1,0.2-0.3,0.4-0.3,0.6
	c0,0.2-0.1,0.4-0.2,0.6c-0.1,0.1-0.2,0.3-0.2,0.4c0,0.1-0.2,0.2-0.4,0.3c-0.2,0.1-0.3,0.5-0.5,0.6c-0.1,0.1-0.3,0.4-0.3,0.6
	c0,0.2-0.1,0.3,0,0.5c0.1,0.2,0.3,0.5,0.4,0.7c0.1,0.2,0,0.2,0.1,0.4c0.1,0.3,0.2,0.3,0.3,0.5c0,0.2,0.2,0.3,0.1,0.5
	c-0.1,0.2,0.1,0.8,0.1,0.9c-0.1,0.1-0.3,0.2-0.4,0.5c-0.1,0.3,0,1,0,1.2c0,0.2,0.1,0.4,0,0.5c-0.1,0.1-0.3,0.1-0.1,0.4
	c0.1,0.3,0.3,0.7,0.4,1C1,38.9,1,39.4,1.2,39.6c0.1,0.2,0.4,0.4,0.4,0.6c0,0.2,0.1,0.4,0.1,0.5c0.1,0.1,0.3,0.6,0.2,0.5
	c-0.1-0.1-0.2-0.2-0.2,0c0,0.1-0.1,0.4-0.2,0.5c-0.1,0.1,0.1-0.1,0.3,0.1C2,42,2.1,42.1,2.1,42.2c0,0.1,0.2,0.1,0.3,0.3
	c0.1,0.2,0.1,0.3,0.3,0.3C3,42.8,3,42.7,3,42.5C3,42.4,3,42.4,3,42.3c0-0.2-0.1-0.4,0.2-0.4c0.2,0,0.3,0,0.4,0.1
	c0.1,0.1,0.3,0.4,0.5,0.3c0.2-0.1,0.4-0.1,0.4,0c0.1,0.1,0.2,0.2,0.5,0.3c0.2,0,0.3,0,0.4-0.1c0.1-0.1,0.1,0.1-0.1,0.2
	c-0.1,0.1,0,0.3-0.2,0.2c-0.2-0.1-0.5-0.4-0.6-0.4c-0.2,0-0.4,0.1-0.6,0c-0.2-0.1-0.4-0.2-0.5-0.1c-0.1,0.1-0.1,0.2-0.1,0.3
	c0,0.1,0,0.4,0.1,0.6c0.1,0.1,0.3,0.5,0.3,0.7c0,0.2-0.1,0.3,0,0.5c0.1,0.2,0.1,0.4-0.1,0.3C3.4,44.5,3,44.1,3,43.9
	c-0.1-0.1-0.2-0.4-0.3-0.3c-0.1,0.1-0.2,0.2-0.2,0.4c0.1,0.2,0.2,0.4,0.1,0.7c0,0,0,0.3-0.1,0.3c0,0.1-0.1,0.4,0,0.7
	c0.1,0.2,0.3,0.5,0.4,0.7c0.1,0.1,0.3,0.3,0.4,0.3c0.2,0,0.3-0.1,0.4,0.1c0.1,0.2,0.1,0.5,0.1,0.7c0,0.2-0.1,0.2-0.2,0.3
	C3.6,48,3.4,48,3.3,48.1c-0.1,0.1-0.2,0.1-0.2,0.5c0,0.4-0.1,0.6,0.1,0.8c0.2,0.2,0.5,0.7,0.5,0.8c0,0.1,0.1,0.3,0.2,0.4
	C3.9,50.7,4,50.8,4,51c0,0.1,0,0.3,0.1,0.5c0.1,0.2,0.2,0.5,0.2,0.7s0.2,0.2,0.3,0.3c0.1,0.1,0.1,0.3,0.1,0.4c0,0.1,0.3,0.4,0.4,0.6
	c0.1,0.1,0.2,0.4,0.1,0.5c-0.1,0.1-0.2,0.2-0.1,0.4c0.1,0.2,0.2,0.2,0.3,0.3c0.1,0.1,0.3,0.1,0.2,0.4c-0.1,0.3-0.2,0.3-0.2,0.4
	c0,0.1,0.1,0.4,0,0.5c-0.1,0.1-0.2,0-0.2,0.2s0,0.3-0.1,0.5c-0.1,0.2-0.2,0.3,0,0.4c0.1,0.1,0.2,0.3,0.4,0.4c0.2,0.1,0.5,0,0.8,0.2
	c0.3,0.2,0.5,0.2,0.8,0.4c0.2,0.2,0.4,0.3,0.7,0.3c0.2,0,0.4,0,0.6,0.2c0.2,0.2,0.3,0.3,0.4,0.4c0.1,0.1,0.2,0.2,0.2,0.3
	c0,0.1-0.1,0.2,0.3,0.6c0.4,0.3,0.8,0.6,1.2,0.6c0.3,0,0.6,0,0.8,0.1c0.2,0.2,0.2,0.3,0.1,0.4c0,0.2-0.1,0.8,0,0.9
	c0.1,0.1,0.1,0,0.3,0c0.2,0,0.5,0,0.6,0.3c0.1,0.2,0.5,0.6,0.6,0.7c0.1,0.1,0.6,0.8,0.8,1.1c0.2,0.3,0.5,1,0.5,1.4
	c0,0.4,0,0.9-0.1,1c0,0.1-0.2,0.3-0.1,0.3c0.1,0.1,0-0.1,0.2,0c0.1,0.1,0.1,0.3,0.1,0.5v0.3l7.9,0.8C22.5,68.1,22.8,68.2,23.2,68.1"
	/>
<path fill="#1972B0" d="M24.4,59.3c0,0.2,0,0.3,0,0.5c0,0.3,0.1,0.8,0.2,1.1c0.2,0.3,0.5,0.8,0.7,1.1c0.2,0.3,0.4,0.5-0.1,0.7
	c-0.5,0.2-0.9,0.5-1.1,0.8c-0.2,0.3-0.5,1-0.6,1.4c-0.1,0.3-0.3,0.6-0.4,0.8c-0.2,0.3-0.4,0.6-0.3,0.9c0.2,0.3,0.5,0.4,0.5,0.8
	c0,0.3,0.3,0.6-0.1,0.7c-0.4,0.1-0.8,0-0.9,0.1l-0.4,0.7l11.6,6.6l6.7,0.9c0.6-3.9,1.8-13.5,2.9-22.1c-8.5-1.1-13.9-2.2-15.6-2.5
	c-0.4,1.8-0.6,3-0.6,3.1c-0.2,0.5-0.1,0.8-0.4,0.7c-0.3-0.1-0.2-0.2-0.5-0.4c-0.3-0.2-0.3-0.4-0.7-0.2c-0.3,0.2-0.5,0.4-0.5,0.7
	c0,0.3,0.1,0.7,0,1.1c-0.1,0.4-0.2,0.6-0.2,1.2c0,0.6,0,0.8-0.2,1.1C24.4,59.1,24.4,59.2,24.4,59.3"/>
<path fill="#1972B0" d="M14.3,28.6c2.5,0.6,5.3,1.3,8.3,2C23,28.9,24,24.3,24,24c0-0.3,0.4-1,0.6-1.5c0.2-0.5,0.3-0.2-0.2-0.6
	c-0.6-0.4-0.3-0.4-0.3-0.8c0-0.4,0.8-1.2,1.1-1.3c0.2-0.1,0.3-0.5,0.5-0.8c0.1-0.3,0.4-0.4,0.6-0.7c0.2-0.3,0.2-0.6,0.5-0.8
	c0.2-0.2,0.3-0.7,0.3-1c0-0.3-0.4-0.3-0.6-0.7c-0.1-0.2-0.1-0.4-0.1-0.5c-0.8-0.2-2.3-0.5-3-0.6c-0.8-0.2-1-0.2-1.7-0.3
	C21,14.2,21,14,20.6,14.1c-0.4,0.1-0.3,0.1-0.8-0.1c-0.5-0.2-0.5-0.1-0.8,0.1c-0.3,0.1-0.3,0-0.6-0.1c-0.2-0.1-0.5,0.1-0.8,0.1
	c-0.4,0.1-0.5,0.1-0.9,0.1c-0.4,0-0.3-0.1-0.6-0.2c-0.2-0.2-0.5,0-0.8,0.1c-0.3,0.1-0.4,0-0.7,0c-0.3,0-0.2-0.1-0.3-0.3
	c-0.1-0.2-0.5-0.2-1-0.3c-0.5-0.1-0.2-0.2-0.6-0.2c-0.4,0.1-0.5,0.2-0.8,0.2c-0.3,0.1-0.6-0.1-0.9-0.2c-0.3-0.1-0.6-0.3-0.6-0.7
	v-1.2c0-0.3-0.5-0.8-0.8-1c-0.1,0-0.1,0-0.2-0.1c0.1,0.1,0.1,0.1,0,0.1C9,10.3,9,10.2,8.7,10.1C8.3,10,8.5,10,8.2,10
	C7.9,9.9,7.7,9.9,7.7,9.9s-0.1,0-0.2,0.2c0,0.1,0,0.3-0.1,0.5c-0.1,0.1-0.3,0.2-0.3,0.4c0,0.2-0.1,0.5,0,0.5
	c0.1,0.1,0.1,0.2,0.1,0.3C7.1,11.9,7,11.9,7,12c0,0.1,0.1,0.4,0,0.4c-0.1,0-0.2,0.3-0.3,0.5c-0.1,0.2-0.1,0.4-0.2,0.6
	c0,0.2-0.1,0.3-0.2,0.5c-0.1,0.2-0.2,0.4-0.3,0.6C6,14.6,5.7,15,5.7,15.3c0,0.2-0.2,0.3-0.2,0.5c0,0.2,0,0.6-0.1,0.7
	c-0.1,0.1-0.3,0.6-0.4,0.8c-0.1,0.2-0.3,1-0.4,1.2c-0.1,0.2-0.3,0.4-0.2,0.5c0.1,0,0.3,0,0.2,0.1c-0.1,0.1-0.1,0-0.2,0.1
	c-0.1,0.1-0.3,0.5-0.4,0.6c-0.1,0.1-0.3,0.3-0.1,0.3c0.1,0,0.1-0.1,0.1,0c0,0.1,0,0.1-0.1,0.1c-0.1,0-0.1-0.1-0.2,0
	c0,0.1-0.1,0.3-0.1,0.2c0-0.1-0.1-0.2-0.2-0.1c-0.1,0.1-0.2,0.8-0.4,1c-0.1,0.2-0.4,0.4-0.5,0.6c-0.1,0.2,0,0.9,0,1.1
	c0,0.2-0.1,0.3-0.1,0.4c-0.1,0.2-0.2,0.4-0.2,0.5c0,0.2-0.1,0.4-0.1,0.7c0.1,0.2,0,0.5,0.1,0.7C3.5,25.7,8.1,27.1,14.3,28.6"/>
<path fill="#1972B0" d="M10.3,11.3v1.2c0,0.3,0.2,0.6,0.6,0.7c0.3,0.1,0.6,0.2,0.9,0.2c0.3-0.1,0.4-0.2,0.8-0.2
	c0.4-0.1,0.2,0.1,0.6,0.2c0.5,0.1,0.9,0.1,1,0.3c0.1,0.2-0.1,0.3,0.3,0.3c0.3,0,0.4,0.1,0.7,0c0.3-0.1,0.6-0.2,0.8-0.1
	c0.2,0.2,0.2,0.2,0.6,0.2c0.4,0,0.5-0.1,0.9-0.1c0.4-0.1,0.6-0.2,0.8-0.1c0.2,0.1,0.3,0.2,0.6,0.1c0.3-0.1,0.3-0.2,0.8-0.1
	c0.5,0.2,0.4,0.2,0.8,0.1c0.4-0.1,0.4,0.1,1.1,0.2c0.7,0.1,0.8,0.1,1.7,0.3c0.7,0.2,2.2,0.5,3,0.6c0-0.1,0-0.2,0-0.4
	c0.1-0.4-0.2-0.6-0.2-0.9c-0.1-0.3,0.1-0.5,0.1-0.9c0-0.3,1.6-7.7,2-9.6c-8.2-1.7-14-3.2-14.6-3.4c-1.1-0.4-0.2,0.4-0.1,0.7
	C13.7,1,13.9,1,13.9,1.3c0,0.3,0,0.3-0.1,0.5c-0.1,0.2,0.2,0.5-0.1,0.5c-0.3,0-0.5-0.4-0.4,0c0.1,0.3,0.3,0.3,0.3,0.7
	c0,0.3,0,0.5,0.1,0.8c0.1,0.3,0,0.5-0.1,0.7c-0.1,0.2-0.4,0.2-0.4,0.6c0,0.4,0,0.3-0.1,0.6c-0.1,0.3,0,0.7-0.2,0.8
	c-0.2,0.2-0.4,0.3-0.8,0.5C11.8,7,11.8,7,11.5,7c-0.3,0.1-0.7,0.1-0.4-0.2c0.3-0.3,0.5-0.4,0.7-0.5c0.1-0.1,0.2,0,0.1,0.2
	c0-0.1,0.1-0.1,0.2-0.2c0.2-0.1,0.1,0.1,0.2,0.1c0.2,0,0.2,0,0.3-0.4c0.1-0.4,0.1-0.3,0-0.5c-0.1-0.2-0.2-0.2-0.1-0.3
	c0.1-0.1,0.1,0.1,0.2-0.2c0.1-0.3-0.1-0.1,0.2-0.3c0.3-0.2,0.4-0.4,0.3-0.4c-0.1,0-0.3,0-0.4,0.2c-0.2,0.2-0.2,0.3-0.3,0.4
	c-0.2,0.1-0.2,0.1-0.5,0.2c-0.3,0.1-0.5,0.2-0.5,0.4c-0.1,0.2,0.1,0.3,0.1,0.3s-0.2,0.2-0.3,0c-0.1-0.2,0.1-0.6,0.4-0.8
	c0.3-0.2,0.5-0.3,0.6-0.5c0.1-0.1-0.1,0.2,0.1,0c0.3-0.2,0.4-0.4,0.4-0.7c0-0.3,0-0.5,0-0.7c0-0.2-0.1,0-0.2,0.1
	c-0.2,0.1-0.2,0-0.3-0.1c-0.1-0.1-0.3-0.1-0.3-0.3c0-0.2,0-0.1-0.2-0.1c-0.2,0-0.3,0.1-0.5-0.1c-0.1-0.1,0-0.1-0.6-0.3
	C10,2.4,9.4,2.2,9.2,1.8C8.9,1.5,8.7,1.4,8.5,1.3C8.3,1.1,8.1,1,8.1,1s0.1,0.4,0,0.6C7.9,1.8,7.7,2,7.7,2.4c0,0.3,0.2,0.8,0.3,1.1
	C8.2,3.7,8,4,8,4.5C8,4.5,8,5.1,8,5.4C8,5.7,8.1,6,8,6.2C8,6.5,7.8,6.6,8,6.6c0.1,0,0.1-0.2,0.3,0C8.5,6.8,8.8,6.9,8.6,7
	C8.4,7.1,8.3,7.2,8.1,7.2C8,7.1,7.9,7,7.9,7.2c0,0.2-0.1,0.4,0.1,0.5c0.2,0.1,0.5,0.1,0.5,0.3c0,0.1,0,0-0.2,0.1
	C8.1,8.2,8.1,8.2,8.1,8.4C8.1,8.5,8,8.7,8,8.8c0.1,0.1-0.2,0.3-0.2,0.1c0-0.2,0-0.7,0-0.7S7.6,8.4,7.6,8.6c0,0.2,0,0.4-0.1,0.5
	C7.5,9.3,7.3,9.3,7.4,9.4c0.1,0.1,0.3,0.3,0.5,0.3c0.2,0,0.1-0.1,0.2-0.1c0.2-0.1,0.3,0,0.4,0.1c0.1,0.1,0.2,0,0.4,0.2
	C9,10,9.2,10.2,9.3,10.3c0.1,0,0.1,0.1,0.2,0.1C9.8,10.5,10.3,11.1,10.3,11.3"/>
<path fill="#1972B0" d="M61.7,57.9c0.1-0.8,0.1-1.4,0.1-1.9c-7.2-0.4-13.5-1-18.6-1.7c-1.1,8.7-2.4,18.2-3,22.1l2.8,0.4l0.3-1.8
	c0,0,3.9,0.4,5.2,0.6c-0.2-0.3-0.3-0.7-0.2-0.8c0.3-0.2,11.5,1.2,11.8,0.8c0.3-0.3,1.1-10.6,1.1-11.7C61.3,63.4,61.5,60.3,61.7,57.9
	"/>
<path fill="#1972B0" d="M113,80.4c0.1-0.2-0.1-0.3-0.3-0.4c-0.3-0.1-0.3-0.3-0.5-0.6c-0.1-0.2,0.1-0.4,0.3-0.6c0.2-0.1,7-0.8,8.4-1
	c0,0,0,0,0,0c0-0.2-0.2-0.4-0.3-0.6c-0.1-0.2-0.2-0.5-0.1-0.9c0.1-0.4,0.2-0.7,0.1-0.9c-0.1-0.3-0.5-0.6-0.4-1
	c0-0.4,0.1-0.3,0.1-0.5s0.1-0.6,0.3-0.7c0.2-0.1,0.1-0.2,0.1-0.3c-0.1-0.1-0.2-0.3-0.2-0.5c0-0.2-0.1-0.4-0.2-0.5
	c-0.1-0.1-0.4,0.1-0.8-1.6c-0.4-1.5-1.9-6.5-2.3-7.9c-2.1,0.2-4,0.5-5,0.6c-0.7,0.1-1.9,0.2-3.2,0.3c0.1,0.2,0.2,0.3,0.3,0.4
	c0.2,0.2-0.1,5-0.1,6.9s0,5.6,0.2,7.1c0.1,1.2,0.5,3.2,0.6,3.9c0-0.1,0.1-0.1,0.2-0.1c0.3,0,0.1,0.1,0.4,0.1c0.3,0,0.4,0,0.4,0
	s0-0.1-0.1-0.5c-0.1-0.4,0.1-0.3,0.1-0.6c0-0.3-0.1-0.5,0.1-0.4c0.2,0.1,0.4,0.1,0.4,0.2c0.1,0.2,0.1,0.3,0,0.4
	c-0.1,0.1-0.1,0.4,0.1,0.5c0.2,0.1,0.5,0.1,0.5,0.2c0,0.1,0.1,0.2-0.2,0.3c-0.2,0.1-0.6,0.1-0.5,0.1c0.1,0.1,0.3,0.1,0.5,0
	c0.2,0,0.4,0.1,0.5-0.2c0.1-0.2,0-0.3,0.2-0.4c0.2,0,0.2,0.1,0.3-0.1c0.1-0.2,0-0.2,0.1-0.4c0,0,0,0,0,0c0,0,0-0.1-0.1-0.1
	C112.9,80.7,112.9,80.6,113,80.4"/>
<path fill="#1972B0" d="M134.2,72c-0.4-0.2-0.9-0.3-1-0.4c-0.3-0.1-0.1-0.2-0.1-0.5c0-0.3-0.3-0.4-0.3-0.7c-0.1-0.3-0.4-0.3-0.6-0.4
	c-0.3-0.1-0.3-0.3-0.3-0.4c0-0.2-0.1-0.5-0.2-0.7c-0.1-0.1-0.3-0.4-0.3-0.5c-0.1-0.1-0.4-0.2-0.6-0.3c-0.2-0.1-0.5-0.3-0.6-0.4
	c-0.1-0.1-0.1-0.2-0.2-0.4c-0.1-0.1-0.2-0.1-0.3-0.3c-0.1-0.2-0.1-0.4-0.3-0.5c-0.2-0.1-0.4-0.1-0.7-0.2c-0.3-0.1-0.5-0.7-0.6-0.8
	c-0.1-0.1-0.5-0.3-0.7-0.3c-0.2,0-0.3-0.3-0.5-0.5c-0.3-0.2-0.6-0.9-0.7-1.1c-0.1-0.1-0.3-0.3-0.5-0.3c-0.2,0-0.3,0-0.4-0.1
	c-0.1-0.1-0.3-0.2-0.6-0.3c-0.2-0.1-0.3-0.2-0.3-0.5c0-0.3,0.2-0.5,0.4-0.7c0.1-0.1,0.2-0.3,0.3-0.5c-0.1,0-0.1,0.1-0.2,0.1
	c-0.2,0.2-0.5,0-1,0.2c-0.2,0-1.3,0.2-2.8,0.4c-1.2,0.1-2.7,0.3-4.1,0.5c0.5,1.5,2,6.5,2.3,7.9c0.4,1.7,0.7,1.5,0.8,1.6
	c0.1,0.1,0.3,0.3,0.2,0.5c0,0.2,0.1,0.3,0.2,0.5c0.1,0.1,0.1,0.2-0.1,0.3c-0.2,0.1-0.3,0.5-0.3,0.7s0,0.1-0.1,0.5
	c0,0.4,0.3,0.8,0.4,1c0.1,0.3,0,0.6-0.1,0.9c-0.1,0.4,0,0.7,0.1,0.9c0.1,0.2,0.3,0.4,0.3,0.6c0,0,0,0,0,0c0,0.2,0.3,0.3,0.3,0.5
	c0,0.2-0.1,0.5,0.3,0.5c0.4,0,7.6-0.5,7.9-0.5c0.3,0,0.7-0.2,0.8,0c0.1,0.2,0.2,0.6,0.4,0.6c0.2,0,0.5,0,0.5-0.3s-0.1-0.7-0.2-1
	c-0.1-0.3,0-0.4,0.2-0.5c0.1-0.1,0.2-0.1,0.5,0c0.3,0.1,0.6,0.1,0.7,0.1c0,0,0.2,0,0.3,0c0,0,0,0,0-0.1c0-0.2,0-0.2,0-0.3
	c-0.1-0.1-0.1-0.1-0.1-0.2c0.1-0.1-0.1,0,0.1-0.1l0.1-0.2v-0.1l-0.1-0.1c-0.1-0.1-0.1,0.1-0.1-0.1c0-0.1,0-0.1,0.1-0.2
	c0.1-0.1,0.3,0.1,0.1-0.1c-0.2-0.1-0.3,0-0.2-0.1c0.1-0.2,0-0.1,0.1-0.2c0.1,0,0,0,0.1,0c0.1,0-0.1,0,0.1,0c0.1,0,0,0,0.1,0
	c0.1,0,0.1,0,0.2-0.1c0-0.1,0.1-0.1,0.1-0.1s0-0.1,0-0.2c0-0.1,0.1-0.1,0-0.1c-0.1,0,0,0-0.1,0c-0.1,0-0.1,0-0.3,0
	c-0.2,0-0.2,0.1-0.2,0l0-0.1l0.1-0.1h0.2c0.1,0,0.2,0,0.2,0s0,0,0.1,0c0.1-0.1,0,0,0.1-0.1l0.1-0.1c0,0,0-0.1,0.1-0.2
	c0.1-0.1,0.2-0.2,0.2-0.2s0.1-0.1,0-0.1c-0.1,0,0,0-0.1,0h-0.2c0,0-0.1,0-0.1-0.1V74l0.1-0.1c0,0,0,0,0.1-0.1c0.2-0.1,0,0.1,0.2-0.1
	c0.1-0.2,0.1-0.1,0.1-0.2l0-0.1c0,0,0-0.1-0.1-0.1c-0.1,0,0.1,0-0.1,0l-0.1,0c0,0-0.1,0-0.1-0.1c0-0.1-0.1-0.1,0-0.1
	c0.1,0,0,0,0.1,0l0.2-0.1l0.1-0.1c0,0,0.1,0-0.1-0.1l-0.1-0.1c0,0-0.1-0.1-0.1-0.2s0.2-0.1,0.2-0.1s0.3,0.3,0.3,0.2
	c0-0.1,0.1,0,0.1-0.2l0-0.1c0,0,0-0.1,0-0.2c0.1,0,0,0,0.1,0C134.1,72.1,134.1,72.1,134.2,72C134.2,72,134.2,72,134.2,72"/>
<path fill="#1972B0" d="M109,70.6c0-1.9,0.3-6.7,0.1-6.9c-0.1-0.1-0.2-0.3-0.3-0.4c-2.6,0.2-5.6,0.4-6.7,0.5c0,0,0,0,0,0.1
	c0,0.2,0.3,0.3,0,0.5c-0.3,0.1-0.4,0.1-0.5,0.3c-0.1,0.2-0.1,0.1-0.2,0.3c-0.1,0.2-0.2,0.2-0.1,0.3c0.1,0.1,0.1-0.1,0.1,0.1
	c0,0.2,0,0.1-0.1,0.3c0,0.2-0.1,0,0,0.2c0.1,0.2,0.1,0.2,0,0.3c-0.1,0.1-0.3,0.2-0.4,0.2c-0.1,0-0.2,0.1-0.2,0.3
	c0,0.2,0.1,0.2-0.1,0.3c-0.2,0.1-0.3-0.1-0.3,0.2c-0.1,0.2-0.1,0.2-0.1,0.3c0.1,0.2,0.5,0.2,0.2,0.3c-0.3,0.1-0.3,0.1-0.4,0.2
	c-0.1,0.1-0.1-0.2-0.1,0.1c0,0.3,0.2,0.7,0.1,0.8c-0.2,0.1-0.3,0-0.3,0.2c0,0.1,0.2,0.1,0,0.3c-0.2,0.1-0.2,0.2-0.2,0.3
	c0,0.1,0.1,0.2,0.1,0.3c0.1,0.1,0.1,0.3,0.1,0.4c0,0.1,0.2,0.5,0.2,0.8c0,0.2,0,0.2-0.1,0.3c-0.1,0.2-0.2,0.7-0.1,0.8
	c0.1,0.1,0.3,0,0.3,0.2c-0.1,0.2-0.2,0.2-0.1,0.4c0,0.2,0.4,0.2,0.3,0.4c-0.1,0.2-0.3,0.1-0.2,0.3c0.1,0.1,0,0.2,0.3,0.2
	s0.6-0.1,0.3,0.1c-0.3,0.2-0.4,0-0.3,0.2c0.1,0.2,0,0.1,0.1,0.3c0.1,0.2,0.1,0.2,0.2,0.3c0.1,0.1,0.4,0.1,0.2,0.2
	c-0.1,0.1-0.7,0.4-0.7,0.5c0,0.1,0.4,0.2,0.4,0.2s0,0.1-0.1,0.2c-0.1,0.1-0.3,0.1-0.3,0.2c0.1,0.1,0.3,0,0.2,0.2
	c-0.2,0.2-0.1,0.1-0.3,0.2c-0.1,0.1-0.2,0.2-0.3,0.3c-0.1,0.1-0.2,0-0.3,0.2c-0.1,0.1,0.1,0.3,0.1,0.4c-0.1,0.1-0.3,0.1-0.3,0.3
	c0,0.2,0.1,0.2,0,0.3c-0.1,0.1-0.1-0.1-0.1,0.1c-0.1,0.1-0.2,0.2-0.2,0.3c0,0.1,0,0.2,0.1,0.3c0,0.1,0.2,0.2,0,0.2
	c-0.1,0-0.1-0.1-0.1,0l-0.1,0.1c0,0,0.1,0.1,0.1,0.1c0,0.1,0.1,0,0,0.1c-0.1,0.1-0.1,0.1-0.2,0.1c-0.1,0,0-0.1-0.1,0
	c-0.1,0.1-0.1,0.1,0,0.2l0.1,0.1c0,0,0.3,0.3,0.2,0.4c-0.1,0.1-0.2,0.2-0.2,0.2l0,0.1c0,0,5-0.3,5.4-0.3c0.4,0,1.2-0.3,1,0.2
	c-0.2,0.5-0.3,1.1,0.1,1.4c0.3,0.4,0.4,0.5,0.5,0.7s-0.1,0.2,0.1,0.3c0.1,0.1,0.2,0.3,0.3,0.4c0.1,0,0.1,0,0.3-0.1
	c0.2-0.1,0.1-0.1,0.2-0.3c0.1-0.1,0.1-0.3,0.2-0.3c0.2-0.1,0.3,0,0.5-0.1c0.2,0,0.2-0.1,0.4-0.2c0.3-0.1,0.2-0.1,0.5-0.1
	c0.2,0,0.2,0,0.4,0.1c0.2,0.1,0.3,0.2,0.4,0.1c0.2-0.1,0.1-0.1,0.3-0.1c0.2,0,0.1,0.2,0.3,0c0.1-0.1,0.1-0.1,0.1-0.2
	c-0.1-0.7-0.5-2.8-0.6-3.9C109,76.2,109,72.5,109,70.6"/>
<path fill="#1972B0" d="M88.8,69.9c-0.1,0-0.3-0.1-0.4-0.1c-0.1-0.1-0.3-0.1-0.6-0.2c-0.3-0.1-0.5-0.3-0.8-0.5
	c-0.3-0.2-0.4-0.3-0.6-0.4c-0.2,0-0.3,0.2-0.5,0.3c-0.2,0.1-0.3,0-0.5-0.1c-0.2-0.1-0.3-0.3-0.5-0.2c-0.2,0.1-0.4,0.3-0.5,0.3
	c-0.1,0-0.3-0.1-0.5,0c-0.2,0.1-0.3,0-0.5,0.2c-0.2,0.2-0.2,0.2-0.5,0.2c-0.3,0.1-0.1,0.2-0.2,0.2c-0.1,0-0.2-0.1-0.3-0.2
	c-0.1-0.1-0.4-0.4-0.6-0.5c-0.1-0.1-0.4,0-0.6,0c-0.2,0-0.3-0.2-0.6-0.2c-0.3,0-0.1,0.1-0.2,0.3c-0.1,0.1-0.1,0.2-0.2,0.3
	c0,0.1-0.1,0.2-0.2,0.2c-0.2,0-0.1-0.5-0.3-0.5c-0.2,0-0.2,0.1-0.4,0.2c-0.1,0.1-0.2-0.1-0.4-0.2c-0.2-0.1-0.2,0-0.3-0.1
	c0-0.1-0.2-0.2-0.4-0.1c-0.2,0-0.3,0.3-0.4,0.4c-0.1,0.1-0.4-0.1-0.4-0.2c0-0.1,0.1-0.3-0.1-0.4c-0.2-0.1-0.2-0.2-0.2-0.4
	c0-0.1-0.1-0.2-0.3-0.2c-0.2,0-0.3,0-0.5,0c-0.2,0.1-0.1,0.1-0.4,0.2c-0.3,0.1-0.2-0.2-0.3-0.3c-0.1-0.1-0.4,0-0.7,0
	c-0.2,0-0.5-0.3-0.6-0.3c-0.1,0-0.4,0-0.7,0c-0.3,0-0.1-0.1-0.1-0.4c0-0.3,0-0.3-0.4-0.5c-0.3-0.2-0.2,0-0.3,0.1
	c-0.1,0.1-0.1,0-0.3,0c-0.2-0.1-0.3,0.1-0.4,0.1c-0.1,0.1-0.3-0.2-0.4-0.4c-0.1-0.2-0.7-0.3-0.8-0.5C70.8,65.7,71,65,71,65
	s0.2-5.2,0.2-5.9c0-0.7-0.5-0.7-0.5-0.7l-9-0.5c-0.2,2.3-0.4,5.5-0.4,6.1c0,1.1-0.8,11.3-1.1,11.7c-0.3,0.3-11.6-1-11.8-0.8
	c-0.1,0.1,0,0.5,0.2,0.8c0.2,0,0.4,0.1,0.4,0.1c0.2,0.2,0.6,0.6,0.8,1c0.1,0.4,0.5,0.5,0.8,0.8c0.4,0.3,0.7,0.7,0.9,1
	c0.2,0.3,0.2,0.6,0.5,0.8c0.2,0.2,0.4,0.3,0.6,0.4c0.2,0.1,0.5,0.4,0.7,0.5c0.2,0.1,0.3,0.2,0.3,0.4c0.1,0.2,0.2,0.3,0.3,0.5
	c0.1,0.2,0.1,0.1,0.2,0.4c0.1,0.3,0.3,0.7,0.3,1c0,0.3-0.1,0.4,0,0.7c0.1,0.3,0.4,1.1,0.5,1.3c0.1,0.2,0.2,0.4,0.4,0.5
	c0.2,0.1,0.5,0.3,0.8,0.6c0.3,0.3,0.6,0.5,0.9,0.5c0.3,0.1,0.3,0.1,0.5,0.3c0.1,0.2,0.4,0.2,0.6,0.3c0.2,0.2,0.3,0.4,0.4,0.5
	c0.2,0.1,0.4,0.3,0.6,0.3c0.2,0,0.6-0.3,0.8-0.5c0.2-0.2,0.4-0.5,0.5-0.6c0.1-0.1,0.2-0.5,0.3-0.8c0.2-0.3,0.3-0.6,0.5-0.8
	c0.3-0.2,0.7-0.1,0.8-0.2c0.2-0.1,0.3-0.4,0.6-0.3c0.2,0,0.4,0.3,0.7,0.3c0.3,0,0.7-0.1,0.9,0c0.2,0.1,0.4,0.2,0.6,0.1
	c0.2-0.1,0.4-0.2,0.6,0.2c0.3,0.4,0.4,0.6,0.7,0.8c0.2,0.2,0.6,0.4,0.7,0.6c0.1,0.2,0.4,0.4,0.5,0.5c0.1,0.1,0.7,0.8,0.8,1.3
	c0.1,0.5,0.4,1,0.5,1.2c0.1,0.2,0.2,0.3,0.3,0.6c0.1,0.3,0.1,0.7,0.4,1.1c0.2,0.3,0.5,0.3,0.6,0.4c0.1,0.2,0.1,0.5,0.3,0.7
	c0.2,0.2,0.4,0.4,0.5,0.7c0.1,0.3,0.3,0.5,0.5,0.5c0.3,0,0.5,0.1,0.5,0.4c0,0.2-0.1,0.4,0,0.6c0.1,0.2,0.1,0.3,0,0.4
	c-0.1,0.1,0.1,0.3,0.1,0.5c0,0.1-0.1,0.3,0,0.5c0.1,0.3,0.3,0.5,0.4,0.7c0.1,0.1,0.4,0.5,0.4,0.7c0,0.2,0,0.4,0.1,0.7
	c0.1,0.2,0,0.4,0.1,0.5c0.2,0.1,0.5,0,0.8,0.1c0.3,0.1,0.5,0.3,0.7,0.5c0.2,0.1,0.4,0.1,0.7,0.1c0.2,0,0.4,0.2,0.6,0.3
	c0.2,0.2,0.3,0.3,0.7,0.3c0.4,0,0.8-0.1,1.3,0c0.5,0.1,0.6,0.2,0.8,0.4c0.3,0.2,0.6,0.6,0.7,0.4c0.2-0.2,0.2-0.3,0.4-0.3
	c0.2-0.1,0.3-0.3,0.2-0.3c-0.1,0-0.4,0.1-0.4-0.1c0-0.2,0.2-0.2,0.1-0.4c-0.1-0.1-0.4-0.9-0.5-1.2c-0.1-0.3-0.2-0.7-0.2-1
	c0-0.3,0-0.3-0.1-0.5s-0.2-0.3-0.1-0.3c0.1,0,0,0.1,0-0.2c-0.1-0.3,0.1-0.2,0.2-0.4c0.1-0.2,0.1-0.1,0.1-0.3c0-0.2,0-0.3,0-0.4
	s-0.1-0.2-0.3-0.2c-0.2,0-0.6,0.1-0.6-0.1c0-0.2,0.1-0.1,0-0.4c-0.1-0.2,0-0.2,0.2-0.1c0.1,0.1,0.1,0.3,0.3,0.2c0.2,0,0.4-0.2,0.4,0
	c0,0.2-0.1,0.3,0.1,0.2c0.2-0.1,0.2-0.1,0.3-0.3c0.1-0.2,0.2-0.7,0.2-1c0.1-0.3,0-0.2-0.1-0.4c-0.1-0.2-0.2-0.3-0.3-0.4
	c-0.1-0.1-0.3-0.1,0.1-0.2c0.3,0,0.5-0.1,0.6,0c0.1,0.1,0.1,0.3,0.2,0.1c0.1-0.1,0.4-0.4,0.5-0.7c0.1-0.3,0.3-0.4,0.2-0.4
	c-0.1,0-0.2,0-0.3,0.2c-0.1,0.1-0.1,0.3-0.2,0.2C80,92,80,91.9,80,91.7c0-0.2,0.1-0.1,0.2-0.2c0.2,0,0.2,0,0.3,0
	c0.2,0,0.3-0.1,0.3,0.1c0,0.1-0.1,0.3-0.2,0.5c-0.1,0.2-0.1,0.3,0,0.3c0,0.1,0.2-0.1,0.3-0.3c0.1-0.2,0.2-0.3,0.2-0.4
	c0-0.2-0.2-0.2-0.1-0.3c0.1-0.1,0.2,0.1,0.2,0.2c0,0.1,0.1,0.2,0.3,0c0.2-0.2,0.6-0.4,0.7-0.4c0.1-0.1,0.4,0,0.4-0.2
	c0-0.2,0.1-0.4,0-0.4c-0.1,0-0.2,0.2-0.3,0.3c-0.1,0.1-0.4,0.1-0.5,0.2c-0.1,0.1-0.2,0.3-0.4,0.3c-0.1,0-0.2,0.1-0.2-0.1
	c0-0.2,0-0.3-0.1-0.5c0-0.2-0.1-0.3,0-0.4c0.1,0,0.2,0.3,0.4,0.4c0.1,0.1,0.1,0.1,0.4,0c0.3-0.1,0.5-0.2,0.5-0.3
	c0-0.1-0.3-0.3-0.4-0.3c-0.2,0,0-0.1-0.1-0.3c-0.1-0.1-0.2-0.3-0.2-0.4c0.1-0.1,0.1,0,0.3,0.2c0.2,0.2,0.2,0.2,0.3,0.2
	c0.1-0.1,0.3,0,0.2-0.2c-0.1-0.3-0.2-0.4-0.1-0.3c0.2,0.1,0.1,0.3,0.3,0.3c0.1,0,0.2,0,0.3-0.1c0.1-0.1,0.1,0.1,0.2,0.2
	c0.1,0.1,0.2,0,0.3,0c0.1,0,0.2,0,0.1,0.1c-0.1,0.1-0.4,0.2-0.4,0.3c0,0.1,0.4-0.1,0.6-0.2c0.2-0.1,0.6-0.3,0.7-0.4
	c0.1-0.1-0.3,0-0.2-0.1c0.1-0.2,0.2-0.2,0.3-0.2c0.2,0,0.3,0.1,0.7-0.1c0.3-0.2,0.5-0.3,0.7-0.4c0.2-0.1,0.4-0.2,0.6-0.4
	c0.1-0.2,0.2-0.2,0.2-0.4c0-0.2-0.1-0.3,0-0.3c0.1,0,0.3-0.1,0.4-0.3c0.1-0.2,0.2-0.2,0.3-0.3c0.1-0.1,0.2-0.1,0.2-0.2
	c0-0.2-0.1,0-0.2-0.3c0-0.2-0.1-0.3-0.2-0.4c-0.1-0.1-0.1-0.2-0.1-0.3c0-0.1-0.2-0.3,0-0.3c0.2,0,0.3,0.3,0.4,0.1
	c0.1-0.1,0.3-0.4,0.4-0.4c0.1,0,0.3,0.1,0.2,0.3c-0.1,0.2-0.4,0.5-0.3,0.6c0.1,0.1,0.3,0.1,0.4,0c0.1-0.1,0.3-0.1,0.2,0
	c-0.1,0.1-0.3,0.3-0.4,0.4c-0.1,0.1-0.2,0.1-0.2,0.3c-0.1,0.2-0.3,0.6,0.1,0.1c0.4-0.5,0.7-0.7,0.9-0.8c0.2-0.1,0.8-0.4,1.1-0.6
	c0.3-0.1,0.4-0.1,0.7-0.1c0.2,0,0.3,0,0.4-0.1c-0.1-0.1-0.1-0.2-0.2-0.2c-0.1-0.2-0.1-0.3,0-0.4c0.1-0.1,0.1-0.4,0.4-0.7
	c0.2-0.3,0.1-0.2,0.1-0.5c0-0.2-0.1-0.6-0.2-0.9c-0.1-0.2,0.1-0.1,0.2-0.3c0.1-0.2,0-0.1-0.1-0.4c-0.1-0.3,0-0.1,0.1-0.3
	c0.1-0.2,0.2-0.4,0.3-0.5c0-0.1,0-0.1,0.1-0.2c0.1-0.1,0-0.1,0-0.2c0-0.1,0-0.1,0-0.2c0-0.1,0,0,0-0.3c-0.1-0.3,0-0.1,0.1-0.2
	c0.1-0.1,0-0.2,0-0.4c0-0.1,0-0.3-0.2-0.4c-0.2-0.1-0.3-0.4-0.3-0.5c0-0.1-0.1-0.3-0.3-0.5c-0.2-0.2-0.2-0.5-0.2-0.8
	s-0.3-0.8-0.5-0.9c-0.2-0.1-0.3-0.5-0.4-0.7c0-0.3-0.1-5.6-0.2-5.7c-0.1-0.1-0.3-0.1-0.5-0.1c-0.2,0-0.3,0-0.5,0.1
	C89,70.2,89,70,88.8,69.9C88.9,69.9,88.8,69.9,88.8,69.9"/>
<path fill="#1972B0" d="M131.7,77.2c-0.3-0.1-0.4-0.1-0.5,0c-0.1,0.1-0.2,0.2-0.2,0.5c0.1,0.3,0.2,0.7,0.2,1s-0.2,0.3-0.4,0.3
	c-0.2,0-0.3-0.4-0.4-0.6c-0.1-0.2-0.5,0-0.8,0c-0.3,0-7.5,0.5-7.9,0.5c-0.4,0-0.3-0.3-0.3-0.5c0-0.2-0.3-0.4-0.3-0.5
	c-1.4,0.1-8.2,0.9-8.4,1c-0.2,0.1-0.4,0.3-0.3,0.6c0.1,0.2,0.2,0.4,0.5,0.6c0.3,0.1,0.4,0.2,0.3,0.4c-0.1,0.2-0.1,0.3-0.1,0.4
	c0,0,0,0.1,0.1,0.1c0.1-0.1,0.3-0.2,0.2,0c0,0.2-0.1,0.1-0.2,0.3c-0.1,0.2-0.3,0.2-0.1,0.3c0.2,0.1,0.1,0.1,0.3,0
	c0.2-0.1,0.4-0.2,0.5-0.5c0.1-0.3,0-0.6,0.1-0.5c0.2,0.1,0,0.3,0.2,0.2c0.2-0.1,0-0.4,0.2-0.3c0.2,0.1,0.3,0.2,0.3,0.3
	c0,0.1,0,0.2-0.3,0.3c-0.3,0.1-0.7,0.2-0.4,0.2c0.3,0,0.3,0,0.7-0.1c0.4-0.1,0.6-0.3,0.9-0.3c0.3,0,0.3,0.1,0.4,0
	c0.1-0.1,0.2-0.5,0.4-0.4c0.1,0.1,0.1,0.3,0.3,0.2c0.1-0.1,0.1-0.3,0.5-0.1c0.4,0.2,0.5,0.3,0.3,0.3c-0.2,0-0.3-0.1-0.5-0.1
	c-0.2,0.1-0.1,0.1-0.2,0.1c-0.1,0-0.4,0-0.3,0.1c0.2,0.1,0.5,0,0.7,0.1c0.2,0.1,0.4,0,0.6,0.1c0.2,0.1,0.6,0.3,0.8,0.4
	c0.2,0.1,0.3,0.3,0.3,0.1c0-0.2,0-0.2-0.1-0.4c-0.1-0.1-0.3-0.3,0-0.3c0.3,0,0.2,0.2,0.3,0.1c0.1-0.1,0.4-0.4,0.3-0.2
	c-0.1,0.2-0.2,0.3-0.2,0.4c0,0.1,0.1,0.2,0.3,0.3c0.2,0.1,0,0.1,0.2,0.3c0.1,0.1,0.3,0.3,0.5,0.4c0.1,0,0.4,0.2,0.5,0.3
	c0.1,0.1,0.2,0.4,0.1,0.4s-0.1,0.1-0.2,0c0-0.1-0.3-0.2-0.1,0c0.1,0.2,0.1,0.2,0.4,0.2c0.3,0,0.3-0.2,0.5-0.2c0.2,0,0.3,0.1,0.5-0.1
	c0.2-0.1,0.2-0.3,0.3-0.3c0.1,0,0.1,0.1,0.3,0c0.2-0.1,0.3-0.1,0.4-0.3c0.1-0.1,0.1-0.2,0.4-0.3c0.2-0.1,0.3-0.1,0.5-0.1
	c0.2,0,0.4,0.1,0.2-0.1c-0.2-0.2-0.5-0.1-0.3-0.3c0.2-0.2,0.2-0.2,0.4-0.3c0.2-0.1,0.4-0.1,0.5-0.1c0.1,0,0.2-0.1,0.4-0.1
	c0.2,0,0.5,0.2,0.6,0.3c0.1,0.1,0.2,0,0.4,0.1c0.2,0.1,0.4,0.1,0.5,0.3c0.1,0.2,0.2,0.4,0.4,0.5c0.2,0.1,0.3,0,0.5,0.3
	c0.1,0.3,0,0.4,0.2,0.5c0.2,0.1,0.4,0.3,0.6,0.4c0.2,0.1,0.3,0.2,0.4,0.4c0.1,0.1,0.3,0.4,0.5,0.4c0.2,0,0.6,0,0.8,0
	c0.1,0.1,0.3,0.3,0.3,0.5c0,0.2,0,0.2,0.2,0.3c0.2,0.1,0.3,0.1,0.3,0.2c0,0.2,0.1,0.3,0.1,0.5c0,0.2,0,0.5,0.1,0.7
	c0.1,0.1,0,0.4,0,0.6s0,0.6-0.1,0.8c-0.1,0.2-0.2-0.1-0.1,0.3c0.1,0.4,0.1,0.5,0,0.8c-0.1,0.3-0.2,0.1-0.1,0.4
	c0.2,0.2,0.3,0.2,0.4,0.3c0.1,0.1,0.2,0.4,0.4,0.1c0.1-0.3,0.3-0.4,0.1-0.5c-0.1-0.1-0.2,0-0.2-0.3c-0.1-0.2-0.3-0.4-0.1-0.4
	c0.2,0.1,0.3,0.4,0.5,0.4c0.2,0,0.3-0.3,0.3-0.1c0.1,0.2,0.3,0.4,0.1,0.6c-0.2,0.2-0.2,0.1-0.2,0.3c-0.1,0.1-0.1,0.4-0.1,0.5
	c0,0.1,0,0.2-0.2,0.2c-0.2,0-0.4,0-0.3,0.1c0.1,0.1,0.4,0.3,0.5,0.4c0.1,0.1,0.3,0.2,0.3,0.4c0,0.1,0,0.3,0.2,0.5
	c0.2,0.3,0.4,0.7,0.6,0.8c0.1,0.1,0.4,0.4,0.6,0.4c0.2,0,0.5,0.2,0.3-0.1c-0.2-0.3-0.5-0.5-0.3-0.5c0.2,0,0.2,0.2,0.3,0.1
	c0.1-0.1,0.4-0.3,0.4-0.2c0,0.1-0.3,0.2-0.2,0.3c0.1,0.1,0.1,0.6,0.1,0.8c0,0.2,0,0.4,0.2,0.5c0.2,0,0.3,0,0.4-0.1s0.2-0.5,0.4-0.5
	c0.2-0.1-0.5,0.5-0.4,0.7c0,0.3-0.1,0.1,0.2,0.3c0.3,0.2,0.3,0.3,0.4,0.5c0.1,0.2,0.1,0.2,0.2,0.5c0,0.2,0.1,0.3,0.2,0.4
	c0.2,0.1,0.2,0.1,0.2,0.3c0,0.1-0.1,0.3,0.2,0.2c0.3,0,0.3-0.1,0.6-0.1c0.3,0.1,0.5,0.1,0.5,0.3c0,0.2,0.2,0.3,0.4,0.4
	c0.1,0.1,0.1,0.3,0.3,0.4c0.2,0.1,0.2,0.3,0.2,0.4c0,0.1,0,0.3,0.3,0.3c0.3,0,0.2,0.1,0.4,0.1c0.2,0.1,0.4,0.2,0.2,0.3
	c-0.2,0.1-0.3,0-0.3-0.1c-0.1-0.1-0.1-0.1-0.2-0.1c-0.1,0-0.3,0-0.2,0.2c0,0,0.1,0.3,0.2,0.4c0.1,0.1,0.2,0.2,0.3,0.1
	c0.2-0.1,0.3-0.2,0.5-0.3c0.2-0.1,0.1,0,0.4,0s0.3,0.1,0.5-0.1c0.2-0.2,0.2-0.3,0.4-0.3c0.2,0,0.2,0,0.3,0c0.1,0.1,0.2,0,0.2,0.1
	c0,0.1,0.1-0.1,0-0.2c0-0.2,0-0.3,0.1-0.5c0.1-0.2,0.1-0.2,0-0.4c0-0.1-0.1-0.2-0.1-0.4c0.1-0.2-0.1-0.2,0-0.4
	c0.2-0.2,0-0.3,0.1-0.4c0.1-0.1,0.3-0.2,0.3-0.4c0-0.2,0-0.5,0-1.1c0-0.6,0-0.9-0.1-1.5c0-0.6,0-0.5-0.1-0.8
	c-0.1-0.3-0.1-0.2-0.2-0.5c-0.1-0.3-0.2-0.4-0.3-0.5c0-0.2,0-0.2-0.2-0.4c-0.2-0.2-0.3-0.3-0.4-0.3c-0.1,0-0.2,0-0.2-0.2
	c0-0.2-0.1-0.2-0.3-0.7c-0.2-0.5-0.7-1-0.9-1.4c-0.2-0.4-0.5-0.7-0.7-1.1c-0.2-0.3-0.3-0.5-0.4-0.8c-0.1-0.3-0.2-0.3-0.4-0.7
	c-0.1-0.4-0.4-0.8-0.2-0.8c0.2,0,0.2,0.2,0.3,0.3c0.1,0.1,0.1,0.3,0.3,0.3c0.2,0,0.2,0,0.3,0.1c0.1,0.1,0.1,0.3,0.1,0.6
	c0,0.3,0,0.3,0.1,0.5c0.1,0.2,0.1,0.3,0.1-0.2c-0.1-0.4-0.1-0.4,0-0.6c0.1-0.2,0.1-0.2,0-0.4c-0.1-0.2-0.5-0.5-0.9-0.9
	c-0.4-0.4-0.9-0.8-1.8-2.5c-0.9-1.7-1.4-2.5-1.4-2.9c0-0.4,0.1-0.4-0.1-0.6c-0.2-0.1-0.3-0.1-0.3-0.3c0-0.2,0.1-0.1,0.1-0.4
	c0-0.3,0-0.3-0.1-0.3c-0.1,0-0.2,0-0.2,0c-0.1,0-0.3,0-0.3,0C132.3,77.3,132,77.3,131.7,77.2"/>
<path fill="#1972B0" d="M100.1,85.6C100.1,85.6,100.1,85.6,100.1,85.6C100.1,85.6,100.1,85.6,100.1,85.6"/>
<path fill="#1972B0" d="M145.6,31.6C145.6,31.6,145.6,31.6,145.6,31.6L145.6,31.6C145.6,31.6,145.6,31.6,145.6,31.6"/>
<path fill="#1972B0" d="M153.8,30.8c-0.1,0.1-0.4,0.2-0.5,0.2c-0.1,0-0.1,0-0.3,0.1c-0.1,0.1-0.2,0.2-0.3,0.3
	c-0.1,0.1-0.1,0.2-0.2,0.3c-0.1,0-0.1,0.1-0.2,0.1c-0.2,0-0.3,0.1-0.2-0.1c0.2-0.1,0.3-0.3,0.3-0.5c0.1-0.2,0.2-0.4,0.2-0.4
	c0-0.1-0.1,0-0.3,0.2c-0.2,0.3-0.6,0.6-0.8,0.7c-0.3,0.1-0.5,0.1-0.8,0.2c-0.3,0.1-0.3,0.2-0.4,0.3c-0.1,0.1-0.1,0-0.4,0.1
	c-0.3,0-0.1,0.3-0.3,0.3c-0.2,0-0.3-0.2-0.4-0.1c-0.1,0.1,0,0.3-0.2,0.3c-0.1,0-0.2,0.1-0.3,0c-0.1-0.1,0.1-0.1,0.2-0.3
	c0-0.1,0.1-0.2,0.1-0.2c0,0-0.1-0.1-0.1-0.1c-0.1-0.1-0.4-0.1-0.1-0.3c0.2-0.3,0.3-0.2,0.3-0.5s-0.1-0.4-0.2-0.7
	c0-0.3-0.2-0.7-0.3-1.2c-0.1-0.6-0.1-0.9-0.1-1.1c0-0.1-0.1-0.1-0.1-0.1c-0.1-0.3-0.1-1.4-0.1-1.7c0-0.3,0-0.3,0.1-0.7
	c0-0.3,0.1-0.3,0-0.5c-0.1-0.2-0.2-0.9-0.2-0.9c-0.1-0.6-0.4-1.3-0.5-1.7c-0.1-0.4-0.2-0.7-0.3-0.6c-0.1,0.1-0.2,0.4-0.3,0.1
	c-0.1-0.2,0-0.3,0-0.6c-0.1-0.3-0.1-0.5-0.3-0.9c-0.2-0.5-0.3-0.2-0.2-0.6c0.1-0.5,0.2-0.3,0.1-0.7c-0.1-0.4,0-0.6-0.2-0.8
	c-0.2-0.2-0.1-0.5-0.2-0.8c0-0.3-0.3-0.2-0.3-0.5c0-0.1,0-0.3,0-0.6c-1.5,0.4-2.9,0.8-3.1,0.8c-0.4,0-0.9,0.1-1.1,0.3
	c-0.2,0.2-1.4,1.6-1.6,1.8c-0.2,0.2-0.4,0.5-0.4,0.6c0,0.1-0.8,1.4-1,1.5c-0.1,0.2-0.2,0.4-0.1,0.5c0.1,0.1,0.1,0.1,0.3,0
	c0.2-0.1,0.1,0.2,0.3,0.1c0.2,0,0.1,0.2-0.1,0.4c-0.1,0.1-0.3,0-0.2,0.3c0.1,0.3,0.4,0.5,0.4,0.8c-0.1,0.3,0,0.4-0.3,0.4
	c-0.3,0.1-0.4,0-0.7,0.6c-0.3,0.6-0.6,0.7-0.7,0.7c-0.2,0-0.3,0-0.6,0c-0.3,0-0.7,0.1-0.8,0.2c-0.1,0.1-0.2,0.4-0.7,0.1
	c-0.5-0.3-0.6-0.2-1.1-0.1c-0.5,0.1-0.7,0.2-1.2,0.2c-0.5,0.1-0.7,0.5-1.1,0.5c-0.3,0-0.5,0.2-0.5,0.3c0,0.1,0,0.3,0.1,0.5
	c0,0.2,0.3,0.2,0.4,0.4c0.1,0.2,0.1,0.3,0.1,0.4c0,0.1,0.3,0,0.2,0.3c-0.1,0.3-0.2,0.5-0.4,0.7c-0.2,0.2-0.8,0.8-1,1
	c-0.1,0.1-0.4,0.4-0.7,0.8c0.1,0.4,0.2,1.2,0.3,1.2c0.1,0,9.8-2,10.8-2.2c1-0.2,1.4-0.5,1.6-0.5c0.2,0,0.3,0.2,0.5,0.3
	c0.1,0.1,0.1,0,0.3,0.1c0.2,0.1,0.4,0.2,0.4,0.5c0.1,0.3-0.1,0.5,0.4,0.8c0.3,0.2,0.6,0.3,0.9,0.4c0,0,0,0,0,0c0,0,0,0,0,0l0,0
	c0.1,0.1,0.3,0.1,0.4,0.2c0.4,0.1,1,0.4,1.2,0.4c0.2,0.1,0.6,0.1,0.8,0.2c0.2,0.1,0.3,0.3,0.3,0.4c0,0.2-0.1,0.3-0.1,0.5
	c0,0,0,0,0,0c0-0.1,0-0.1,0-0.1c0,0.1,0,0.3,0,0.4c0,0.1,0,0,0,0.1c0,0.1-0.1,0.1,0,0.2c0.1,0.1,0.1,0.1,0.2,0.1
	c0.1,0,0,0.1,0.2,0.1c0.2,0,0.6-0.3,0.8-0.4c0.2-0.1,0.3-0.2,0.5-0.3c0.2-0.1,0.1,0,0.4-0.1c0.2-0.1,0.2-0.3,0.5-0.4
	c0.3-0.1,0.5-0.2,0.7-0.3c0.2-0.1,0.3-0.2,0.4-0.2c0.2-0.1,0.2-0.1,0.3-0.1c0.1-0.1,0.1,0,0.1-0.2c0-0.1-0.1-0.3,0-0.2
	c0.2,0,0.3,0.1,0.4,0c0-0.1,0.1-0.1,0.4-0.4c0.3-0.3,0.2-0.3,0.4-0.3C153.8,31,154,30.8,153.8,30.8"/>
<path fill="#1972B0" d="M137.9,42c0.3,0.1,0.3,0.3,0.4,0.1c0.1-0.2,0.1-0.2,0.1-0.4c0-0.1,0-0.1,0-0.2c0-0.1,0-0.2,0-0.3
	c-0.1-0.1-0.1-0.1-0.2-0.3c-0.1-0.1-0.1,0.1-0.1-0.1c-0.1-0.3,0.1-0.3,0-0.3c-0.1,0-0.1,0-0.4,0.1c-0.3,0-0.1,0.2-0.3,0
	c-0.2-0.1-0.1-0.2-0.3-0.1c-0.2,0.1-0.3,0.1-0.3,0.1c-0.1,0.1-0.1,0.2-0.3,0.2c-0.1,0-0.2-0.1-0.2,0.1c0,0.2,0.1,0.3-0.1,0.3
	c-0.2,0-0.4,0.1-0.5,0c-0.1,0,0,0-0.2-0.1c-0.2-0.1-0.2-0.2-0.2,0c-0.1,0.2,0.1,0.1-0.1,0.3c-0.2,0.2-0.1,0.3-0.3,0.3
	c-0.2,0-0.4-0.1-0.5,0.1c-0.1,0.1-0.2,0.3-0.3,0.5c-0.1,0.2-0.5,0.5-0.5,0.6c-0.1,0.1-0.2,0.1-0.2,0.1s-0.2-1.3-0.3-2
	c-1.7,0.3-3,0.6-3.1,0.6c0,0-0.3-1.7-0.6-3.6c-0.1,0-0.2,0.1-0.3,0.1c-0.1,0.1-0.1,0.1-0.1,0.3c0,0.2,0.1,0.3,0.2,0.6
	c0.1,0.3,0.1,0.3-0.1,0.7c-0.2,0.4,0,0.5,0,0.8c0,0.4,0,0.3-0.2,0.5c-0.1,0.3,0,0.7-0.1,1.1c-0.1,0.4-0.1,0.2-0.5,0.5
	c-0.3,0.3-0.5,0.6-0.7,0.8c-0.2,0.1-0.2-0.1-0.4-0.1c-0.3-0.1-0.1,0.1-0.3,0.4c-0.1,0.3-0.1,0.1-0.2,0.2c-0.2,0.1-0.1,0.1-0.2,0.4
	c-0.1,0.3,0,0.1-0.1,0.4c-0.2,0.3,0.1,0.2,0.1,0.3c0,0.1,0,0.1-0.3,0.2c-0.3,0.1-0.2-0.2-0.3-0.3c-0.1-0.1-0.1,0-0.3,0.2
	c-0.1,0.2,0,0.2-0.1,0.6c-0.1,0.3,0,0.2,0,0.5c0,0.3,0.1,0.3,0.1,0.5c0,0.2-0.2,0.1-0.3,0.3c-0.1,0.2-0.1,0.3-0.2,0.4
	c-0.1,0.1-0.3,0.2-0.5,0.3c0.1,0.2,0.1,0.7,0.1,1c0.1,0.3,0.2,0.5,0.5,0.7c0.3,0.3,0.3,0.5,0.5,0.6c0.1,0.1,0.3,0.3,0.4,0.4
	c0.1,0.1,0.3,0.2,0.5,0.3c0.1,0,0.2,0.1,0.2,0.1c0.1,0,0.1,0.1,0.2,0.2c0.1,0.2,0.6,0.5,0.8,0.5c0.2,0.1,0.4,0.4,0.7,0.2
	c0.3-0.1,0.3-0.4,0.5-0.5c0.2,0,0.3,0.1,0.6,0.1c0.3,0,0.7-0.2,0.8-0.5c0.1-0.3-0.4-0.5,0.1-0.3c0.4,0.2,0.5,0.2,0.5,0
	c0.1-0.2,0.2-0.3,0.5-0.3c0.3-0.1,0.4-0.1,0.5-0.2c0.1-0.1,0-0.3,0.1-0.4c0.1-0.1,0.2-0.1,0.2-0.3c-0.1-0.1-0.1-0.1-0.1-0.3
	c0-0.2,0.2-0.4,0.2-0.5c0-0.1,0.1-0.3,0.2-0.6c0.1-0.3,0.2-0.5,0.2-0.7c0-0.2,0.2-0.3,0.3-0.6c0.1-0.3,0.2-0.2,0.1-0.6
	c0-0.2-0.1-0.4,0-0.5l0.1-0.2c0.2,0.1,0.4,0.2,0.6,0.3c0.2,0.1,0.3,0.2,0.6,0c0.2-0.2,0.3-0.2,0.3-0.5c0-0.3,0.1-0.2,0.2-0.6
	c0-0.2-0.1-0.4,0-0.4l0.1-0.1c0,0,0,0,0,0c0.3-0.1,0.6-0.1,0.7-0.4c0.1-0.3,0.1-0.2,0.3-0.3c0.1-0.1,0.1,0,0.3-0.3
	c0,0,0.2-0.3,0.3-0.5c0-0.2,0-0.3,0-0.4c0-0.1,0-0.2,0.1-0.3c0-0.1-0.1-0.3,0-0.4c0.1-0.1,0.2-0.1,0.3-0.1c0.1,0.1,0.3,0.2,0.4,0.2
	c0.1,0.1,0.2,0.1,0.3,0.2C137.7,41.9,137.9,42,137.9,42"/>
<path fill="#1972B0" d="M60.9,24.1L60.9,24.1c-0.1,0.1-0.3,4-0.6,8c3.7,0.3,15.9,0.7,15.9,0.7s0.1,0.1,0.2,0.2
	c0.2,0.2,0.2,0.2,0.7,0.4c0.5,0.2,0.3,0.2,0.6,0.2c0.3,0,0.2-0.2,0.3-0.3c0.1-0.1,0.1,0,0.5,0.1c0.3,0.1,0.8-0.1,1.1-0.1
	c0.3,0,0.1,0,0.3,0.1c0.1,0.1,0.1,0.2,0.4,0.2c0.3,0,0.3,0.1,0.4,0.2c0.1,0.1,0.2,0.1,0.3,0.2c0.1,0.1,0.1,0.1,0.3,0.2
	c0.2,0.1,0.1,0.1,0.3,0.3c0.1,0.2,0.2,0.1,0.5,0.2c0,0,0.1,0,0.1,0c-0.1-0.1-0.2-0.3-0.3-0.4c-0.1-0.2-0.2-0.1-0.3-0.3
	c-0.1-0.2-0.3,0-0.1-0.4c0.2-0.4,0.2-0.3,0.3-0.6c0.1-0.3,0.1-0.2,0.1-0.5c0.1-0.3,0.1-0.3-0.1-0.4c-0.2-0.1-0.5,0.1-0.3-0.3
	c0.2-0.3,0.3-0.3,0.1-0.5c-0.2-0.2-0.2-0.4-0.2-0.4s0.2,0,0.5,0c0-1.5-0.2-6.7-0.2-7c0-0.4-0.5-0.6-0.8-0.7
	c-0.3-0.2-0.2-0.3-0.2-0.7c0-0.4,0.2-0.4,0.5-0.7c0.1-0.1,0.2-0.3,0.2-0.5c-6.1,0.2-18.3-0.6-20.5-0.7c-0.1,1.8-0.2,3.1-0.2,3.2
	C61.1,23.8,61,23.9,60.9,24.1"/>
<path fill="#1972B0" d="M81.8,21.1c0-0.2,0-0.5,0-0.7c0-0.3-0.1-1-0.3-1.2c-0.2-0.3-0.3-1.4-0.3-1.6c0-0.2-0.1-0.5-0.1-0.8
	C81,16.5,81,16.4,81,15.9c0-0.5,0.1-0.7,0-1.4c-0.1-0.7-0.2-0.7-0.3-1c-0.1-0.3-0.3-0.7-0.4-0.9c-0.1-0.2,0-0.9-0.1-1.2
	c-0.1-0.3,0.1-0.8,0.2-1.2c0.1-0.5-0.2-0.5-0.3-0.7c0-0.1-0.1-0.3-0.2-0.4c-4.2,0-10.5-0.2-17.7-0.7c-0.2,2.4-0.6,8.2-0.8,11.9
	C63.5,20.5,75.6,21.3,81.8,21.1"/>
<path fill="#1972B0" d="M61.3,20.4c0.2-3.7,0.6-9.5,0.8-11.9C58.7,8.2,55,7.9,51.2,7.4C44.1,6.5,37,5.3,31,4.1
	c-0.2,0.4-0.4,1-0.5,1.3c-0.1,0.5-0.4,2.4-0.4,2.4s0.2,0.7,0.3,1c0.1,0.3,0.3,1.1,0.3,1.1s-0.3,0.2-0.2,0.5c0.1,0.2,0.5,0.5,0.7,0.8
	c0.2,0.3,0.3,0.5,0.4,0.8c0.1,0.3,0.3,0.3,0.5,0.6c0.2,0.3,0.2,0.5,0.3,0.7c0.1,0.2,0.3,0.1,0.4,0.3c0.1,0.2,0.2,0.3,0.4,0.3
	c0.2,0,0.4-0.1,0.4,0.1c0,0.2-0.5,1-0.6,1.4c-0.1,0.3-0.2,0.5-0.2,0.7c0,0.2,0.2,0.6,0.1,0.8c-0.2,0.2-0.3,0.1-0.3,0.4
	c-0.1,0.3-0.2,0.6-0.2,0.6s-0.1,0.2,0.1,0.4c0.2,0.2,0.3,0.5,0.6,0.3c0.3-0.1,0.4-0.4,0.6-0.5c0.2-0.1,0.3,0,0.5,0.2
	c0.2,0.2,0.2,0.6,0.2,0.8c0,0.3,0.3,0.7,0.4,1c0.1,0.3,0.3,0.6,0.2,0.8c-0.1,0.2-0.3,0.7,0,0.7c0.3,0.1,0.4-0.2,0.6,0.2
	c0.2,0.4,0.3,0.6,0.3,1c0,0.3-0.1,0.6,0.2,0.6c0.3,0,0.3-0.3,0.6-0.3c0.3,0,0.6,0.2,0.9,0.2c0.3-0.1,0.3-0.3,0.6-0.2
	c0.3,0.1,0.5,0.2,0.7,0.2c0.3,0,0.6,0.1,0.8,0.2c0.3,0.1,0.3,0.2,0.4-0.1c0.1-0.3,0-0.4,0.3-0.5c0.3-0.1,0.2,0.2,0.4,0.5
	c0.1,0.1,0.2,0.2,0.3,0.3c0.1-1.4,0-2.1,1.5-1.6c1.8,0.6,16,1.8,18.3,1.9c0.1-0.2,0.2-0.3,0.2-0.5C61.1,23.5,61.2,22.2,61.3,20.4"/>
<path fill="#1972B0" d="M43.2,54.4c0,0,11.5,1.3,17.5,1.6c6,0.3,4.3,0.2,4.3,0.2l0.8-15.8c0,0-0.1-0.2-0.3-0.2
	c-3.5,0-9.8-0.6-14.6-1.1c-4.7-0.6-5.6-0.7-5.6-0.7L43.2,54.4z"/>
<path fill="#1972B0" d="M59.9,40c0,0,0.5-7.4,0.5-9c0.1-1.6,0.5-6.9,0.5-6.9s-9.7-0.8-11-1c-1.3-0.1-6.1-0.8-6.6-0.8
	c-0.6-0.1-1.3-0.4-1.6-0.3c-0.3,0.1-0.5,0.6-0.5,1.1c0,0.8-2,14.6-2,14.6s12,1.5,13.7,1.7C54.6,39.5,59.9,40,59.9,40"/>
<path fill="#1972B0" d="M26.5,15.9c0,0,0-0.1-0.1-0.1c-0.1-0.2-0.1-0.4-0.1-0.5c0-0.1,0-0.2,0-0.4c0.1-0.4-0.2-0.6-0.2-0.9
	c-0.1-0.3,0.1-0.5,0.1-0.9c0-0.3,1.6-7.7,2-9.6C29.2,3.7,30,3.9,31,4.1c-0.2,0.4-0.4,1-0.5,1.3c-0.1,0.5-0.4,2.4-0.4,2.4
	s0.2,0.7,0.3,1c0.1,0.3,0.3,1.1,0.3,1.1s-0.3,0.2-0.2,0.5c0.1,0.2,0.5,0.5,0.7,0.8c0.2,0.3,0.3,0.5,0.4,0.8c0.1,0.3,0.3,0.3,0.4,0.6
	c0.2,0.3,0.2,0.5,0.3,0.7c0.1,0.2,0.3,0.1,0.4,0.3c0.1,0.2,0.2,0.3,0.4,0.3c0.2,0,0.5-0.1,0.5,0.1c0,0.2-0.5,1-0.6,1.4
	c-0.1,0.3-0.2,0.5-0.2,0.7c0,0.2,0.2,0.6,0.1,0.8c-0.2,0.2-0.3,0.1-0.3,0.4c-0.1,0.3-0.2,0.6-0.2,0.6s-0.1,0.2,0.1,0.4
	c0.2,0.2,0.3,0.5,0.6,0.3c0.3-0.1,0.4-0.4,0.6-0.5c0.2-0.1,0.3,0,0.5,0.2c0.2,0.2,0.2,0.6,0.2,0.8c0,0.3,0.3,0.7,0.4,1
	c0.1,0.3,0.3,0.6,0.2,0.8c-0.1,0.2-0.3,0.7,0,0.7c0.3,0.1,0.4-0.2,0.6,0.2c0.2,0.4,0.3,0.6,0.3,1c0,0.3-0.1,0.6,0.2,0.6
	c0.3,0,0.3-0.3,0.6-0.3c0.3,0,0.6,0.2,0.9,0.2c0.3-0.1,0.3-0.3,0.6-0.2c0.3,0.1,0.5,0.2,0.7,0.2c0.3,0,0.6,0.1,0.8,0.2
	c0.3,0.1,0.3,0.2,0.4-0.1c0.1-0.3,0-0.4,0.3-0.5c0.3-0.1,0.2,0.2,0.4,0.5c0.1,0.1,0.2,0.2,0.3,0.3c0,0.1,0,0.2,0,0.3l-1.4,9.7
	c-2.8-0.4-5.6-0.9-8.4-1.4c-2.9-0.6-5.9-1.2-8.6-1.8C23,28.9,24,24.3,24,24c0-0.3,0.4-1,0.6-1.5c0.2-0.5,0.3-0.2-0.2-0.6
	c-0.6-0.4-0.3-0.4-0.3-0.8c0-0.4,0.8-1.2,1.1-1.3c0.2-0.1,0.3-0.5,0.4-0.8c0.1-0.3,0.4-0.4,0.6-0.7c0.2-0.3,0.2-0.6,0.5-0.8
	c0,0,0.2-0.1,0.3-0.5c0.1-0.4,0.1-0.6,0-0.7C26.8,16.2,26.5,15.9,26.5,15.9"/>
<path fill="#1972B0" d="M102.6,63.7c0,0,11.9-1,14.5-1.3c2.6-0.4,3.9-0.5,3.9-0.5s0-0.7,0.1-0.9c0.2-0.2,0.4-0.1,0.7-0.9
	c0.3-0.8,0.9-0.8,1.1-0.8c0.1,0,0.2,0.1,0.4-0.2c0.3-0.2,1-0.8,1.2-0.9c0.2-0.1,0.3,0,0.4-0.2c0-0.2,0-0.7,0.2-0.6
	c0.2,0.1,0.3,0.1,0.4-0.1c0.1-0.2,0.2-0.3,0.3-0.2c0.2,0.1,0.1,0.2,0.3,0c0.3-0.2,0.5-0.6,0.8-0.7c0.4-0.1,0.4,0.3,0.6,0.1
	c0.1-0.2,0.2-0.6,0.3-0.8c0.2-0.1,0.4-0.3,0.4-0.7c0.1-0.4,0.1-0.7,0.1-0.7s-3.3,0.5-3.7,0.6c-0.4,0.1-3.1,0.5-3.3,0.5
	c-0.2,0-3.7,0.4-3.9,0.5c-0.3,0.1-4.6,0.3-5,0.4c-0.4,0.1-1.8,0.2-2.1,0.3s-0.8,0-1.2,0c-0.3,0-0.7-0.2-0.7,0c0,0.2,0.3,0.7-0.1,0.7
	c-0.5,0.1-2.9,0.2-3.4,0.3c-0.5,0.1-0.6,0.2-0.8,0.2c-0.2,0-0.3-0.1-0.3-0.1s-0.1,0.2,0,0.4c0,0.2,0.1,0.2,0,0.3
	c-0.1,0.1-0.2,0.1-0.1,0.2c0.1,0.1-0.1,0-0.1,0.1c0,0.2,0.2,0.1,0.1,0.4c-0.1,0.3-0.2,0.2-0.2,0.4c0,0.2,0,0.2,0.1,0.4
	c0,0.2,0,0.1-0.1,0.3c-0.1,0.1,0,0.4-0.2,0.5c-0.2,0-0.5,0.3-0.4,0.5c0.1,0.2,0,0.4-0.1,0.5c-0.1,0.1-0.3,0.1-0.2,0.2
	c0.1,0.1,0.2,0.4,0,0.3c-0.1-0.1-0.3-0.2-0.4-0.1c-0.1,0.1-0.1,0.3,0.1,0.4c0.2,0.1,0.5,0.1,0.4,0.3c-0.1,0.2,0.1,0.3-0.1,0.4
	c-0.1,0.1-0.5,0.4-0.6,0.5c0,0.1-0.1,0.2-0.1,0.2H102.6z"/>
<path fill="#1972B0" d="M88.1,58.5c0,0,6.9-0.3,7.9-0.3c1.1,0,4.9-0.3,5.3-0.3c0.4,0,1.1,0.2,1,0.6c-0.1,0.4-0.6,0.9-0.7,1.1
	c0,0.3,0.1,0.3,0.5,0.3l1.4-0.2c0,0,0-0.2,0-0.3c0.1-0.1,0.3-0.4,0.2-0.5c-0.1-0.1-0.2-0.2-0.1-0.3c0.1,0,0-0.1,0.1-0.2
	c0.1-0.1,0.2-0.1,0.2-0.3c0-0.2,0-0.5,0-0.5c0.1,0,0.1,0.1,0.2,0c0.1-0.1,0.3-0.3,0.5-0.4c0.2,0,0.2,0,0.3-0.4c0-0.4,0-0.5,0.1-0.7
	c0-0.2,0.1-0.7-0.2-0.7c-0.2,0-0.4,0.1-0.6,0c-0.2-0.2-0.6-0.8-0.6-1c0.1-0.2,0.3-0.5,0.2-0.6c-0.1-0.1-0.3-0.2-0.3-0.5
	c0-0.3-0.1-0.4-0.2-0.5c-0.1,0-0.5-0.3-0.7-0.5c-0.1-0.2-0.3-0.2-0.4-0.2c-0.1,0.1-0.1,0-0.2-0.1c-0.1-0.1-0.2-0.2-0.3-0.3
	c-0.1,0-0.7-0.5-0.8-0.7c-0.1-0.2-0.3-0.3-0.1-1.2c0.3-1,0.6-1.4,0.2-1.5c-0.4-0.2-0.9-0.3-1.1-0.2c-0.2,0.1-0.3,0.2-0.4,0
	c-0.1-0.2-0.1-0.3-0.1-0.5c0-0.2,0-0.5-0.4-1s-0.7-0.5-0.8-0.7c-0.1-0.2-0.5-0.4-0.6-0.6c-0.2-0.2-0.6-1.1-0.7-1.5
	c-0.1-0.4-0.1-0.8-0.1-1c0.1-0.2,0.1-0.2,0.1-0.2s-0.3-0.4-0.4-0.5c-0.1-0.1-0.3-0.2-0.4-0.4c0-0.2-0.1-0.2-0.3-0.1
	c-0.2,0.1-2.3,0.3-4.4,0.3c-2,0-7.3,0.1-7.3,0.1s-0.1-0.1-0.1,0.1c0,0.2,0,0.3,0.1,0.4c0.2,0.1,0.3,0.2,0.3,0.4
	c0.1,0.2,0.3,0.5,0.3,0.5c0.1,0.1,0.1,0.3,0.2,0.4c0,0.1,0.1,0.3,0.2,0.4c0.1,0.1,0.5,0.6,0.5,0.6c0,0,0.1,0,0.3,0
	c0.2,0.1,0.2,0.1,0.3,0c0.1-0.1,0.2-0.2,0.3-0.2c0,0,0,0.2,0.1,0.2c0.1,0.1,0.2,0.1,0.2,0.3c0,0.1,0,0.2-0.1,0.2
	c-0.2,0.1-0.4,0.1-0.4,0.2c-0.1,0.1-0.2,0.7-0.1,0.8c0.1,0.1,0.2,0.1,0.3,0.2c0.1,0.1,0.3,0.1,0.4,0.5c0.1,0.3,0.2,0.4,0.2,0.4
	c0,0,0.1,0.1,0.2,0.1c0.1,0.1,0.4,0,0.4,0.5c0,0.4,0,4.7,0,5.1C88,53.7,88.1,58.5,88.1,58.5"/>
<path fill="#1972B0" d="M128.5,32.5c0,0,1.4,8.6,1.4,8.8c0,0.2,0.1,0.3,0.1,0.3s12.2-2.4,12.4-2.5c0.1,0,1-0.1,1.4-0.3
	c0.3-0.2,0.6-0.6,0.8-0.5c0.2,0.1,0.3,0.3,0.4,0.2c0.1-0.1,0.1-0.5,0.3-0.6c0.2-0.1,0.3,0.1,0.5-0.3c0.2-0.4,0.6-0.8,0.8-1
	c0,0,0.2-0.1,0.1-0.2c0-0.1-0.2-0.2-0.3-0.4c-0.1-0.1-0.1-0.4-0.4-0.4c-0.3,0-0.6,0-0.6-0.1c0-0.1,0-0.3-0.2-0.4
	c-0.1-0.1-0.4-0.2-0.4-0.5c0-0.3,0.2-0.7,0.2-0.8c0-0.1,0-0.2-0.1-0.3c-0.1-0.1-0.3-0.1-0.2-0.2c0.1-0.1,0.3-0.2,0.3-0.5
	c0.1-0.2,0.1-0.5,0.1-0.7c0-0.1,0.2-0.4,0.3-0.5c0.1-0.1,0.2-0.2,0.2-0.2s-0.7-0.3-0.9-0.4c-0.1-0.1-0.3-0.1-0.4-0.4
	c0-0.3-0.1-0.5-0.2-0.6c-0.1-0.1-0.3-0.2-0.3-0.2c0,0-0.1,0-0.2,0c0,0-0.1,0-0.2-0.1c-0.1-0.1-0.3-0.3-0.5-0.3
	c-0.2,0.1-1,0.3-1.1,0.4c-0.1,0-5.1,1.1-5.2,1.1c0,0-6,1.2-6,1.2s-0.1,0-0.1-0.2c0-0.1-0.2-1-0.2-1L128.5,32.5z"/>
<path fill="#1972B0" d="M84.3,42.2c0,0,6.9-0.1,7.7-0.1c0.7,0,3.3-0.2,3.8-0.3c0,0,0.5-0.2,0.6,0.1c0,0.2,0.1,0.2,0.2,0.3
	c0.1,0.1,0.6,0.6,0.6,0.6s0.1-0.1,0.2-0.2c0.1-0.1,0.1-0.1,0.1-0.2c0-0.1-0.3-0.5-0.1-0.6c0.1-0.1,0.5-0.3,0.6-0.4
	c0.1-0.1,0.2-0.1,0.2-0.3c0-0.2,0-0.3,0.1-0.6c0.2-0.3,0.3-0.6,0.2-0.8c-0.1-0.2-0.4-0.3-0.4-0.6c0-0.2,0.1-0.7,0.2-0.7
	c0.1-0.1,0.3,0.1,0.6,0c0.3-0.1,0.3-0.1,0.5-0.2c0.1-0.1,0.2-0.1,0.4-0.2c0.2,0,0.5-0.1,0.5-0.2c0-0.2,0-0.5,0.1-0.6
	c0.1-0.1,0.3-0.2,0.3-0.4c0-0.1,0-0.5,0.1-0.6c0-0.1,0.1-0.4,0-0.5c-0.1-0.1-0.7-0.5-0.8-0.6c-0.1-0.1,0-0.3-0.2-0.4
	c-0.2-0.1-0.5-0.3-0.6-0.8c-0.1-0.5-0.4-0.4-0.5-0.4c-0.1,0-0.5,0-0.6-0.2c-0.1-0.2-0.2-0.3-0.2-0.4c0-0.2-0.1-0.3-0.2-0.4
	c-0.1-0.2-0.2-0.5-0.1-0.7c0-0.2,0.3-0.5,0.2-0.6c-0.1-0.1-0.2-0.1-0.3-0.2c-0.1-0.1-0.2-0.6-0.2-0.6s-1.6,0.1-2.4,0.2l-12.9,0.3
	c0,0,0.2,0.4,0.2,0.5c0,0.2-0.2,0.3-0.2,0.4c0,0.1,0.2,0,0.3,0.2c0.1,0.2,0.1,0.7,0,0.9c-0.1,0.2-0.4,0.8-0.4,0.9
	c0,0.1,0.1,0,0.1,0.2c0,0.2,0.2,0.1,0.3,0.3c0.1,0.2,0.4,0.4,0.4,0.6c0,0.2,0.1,1,0.1,1.2c0,0.2,0.1,0.2,0.2,0.3
	c0.1,0.1,0.3,0.2,0.3,0.4c0.1,0.2,0.4,0.6,0.4,0.7c0,0.1-0.1,0.5-0.1,0.7c0,0.3,0,0.2,0.1,0.4c0.1,0.1,0.4,0.2,0.4,0.3
	c0,0.1,0,0.3,0,0.4c0.1,0.1,0,0.3,0,0.4c0,0.1,0.2,0.2,0.2,0.4c0,0.2-0.1,0.5,0,0.7c0,0.1,0.1,0.4,0.1,0.7c0,0.2,0,0.7,0,0.7
	c0.1,0,0.1-0.1,0.2,0C84.3,42.1,84.3,42.2,84.3,42.2"/>
<path fill="#1972B0" d="M79.4,113c0,0-0.4-0.1-0.3,0.3c0.1,0.4,0.5,0.5,0.3,0.9c-0.1,0.4-0.8,0.5-0.9,1c0,0.4,0.2,1,0.3,1.3
	c0.1,0.3,0.4,0.5,0.2,1.1c-0.1,0.6-0.3,0.7,0,0.9c0.4,0.1,0.5,0.5,0.9,0.5c0.4-0.1,0.4-0.5,0.8-0.8c0.4-0.3,0.5-0.6,1-0.6
	c0.5,0,0.5,0.1,1-0.3c0.4-0.4,0.9-0.2,0.8-0.6c-0.1-0.5-0.4-0.5-0.7-0.9c-0.3-0.5-0.4-1.1-0.7-1.3c-0.4-0.2-1.2-0.3-1.6-0.6
	c-0.4-0.3-0.5-0.2-0.8-0.5C79.6,112.9,79.4,113,79.4,113"/>
<path fill="#1972B0" d="M76.9,111.6c0,0-0.2-0.1-0.4-0.5c-0.2-0.3-0.2-0.2-0.5-0.5c-0.3-0.2-0.5-0.5-0.4-0.8
	c0.1-0.2,0.5-0.1,0.7,0.1c0.2,0.2,0.4,0.2,0.6,0.2c0.2,0,0.4-0.1,0.8,0.1c0.4,0.2,0.9,0.3,0.6,0.7c-0.3,0.4-0.3,0.4-0.7,0.5
	c-0.4,0.1-0.2,0.2-0.5,0.2C76.9,111.7,76.9,111.6,76.9,111.6"/>
<path fill="#1972B0" d="M74.8,110.4c0,0-0.1-0.3-0.5-0.2c-0.4,0.1-0.5,0.3-0.2,0.5c0.3,0.2,0.3,0.3,0.5,0.3c0.3,0,0.5,0,0.5-0.2
	C75.2,110.5,74.8,110.4,74.8,110.4"/>
<path fill="#1972B0" d="M73.2,108.8c0,0,0.1,0-0.1,0.3c-0.2,0.3-0.3,0.5,0.3,0.3c0.5-0.1,0.7-0.2,1,0c0.4,0.2,0.6,0.3,0.8,0.2
	c0.2-0.1,0.6-0.4,0.2-0.5c-0.5-0.1-0.6,0-1-0.1c-0.4,0-0.4-0.1-0.7-0.1C73.4,108.9,73.2,108.8,73.2,108.8"/>
<path fill="#1972B0" d="M71.3,108.1c0,0-0.3-0.1-0.5-0.5c-0.1-0.5-0.3-1-0.6-0.8c-0.3,0.2-0.2,0.5-0.5,0.5c-0.3,0-0.7-0.3-0.6,0.1
	c0.1,0.4,0,0.4,0.4,0.8c0.4,0.4,0.4,0.6,0.6,0.5c0.2-0.2-0.1-0.5,0.4-0.2c0.5,0.4,0.5,0.5,0.8,0.5c0.3-0.1,0.9,0,0.6-0.2
	c-0.2-0.2-0.4-0.3-0.4-0.3L71.3,108.1z"/>
<path fill="#1972B0" d="M64,104.4c0,0-0.4,0-0.8,0.3c-0.4,0.3-0.7,0.1-0.6,0.4c0.1,0.2,0.1,0.1,0.5,0.4c0.4,0.3,0.6,0.7,1,0.5
	c0.4-0.3,0.3-0.3,0.4-0.5c0.2-0.3,0.6-0.3,0.3-0.6C64.5,104.4,64.2,104.4,64,104.4"/>
<path fill="#1972B0" d="M61.4,105.4c0,0-0.4,0.1-0.5,0.3s-0.5,0.6-0.1,0.5c0.4-0.1,0.4-0.2,0.6-0.4c0.2-0.2,0.5-0.5,0.3-0.5
	C61.5,105.3,61.4,105.4,61.4,105.4"/>
<path fill="#1972B0" d="M75.6,111.6c0,0,0.1,0.2,0,0.3c0,0.1,0.2,0.3,0.2,0c0-0.3,0.2-0.2,0-0.3C75.8,111.6,75.6,111.6,75.6,111.6"
	/>
<path fill="#1972B0" d="M99.6,71.9c0-0.2,0.1-0.5,0.1-0.7c0.1-0.2,0.1-0.1,0.1-0.3c0-0.2-0.3-0.6-0.2-0.8c0-0.1,0-0.3-0.1-0.4
	c-0.1-0.1-0.1-0.2-0.1-0.3c0-0.1,0.1-0.2,0.2-0.3c0.2-0.1,0-0.1,0-0.3c0-0.1,0.1-0.1,0.3-0.2c0.2-0.1-0.1-0.5-0.1-0.8
	c0-0.3,0,0,0.1-0.1c0.1-0.1,0.1-0.1,0.5-0.2c0.3-0.1-0.1-0.2-0.2-0.3c-0.1-0.2,0-0.1,0.1-0.3c0.1-0.2,0.2-0.1,0.3-0.2
	c0.2-0.1,0.1-0.1,0.1-0.3c0-0.2,0-0.2,0.2-0.3c0.1,0,0.3-0.2,0.4-0.2c0.1-0.1,0-0.1,0-0.3c-0.1-0.2,0,0,0-0.2c0-0.2,0-0.1,0.1-0.3
	c0-0.2,0,0-0.1-0.1c-0.1-0.1,0.1-0.1,0.1-0.3c0.1-0.2,0.1-0.1,0.2-0.3c0.1-0.2,0.2-0.2,0.5-0.3c0.3-0.1,0-0.3,0-0.5c0,0,0,0,0-0.1
	c0-0.2,0-0.2,0.2-0.4c0.2-0.2,0.1-0.1,0.4-0.3c0.3-0.1,0-0.2,0.2-0.4c0.2-0.2-0.3-0.3-0.4-0.4c-0.1-0.1-0.1-0.2-0.1-0.4
	c0.1-0.2,0.1,0,0.4,0.1c0.3,0.1,0-0.1,0-0.3c-0.1-0.1,0.1-0.2,0.3-0.4c0.2-0.2,0-0.2-0.1-0.3c-0.1-0.2,0.2-0.3,0.4-0.4
	c0.2-0.1,0.1-0.1,0.2-0.3c0.1-0.2-0.1-0.1,0-0.2c0.1-0.1,0.1-0.1,0.1-0.2c0-0.1,0-0.1,0-0.2c-0.5,0.1-1.4,0.1-1.5,0.1
	c-0.2,0-0.5,0.1-0.5-0.2c0-0.3,0.4-0.5,0.6-0.8c0.2-0.3,0.2-0.7-0.1-0.9c-0.3-0.2-1.5-0.1-2.5,0c-0.8,0.1-9.7,0.4-11.6,0.5
	c0,0.1,0,0.2,0,0.2c0.1,0.7,0.4,2.6,0.6,3.7c0.2,1.1,0.1,4,0.2,4.9c0,0.6,0,1.8,0,2.6c0,0,0.1,0,0.1,0.1c0.1,0.1,0.1,0.3,0.3,0.2
	c0.2,0,0.2-0.1,0.5-0.1c0.2,0,0.4,0,0.5,0.1c0,0,0.1,0.9,0.1,2C91.8,72.2,96.3,72.2,99.6,71.9"/>
<path fill="#1972B0" d="M107.8,86.2c-0.1-0.1,0-0.2-0.3-0.3c-0.3-0.1-0.4,0-0.5-0.1c-0.2-0.1-0.1-0.1-0.3-0.1c-0.2,0-0.2,0.2-0.3,0
	c-0.1-0.2-0.1-0.3-0.3-0.3c-0.2,0-0.4,0-0.4-0.1c0-0.2-0.1-0.3,0-0.4c0.2-0.1,0.4,0.1,0.4-0.1c0.1-0.1,0.1,0,0-0.2
	c0-0.2-0.1-0.3,0-0.4c0.1-0.1,0,0,0.3,0c0.3,0,0.3-0.3,0.2-0.4c-0.1-0.1-0.2-0.1-0.2-0.3c0-0.2,0.1-0.4-0.1-0.4
	c-0.2,0-0.3,0.1-0.4,0.2c0,0.1,0.1,0.5-0.1,0.5s-0.3,0-0.4-0.1c-0.1-0.1-0.2,0-0.3-0.1c-0.1-0.1-0.3-0.1,0-0.2
	c0.2-0.1,0.4-0.1,0.5-0.3c0.1-0.2,0-0.2-0.1-0.2c-0.2,0-0.2,0.1-0.4,0.1c-0.1-0.1-0.2-0.2-0.3-0.1c-0.1,0.1-0.1,0.3-0.4,0.3
	c-0.3,0-0.9,0.1-1.1,0.1c-0.2-0.1-0.4-0.3-0.2-0.4c0.2-0.2,0.3-0.7,0.5-0.7c0.2-0.1,0.4-0.1,0.7,0.1c0.3,0.2,0.5,0.3,0.7,0.3
	c0.2,0,0.1,0.3,0.4,0.3c0.3,0,0.3,0.1,0.5,0c0.1,0,0.1,0,0.1,0c-0.1-0.1-0.2-0.3-0.3-0.4c-0.2-0.2-0.1-0.2-0.1-0.3s-0.1-0.3-0.4-0.7
	c-0.3-0.4-0.2-0.9-0.1-1.4c0.2-0.5-0.6-0.3-1-0.2c-0.4,0-5.4,0.3-5.4,0.3l0-0.1c0,0,0-0.1,0.2-0.2c0.1-0.1-0.2-0.4-0.2-0.4l-0.1-0.1
	c-0.1-0.1,0-0.1,0-0.2c0.1-0.1,0,0,0.1,0c0.1,0,0.1,0,0.2-0.1c0.1-0.1,0,0,0-0.1c0-0.1-0.1-0.1-0.1-0.1l0.1-0.1c0.1-0.1,0,0,0.1,0
	c0.1,0,0-0.1,0-0.2c0-0.1-0.1-0.2-0.1-0.3c0-0.1,0.1-0.2,0.2-0.3c0.1-0.1,0,0,0.1-0.1c0.1-0.1,0-0.1,0-0.3c0-0.2,0.2-0.2,0.3-0.3
	c0.1-0.1-0.1-0.3-0.1-0.4c0.1-0.1,0.2-0.1,0.2-0.2c0.1-0.1,0.1-0.1,0.3-0.3c0.1-0.1,0.1-0.1,0.3-0.2c0.2-0.2-0.1-0.1-0.2-0.2
	c-0.1-0.1,0.2-0.1,0.3-0.2c0.1-0.1,0.1-0.2,0.1-0.2S100,75.1,100,75c0-0.1,0.6-0.4,0.7-0.5c0.1-0.1-0.1-0.1-0.2-0.2
	c-0.1-0.1-0.1-0.1-0.2-0.3c-0.1-0.2,0-0.1-0.1-0.3c-0.1-0.2,0,0,0.3-0.2c0.3-0.2-0.1-0.1-0.3-0.1c-0.2,0-0.2,0-0.3-0.2
	c-0.1-0.1,0.1-0.1,0.2-0.3c0.1-0.2-0.2-0.2-0.3-0.4c0-0.2,0.1-0.2,0.1-0.4c0.1-0.2-0.2-0.1-0.3-0.2c0,0,0-0.1,0-0.1
	c-3.3,0.2-7.8,0.3-9.4,0.3c0.1,1.6,0.1,3.5,0.1,3.7c0,0.3,0.2,0.6,0.4,0.7c0.2,0.1,0.5,0.6,0.5,0.9s0,0.5,0.2,0.8
	c0.2,0.2,0.3,0.4,0.3,0.5c0,0.1,0,0.4,0.3,0.5c0.2,0.1,0.2,0.2,0.2,0.4c0,0.1,0.1,0.2,0,0.4c-0.1,0.1-0.1,0-0.1,0.2
	c0,0.3,0,0.1,0,0.3c0,0.1,0,0.1,0,0.2c0,0.1,0,0.1,0,0.2c-0.1,0.1-0.1,0.2-0.1,0.2c0,0.1-0.2,0.3-0.3,0.5c-0.1,0.2-0.2,0-0.1,0.3
	c0.1,0.3,0.2,0.3,0.1,0.4c-0.1,0.2-0.3,0-0.2,0.3c0.1,0.2,0.3,0.6,0.2,0.8c0,0.2,0.1,0.2-0.1,0.5c-0.2,0.3-0.3,0.6-0.4,0.7
	c-0.1,0.1-0.1,0.2,0,0.4c0,0.1,0.1,0.1,0.2,0.2c0,0,0,0,0,0c0.1-0.1,0.5-0.2,0.9-0.3c0.4,0,0.6,0,0.7-0.1s-0.2,0,0-0.3
	c0.1-0.3,0.2-0.2,0.2-0.4c0-0.2-0.1-0.4,0.1-0.3c0.2,0.1,0.4,0.2,0.3,0.5c-0.1,0.2-0.3,0.2-0.3,0.3c0,0.1,0,0.2,0.2,0.2
	c0.2,0,0.5,0,0.8,0.2c0.3,0.1,0.6,0.4,1,0.4c0.4,0.1,0.7,0,1,0.1c0.3,0.1,0.5,0.2,0.7,0.1c0.2-0.1,0.1-0.1,0.3-0.2
	c0.3,0,0.2-0.2,0.1-0.4c-0.1-0.2-0.4-0.2-0.1-0.3c0.3-0.1,0.7-0.3,0.8-0.3c0.1,0,0,0.2,0.2,0.3c0.2,0,0.5,0,0.7,0
	c0.1,0.1,0.2,0.1,0.2,0.2c0,0.1,0.1,0.1,0.1,0.2s0,0.2,0.2,0.2s0.2,0.2,0.4,0.1c0.2,0,0.2,0.1,0.3-0.1c0,0,0,0,0,0
	c0.1-0.2,0.2-0.3,0.2-0.2c0,0.1-0.1,0.1-0.2,0.2c0,0,0,0,0,0c0,0,0,0.1,0,0.1c0.1,0.2,0.1,0.2,0.3,0.3c0.1,0.1,0,0.1-0.1,0.1
	c-0.1,0.1-0.3,0-0.2,0.2c0.1,0.2,0.2,0.4,0.4,0.4c0.2,0,0.2-0.1,0.3,0c0.2,0.1,0.2,0,0.4,0c0.1,0,0.2,0.2,0.4,0.2
	c0.2,0,0.2-0.1,0.4-0.1s0.3,0.1,0.4,0.1c0.1,0,0.1-0.1,0.1-0.4c0-0.2,0-0.3,0.1-0.4c0.2,0,0.2,0,0.4-0.1c0.1-0.1,0.2-0.2,0.2,0
	c0,0.1,0,0.2,0.2,0.2c0.2,0,0.2-0.1,0.3,0c0.1,0.1,0.1,0.1,0.1,0.2c0,0.1-0.2,0.4,0.1,0.4c0.3,0,0.6-0.3,0.6-0.4
	c0-0.1-0.2-0.2-0.1-0.3c0.1-0.1,0.2-0.1,0.2-0.3c0-0.2-0.2-0.4-0.4-0.5c-0.2-0.1-0.3-0.2-0.2-0.3c0.1-0.1,0.3,0,0.4,0
	c0.1,0.1,0.3,0.2,0.5,0.2c0.2,0,0.3,0,0.4,0.1c0.2,0.1,0.3,0.2,0.2,0.3c-0.2,0.1-0.1,0.1,0.1,0.1c0.2,0,0.3-0.1,0.3,0
	c0.1,0.1,0,0.2,0.2,0.2c0.2,0,0.4,0,0.4,0.1c0.1,0.1,0,0.2,0.2,0.3c0.2,0.1,0.3,0,0.2,0.2c-0.1,0.2-0.1,0.3,0.1,0.2
	c0.1-0.1,0.1-0.4,0.3-0.3c0.1,0.1,0,0.3,0.2,0.2c0.2,0,0.2-0.2,0.3-0.3c0-0.1,0.1-0.1,0.2-0.3C108.1,86.4,108,86.4,107.8,86.2"/>
</svg>
