<?xml version="1.0" encoding="iso-8859-1"?>
<!-- Generator: Adobe Illustrator 13.0.0, SVG Export Plug-In  -->
<!DOCTYPE svg [
	<!ENTITY ns_flows "http://ns.adobe.com/Flows/1.0/">
]>
<svg version="1.2" baseProfile="tiny"
	 xmlns="http://www.w3.org/2000/svg" xmlns:xlink="http://www.w3.org/1999/xlink" xmlns:a="http://ns.adobe.com/AdobeSVGViewerExtensions/3.0/"
	 x="0px" y="0px" width="202px" height="248px" viewBox="-0.2 -0.2 202 248" xml:space="preserve">
<defs>
</defs>
<path fill="#1972B0" d="M180.8,212.4c1.4-0.3,2.8-1.1,3.5-2.5c1.3-2.4,0.4-5.5-2-6.8c-2.4-1.3-5.4-0.5-6.7,1.9l-49.7-27.2
	c1.2-2.4,0.3-5.4-2-6.7c-2.4-1.3-5.5-0.4-6.8,2c-0.8,1.4-0.8,3-0.2,4.3c-1.4,0.3-2.8,1.1-3.5,2.5c-1.3,2.4-0.4,5.5,2,6.8
	c2.3,1.3,5.2,0.5,6.6-1.7l49.7,27.2c-1.1,2.4-0.2,5.2,2.2,6.5c2.4,1.3,5.5,0.4,6.8-2C181.3,215.4,181.3,213.8,180.8,212.4"/>
<path fill="#1972B0" d="M182.2,180.3c0.7-1.3,0.8-2.9,0.2-4.3c-1.1-2.5-4.1-3.7-6.6-2.6c-2.5,1.1-3.7,4-2.6,6.5l-51.9,22.7
	c-1.1-2.5-4-3.6-6.5-2.5c-2.5,1.1-3.7,4.1-2.6,6.6c0.6,1.4,1.9,2.4,3.3,2.8c-0.7,1.3-0.8,2.9-0.1,4.3c1.1,2.5,4.1,3.7,6.6,2.6
	c2.4-1.1,3.6-3.8,2.7-6.2l51.9-22.7c1.2,2.3,4,3.3,6.4,2.2c2.5-1.1,3.7-4.1,2.6-6.6C184.8,181.7,183.6,180.7,182.2,180.3"/>
<path fill="#1972B0" d="M172,158c0.5-11.3-8.3-20.9-19.6-21.4c-11.3-0.5-20.9,8.3-21.4,19.6c-0.3,6.5,2.5,12.4,7,16.4
	c-0.5,0.9-0.8,1.8-0.8,2.9c-0.2,3.5,2.6,6.5,6.1,6.6c1.3,0.1,2.4-0.3,3.5-0.9c1,0.7,2.1,1.1,3.4,1.1c1.4,0.1,2.7-0.3,3.7-1
	c1,0.8,2.3,1.3,3.6,1.3c3.5,0.2,6.5-2.6,6.6-6.1c0-1-0.2-2-0.6-2.9C168.4,170.2,171.7,164.5,172,158 M143.5,161.2
	c-3.1-0.1-5.6-2.8-5.4-5.9c0.1-3.1,2.8-5.6,5.9-5.4c3.1,0.1,5.6,2.8,5.4,5.9C149.3,158.9,146.7,161.3,143.5,161.2 M147.4,169.4
	c0,0,3.4-14,5.8,0.2C153.2,169.6,149.8,167.3,147.4,169.4 M157.4,161.8c-3.1-0.1-5.6-2.8-5.4-5.9c0.1-3.1,2.8-5.6,5.9-5.4
	c3.1,0.1,5.6,2.8,5.4,5.9C163.2,159.5,160.5,161.9,157.4,161.8"/>
<path fill="#1972B0" d="M102.1,28.9c-52.2,6.5-3.9,57-3.9,57c4.2,2.3,6,0,6,0C152,33.3,102.1,28.9,102.1,28.9 M83.4,57.4
	c0,0,13.9-0.7,14.9,13C98.2,70.3,84.9,72,83.4,57.4 M104,70.3c1-13.6,14.9-13,14.9-13C117.3,72,104,70.3,104,70.3"/>
<path fill="#1972B0" d="M194.6,247.5L98,242.6l6.7-133.1l96.6,4.9L194.6,247.5z M102,238.9l89,4.5l6.3-125.5l-89-4.5L102,238.9z"/>
<path fill="#1972B0" d="M159.7,98.8c-0.2,3-2.7,5.3-5.7,5.2c-3-0.2-5.3-2.7-5.2-5.7c0.2-3,2.7-5.3,5.7-5.2
	C157.5,93.2,159.8,95.8,159.7,98.8"/>
<polygon fill="#1972B0" points="122,113.2 121.5,112.2 150.1,99.5 150.5,100.5 "/>
<rect x="154.8" y="107.5" transform="matrix(0.8669 0.4985 -0.4985 0.8669 76.5772 -70.5684)" fill="#1972B0" width="31.3" height="1.1"/>
<path fill="#1972B0" d="M133.8,101.2l-64.3-0.1l0.2-88.6l64.3,0.1L133.8,101.2z M72.1,98.6l59.2,0.1l0.2-83.6L72.3,15L72.1,98.6z"/>
<path fill="#1972B0" d="M105.9,3.6c0,2-1.6,3.6-3.6,3.6c-2,0-3.6-1.6-3.6-3.6c0-2,1.6-3.6,3.6-3.6C104.3,0,105.9,1.6,105.9,3.6"/>
<rect x="90.1" y="-1" transform="matrix(0.4534 0.8913 -0.8913 0.4534 57.8421 -75.4721)" fill="#1972B0" width="0.7" height="20.8"/>
<rect x="102.9" y="9.1" transform="matrix(0.89 0.456 -0.456 0.89 16.7904 -50.6445)" fill="#1972B0" width="20.8" height="0.7"/>
<path fill="#1972B0" d="M75.9,218H0V113.4h75.9V218z M3,215h69.9v-98.6H3V215z"/>
<polygon fill="#1972B0" points="36.8,147 35,147.1 35.5,148.8 33.8,148.6 34,150.4 32.3,150 32.3,151.7 30.7,151.1 30.5,152.9 
	28.9,152 28.4,153.7 27,152.6 26.3,154.2 25.1,153 24.1,154.5 23.1,153.1 22,154.4 21.1,152.9 19.8,154 19.2,152.4 17.7,153.3 
	17.4,151.6 15.8,152.3 15.6,150.6 14,151.1 14.1,149.4 12.4,149.6 12.7,147.9 11,147.9 11.6,146.3 9.9,146 10.7,144.5 9,144 
	10.1,142.6 8.5,141.9 9.7,140.7 8.3,139.7 9.7,138.7 8.3,137.5 9.9,136.7 8.7,135.4 10.4,134.8 9.4,133.3 11.1,132.9 10.4,131.3 
	12.1,131.2 11.6,129.5 13.4,129.7 13.1,127.9 14.8,128.3 14.8,126.6 16.5,127.2 16.7,125.5 18.2,126.3 18.7,124.6 20.1,125.7 
	20.8,124.1 22.1,125.3 23,123.8 24.1,125.2 25.2,123.9 26,125.4 27.4,124.3 28,125.9 29.4,125 29.8,126.7 31.4,126 31.5,127.7 
	33.2,127.2 33.1,128.9 34.8,128.7 34.4,130.4 36.2,130.4 35.6,132 37.3,132.3 36.4,133.8 38.1,134.3 37.1,135.7 38.7,136.4 
	37.4,137.6 38.9,138.6 37.5,139.6 38.8,140.8 37.3,141.6 38.4,142.9 36.8,143.5 37.8,145 36,145.4 "/>
<path fill="#1972B0" d="M34.2,139.2c0,5.9-4.8,10.6-10.6,10.6c-5.9,0-10.6-4.8-10.6-10.6c0-5.9,4.8-10.6,10.6-10.6
	C29.4,128.5,34.2,133.3,34.2,139.2"/>
<path fill="#1972B0" d="M42.7,102.9c0,2.4-1.9,4.3-4.3,4.3c-2.4,0-4.3-1.9-4.3-4.3c0-2.4,1.9-4.3,4.3-4.3
	C40.7,98.6,42.7,100.6,42.7,102.9"/>
<rect x="24" y="97.5" transform="matrix(0.454 0.891 -0.891 0.454 111.1568 38.1649)" fill="#1972B0" width="0.9" height="24.5"/>
<rect x="39.2" y="109.4" transform="matrix(0.8909 0.4542 -0.4542 0.8909 55.4793 -11.3886)" fill="#1972B0" width="24.5" height="0.9"/>
</svg>
