<?xml version="1.0" encoding="iso-8859-1"?>
<!-- Generator: Adobe Illustrator 13.0.0, SVG Export Plug-In  -->
<!DOCTYPE svg [
	<!ENTITY ns_flows "http://ns.adobe.com/Flows/1.0/">
]>
<svg version="1.2" baseProfile="tiny"
	 xmlns="http://www.w3.org/2000/svg" xmlns:xlink="http://www.w3.org/1999/xlink" xmlns:a="http://ns.adobe.com/AdobeSVGViewerExtensions/3.0/"
	 x="0px" y="0px" width="118px" height="106px" viewBox="-0.5 -0.1 118 106" xml:space="preserve">
<defs>
</defs>
<polygon fill="#1972B1" points="65.1,20.1 52.9,69.7 64.2,69.7 76.4,20.1 "/>
<polygon fill="#1972B1" points="56.4,35.8 45.1,35.8 36.7,69.7 48.1,69.7 "/>
<polygon fill="#1972B1" points="20.6,69.7 31.9,69.7 36.8,49.7 25.5,49.7 "/>
<path fill="#1972B1" d="M116.7,96.7l-1.8-7.4h0L92.9,0H25.7c-1,0-1.8,0.7-2,1.6l-23.5,94c-1,4.2,1.6,8.6,5.8,9.6
	c0.6,0.2,1.3,0.2,1.9,0.2c1.2,0,2.1-0.9,2.1-2.1c0-1.2-0.9-2.1-2.1-2.1c-0.3,0-0.6,0-0.9-0.1c-2-0.5-3.2-2.5-2.8-4.5L27.4,4.2h64.5
	L71.3,89.2h29l2.7,10.8c0.8,3.2,3.7,5.4,6.8,5.4c0.6,0,1.1-0.1,1.7-0.2C115.3,104.3,117.6,100.4,116.7,96.7"/>
<path fill="#1972B1" d="M60.7,101.3c-0.3,0-0.6,0-0.9-0.1c-2-0.5-3.2-2.5-2.8-4.5l2.5-8.9c0.2-0.6,0.1-1.3-0.3-1.8
	c-0.4-0.5-1-0.8-1.7-0.8h-38c-1.2,0-2.1,0.9-2.1,2.1c0,1.2,0.9,2.1,2.1,2.1h5.3h29.9L53,95.6c-0.4,1.7-0.2,3.4,0.4,4.9
	c0.9,2.3,2.9,4.1,5.4,4.7c0.6,0.2,1.3,0.2,1.9,0.2c1.2,0,2.1-0.9,2.1-2.1C62.8,102.2,61.9,101.3,60.7,101.3"/>
</svg>
