<?xml version="1.0" encoding="utf-8"?>
<!-- Generator: Adobe Illustrator 13.0.0, SVG Export Plug-In  -->
<!DOCTYPE svg PUBLIC "-//W3C//DTD SVG 1.1//EN" "http://www.w3.org/Graphics/SVG/1.1/DTD/svg11.dtd" [
	<!ENTITY ns_flows "http://ns.adobe.com/Flows/1.0/">
]>
<svg version="1.1"
	 xmlns="http://www.w3.org/2000/svg" xmlns:xlink="http://www.w3.org/1999/xlink" xmlns:a="http://ns.adobe.com/AdobeSVGViewerExtensions/3.0/"
	 x="0px" y="0px" width="17px" height="21px" viewBox="-0.255 -0.595 17 21" enable-background="new -0.255 -0.595 17 21"
	 xml:space="preserve">
<defs>
</defs>
<polygon fill="#1972B0" points="14.861,12.939 15.619,12.986 16.37,12.105 15.2,12.032 14.716,12.632 8.186,15.503 1.656,12.632 
	1.171,12.032 0,12.105 0.751,12.986 1.51,12.939 7.764,15.688 0,19.102 0.136,19.413 8.186,15.874 16.234,19.413 16.37,19.102 
	8.607,15.688 "/>
<path fill="#1972B0" d="M8.13,14.487c6.5-3.137,5.918-12.642,5.918-12.642C11.04,1.845,8.227,0,8.227,0
	C5.704,1.292,2.309,1.938,2.309,1.938C2.6,12.734,8.13,14.487,8.13,14.487 M4.388,5.762h2.88V2.881h1.834v2.881h2.882v1.833H9.102
	v2.88H7.268v-2.88h-2.88V5.762z"/>
</svg>
