<?xml version="1.0" encoding="iso-8859-1"?>
<!-- Generator: Adobe Illustrator 13.0.0, SVG Export Plug-In  -->
<!DOCTYPE svg [
	<!ENTITY ns_flows "http://ns.adobe.com/Flows/1.0/">
]>
<svg version="1.2" baseProfile="tiny"
	 xmlns="http://www.w3.org/2000/svg" xmlns:xlink="http://www.w3.org/1999/xlink" xmlns:a="http://ns.adobe.com/AdobeSVGViewerExtensions/3.0/"
	 x="0px" y="0px" width="90px" height="130px" viewBox="-0.7 -0.8 90 130" xml:space="preserve">
<defs>
</defs>
<path fill="#1972B1" d="M76.4,115.7H54.2H12.8V25H24c0.7,4,4.2,7,8.4,7l26,0c4.2,0,7.7-3,8.4-7h9.6v0.2v9.6c0,3.5,2.9,6.4,6.4,6.4
	c3.5,0,6.4-2.9,6.4-6.4v-3v-6.6v-4.5c0-4.7-3.8-8.5-8.5-8.5H56.7C56.7,5.4,51.3,0,44.6,0c-6.7,0-12.1,5.4-12.1,12.1H8.5
	C3.8,12.1,0,16,0,20.7v99.2c0,4.7,3.8,8.5,8.5,8.5h72.1c4.7,0,8.5-3.8,8.5-8.5v-4.3H76.4z M44.6,6.7c3,0,5.4,2.4,5.4,5.4
	c0,3-2.4,5.4-5.4,5.4c-3,0-5.4-2.4-5.4-5.4C39.2,9.1,41.6,6.7,44.6,6.7"/>
<path fill="#1972B1" d="M23.4,62.8h15.4V47.4H23.4V62.8z M27.6,51.7h6.9v6.9h-6.9V51.7z"/>
<path fill="#1972B1" d="M23.4,85.3h15.4V69.9H23.4V85.3z M27.6,74.2h6.9v6.9h-6.9V74.2z"/>
<path fill="#1972B1" d="M23.4,107.8h15.4V92.4H23.4V107.8z M27.6,96.7h6.9v6.9h-6.9V96.7z"/>
</svg>
