<?xml version="1.0" encoding="iso-8859-1"?>
<!-- Generator: Adobe Illustrator 13.0.0, SVG Export Plug-In  -->
<!DOCTYPE svg [
	<!ENTITY ns_flows "http://ns.adobe.com/Flows/1.0/">
]>
<svg version="1.2" baseProfile="tiny"
	 xmlns="http://www.w3.org/2000/svg" xmlns:xlink="http://www.w3.org/1999/xlink" xmlns:a="http://ns.adobe.com/AdobeSVGViewerExtensions/3.0/"
	 x="0px" y="0px" width="102px" height="127px" viewBox="-0.4 -0.7 102 127" xml:space="preserve">
<defs>
</defs>
<polygon fill="#DEDEDD" points="19.9,69 0,111.5 22.2,103.5 30.3,125.8 50.3,83.3 "/>
<polygon fill="#DEDEDD" points="80.7,69 100.7,111.5 78.5,103.5 70.4,125.8 50.4,83.3 "/>
<polygon fill="#1972B1" points="90.6,71.8 85.2,72.2 86.7,77.4 81.3,77 82.1,82.4 76.8,81.3 76.8,86.7 71.7,84.8 71,90.1 66.2,87.6 
	64.7,92.8 60.3,89.5 58.1,94.4 54.3,90.6 51.4,95.2 48.1,90.8 44.6,94.9 42,90.2 37.9,93.7 36,88.7 31.4,91.6 30.3,86.3 25.3,88.6 
	25,83.2 19.8,84.7 20.1,79.3 14.8,80.1 15.9,74.8 10.5,74.8 12.4,69.7 7,69 9.6,64.2 4.4,62.7 7.7,58.3 2.7,56.1 6.6,52.3 2,49.3 
	6.3,46.1 2.2,42.6 7,40 3.4,35.9 8.5,34 5.6,29.4 10.9,28.3 8.6,23.3 14,22.9 12.5,17.7 17.9,18.1 17.1,12.8 22.4,13.9 22.4,8.5 
	27.5,10.4 28.2,5 33,7.6 34.5,2.4 38.8,5.7 41.1,0.7 44.9,4.6 47.8,0 51.1,4.3 54.6,0.2 57.2,5 61.3,1.4 63.2,6.5 67.8,3.6 
	68.9,8.9 73.8,6.6 74.2,12 79.4,10.5 79,15.9 84.4,15.1 83.3,20.4 88.7,20.4 86.8,25.5 92.2,26.2 89.6,31 94.8,32.5 91.5,36.8 
	96.5,39.1 92.6,42.9 97.2,45.8 92.8,49.1 97,52.6 92.2,55.2 95.8,59.3 90.7,61.2 93.6,65.8 88.3,66.9 "/>
<path fill="#DEDEDD" d="M82.6,47.6c0,18.2-14.8,33-33,33c-18.2,0-33-14.8-33-33s14.8-33,33-33C67.8,14.6,82.6,29.4,82.6,47.6"/>
</svg>
