<?xml version="1.0" encoding="iso-8859-1"?>
<!-- Generator: Adobe Illustrator 13.0.0, SVG Export Plug-In  -->
<!DOCTYPE svg [
	<!ENTITY ns_flows "http://ns.adobe.com/Flows/1.0/">
]>
<svg version="1.2" baseProfile="tiny"
	 xmlns="http://www.w3.org/2000/svg" xmlns:xlink="http://www.w3.org/1999/xlink" xmlns:a="http://ns.adobe.com/AdobeSVGViewerExtensions/3.0/"
	 x="0px" y="0px" width="356px" height="277px" viewBox="-0.1 -1 356 277" xml:space="preserve">
<defs>
</defs>
<path fill="#1972B0" d="M305.1,166.5h1.7h1.5l0,0c1.6,0,3.3,0.1,5,0.2l0.2-0.1c0,0-1.7-3.9-1.9-4.4c-0.1-0.2,0.2-0.6,0-1.1
	c-0.2-0.4-0.6-0.5-0.9-0.5c0.4-0.3,0.6-0.5,0.5-0.9c-0.2-0.4-0.6-1.3-0.6-1.3l1.7-0.5c0,0-1.4-1.8-3.1-3.8c-1.4-1.6-3.1-2.1-5.4-1.7
	c-0.1,0.3-0.2,0.6-0.4,0.8c-1,1.3-3.5,2.4-5.3,3c0.6,0.7,0.7,4.2-0.2,4.7c0.4,1.6,0.9,3.9,1.3,5.9
	C301.3,166.7,303.2,166.6,305.1,166.5L305.1,166.5z M307.4,155.4c0.3-0.2,0.8-0.1,1,0.2c0.2,0.3,0.1,0.8-0.2,1
	c-0.3,0.2-0.8,0.1-1-0.2C307,156.1,307.1,155.6,307.4,155.4 M305.8,155.9c0.3-0.2,0.8-0.1,1,0.2c0.2,0.3,0.1,0.8-0.2,1
	c-0.3,0.2-0.8,0.1-1-0.2C305.4,156.6,305.5,156.1,305.8,155.9"/>
<path fill="#1972B0" d="M308.3,156.6c0.3-0.2,0.4-0.7,0.2-1c-0.2-0.3-0.7-0.4-1-0.2c-0.3,0.2-0.4,0.7-0.2,1
	C307.5,156.7,307.9,156.8,308.3,156.6"/>
<path fill="#1972B0" d="M306.6,157.1c0.3-0.2,0.4-0.7,0.2-1c-0.2-0.3-0.7-0.4-1-0.2c-0.3,0.2-0.4,0.7-0.2,1
	C305.9,157.3,306.3,157.3,306.6,157.1"/>
<path fill="#1972B0" d="M302,152.9c0.6-0.2,1.2-0.3,1.8-0.4c0.3-1.3-0.5-2.9-1.9-3.3c0.4,0.7-0.8,1.7-2.5,1.9
	c-1.7,0.2-3,2.1-2.4,3.7c-2.3,1.1-1.1,5.3,0.9,6.2c0,0,0,0,0,0c-0.2-0.7-0.3-1.3-0.4-1.7C296.8,156.2,298.4,154.1,302,152.9"/>
<path fill="#1972B0" d="M298.2,156.3c1.8-0.6,4.3-1.7,5.3-3c0.2-0.2,0.3-0.5,0.4-0.8c-0.6,0.1-1.2,0.2-1.8,0.4
	c-3.6,1.1-5.2,3.2-4.4,6.3c0.1,0.4,0.2,1,0.4,1.7C298.8,160.5,298.8,157,298.2,156.3"/>
<path fill="#1972B0" d="M288.3,177.4c1.9-0.6,4.1-1.4,6.1-2.5c0,0,4.5,3.1,9.6,3.5c0.9-5.1,1.5-8.6,1.5-8.6h-1l0.1-0.4l-4.4,1.4
	c0,0-0.4-1.8-0.9-4.1c-7.5,0.5-15.5,1.8-20.5,3.5c-0.7,0.2-1.2,0.9-1.6,2C281.3,168.3,289.5,170.7,288.3,177.4"/>
<path fill="#1972B0" d="M336.4,172.6c-0.3-0.8-0.8-1.3-1.3-1.5c-6-2.5-14.1-3.9-21.7-4.3l-4.6,1.5l0.4,1.7h-1c0,0,1.1,6.8,3.3,19
	c-1.9,1.9-4.7,4.8-4.7,4.8s-1.7-1.7-3.2-3.2c-1.4,4.8-4.2,9.8-9.4,12.5c0,0-4.4-1.5-7.5-8.3c-1.7,7.6-4.7,12-8.3,13.5
	c0,0.1-0.1,0.2-0.1,0.3c1.6,13.2,3.6,24.8,3.6,24.8h2c2.2-1.9,4.9-3.6,8-5.1c5.3-2.5,11.4-2.3,15-1c3.6-0.7,8.3-0.7,12.6,1
	c3.4,1.3,6.5,3,9,5.1h3.2c0,0,2-11.4,3.7-24.5c-3.1-9.7-5.5-19.4-8.5-30C324.7,171.1,332.6,168.2,336.4,172.6"/>
<path fill="#1972B0" d="M304.5,169.5l0.6-2.9c-1.9,0-3.9,0.1-5.9,0.3c0.5,2.2,0.9,4.1,0.9,4.1L304.5,169.5z"/>
<path fill="#1972B0" d="M308.7,168.2l4.7-1.5c-1.7-0.1-3.4-0.2-5-0.2L308.7,168.2z"/>
<path fill="#1972B0" d="M305.1,166.5L305.1,166.5c0.6,0,1.1,0,1.7,0H305.1z"/>
<path fill="#1972B0" d="M308.3,166.5h-1.5C307.3,166.5,307.8,166.5,308.3,166.5L308.3,166.5z"/>
<polygon fill="#1972B0" points="304.5,169.9 305.4,169.9 308.2,169.9 309.1,169.9 308.7,168.2 304.5,169.5 "/>
<path fill="#1972B0" d="M306.8,166.5c-0.5,0-1.1,0-1.7,0l-0.6,3l4.2-1.3l-0.4-1.7C307.8,166.5,307.3,166.5,306.8,166.5"/>
<path fill="#1972B0" d="M303.9,178.4c0.4,0,0.8,0.1,1.2,0.1c0,0,0.3,5.8-1.5,12c1.4,1.5,3.2,3.2,3.2,3.2s2.8-2.9,4.7-4.8
	c-2.2-12.3-3.3-19-3.3-19h-2.7C305.4,169.9,304.8,173.4,303.9,178.4"/>
<path fill="#1972B0" d="M341.4,272.4c-1,0.5-3.1-0.4-3.4-1.1l-3.8-0.2l-0.5,2.9l2.9,0.2c0,0,0-0.4,0-0.8c0.7,1,3.6,1.7,5.3,0.7
	C343.7,273.2,342.4,272,341.4,272.4"/>
<path fill="#1972B0" d="M305.6,234.1c26.9,6.9,32,19.6,28.6,35.4c0.9,0.1,3.2,0.3,3.9,0.4c5.1-10.9,2.3-27.1-9.7-36.6h-21
	C306.9,233.6,306.3,233.9,305.6,234.1"/>
<path fill="#1972B0" d="M306.8,227.3c3.6,1.4,4.8,3.9,0.6,6h21c-2.6-2-5.6-3.8-9.1-5.1C315.1,226.7,310.4,226.6,306.8,227.3"/>
<path fill="#1972B0" d="M277.4,271.3c-0.3,0.7-2.4,1.5-3.4,1.1c-1-0.5-2.3,0.7-0.6,1.7c1.7,0.9,4.7,0.2,5.4-0.7c0,0.4,0,0.8,0,0.8
	l2.9-0.2l-0.5-2.9L277.4,271.3z"/>
<path fill="#1972B0" d="M283.9,233.3c-11.9,10.1-11.8,25.4-6.6,36.6c0.8-0.1,3-0.3,3.9-0.4c-3.4-15.8,1.3-27.2,24.4-35.4
	c-0.9-0.2-1.7-0.5-2.3-0.8H283.9z"/>
<path fill="#1972B0" d="M306.8,227.3c-3.6-1.4-9.6-1.6-15,1c-3.1,1.5-5.7,3.2-8,5.1h19.5C298.6,231.3,301.4,228.4,306.8,227.3"/>
<path fill="#1972B0" d="M306.8,233.3h-3.5c0.6,0.3,1.4,0.5,2.3,0.8c0.7-0.2,1.3-0.5,1.8-0.8H306.8z"/>
<path fill="#1972B0" d="M303.3,233.3h3.5h0.6c4.2-2.1,3-4.7-0.6-6C301.4,228.4,298.6,231.3,303.3,233.3"/>
<path fill="#1972B0" d="M276.3,182.7c-0.7-5.8,4.6-7.1,8.2-4.3c0.9-0.2,2.2-0.6,3.8-1c1.2-6.7-7-9.1-11.1-5.1
	c-1.1,3-1.2,9.1-0.8,16.3C276.6,186.9,276.5,184.9,276.3,182.7"/>
<path fill="#1972B0" d="M278.2,208.3c0,0.1,0,0.2,0,0.3c0-0.1,0.1-0.2,0.1-0.3C278.3,208.3,278.3,208.3,278.2,208.3"/>
<path fill="#1972B0" d="M263,236.5c-0.4-0.4-0.8-0.6-1.3-0.7L263,236.5z"/>
<path fill="#1972B0" d="M355.1,241.5c-1-2.8-2.9-3.7-4.4-5.9l-2.9,1.7c0.1,1.9,0.8,3.7,1.3,4.3c0.5,0.6,1.1-0.1,0.8-0.9
	c-0.3-0.8-0.5-1.6-0.5-1.6s3.5,0.8,4.5,2.5C354.5,242.6,355.4,242.4,355.1,241.5"/>
<path fill="#1972B0" d="M350.7,235.6c-9.5-21.9-10.4-45.4-12.5-59c-0.3-1.7-0.9-3.1-1.8-4.1c2.3,5.1,0.9,21.7-1,36.2
	c3,9.4,6.7,18.6,12.4,28.5C347.3,235.7,349.7,234.1,350.7,235.6"/>
<path fill="#1972B0" d="M336.4,172.6c-3.8-4.3-11.7-1.4-9.5,6.3c3.1,10.6,5.4,20.3,8.5,30C337.2,194.3,338.7,177.7,336.4,172.6"/>
<path fill="#1972B0" d="M347.8,237.3l2.9-1.7C349.7,234.1,347.3,235.7,347.8,237.3"/>
<path fill="#1972B0" d="M258.1,173.8l3.1,0c0,1.7,0.1,3.4,0.3,4.9c0.6-0.3,1.1-0.9,1.1-1.6l0.1-10.3c0,0,0-0.1,0-0.1
	c0,0.4-0.2,0.7-0.4,0.9c-0.6,0.6-1.5,0.6-2.1,0l-1.2-1.2l0,0.7c0,0.8-0.7,1.5-1.5,1.5c-0.8,0-1.5-0.7-1.5-1.5l0-2.2l-1.6,0h0
	c0.8,0,1.4,0.7,1.4,1.5c0,0.8-0.7,1.5-1.5,1.5l-1.7,0l0,0.7l1.7,0c0.8,0,1.5,0.7,1.5,1.5c0,0.8-0.7,1.5-1.5,1.5l-1.7,0l0,0.7l1.7,0
	c0.8,0,1.5,0.7,1.5,1.5c0,0.8-0.7,1.5-1.5,1.5l-1.7,0l0,0.7l1.7,0c0.8,0,1.5,0.7,1.5,1.5c0,0.8-0.7,1.4-1.5,1.5h0l3.9,0
	C258.1,177.2,258.1,175.5,258.1,173.8"/>
<path fill="#1972B0" d="M256,162.6c0,0,0,0.1,0,0.2v0C256,162.7,256,162.6,256,162.6"/>
<path fill="#1972B0" d="M259,164.9l2,0c1,0,1.7,0.8,1.8,1.7c0-0.4-0.1-0.8-0.4-1.2l-3.7-3.8c0.3,0.3,0.4,0.6,0.4,1L259,164.9z"/>
<path fill="#1972B0" d="M261,164.9l-2,0l0,1.4l1.2,1.2c0.6,0.6,1.5,0.6,2.1,0c0.3-0.3,0.4-0.6,0.4-0.9
	C262.7,165.7,261.9,164.9,261,164.9"/>
<path fill="#1972B0" d="M256.4,163.8c-0.3-0.3-0.4-0.7-0.4-1l0,2.1l1.5,0L256.4,163.8z"/>
<path fill="#1972B0" d="M258.6,161.7L258.6,161.7c-0.3-0.3-0.6-0.4-1-0.4c-0.8,0-1.4,0.6-1.5,1.3c0-0.3,0.2-0.6,0.4-0.9
	C257.1,161.1,258,161.1,258.6,161.7"/>
<path fill="#1972B0" d="M257.4,168.5c0.8,0,1.5-0.6,1.5-1.5l0-0.7l-1.4-1.4l-1.5,0l0,2.2C256,167.9,256.6,168.5,257.4,168.5"/>
<path fill="#1972B0" d="M257.5,164.9l1.4,0l0-2.2c0-0.4-0.2-0.8-0.4-1.1l0,0c-0.6-0.6-1.5-0.6-2.1,0c-0.3,0.3-0.4,0.6-0.4,0.9
	c0,0,0,0.1,0,0.1v0c0,0.4,0.1,0.7,0.4,1L257.5,164.9z"/>
<polygon fill="#1972B0" points="257.5,164.9 259,166.3 259,164.9 "/>
<path fill="#1972B0" d="M252.5,176.9l0-1.2l-1,0c-0.8,0-1.5,0.6-1.5,1.5c0,0.8,0.7,1.5,1.5,1.5l2.7,0h0
	C253.2,178.7,252.5,177.9,252.5,176.9"/>
<path fill="#1972B0" d="M255.7,177.3c0-0.8-0.6-1.5-1.5-1.5l-1.7,0l0,1.2c0,1,0.8,1.8,1.7,1.8C255,178.7,255.6,178.1,255.7,177.3"/>
<path fill="#1972B0" d="M254.4,164.9L254.4,164.9l-2.7,0c-0.8,0-1.5,0.6-1.5,1.5c0,0.8,0.6,1.5,1.5,1.5l1,0l0-1.2
	C252.6,165.6,253.4,164.9,254.4,164.9"/>
<path fill="#1972B0" d="M255.8,166.4c0-0.8-0.6-1.5-1.4-1.5c-1,0-1.8,0.8-1.8,1.8l0,1.2l1.7,0C255.1,167.8,255.8,167.2,255.8,166.4"
	/>
<path fill="#1972B0" d="M251.6,168.5c-0.8,0-1.5,0.6-1.5,1.5c0,0.8,0.7,1.5,1.5,1.5l1,0l0-3L251.6,168.5z"/>
<path fill="#1972B0" d="M255.7,170c0-0.8-0.6-1.5-1.5-1.5l-1.7,0l0,3l1.7,0C255,171.5,255.7,170.8,255.7,170"/>
<path fill="#1972B0" d="M251.6,172.1c-0.8,0-1.5,0.7-1.5,1.5c0,0.8,0.6,1.5,1.5,1.5l1,0l0-3L251.6,172.1z"/>
<path fill="#1972B0" d="M255.7,173.6c0-0.8-0.6-1.5-1.5-1.5l-1.7,0l0,3l1.7,0C255,175.1,255.7,174.5,255.7,173.6"/>
<path fill="#1972B0" d="M261.5,178.7c-0.2,0.1-0.5,0.1-0.7,0.1l-2.7,0c0.9,21,11.7,33,20.1,29.5c-0.8-6.6-1.5-13.5-1.9-19.7
	C275.1,200.7,263.5,198.7,261.5,178.7"/>
<path fill="#1972B0" d="M278.4,208.2c3.5-1.6,6.6-5.9,8.3-13.5c-0.7-1.6-1.4-3.5-2-5.7C282.6,195.6,280.7,201.9,278.4,208.2"/>
<path fill="#1972B0" d="M284.7,189c-0.7-2.8-1.2-6.2-1.3-10.3c0,0,0.4-0.1,1.1-0.2c-3.7-2.8-8.9-1.6-8.2,4.2
	c0.3,2.2,0.3,4.2,0.1,5.9c0.3,6.2,1,13.1,1.9,19.7c0.1,0,0.1,0,0.2-0.1C280.7,201.9,282.6,195.6,284.7,189"/>
<path fill="#1972B0" d="M261.5,178.7c-0.1-1.5-0.2-3.2-0.3-4.9l-3.1,0c-0.1,1.7-0.1,3.4,0,5l2.7,0
	C261.1,178.8,261.3,178.8,261.5,178.7"/>
<rect x="254" y="108.9" fill="#1972B0" width="2.4" height="167"/>
<polygon fill="#1972B0" points="255.3,98.1 251.5,105.3 255.1,112.2 258.7,105.3 "/>
<path fill="#1972B0" d="M50,166.5c1.9,0,3.9,0.1,5.9,0.3c0.4-2,0.9-4.2,1.3-5.9c-0.9-0.4-0.8-4-0.2-4.7c-1.8-0.5-4.3-1.7-5.3-3
	c-0.2-0.2-0.3-0.5-0.4-0.8c-2.2-0.4-4,0.1-5.4,1.7c-1.8,2-3.1,3.8-3.1,3.8l1.7,0.5c0,0-0.4,0.9-0.6,1.3c-0.1,0.4,0.1,0.6,0.5,0.9
	c-0.3,0-0.7,0.1-0.9,0.5c-0.2,0.5,0.1,0.9,0,1.1c-0.2,0.5-1.9,4.4-1.9,4.4l0.2,0.1c1.7-0.1,3.4-0.2,5-0.2l0,0h1.5L50,166.5L50,166.5
	z M47.7,155.4c0.3,0.2,0.4,0.7,0.2,1c-0.2,0.3-0.7,0.4-1,0.2c-0.3-0.2-0.4-0.7-0.2-1C46.9,155.2,47.4,155.2,47.7,155.4 M49.3,155.9
	c0.3,0.2,0.4,0.7,0.2,1c-0.2,0.3-0.7,0.4-1,0.2c-0.3-0.2-0.4-0.7-0.2-1C48.6,155.8,49,155.7,49.3,155.9"/>
<path fill="#1972B0" d="M46.9,156.6c-0.3-0.2-0.4-0.7-0.2-1c0.2-0.3,0.7-0.4,1-0.2c0.3,0.2,0.4,0.7,0.2,1
	C47.7,156.7,47.2,156.8,46.9,156.6"/>
<path fill="#1972B0" d="M48.5,157.1c-0.3-0.2-0.4-0.7-0.2-1c0.2-0.3,0.7-0.4,1-0.2c0.3,0.2,0.4,0.7,0.2,1
	C49.3,157.3,48.9,157.3,48.5,157.1"/>
<path fill="#1972B0" d="M53.2,152.9c-0.6-0.2-1.2-0.3-1.8-0.4c-0.3-1.3,0.5-2.9,1.9-3.3c-0.4,0.7,0.8,1.7,2.5,1.9
	c1.7,0.2,3,2.1,2.4,3.7c2.3,1.1,1.1,5.3-0.9,6.2c0,0,0,0,0,0c0.2-0.7,0.3-1.3,0.4-1.7C58.4,156.2,56.7,154.1,53.2,152.9"/>
<path fill="#1972B0" d="M57,156.3c-1.8-0.6-4.3-1.7-5.3-3c-0.2-0.2-0.3-0.5-0.4-0.8c0.6,0.1,1.2,0.2,1.8,0.4
	c3.6,1.1,5.2,3.2,4.4,6.3c-0.1,0.4-0.2,1-0.4,1.7C56.3,160.5,56.4,157,57,156.3"/>
<path fill="#1972B0" d="M66.9,177.4c-1.9-0.6-4.1-1.4-6.1-2.5c0,0-4.5,3.1-9.6,3.5c-0.9-5.1-1.5-8.6-1.5-8.6h1l-0.1-0.4l4.4,1.4
	c0,0,0.4-1.8,0.9-4.1c7.5,0.5,15.5,1.8,20.5,3.5c0.7,0.2,1.2,0.9,1.6,2C73.9,168.3,65.6,170.7,66.9,177.4"/>
<path fill="#1972B0" d="M18.8,172.6c0.3-0.8,0.8-1.3,1.3-1.5c6-2.5,14.1-3.9,21.7-4.3l4.6,1.5l-0.4,1.7h1c0,0-1.1,6.8-3.3,19
	c1.9,1.9,4.7,4.8,4.7,4.8s1.7-1.7,3.2-3.2c1.4,4.8,4.2,9.8,9.4,12.5c0,0,4.4-1.5,7.5-8.3c1.7,7.6,4.7,12,8.3,13.5
	c0,0.1,0.1,0.2,0.1,0.3c-1.6,13.2-3.6,24.8-3.6,24.8h-2c-2.2-1.9-4.9-3.6-8-5.1c-5.3-2.5-11.4-2.3-15-1c-3.6-0.7-8.3-0.7-12.6,1
	c-3.4,1.3-6.5,3-9,5.1h-3.2c0,0-2-11.4-3.7-24.5c3.1-9.7,5.5-19.4,8.5-30C30.5,171.1,22.6,168.2,18.8,172.6"/>
<path fill="#1972B0" d="M50.6,169.5l-0.6-2.9c1.9,0,3.9,0.1,5.9,0.3c-0.5,2.2-0.9,4.1-0.9,4.1L50.6,169.5z"/>
<path fill="#1972B0" d="M46.4,168.2l-4.7-1.5c1.7-0.1,3.4-0.2,5-0.2L46.4,168.2z"/>
<path fill="#1972B0" d="M50,166.5L50,166.5c-0.6,0-1.1,0-1.7,0H50z"/>
<path fill="#1972B0" d="M46.8,166.5h1.5C47.9,166.5,47.3,166.5,46.8,166.5L46.8,166.5z"/>
<polygon fill="#1972B0" points="50.7,169.9 49.7,169.9 47,169.9 46,169.9 46.4,168.2 50.6,169.5 "/>
<path fill="#1972B0" d="M48.4,166.5c0.5,0,1.1,0,1.7,0l0.6,3l-4.2-1.3l0.4-1.7C47.3,166.5,47.9,166.5,48.4,166.5"/>
<path fill="#1972B0" d="M51.2,178.4c-0.4,0-0.8,0.1-1.2,0.1c0,0-0.3,5.8,1.5,12c-1.4,1.5-3.2,3.2-3.2,3.2s-2.8-2.9-4.7-4.8
	c2.2-12.3,3.3-19,3.3-19h2.7C49.7,169.9,50.3,173.4,51.2,178.4"/>
<path fill="#1972B0" d="M13.7,272.4c1,0.5,3.1-0.4,3.4-1.1l3.8-0.2l0.5,2.9l-2.9,0.2c0,0,0-0.4,0-0.8c-0.7,1-3.6,1.7-5.3,0.7
	C11.4,273.2,12.8,272,13.7,272.4"/>
<path fill="#1972B0" d="M49.5,234.1c-26.9,6.9-32,19.6-28.6,35.4c-0.9,0.1-3.2,0.3-3.9,0.4c-5.1-10.9-2.3-27.1,9.7-36.6h21
	C48.3,233.6,48.9,233.9,49.5,234.1"/>
<path fill="#1972B0" d="M48.4,227.3c-3.6,1.4-4.8,3.9-0.6,6h-21c2.6-2,5.6-3.8,9.1-5.1C40.1,226.7,44.8,226.6,48.4,227.3"/>
<path fill="#1972B0" d="M77.7,271.3c0.3,0.7,2.4,1.5,3.4,1.1c1-0.5,2.3,0.7,0.6,1.7c-1.7,0.9-4.7,0.2-5.4-0.7c0,0.4,0,0.8,0,0.8
	l-2.9-0.2l0.5-2.9L77.7,271.3z"/>
<path fill="#1972B0" d="M71.3,233.3c11.9,10.1,11.8,25.4,6.6,36.6c-0.8-0.1-3-0.3-3.9-0.4c3.4-15.8-1.3-27.2-24.4-35.4
	c0.9-0.2,1.7-0.5,2.3-0.8H71.3z"/>
<path fill="#1972B0" d="M48.4,227.3c3.6-1.4,9.6-1.6,15,1c3.1,1.5,5.7,3.2,8,5.1H51.8C56.5,231.3,53.7,228.4,48.4,227.3"/>
<path fill="#1972B0" d="M48.4,233.3h3.5c-0.6,0.3-1.4,0.5-2.3,0.8c-0.7-0.2-1.3-0.5-1.8-0.8H48.4z"/>
<path fill="#1972B0" d="M51.8,233.3h-3.5h-0.6c-4.2-2.1-3-4.7,0.6-6C53.7,228.4,56.5,231.3,51.8,233.3"/>
<path fill="#1972B0" d="M78.9,182.7c0.7-5.8-4.6-7.1-8.2-4.3c-0.9-0.2-2.2-0.6-3.8-1c-1.2-6.7,7-9.1,11.1-5.1
	c1.1,3,1.2,9.1,0.8,16.3C78.6,186.9,78.6,184.9,78.9,182.7"/>
<path fill="#1972B0" d="M76.9,208.3c0,0.1,0,0.2,0,0.3c0-0.1-0.1-0.2-0.1-0.3C76.8,208.3,76.9,208.3,76.9,208.3"/>
<path fill="#1972B0" d="M92.1,236.5c0.4-0.4,0.8-0.6,1.3-0.7L92.1,236.5z"/>
<path fill="#1972B0" d="M0.1,241.5c1-2.8,2.9-3.7,4.4-5.9l2.9,1.7c-0.1,1.9-0.8,3.7-1.3,4.3c-0.5,0.6-1.1-0.1-0.8-0.9
	c0.3-0.8,0.5-1.6,0.5-1.6s-3.5,0.8-4.5,2.5C0.6,242.6-0.2,242.4,0.1,241.5"/>
<path fill="#1972B0" d="M4.5,235.6c9.5-21.9,10.4-45.4,12.5-59c0.3-1.7,0.9-3.1,1.8-4.1c-2.3,5.1-0.9,21.7,1,36.2
	c-3,9.4-6.7,18.6-12.4,28.5C7.9,235.7,5.5,234.1,4.5,235.6"/>
<path fill="#1972B0" d="M18.8,172.6c3.8-4.3,11.7-1.4,9.5,6.3c-3.1,10.6-5.4,20.3-8.5,30C17.9,194.3,16.5,177.7,18.8,172.6"/>
<path fill="#1972B0" d="M7.4,237.3l-2.9-1.7C5.5,234.1,7.9,235.7,7.4,237.3"/>
<path fill="#1972B0" d="M97.1,173.8l-3.1,0c0,1.7-0.1,3.4-0.3,4.9c-0.6-0.3-1.1-0.9-1.1-1.6l-0.1-10.3c0,0,0-0.1,0-0.1
	c0,0.4,0.2,0.7,0.4,0.9c0.6,0.6,1.5,0.6,2.1,0l1.2-1.2l0,0.7c0,0.8,0.7,1.5,1.5,1.5c0.8,0,1.5-0.7,1.5-1.5l0-2.2l1.6,0h0
	c-0.8,0-1.4,0.7-1.4,1.5c0,0.8,0.7,1.5,1.5,1.5l1.7,0l0,0.7l-1.7,0c-0.8,0-1.5,0.7-1.5,1.5c0,0.8,0.7,1.5,1.5,1.5l1.7,0l0,0.7
	l-1.7,0c-0.8,0-1.5,0.7-1.5,1.5c0,0.8,0.7,1.5,1.5,1.5l1.7,0l0,0.7l-1.7,0c-0.8,0-1.5,0.7-1.5,1.5c0,0.8,0.7,1.4,1.5,1.5h0l-3.9,0
	C97.1,177.2,97.1,175.5,97.1,173.8"/>
<path fill="#1972B0" d="M99.1,162.6c0,0,0,0.1,0,0.2v0C99.1,162.7,99.1,162.6,99.1,162.6"/>
<path fill="#1972B0" d="M96.2,164.9l-2,0c-1,0-1.7,0.8-1.8,1.7c0-0.4,0.1-0.8,0.4-1.2l3.7-3.8c-0.3,0.3-0.4,0.6-0.4,1L96.2,164.9z"
	/>
<path fill="#1972B0" d="M94.2,164.9l2,0l0,1.4l-1.2,1.2c-0.6,0.6-1.5,0.6-2.1,0c-0.3-0.3-0.4-0.6-0.4-0.9
	C92.5,165.7,93.2,164.9,94.2,164.9"/>
<path fill="#1972B0" d="M98.7,163.8c0.3-0.3,0.4-0.7,0.4-1l0,2.1l-1.5,0L98.7,163.8z"/>
<path fill="#1972B0" d="M96.6,161.7L96.6,161.7c0.3-0.3,0.6-0.4,1-0.4c0.8,0,1.4,0.6,1.5,1.3c0-0.3-0.2-0.6-0.4-0.9
	C98.1,161.1,97.2,161.1,96.6,161.7"/>
<path fill="#1972B0" d="M97.7,168.5c-0.8,0-1.5-0.6-1.5-1.5l0-0.7l1.4-1.4l1.5,0l0,2.2C99.2,167.9,98.5,168.5,97.7,168.5"/>
<path fill="#1972B0" d="M97.6,164.9l-1.4,0l0-2.2c0-0.4,0.2-0.8,0.4-1.1l0,0c0.6-0.6,1.5-0.6,2.1,0c0.3,0.3,0.4,0.6,0.4,0.9
	c0,0,0,0.1,0,0.1v0c0,0.4-0.1,0.7-0.4,1L97.6,164.9z"/>
<polygon fill="#1972B0" points="97.6,164.9 96.2,166.3 96.2,164.9 "/>
<path fill="#1972B0" d="M102.7,176.9l0-1.2l1,0c0.8,0,1.5,0.6,1.5,1.5c0,0.8-0.7,1.5-1.5,1.5l-2.7,0h0
	C101.9,178.7,102.7,177.9,102.7,176.9"/>
<path fill="#1972B0" d="M99.5,177.3c0-0.8,0.6-1.5,1.5-1.5l1.7,0l0,1.2c0,1-0.8,1.8-1.7,1.8C100.2,178.7,99.5,178.1,99.5,177.3"/>
<path fill="#1972B0" d="M100.8,164.9L100.8,164.9l2.7,0c0.8,0,1.5,0.6,1.5,1.5c0,0.8-0.6,1.5-1.5,1.5l-1,0l0-1.2
	C102.6,165.6,101.8,164.9,100.8,164.9"/>
<path fill="#1972B0" d="M99.4,166.4c0-0.8,0.6-1.5,1.4-1.5c1,0,1.8,0.8,1.8,1.8l0,1.2l-1.7,0C100.1,167.8,99.4,167.2,99.4,166.4"/>
<path fill="#1972B0" d="M103.6,168.5c0.8,0,1.5,0.6,1.5,1.5c0,0.8-0.7,1.5-1.5,1.5l-1,0l0-3L103.6,168.5z"/>
<path fill="#1972B0" d="M99.4,170c0-0.8,0.6-1.5,1.5-1.5l1.7,0l0,3l-1.7,0C100.1,171.5,99.4,170.8,99.4,170"/>
<path fill="#1972B0" d="M103.6,172.1c0.8,0,1.5,0.7,1.5,1.5c0,0.8-0.6,1.5-1.5,1.5l-1,0l0-3L103.6,172.1z"/>
<path fill="#1972B0" d="M99.5,173.6c0-0.8,0.6-1.5,1.5-1.5l1.7,0l0,3l-1.7,0C100.2,175.1,99.5,174.5,99.5,173.6"/>
<path fill="#1972B0" d="M93.6,178.7c0.2,0.1,0.5,0.1,0.7,0.1l2.7,0c-0.9,21-11.7,33-20.1,29.5c0.8-6.6,1.5-13.5,1.9-19.7
	C80.1,200.7,91.6,198.7,93.6,178.7"/>
<path fill="#1972B0" d="M76.8,208.2c-3.5-1.6-6.6-5.9-8.3-13.5c0.7-1.6,1.4-3.5,2-5.7C72.5,195.6,74.5,201.9,76.8,208.2"/>
<path fill="#1972B0" d="M70.5,189c0.7-2.8,1.2-6.2,1.3-10.3c0,0-0.4-0.1-1.1-0.2c3.7-2.8,8.9-1.6,8.2,4.2c-0.3,2.2-0.3,4.2-0.1,5.9
	c-0.3,6.2-1,13.1-1.9,19.7c-0.1,0-0.1,0-0.2-0.1C74.5,201.9,72.5,195.6,70.5,189"/>
<path fill="#1972B0" d="M93.6,178.7c0.1-1.5,0.2-3.2,0.3-4.9l3.1,0c0.1,1.7,0.1,3.4,0,5l-2.7,0C94.1,178.8,93.9,178.8,93.6,178.7"/>
<rect x="98.8" y="108.9" fill="#1972B0" width="2.4" height="167"/>
<polygon fill="#1972B0" points="99.9,98.1 103.6,105.3 100,112.2 96.4,105.3 "/>
<path fill="#1972B0" d="M235,22.2h-17.3V3.7c0-2-1.6-3.7-3.7-3.7h-76.5c-2,0-3.7,1.6-3.7,3.7v18.6h-17.3c-3.1,0-5.7,2.5-5.7,5.7v242
	c0,3.1,2.5,5.7,5.7,5.7H235c3.1,0,5.7-2.5,5.7-5.7v-242C240.6,24.8,238.1,22.2,235,22.2 M132.8,235.4H117v-15.8h15.8V235.4z
	 M132.8,199H117v-15.8h15.8V199z M132.8,163.7H117v-15.8h15.8V163.7z M132.8,126.3H117v-15.8h15.8V126.3z M132.8,90H117V74.2h15.8
	V90z M132.8,50.6H117V34.8h15.8V50.6z M153.3,235.4h-15.8v-15.8h15.8V235.4z M153.3,199h-15.8v-15.8h15.8V199z M153.3,163.7h-15.8
	v-15.8h15.8V163.7z M153.3,126.3h-15.8v-15.8h15.8V126.3z M153.3,90h-15.8V74.2h15.8V90z M153.3,50.6h-15.8V34.8h15.8V50.6z
	 M173.8,235.4H158v-15.8h15.8V235.4z M173.8,199H158v-15.8h15.8V199z M173.8,163.7H158v-15.8h15.8V163.7z M173.8,126.3H158v-15.8
	h15.8V126.3z M173.8,90H158V74.2h15.8V90z M173.8,50.6H158V34.8h15.8V50.6z M194.3,235.4h-15.8v-15.8h15.8V235.4z M194.3,199h-15.8
	v-15.8h15.8V199z M194.3,163.7h-15.8v-15.8h15.8V163.7z M194.3,126.3h-15.8v-15.8h15.8V126.3z M194.3,90h-15.8V74.2h15.8V90z
	 M194.3,50.6h-15.8V34.8h15.8V50.6z M214.8,235.4h-15.8v-15.8h15.8V235.4z M214.8,199h-15.8v-15.8h15.8V199z M214.8,163.7h-15.8
	v-15.8h15.8V163.7z M214.8,126.3h-15.8v-15.8h15.8V126.3z M214.8,90h-15.8V74.2h15.8V90z M214.8,50.6h-15.8V34.8h15.8V50.6z
	 M235.3,235.4h-15.8v-15.8h15.8V235.4z M235.3,199h-15.8v-15.8h15.8V199z M235.3,163.7h-15.8v-15.8h15.8V163.7z M235.3,126.3h-15.8
	v-15.8h15.8V126.3z M235.3,90h-15.8V74.2h15.8V90z M235.3,50.6h-15.8V34.8h15.8V50.6z"/>
</svg>
