<?xml version="1.0" encoding="iso-8859-1"?>
<!-- Generator: Adobe Illustrator 13.0.0, SVG Export Plug-In  -->
<!DOCTYPE svg [
	<!ENTITY ns_flows "http://ns.adobe.com/Flows/1.0/">
]>
<svg version="1.2" baseProfile="tiny"
	 xmlns="http://www.w3.org/2000/svg" xmlns:xlink="http://www.w3.org/1999/xlink" xmlns:a="http://ns.adobe.com/AdobeSVGViewerExtensions/3.0/"
	 x="0px" y="0px" width="112px" height="125px" viewBox="-0.6 -0.9 112 125" xml:space="preserve">
<defs>
</defs>
<path fill="#1972B1" d="M105,112.8c2.2-0.5,4.1-1.9,5.2-4c1.8-3.8,0.3-8.3-3.4-10.1c-3.7-1.8-8.2-0.4-10.1,3.3L19.7,63.9
	c1.7-3.7,0.2-8.2-3.5-10c-3.8-1.9-8.3-0.3-10.1,3.4C5,59.6,5.1,62,6,64c-2.2,0.5-4.1,1.9-5.2,4c-1.8,3.8-0.3,8.3,3.4,10.1
	c3.6,1.8,7.9,0.4,9.9-3l76.9,37.9c-1.5,3.6,0.1,7.9,3.7,9.6c3.8,1.9,8.3,0.3,10.1-3.4C105.9,117.2,105.9,114.8,105,112.8"/>
<path fill="#1972B1" d="M105,64.1c0.9-2,1-4.4,0-6.6c-1.8-3.8-6.4-5.3-10.1-3.5c-3.7,1.8-5.3,6.2-3.5,10l-77,37.7
	c-1.9-3.6-6.3-5.1-10-3.3c-3.8,1.8-5.3,6.4-3.5,10.1c1.1,2.1,3,3.6,5.2,4.1c-0.9,2-1,4.4,0,6.6c1.8,3.8,6.4,5.3,10.1,3.5
	c3.6-1.8,5.2-6,3.7-9.6l77-37.7c2,3.4,6.3,4.7,9.9,3c3.8-1.8,5.3-6.4,3.5-10.1C109.1,66,107.2,64.6,105,64.1"/>
<path fill="#1972B1" d="M88.2,31.1C88.2,13.9,74.2,0,57.1,0C39.9,0,26,13.9,26,31.1c0,9.8,4.6,18.6,11.7,24.3
	c-0.7,1.3-1.1,2.8-1.1,4.4c0,5.3,4.3,9.7,9.7,9.7c1.9,0,3.7-0.6,5.2-1.5c1.5,1,3.3,1.5,5.2,1.5c2.1,0,4-0.7,5.6-1.8
	c1.6,1.1,3.5,1.8,5.6,1.8c5.3,0,9.7-4.3,9.7-9.7c0-1.6-0.4-3.1-1.1-4.4C83.6,49.7,88.2,40.9,88.2,31.1 M45.3,37.7
	c-4.8,0-8.6-3.9-8.6-8.6c0-4.8,3.9-8.6,8.6-8.6c4.8,0,8.6,3.9,8.6,8.6C53.9,33.8,50.1,37.7,45.3,37.7 M51.7,49.9c0,0,4.2-21.4,8.8,0
	C60.5,49.9,55.2,46.6,51.7,49.9 M66.3,37.7c-4.8,0-8.6-3.9-8.6-8.6c0-4.8,3.8-8.6,8.6-8.6c4.8,0,8.6,3.9,8.6,8.6
	C74.9,33.8,71.1,37.7,66.3,37.7"/>
</svg>
