<?xml version="1.0" encoding="iso-8859-1"?>
<!-- Generator: Adobe Illustrator 13.0.0, SVG Export Plug-In  -->
<!DOCTYPE svg [
	<!ENTITY ns_flows "http://ns.adobe.com/Flows/1.0/">
]>
<svg version="1.2" baseProfile="tiny"
	 xmlns="http://www.w3.org/2000/svg" xmlns:xlink="http://www.w3.org/1999/xlink" xmlns:a="http://ns.adobe.com/AdobeSVGViewerExtensions/3.0/"
	 x="0px" y="0px" width="141px" height="312px" viewBox="0 -0.4 141 312" xml:space="preserve">
<defs>
</defs>
<path fill="none" d="M89.6,22.1c-0.3,0-0.6,0-0.9-0.2c0,0,0,0,0,0v0l0,0c-3.9-0.4-4.7-4-6.5-6.4c-0.3-0.4-0.5-0.7-0.8-0.9
	c-0.3,0.7-0.8,1.3-1.4,1.8c2.7,4.2-3.8,10-8.1,9.4c-4.5,7-6,11.8-5.2,15.3h0c2.5,5.1,5,10.2,7.3,15.4
	C129.9,61.8,145.5,31.2,89.6,22.1z"/>
<path fill="#1971B0" d="M51.7,303.4c-0.8,1.6-6.1,3.4-8.5,2.1c-2.4-1.3-7.4,1.1-3.3,3.6c4.1,2.5,13.1,1.6,14.9-0.6
	c0,0.9,0,1.9,0,1.9l7.1,0l-0.7-7L51.7,303.4z"/>
<path fill="#1971B0" d="M85.2,303.4c-0.8,1.6-6.1,3.4-8.5,2.1c-2.3-1.3-7.4,1.1-3.3,3.6c4.1,2.5,13.1,1.6,14.9-0.6
	c0,0.9,0,1.9,0,1.9l7.1,0l-0.7-7L85.2,303.4z"/>
<path fill="#1971B0" d="M92.3,15C92.3,15,92.3,15,92.3,15C92.3,15,92.3,15,92.3,15L92.3,15c-2.9-3.6-9.6-12.3-14.7-13.2
	c-2.3-1.3-4.2-0.3-5.5,1.4c-2.9-2.7-6.1-3.8-10-3c-5.4,1-10,2.2-10,2.2l2.2,3.1c0,0-1.8,0.9-2.5,1.3c-0.7,0.4,5.1,6.6,2.4,10
	c-3.6,4.6-6.8,0-8.5-0.3c-1.3-0.2-1.7,1.1-1.5,1.8c-1.9,2.3-7.6,14.4-4.4,31.5c0,0,0,0,0,0c0.2,1.6,0.6,3.6,1,6.1
	c-0.1,0.5-0.2,0.9-0.3,1.4c-5.2,28.4-7.2,77.5-29.9,123.4h0c-3.6,4.6-8.2,6.5-10.5,12.4c-0.7,1.8,1.4,2.2,2.8,0.1
	c2.3-3.4,10.7-5.2,10.7-5.2s-0.4,1.6-1.1,3.3c-0.6,1.7,0.8,3.3,2,1.9c1.2-1.3,2.8-5.1,3.1-9c0,0,0,0,0,0
	c9.7-14.7,16.9-28.7,22.9-42.6c0.9,1.4,1.8,2.7,2.6,3.9c-0.8,10.8-2.1,22.7-3.8,35.7h6.5c-3.6,27.6-1.3,60.6,5.6,118.5
	c1.9-0.1,7.4-0.3,9.7-0.4c-0.8-38.1,1.3-61.5,7-83.9c4.1,25.2,10.7,54.7,16.8,84.2c1.9-0.1,7.4-0.3,9.7-0.4
	c-7-51.1-7.9-80.3,3.2-118.1h6.2c1.7-36.8-7.7-72-21.9-106.4C169.8,75.9,146,21.7,92.3,15z M66.7,41L66.7,41
	c-0.8-3.5,0.7-8.3,5.2-15.3c4.3,0.6,10.8-5.2,8.1-9.4c0.6-0.5,1-1.1,1.4-1.8c0.3,0.3,0.5,0.6,0.8,0.9c1.7,2.4,2.5,6,6.5,6.4l0,0v0
	c0,0,0,0,0,0c0.3,0.1,0.6,0.2,0.9,0.2c55.9,9.1,40.3,39.7-15.5,34.3C71.7,51.2,69.2,46.1,66.7,41z"/>
</svg>
