<?xml version="1.0" encoding="utf-8"?>
<!-- Generator: Adobe Illustrator 13.0.0, SVG Export Plug-In  -->
<!DOCTYPE svg PUBLIC "-//W3C//DTD SVG 1.1//EN" "http://www.w3.org/Graphics/SVG/1.1/DTD/svg11.dtd" [
	<!ENTITY ns_flows "http://ns.adobe.com/Flows/1.0/">
]>
<svg version="1.1"
	 xmlns="http://www.w3.org/2000/svg" xmlns:xlink="http://www.w3.org/1999/xlink" xmlns:a="http://ns.adobe.com/AdobeSVGViewerExtensions/3.0/"
	 x="0px" y="0px" width="280px" height="171px" viewBox="-0.208 -0.463 280 171" enable-background="new -0.208 -0.463 280 171"
	 xml:space="preserve">
<defs>
</defs>
<path fill="#83AEC6" d="M50.995,152.013c-0.573,0.269-1.804-0.236-1.979-0.634l-2.248-0.134l-0.269,1.665l1.675,0.103
	c0,0,0.018-0.245,0.027-0.458c0.389,0.559,2.114,0.967,3.127,0.435C52.341,152.448,51.578,151.735,50.995,152.013"/>
<path fill="#83AEC6" d="M3.821,87.865v-0.389l0.634,0.65c0.3,0.308,0.8,0.313,1.105,0.009c0.31-0.299,0.314-0.791,0.009-1.105
	l-1.943-1.984c-0.139-0.142-0.333-0.241-0.555-0.241c-0.009,0-0.019,0.014-0.037,0.014V48.186l1.531-2.956l-2.207-4.57L0,45.229
	l1.545,2.997v105.271h1.489V88.633C3.465,88.638,3.812,88.291,3.821,87.865"/>
<path fill="#83AEC6" d="M139.254,152.013c-0.574,0.269-1.804-0.236-1.984-0.634l-2.243-0.134l-0.269,1.665l1.675,0.103
	c0,0,0.014-0.245,0.027-0.458c0.389,0.559,2.104,0.967,3.127,0.435C140.596,152.448,139.833,151.735,139.254,152.013"/>
<path fill="#83AEC6" d="M137.39,94.276c-0.342-0.081-0.62-0.046-0.93-0.076c-0.222-0.715-0.499-1.263-0.897-1.43
	c-3.025-1.27-6.92-1.979-10.777-2.345V78.697c-6.477-3.282-11.953,0-11.953,0v11.737c-3.849,0.365-7.666,1.034-10.214,1.896
	c-0.481,0.159-0.814,0.81-1.055,1.741c-0.314,0.489-0.522,1.1-0.416,1.972c0.027,0.256,0.027,0.474,0.046,0.714
	c-0.051,0.849-0.069,1.79-0.06,2.809c-0.241,1.513-0.8,2.534-1.518,3.066c0.699-2.997-0.912-5.997-6.055-7.738
	c-0.046-0.343-0.102-0.659-0.138-1.025c0.309-0.15,0.555-0.402,0.559-0.769l0.069-5.413c0-0.02-0.018-0.033-0.018-0.046
	c0.018-0.218-0.037-0.44-0.204-0.606l-1.948-1.989c-0.143-0.148-0.337-0.238-0.55-0.243c-0.019,0-0.024,0.014-0.037,0.014V48.184
	l1.526-2.957l-2.21-4.565l-2.355,4.565l1.55,3v38.476h-0.111c-0.009,0-0.018,0.011-0.028,0.011c-0.009,0-0.023-0.016-0.027-0.016
	l-1.397-0.019c-0.435,0-0.786,0.347-0.791,0.777c-0.005,0.425,0.337,0.781,0.772,0.786l0.513,0.005l-0.004,0.347l-0.514-0.005
	c-0.431-0.004-0.786,0.34-0.791,0.771c-0.005,0.432,0.342,0.786,0.777,0.793l0.509,0.005l-0.004,0.344l-0.514-0.004
	c-0.431-0.004-0.782,0.34-0.786,0.772c-0.005,0.43,0.342,0.786,0.772,0.791l0.509,0.005l-0.004,0.344h-0.037
	c-2.85-1.026-6.245-1.66-9.673-1.983V78.697c-6.471-3.282-11.948,0-11.948,0v11.737c-3.839,0.365-7.661,1.034-10.214,1.896
	c-0.481,0.159-0.814,0.814-1.055,1.751c-0.314,0.488-0.518,1.094-0.416,1.962c0.032,0.242,0.027,0.45,0.046,0.682
	c-0.009,0.162-0.009,0.343-0.019,0.507c-1.323-1.221-3.289-2.273-6.235-2.956c-0.347-0.081-0.62-0.046-0.939-0.076
	c-0.06-0.222-0.121-0.481-0.208-0.652c0.088-0.144,0.19-0.271,0.194-0.447l0.065-5.413c0-0.02-0.019-0.033-0.019-0.046
	c0.019-0.218-0.037-0.44-0.204-0.606l-1.947-1.989h-0.005c-0.139-0.148-0.333-0.238-0.545-0.243c-0.019,0-0.023,0.021-0.037,0.021
	V48.188l1.521-2.961l-2.206-4.565l-2.355,4.565L44,48.231v38.471H43.89c-0.009,0-0.019,0.011-0.033,0.011
	c-0.009,0-0.014-0.016-0.023-0.016l-1.397-0.019c-0.435,0-0.786,0.347-0.791,0.777c-0.005,0.425,0.338,0.781,0.772,0.786
	l0.514,0.005l-0.004,0.347l-0.514-0.005c-0.43-0.004-0.782,0.34-0.791,0.771c0,0.432,0.342,0.786,0.777,0.793l0.509,0.005v0.344
	l-0.518-0.004c-0.389-0.004-0.689,0.298-0.745,0.678c-1.67-0.333-3.381-0.583-5.121-0.749V78.697c-6.472-3.282-11.953,0-11.953,0
	v11.737c-3.839,0.365-7.66,1.034-10.214,1.896c-0.481,0.159-0.814,0.81-1.054,1.746c-0.31,0.488-0.518,1.099-0.412,1.967
	c0.032,0.247,0.027,0.46,0.046,0.691c-0.056,0.857-0.074,1.813-0.06,2.84c-0.995,6.301-7.623,4.367-7.854-8.192l-1.646,0.005
	c-0.408,12.235,5.467,19.604,10.139,18.175c0.971,9.598,2.683,19.608,2.683,19.608h1.295c-7.003,5.912-7.054,14.84-3.978,21.376
	c0.454-0.042,1.758-0.177,2.304-0.236c-2.007-9.238,0.74-15.89,14.257-20.696c6.837,1.759,11.259,4.155,13.923,7.06v16.819h1.49
	v-14.82c2.063,3.376,2.252,7.299,1.313,11.638c0.546,0.06,1.846,0.194,2.294,0.236c2.683-5.676,1.633-13.799-3.608-19.424v-2.915
	c0.425-2.502,1.638-9.936,2.46-17.411c1.527-0.448,2.942-1.091,4.196-1.896c1.272,0.791,2.586,1.04,3.821,0.661
	c0.972,9.598,2.683,19.608,2.683,19.608h1.3c-7.008,5.912-7.059,14.84-3.978,21.376c0.454-0.042,1.753-0.177,2.29-0.236
	c-1.994-9.238,0.745-15.89,14.271-20.696c15.708,4.039,18.725,11.458,16.727,20.696c0.139,0.019,0.333,0.037,0.546,0.06v0.912
	l-0.583-0.037l-0.273,1.67l0.856,0.051v0.527h1.49v-0.522c0.703,0.291,1.767,0.393,2.483,0.014c1.014-0.536,0.25-1.245-0.328-0.972
	c-0.574,0.269-1.804-0.236-1.985-0.634l-0.17-0.009v-0.856c0.092,0.01,0.194,0.02,0.259,0.033c1.938-4.112,1.878-9.497-0.259-14.304
	v-25.729c1.938-0.689,3.672-1.706,5.07-2.928c1.711,1.786,3.636,2.521,5.412,1.976c0.967,9.598,2.679,19.608,2.679,19.608h1.3
	c-7.008,5.912-7.059,14.84-3.979,21.376c0.449-0.042,1.749-0.177,2.294-0.236c-1.999-9.238,0.74-15.89,14.266-20.696
	c15.709,4.039,18.724,11.458,16.727,20.696c0.541,0.06,1.841,0.194,2.289,0.236c3.012-6.389,1.272-15.844-5.833-21.376h2.063
	c0,0,1.614-9.21,2.623-18.374C145.504,108.068,151.115,97.461,137.39,94.276 M91.295,94.001l0.383,0.004
	c0.005,0.103-0.004,0.206,0.005,0.302c-0.037-0.01-0.056-0.021-0.092-0.03c-0.111-0.023-0.189-0.005-0.296-0.023V94.001z
	 M51.476,102.739c-0.777-0.407-1.549-1.258-2.211-2.554C50.639,100.731,51.36,101.657,51.476,102.739 M43.256,129.171H44v0.602
	C43.76,129.568,43.515,129.365,43.256,129.171 M48.261,107.771c0.097-1.035,0.18-2.063,0.254-3.062
	c0.379,0.712,0.786,1.359,1.221,1.925C49.315,107.05,48.821,107.426,48.261,107.771 M85.716,129.171h2.063
	c0,0,1.073-6.152,2.026-13.396v17.685C88.736,131.863,87.339,130.438,85.716,129.171 M91.295,107.379v-7.336
	c0.555,0.176,1.022,0.397,1.396,0.67c0.324,1.138,0.731,2.151,1.17,3.1C93.603,105.057,92.691,106.353,91.295,107.379
	 M136.516,107.771c0.259-2.789,0.43-5.448,0.463-7.771C141.11,101.185,140.277,105.45,136.516,107.771"/>
<path fill="#83AEC6" d="M185.033,152.013c-0.574,0.269-1.805-0.236-1.979-0.634l-2.248-0.134l-0.27,1.665l1.676,0.103
	c0,0,0.018-0.245,0.026-0.458c0.39,0.559,2.114,0.967,3.128,0.435C186.378,152.448,185.615,151.735,185.033,152.013"/>
<path fill="#83AEC6" d="M137.859,87.865v-0.389l0.634,0.65c0.301,0.308,0.801,0.313,1.105,0.009c0.31-0.299,0.315-0.791,0.009-1.105
	l-1.942-1.984c-0.139-0.142-0.333-0.241-0.556-0.241c-0.008,0-0.018,0.014-0.036,0.014V48.186l1.531-2.956l-2.207-4.57l-2.359,4.57
	l1.546,2.997v105.271h1.489V88.633C137.502,88.638,137.85,88.291,137.859,87.865"/>
<path fill="#83AEC6" d="M273.292,152.013c-0.574,0.269-1.804-0.236-1.984-0.634l-2.243-0.134l-0.269,1.665l1.675,0.103
	c0,0,0.014-0.245,0.026-0.458c0.389,0.559,2.105,0.967,3.128,0.435C274.633,152.448,273.871,151.735,273.292,152.013"/>
<path fill="#83AEC6" d="M271.428,94.276c-0.342-0.081-0.62-0.046-0.931-0.076c-0.222-0.715-0.499-1.263-0.896-1.43
	c-3.025-1.27-6.921-1.979-10.778-2.345V78.697c-6.476-3.282-11.952,0-11.952,0v11.737c-3.85,0.365-7.666,1.034-10.215,1.896
	c-0.48,0.159-0.813,0.81-1.055,1.741c-0.314,0.489-0.522,1.1-0.416,1.972c0.027,0.256,0.027,0.474,0.047,0.714
	c-0.052,0.849-0.069,1.79-0.061,2.809c-0.241,1.513-0.8,2.534-1.518,3.066c0.698-2.997-0.911-5.997-6.055-7.738
	c-0.046-0.343-0.103-0.659-0.139-1.025c0.31-0.15,0.555-0.402,0.56-0.769l0.069-5.413c0-0.02-0.019-0.033-0.019-0.046
	c0.019-0.218-0.037-0.44-0.204-0.606l-1.947-1.989c-0.144-0.148-0.337-0.238-0.55-0.243c-0.019,0-0.023,0.014-0.037,0.014V48.184
	l1.526-2.957l-2.211-4.565l-2.354,4.565l1.55,3v38.476h-0.111c-0.01,0-0.019,0.011-0.028,0.011c-0.009,0-0.023-0.016-0.027-0.016
	l-1.397-0.019c-0.435,0-0.786,0.347-0.791,0.777c-0.005,0.425,0.338,0.781,0.773,0.786l0.513,0.005l-0.004,0.347l-0.514-0.005
	c-0.431-0.004-0.786,0.34-0.791,0.771c-0.005,0.432,0.342,0.786,0.776,0.793l0.509,0.005l-0.004,0.344l-0.514-0.004
	c-0.431-0.004-0.782,0.34-0.786,0.772c-0.005,0.43,0.343,0.786,0.772,0.791l0.509,0.005l-0.004,0.344h-0.037
	c-2.85-1.026-6.246-1.66-9.674-1.983V78.697c-6.471-3.282-11.947,0-11.947,0v11.737c-3.84,0.365-7.661,1.034-10.214,1.896
	c-0.481,0.159-0.814,0.814-1.056,1.751c-0.313,0.488-0.518,1.094-0.416,1.962c0.032,0.242,0.028,0.45,0.047,0.682
	c-0.01,0.162-0.01,0.343-0.019,0.507c-1.323-1.221-3.289-2.273-6.235-2.956c-0.347-0.081-0.62-0.046-0.939-0.076
	c-0.06-0.222-0.12-0.481-0.208-0.652c0.088-0.144,0.19-0.271,0.194-0.447l0.064-5.413c0-0.02-0.019-0.033-0.019-0.046
	c0.019-0.218-0.037-0.44-0.203-0.606l-1.948-1.989h-0.005c-0.138-0.148-0.332-0.238-0.545-0.243c-0.019,0-0.023,0.021-0.037,0.021
	V48.188l1.521-2.961l-2.206-4.565l-2.354,4.565l1.55,3.005v38.471h-0.11c-0.01,0-0.02,0.011-0.033,0.011
	c-0.009,0-0.014-0.016-0.023-0.016l-1.396-0.019c-0.436,0-0.786,0.347-0.791,0.777c-0.005,0.425,0.338,0.781,0.772,0.786
	l0.514,0.005l-0.005,0.347l-0.513-0.005c-0.431-0.004-0.783,0.34-0.791,0.771c0,0.432,0.341,0.786,0.776,0.793l0.509,0.005v0.344
	l-0.519-0.004c-0.389-0.004-0.688,0.298-0.744,0.678c-1.671-0.333-3.381-0.583-5.121-0.749V78.697c-6.471-3.282-11.953,0-11.953,0
	v11.737c-3.839,0.365-7.66,1.034-10.214,1.896c-0.48,0.159-0.813,0.81-1.055,1.746c-0.31,0.488-0.518,1.099-0.411,1.967
	c0.032,0.247,0.027,0.46,0.046,0.691c-0.056,0.857-0.074,1.813-0.061,2.84c-0.993,6.301-7.622,4.367-7.854-8.192l-1.647,0.005
	c-0.407,12.235,5.468,19.604,10.14,18.175c0.972,9.598,2.684,19.608,2.684,19.608h1.295c-7.004,5.912-7.054,14.84-3.979,21.376
	c0.454-0.042,1.759-0.177,2.305-0.236c-2.008-9.238,0.739-15.89,14.256-20.696c6.837,1.759,11.26,4.155,13.924,7.06v16.819h1.489
	v-14.82c2.063,3.376,2.253,7.299,1.313,11.638c0.546,0.06,1.847,0.194,2.294,0.236c2.684-5.676,1.634-13.799-3.607-19.424v-2.915
	c0.426-2.502,1.638-9.936,2.461-17.411c1.526-0.448,2.941-1.091,4.196-1.896c1.271,0.791,2.585,1.04,3.82,0.661
	c0.972,9.598,2.683,19.608,2.683,19.608h1.3c-7.008,5.912-7.059,14.84-3.979,21.376c0.454-0.042,1.754-0.177,2.29-0.236
	c-1.993-9.238,0.745-15.89,14.271-20.696c15.709,4.039,18.726,11.458,16.728,20.696c0.139,0.019,0.333,0.037,0.546,0.06v0.912
	l-0.583-0.037l-0.273,1.67l0.856,0.051v0.527h1.489v-0.522c0.703,0.291,1.767,0.393,2.483,0.014c1.014-0.536,0.25-1.245-0.328-0.972
	c-0.573,0.269-1.804-0.236-1.984-0.634l-0.171-0.009v-0.856c0.093,0.01,0.194,0.02,0.259,0.033
	c1.938-4.112,1.878-9.497-0.259-14.304v-25.729c1.938-0.689,3.673-1.706,5.07-2.928c1.711,1.786,3.636,2.521,5.411,1.976
	c0.968,9.598,2.679,19.608,2.679,19.608h1.3c-7.008,5.912-7.06,14.84-3.979,21.376c0.448-0.042,1.749-0.177,2.295-0.236
	c-1.999-9.238,0.739-15.89,14.266-20.696c15.709,4.039,18.725,11.458,16.728,20.696c0.541,0.06,1.841,0.194,2.289,0.236
	c3.012-6.389,1.271-15.844-5.833-21.376h2.063c0,0,1.613-9.21,2.622-18.374C279.542,108.068,285.153,97.461,271.428,94.276
	 M225.333,94.001l0.384,0.004c0.005,0.103-0.005,0.206,0.005,0.302c-0.037-0.01-0.057-0.021-0.093-0.03
	c-0.111-0.023-0.189-0.005-0.296-0.023V94.001z M185.513,102.739c-0.776-0.407-1.549-1.258-2.211-2.554
	C184.676,100.731,185.398,101.657,185.513,102.739 M177.293,129.171h0.745v0.602C177.797,129.568,177.552,129.365,177.293,129.171
	 M182.298,107.771c0.098-1.035,0.181-2.063,0.255-3.062c0.379,0.712,0.787,1.359,1.221,1.925
	C183.353,107.05,182.859,107.426,182.298,107.771 M219.753,129.171h2.063c0,0,1.072-6.152,2.026-13.396v17.685
	C222.774,131.863,221.376,130.438,219.753,129.171 M225.333,107.379v-7.336c0.555,0.176,1.021,0.397,1.396,0.67
	c0.324,1.138,0.731,2.151,1.17,3.1C227.64,105.057,226.729,106.353,225.333,107.379 M270.554,107.771
	c0.259-2.789,0.43-5.448,0.463-7.771C275.147,101.185,274.314,105.45,270.554,107.771"/>
<path fill="#1972B0" d="M230.53,80.853c-0.516-0.121-0.936-0.069-1.402-0.115c-0.335-1.077-0.753-1.904-1.354-2.155
	c-4.563-1.915-10.436-2.985-16.253-3.536V57.358c-9.767-4.948-18.025,0-18.025,0V75.06c-5.805,0.551-11.56,1.56-15.403,2.859
	c-0.725,0.241-1.228,1.222-1.591,2.627c-0.474,0.736-0.787,1.657-0.627,2.973c0.041,0.386,0.041,0.714,0.07,1.076
	c-0.077,1.28-0.104,2.7-0.091,4.235c-0.363,2.281-1.207,3.822-2.289,4.624c1.054-4.52-1.374-9.043-9.131-11.669
	c-0.069-0.518-0.154-0.995-0.209-1.546c0.467-0.227,0.837-0.607,0.844-1.159l0.104-8.164c0-0.028-0.027-0.049-0.027-0.069
	c0.027-0.328-0.056-0.663-0.308-0.914l-2.937-3c-0.216-0.224-0.509-0.358-0.829-0.366c-0.029,0-0.036,0.021-0.057,0.021V11.344
	l2.302-4.459L159.984,0l-3.551,6.885l2.337,4.524v58.021h-0.168c-0.014,0-0.027,0.017-0.042,0.017c-0.014,0-0.035-0.023-0.041-0.023
	l-2.107-0.028c-0.655,0-1.186,0.522-1.192,1.172c-0.008,0.642,0.509,1.179,1.165,1.186l0.773,0.007l-0.006,0.523l-0.774-0.007
	c-0.649-0.007-1.186,0.513-1.193,1.161c-0.007,0.652,0.517,1.187,1.172,1.196l0.768,0.007l-0.007,0.52l-0.774-0.007
	c-0.649-0.006-1.179,0.514-1.186,1.166c-0.008,0.647,0.517,1.185,1.164,1.192l0.768,0.007l-0.006,0.519h-0.057
	c-4.297-1.547-9.418-2.504-14.587-2.991V57.358c-9.759-4.948-18.018,0-18.018,0V75.06c-5.79,0.551-11.553,1.56-15.403,2.859
	c-0.726,0.241-1.228,1.229-1.591,2.642c-0.474,0.735-0.781,1.648-0.627,2.958c0.049,0.365,0.042,0.68,0.07,1.027
	c-0.014,0.245-0.014,0.518-0.028,0.765c-1.995-1.841-4.959-3.429-9.403-4.458c-0.523-0.121-0.935-0.069-1.416-0.115
	c-0.091-0.334-0.182-0.725-0.314-0.983c0.133-0.216,0.286-0.407,0.293-0.674l0.098-8.164c0-0.028-0.028-0.049-0.028-0.069
	c0.028-0.328-0.056-0.663-0.307-0.914l-2.937-3h-0.007c-0.209-0.224-0.502-0.358-0.823-0.366c-0.028,0-0.035,0.031-0.056,0.031
	V11.35l2.295-4.465L90.91,0l-3.551,6.885l2.337,4.531v58.015h-0.167c-0.014,0-0.028,0.017-0.049,0.017
	c-0.014,0-0.021-0.023-0.035-0.023l-2.106-0.028c-0.656,0-1.186,0.522-1.193,1.172c-0.007,0.642,0.509,1.179,1.165,1.186
	l0.774,0.007l-0.007,0.523l-0.774-0.007c-0.649-0.007-1.179,0.513-1.193,1.161c0,0.652,0.516,1.187,1.171,1.196l0.768,0.007v0.52
	l-0.781-0.007c-0.586-0.006-1.04,0.45-1.123,1.022c-2.519-0.503-5.1-0.879-7.722-1.13V57.358c-9.759-4.948-18.026,0-18.026,0V75.06
	c-5.79,0.551-11.552,1.56-15.402,2.859c-0.725,0.241-1.228,1.222-1.59,2.634c-0.468,0.736-0.781,1.656-0.621,2.966
	c0.048,0.372,0.042,0.693,0.07,1.042c-0.084,1.294-0.112,2.734-0.091,4.283c-1.5,9.501-11.496,6.586-11.845-12.354l-2.483,0.006
	c-0.614,18.452,8.245,29.564,15.291,27.408c1.465,14.475,4.046,29.57,4.046,29.57h1.953c-10.561,8.916-10.638,22.379-5.999,32.235
	c0.684-0.063,2.651-0.266,3.474-0.356c-3.027-13.931,1.116-23.962,21.499-31.209c10.311,2.651,16.979,6.265,20.998,10.646v25.363
	h2.246v-22.35c3.111,5.092,3.397,11.007,1.981,17.55c0.823,0.091,2.783,0.294,3.46,0.356c4.046-8.56,2.463-20.809-5.441-29.291
	v-4.396c0.642-3.773,2.47-14.984,3.711-26.257c2.302-0.677,4.437-1.646,6.327-2.859c1.918,1.192,3.899,1.569,5.762,0.997
	c1.465,14.475,4.046,29.57,4.046,29.57h1.96c-10.568,8.916-10.645,22.379-6,32.235c0.684-0.063,2.644-0.266,3.454-0.356
	c-3.007-13.931,1.123-23.962,21.52-31.209c23.689,6.09,28.238,17.278,25.225,31.209c0.209,0.028,0.502,0.056,0.823,0.091v1.374
	l-0.879-0.056l-0.412,2.519l1.291,0.077v0.795h2.246v-0.788c1.06,0.439,2.664,0.593,3.745,0.021
	c1.528-0.809,0.377-1.877-0.495-1.465c-0.864,0.405-2.72-0.355-2.992-0.955l-0.258-0.014v-1.291c0.14,0.014,0.293,0.028,0.391,0.049
	c2.923-6.201,2.832-14.322-0.391-21.569v-38.8c2.923-1.039,5.539-2.573,7.646-4.415c2.581,2.692,5.483,3.802,8.161,2.979
	c1.459,14.475,4.04,29.57,4.04,29.57h1.96c-10.568,8.916-10.646,22.379-6,32.235c0.677-0.063,2.637-0.266,3.46-0.356
	c-3.014-13.931,1.116-23.962,21.514-31.209c23.69,6.09,28.237,17.278,25.225,31.209c0.816,0.091,2.776,0.294,3.453,0.356
	c4.541-9.634,1.918-23.892-8.796-32.235h3.11c0,0,2.435-13.888,3.955-27.708C242.765,101.651,251.227,85.655,230.53,80.853
	 M161.016,80.438l0.579,0.007c0.007,0.154-0.007,0.311,0.007,0.454c-0.056-0.014-0.084-0.032-0.14-0.046
	c-0.167-0.034-0.285-0.007-0.446-0.034V80.438z M100.968,93.615c-1.172-0.613-2.336-1.897-3.334-3.852
	C99.706,90.587,100.794,91.982,100.968,93.615 M88.572,133.475h1.124v0.907C89.333,134.074,88.963,133.768,88.572,133.475
	 M96.121,101.204c0.146-1.562,0.271-3.11,0.383-4.617c0.572,1.074,1.186,2.051,1.842,2.902
	C97.71,100.116,96.964,100.682,96.121,101.204 M152.603,133.475h3.111c0,0,1.618-9.277,3.056-20.201v26.668
	C157.158,137.534,155.051,135.387,152.603,133.475 M161.016,100.612V89.549c0.837,0.265,1.541,0.6,2.106,1.011
	c0.488,1.716,1.103,3.244,1.765,4.674C164.497,97.109,163.123,99.063,161.016,100.612 M229.211,101.204
	c0.391-4.206,0.648-8.217,0.698-11.719C236.138,91.271,234.882,97.703,229.211,101.204"/>
<path fill="#1972B0" d="M30.881,69.408v-0.57l0.931,0.955c0.441,0.451,1.175,0.458,1.624,0.012c0.455-0.438,0.462-1.161,0.014-1.623
	l-2.853-2.914c-0.204-0.207-0.489-0.354-0.815-0.354c-0.013,0-0.027,0.021-0.054,0.021V11.139l2.249-4.342l-3.24-6.711l-3.464,6.711
	l2.269,4.402v154.592h2.187V70.536C30.358,70.543,30.868,70.033,30.881,69.408"/>
</svg>
