<?xml version="1.0" encoding="iso-8859-1"?>
<!-- Generator: Adobe Illustrator 13.0.0, SVG Export Plug-In  -->
<!DOCTYPE svg [
	<!ENTITY ns_flows "http://ns.adobe.com/Flows/1.0/">
]>
<svg version="1.2" baseProfile="tiny"
	 xmlns="http://www.w3.org/2000/svg" xmlns:xlink="http://www.w3.org/1999/xlink" xmlns:a="http://ns.adobe.com/AdobeSVGViewerExtensions/3.0/"
	 x="0px" y="0px" width="83px" height="113px" viewBox="-0.5 -0.8 83 113" xml:space="preserve">
<defs>
</defs>
<path fill="#1972B0" d="M30.5,61c-10.6,0-20.3-5.4-25.9-14.4c-4.3-6.9-5.7-15.1-3.8-23c1.8-7.9,6.7-14.7,13.6-19
	C19.2,1.6,24.8,0,30.5,0c10.6,0,20.3,5.4,25.9,14.4c4.3,6.9,5.7,15.1,3.8,23c-1.8,7.9-6.7,14.7-13.6,19C41.8,59.4,36.2,61,30.5,61
	 M30.5,7.2c-4.3,0-8.6,1.2-12.3,3.5c-5.3,3.3-9,8.4-10.4,14.5c-1.4,6.1-0.4,12.3,2.9,17.6c4.3,6.9,11.7,11,19.8,11
	c4.3,0,8.6-1.2,12.3-3.5c5.3-3.3,9-8.4,10.4-14.5c1.4-6.1,0.4-12.3-2.9-17.6C46,11.3,38.6,7.2,30.5,7.2"/>
<path fill="#1972B0" d="M77.5,110.8c-2.9,1.8-6.3,1.6-7.6-0.4L38.8,60.4c-1.3-2,0.1-5.2,3-7l1.1-0.7c2.9-1.8,6.3-1.6,7.6,0.4
	l31.1,49.9c1.3,2-0.1,5.2-3,7L77.5,110.8z"/>
</svg>
