<?xml version="1.0" encoding="iso-8859-1"?>
<!-- Generator: Adobe Illustrator 13.0.0, SVG Export Plug-In  -->
<!DOCTYPE svg [
	<!ENTITY ns_flows "http://ns.adobe.com/Flows/1.0/">
]>
<svg version="1.2" baseProfile="tiny"
	 xmlns="http://www.w3.org/2000/svg" xmlns:xlink="http://www.w3.org/1999/xlink" xmlns:a="http://ns.adobe.com/AdobeSVGViewerExtensions/3.0/"
	 x="0px" y="0px" width="85px" height="150px" viewBox="-0.4 -0.6 85 150" xml:space="preserve">
<defs>
</defs>
<path fill="#1972B0" d="M80.4,14.4H69.2v-12c0-1.3-1.1-2.4-2.4-2.4H17.3c-1.3,0-2.4,1.1-2.4,2.4v12H3.7c-2,0-3.7,1.6-3.7,3.7v126.9
	c0,2,1.6,3.7,3.7,3.7h76.7c2,0,3.7-1.6,3.7-3.7V18.1C84.1,16,82.4,14.4,80.4,14.4 M49.6,121H34.8v-14.7h14.7V121z M66.8,74.6
	C65,77.5,61,81.5,55,86.5c-3.1,2.6-5,4.7-5.8,6.3c-0.8,1.6-1.1,4.4-1,8.4H34.8c0-1.9-0.1-3.1-0.1-3.5c0-4.3,0.7-7.9,2.1-10.7
	c1.4-2.8,4.3-5.9,8.6-9.4c4.3-3.5,6.9-5.8,7.7-6.9c1.3-1.7,1.9-3.6,1.9-5.7c0-2.9-1.2-5.3-3.4-7.4c-2.3-2-5.4-3.1-9.3-3.1
	c-3.7,0-6.9,1.1-9.4,3.2c-2.5,2.1-4.2,5.4-5.2,9.7l-13.5-1.7c0.4-6.3,3-11.6,8-15.9c4.9-4.4,11.4-6.6,19.5-6.6
	c8.5,0,15.2,2.2,20.2,6.6c5,4.4,7.5,9.6,7.5,15.4C69.6,68.7,68.6,71.7,66.8,74.6"/>
</svg>
