<?xml version="1.0" encoding="iso-8859-1"?>
<!-- Generator: Adobe Illustrator 13.0.0, SVG Export Plug-In  -->
<!DOCTYPE svg [
	<!ENTITY ns_flows "http://ns.adobe.com/Flows/1.0/">
]>
<svg version="1.2" baseProfile="tiny"
	 xmlns="http://www.w3.org/2000/svg" xmlns:xlink="http://www.w3.org/1999/xlink" xmlns:a="http://ns.adobe.com/AdobeSVGViewerExtensions/3.0/"
	 x="0px" y="0px" width="147px" height="66px" viewBox="-0.7 -0.8 147 66" xml:space="preserve">
<defs>
</defs>
<path fill="#1972B0" d="M145.4,28.1c0-5.2-4.2-9.5-9.5-9.5c-1.9,0-3.7,0.6-5.2,1.6c0-0.5,0.1-0.9,0.1-1.4c0-10.4-8.4-18.8-18.8-18.8
	c-8.1,0-15,5.1-17.6,12.3C91.8,10.2,88.6,9,85.2,9c-7.9,0-14.3,6.4-14.3,14.3c0,7,5,12.8,11.6,14.1v0.3h53.6v0
	C141.2,37.5,145.4,33.3,145.4,28.1"/>
<path fill="#1972B0" d="M67.5,50.6c0-7.9-6.4-14.3-14.3-14.3c-1.6,0-3.2,0.3-4.6,0.8c-3.2-5.8-9.4-9.8-16.5-9.8
	c-10.4,0-18.8,8.4-18.8,18.8c0,0.2,0,0.4,0,0.7c-1.2-0.5-2.5-0.8-3.8-0.8C4.2,46,0,50.2,0,55.5c0,5.2,4.2,9.5,9.5,9.5
	c0.2,0,0.3,0,0.5,0v0h45.6v-0.2C62.4,63.6,67.5,57.7,67.5,50.6"/>
</svg>
