<?xml version="1.0" encoding="iso-8859-1"?>
<!-- Generator: Adobe Illustrator 13.0.0, SVG Export Plug-In  -->
<!DOCTYPE svg [
	<!ENTITY ns_flows "http://ns.adobe.com/Flows/1.0/">
]>
<svg version="1.2" baseProfile="tiny"
	 xmlns="http://www.w3.org/2000/svg" xmlns:xlink="http://www.w3.org/1999/xlink" xmlns:a="http://ns.adobe.com/AdobeSVGViewerExtensions/3.0/"
	 x="0px" y="0px" width="102px" height="105px" viewBox="-0.1 -0.9 102 105" xml:space="preserve">
<defs>
</defs>
<path fill="#1972B0" d="M82.9,11.1c-0.4,0-0.9,0-1.3,0c-5.7-0.3-9.8-2.8-10-2.9l0.6-1c0,0,4,2.4,9.4,2.7C89,10.2,95.3,6.9,100.6,0
	l1,0.7C95.2,9.1,88.1,11.1,82.9,11.1"/>
<path fill="#1972B0" d="M21.9,73.9C13.9,70.5,4.7,74.1,1.3,82c-3.4,7.9,0.2,17.1,8.1,20.5c7.9,3.5,17.1-0.2,20.5-8.1
	C33.4,86.5,29.7,77.4,21.9,73.9 M12.9,97.1l-1.1,2.6l-2.5-1.1l1.1-2.4c-1.7-0.8-3.1-2-3.9-3l2.1-2.7c0.8,1.1,2.1,2.3,3.8,3
	c1.5,0.6,2.7,0.5,3.2-0.5c0.4-1-0.1-1.9-1.7-3.4c-2.3-2.1-3.7-4.2-2.6-6.7c1-2.3,3.3-3.3,6.3-2.7l1.1-2.4l2.5,1.1l-1,2.3
	c1.7,0.8,2.7,1.7,3.3,2.5l-2,2.6c-0.5-0.6-1.5-1.7-3.3-2.5c-1.7-0.7-2.5-0.2-2.8,0.5c-0.4,0.8,0.3,1.8,2.1,3.6
	c2.6,2.4,3.2,4.4,2.2,6.7C18.5,96.7,16,97.9,12.9,97.1"/>
<path fill="#1972B0" d="M33.8,81.3c-5.8,2.3-8.6,8.8-6.4,14.6c2.3,5.8,8.8,8.6,14.6,6.4c5.8-2.3,8.6-8.8,6.4-14.6
	C46.1,81.9,39.6,79,33.8,81.3 M41.1,97.7l0.8,1.9l-1.8,0.7l-0.7-1.8C38,99,36.7,99.2,35.8,99l-0.3-2.4c1,0.1,2.2,0.1,3.4-0.4
	c1.1-0.4,1.6-1.1,1.3-1.9c-0.3-0.7-1.1-0.9-2.6-0.8c-2.3,0.1-4-0.3-4.7-2.1c-0.6-1.7,0-3.4,1.9-4.6L34.1,85l1.8-0.7l0.6,1.7
	c1.3-0.4,2.2-0.5,3-0.4l0.3,2.3c-0.6,0-1.6-0.1-3,0.4c-1.2,0.5-1.4,1.2-1.2,1.7c0.2,0.6,1.1,0.8,2.9,0.7c2.5-0.1,3.8,0.6,4.5,2.3
	C43.7,94.6,43.1,96.5,41.1,97.7"/>
<path fill="#1972B0" d="M56.8,73.7c-7.8,3.1-11.7,11.9-8.6,19.8c3.1,7.8,11.9,11.7,19.8,8.6c7.8-3.1,11.7-11.9,8.6-19.8
	C73.5,74.5,64.7,70.7,56.8,73.7 M66.7,96l1,2.6l-2.5,1l-0.9-2.4c-1.7,0.6-3.6,0.8-4.8,0.6l-0.4-3.3c1.3,0.2,3,0.1,4.7-0.5
	c1.5-0.6,2.2-1.5,1.8-2.5c-0.4-1-1.4-1.3-3.6-1.2c-3.1,0.1-5.4-0.4-6.4-2.9c-0.9-2.2,0-4.6,2.5-6.2l-1-2.4l2.5-1l0.9,2.2
	c1.7-0.6,3-0.7,4-0.6l0.4,3.2c-0.8,0-2.2-0.1-4,0.6c-1.7,0.7-1.9,1.6-1.6,2.3c0.3,0.8,1.4,1,3.9,1c3.4-0.1,5.2,0.8,6.1,3.1
	C70.2,91.8,69.4,94.3,66.7,96"/>
<path fill="#1972B0" d="M22.6,63c-2.4,8.4,2.4,17.1,10.7,19.6c8.4,2.4,17.1-2.4,19.6-10.7c2.4-8.4-2.4-17.1-10.7-19.6
	C33.8,49.8,25,54.6,22.6,63 M47,69l2.8,0.8L49,72.4l-2.6-0.7c-0.6,1.8-1.6,3.4-2.5,4.3L41,74.2c1-1,2-2.4,2.5-4.2
	c0.5-1.5,0.2-2.8-0.9-3.1c-1-0.3-1.9,0.4-3.2,2.2c-1.8,2.6-3.8,4.2-6.4,3.4c-2.4-0.7-3.8-2.9-3.5-6l-2.6-0.8l0.8-2.7l2.4,0.7
	c0.6-1.8,1.3-2.9,2-3.7l2.8,1.7c-0.5,0.6-1.5,1.7-2.1,3.6c-0.5,1.8,0.1,2.5,0.8,2.8c0.9,0.3,1.7-0.5,3.3-2.6c2.1-2.9,4-3.8,6.4-3.1
	C45.8,63.4,47.4,65.7,47,69"/>
<path fill="#1972B0" d="M62.2,55.8c-5.1-1.4-10.3,1.6-11.7,6.7c-1.4,5.1,1.6,10.3,6.7,11.7c5.1,1.4,10.3-1.6,11.7-6.7
	C70.3,62.4,67.3,57.2,62.2,55.8 M58.9,70.7l-0.5,1.7l-1.6-0.4l0.4-1.6c-1.1-0.3-2.1-0.9-2.6-1.5l1-1.8c0.6,0.6,1.5,1.2,2.5,1.5
	c0.9,0.3,1.7,0.1,1.9-0.6c0.2-0.6-0.2-1.2-1.4-1.9c-1.6-1.1-2.6-2.2-2.2-3.8c0.4-1.4,1.7-2.3,3.6-2.2l0.4-1.6l1.6,0.4l-0.4,1.4
	c1.1,0.4,1.8,0.8,2.2,1.2l-1,1.7c-0.4-0.3-1-0.9-2.2-1.2c-1.1-0.3-1.5,0.1-1.7,0.5c-0.1,0.5,0.3,1,1.6,2c1.8,1.2,2.3,2.3,1.9,3.8
	C62.3,69.9,60.9,70.9,58.9,70.7"/>
</svg>
