<?xml version="1.0" encoding="iso-8859-1"?>
<!-- Generator: Adobe Illustrator 13.0.0, SVG Export Plug-In  -->
<!DOCTYPE svg [
	<!ENTITY ns_flows "http://ns.adobe.com/Flows/1.0/">
]>
<svg version="1.2" baseProfile="tiny"
	 xmlns="http://www.w3.org/2000/svg" xmlns:xlink="http://www.w3.org/1999/xlink" xmlns:a="http://ns.adobe.com/AdobeSVGViewerExtensions/3.0/"
	 x="0px" y="0px" width="214px" height="148px" viewBox="-0.3 -0.7 214 148" xml:space="preserve">
<defs>
</defs>
<polygon fill="#1772B0" points="65.9,71.8 68.5,68.5 110.8,101.1 108.4,104.6 65.9,71.8 "/>
<path fill="#1772B0" d="M27.5,132.1h83c11.5,0,14.3,5.1,20.9,9.2l8.4,5.1L0,146.6l6.6-5.4C12,137,16,132.1,27.5,132.1L27.5,132.1z"
	/>
<path fill="#1772B0" d="M41.2,113.3h56c7.9,0,9.7,4.8,14,8.9l5.6,5.1l-94.2,0.5l4.6-5.6C30.8,117.9,33.6,113.3,41.2,113.3
	L41.2,113.3z"/>
<path fill="#1772B0" d="M204.4,121.4c4.1-5.1,7.6-8.7,8.4-8.1c0.5,0.8-2,5.1-5.8,10.2c-3.8,4.8-7.4,8.4-8.1,7.9
	C198,130.8,200.6,126.5,204.4,121.4L204.4,121.4z"/>
<path fill="#1772B0" d="M104.6,3.6L104.6,3.6c2-2.6,6.4-2.6,9.7,0l46.1,35.4c3.3,2.8,4.6,6.9,2.6,9.4l0,0c-2,2.5-6.4,2.5-9.7,0
	L107.2,13C103.9,10.2,102.6,6.1,104.6,3.6L104.6,3.6z"/>
<path fill="#1772B0" d="M65.2,54.7c-2,2.6-0.8,6.9,2.5,9.4l45.8,35.4c3.3,2.5,7.9,2.8,9.7,0.2l0,0c2-2.5,0.8-6.9-2.5-9.4L74.8,55
	C71.5,52.2,67,52.2,65.2,54.7L65.2,54.7L65.2,54.7z"/>
<polygon fill="#1772B0" points="148.7,85.3 199.1,124.2 205.9,115.6 155.5,76.6 136.7,68.5 150.2,51.3 106.6,18.6 80.6,53.8 
	122.9,86.5 135.4,69.7 148.7,85.3 "/>
<polygon fill="#1772B0" points="119.2,3.6 161.5,36.6 163.9,32.8 121.7,0 "/>
</svg>
