<?xml version="1.0" encoding="iso-8859-1"?>
<!-- Generator: Adobe Illustrator 13.0.0, SVG Export Plug-In  -->
<!DOCTYPE svg [
	<!ENTITY ns_flows "http://ns.adobe.com/Flows/1.0/">
]>
<svg version="1.2" baseProfile="tiny"
	 xmlns="http://www.w3.org/2000/svg" xmlns:xlink="http://www.w3.org/1999/xlink" xmlns:a="http://ns.adobe.com/AdobeSVGViewerExtensions/3.0/"
	 x="0px" y="0px" width="135px" height="100px" viewBox="-0.9 -0.5 135 100" xml:space="preserve">
<defs>
</defs>
<polygon fill="#1972B1" points="124.5,1.7 90.4,5 80.2,20.6 67.7,18.4 45.4,56.4 32.7,58.9 0,88.2 1.5,88.6 33.4,60.2 46.3,57.7 
	68.4,19.9 80.8,22.1 91.2,6.3 124.6,3.1 "/>
<polygon fill="#1972B1" points="124.1,0 128,1.8 124.5,4.3 "/>
<rect x="62.1" y="40" fill="#1972B1" width="14.5" height="59.5"/>
<rect x="119.4" y="12.9" fill="#1972B1" width="14.5" height="86.5"/>
<rect x="91.5" y="20.9" fill="#1972B1" width="14.5" height="78.5"/>
<path fill="#1972B1" d="M67.9,5.9c0-0.1,0,0-0.1,0.1C67.8,6,67.9,6,67.9,5.9"/>
</svg>
