<?xml version="1.0" encoding="iso-8859-1"?>
<!-- Generator: Adobe Illustrator 13.0.0, SVG Export Plug-In  -->
<!DOCTYPE svg [
	<!ENTITY ns_flows "http://ns.adobe.com/Flows/1.0/">
]>
<svg version="1.2" baseProfile="tiny"
	 xmlns="http://www.w3.org/2000/svg" xmlns:xlink="http://www.w3.org/1999/xlink" xmlns:a="http://ns.adobe.com/AdobeSVGViewerExtensions/3.0/"
	 x="0px" y="0px" width="104px" height="105px" viewBox="-0.2 -0.6 104 105" xml:space="preserve">
<defs>
</defs>
<path fill="#1972B1" d="M51.8,0C23.2,0,0,23.2,0,51.8c0,28.6,23.2,51.8,51.8,51.8c28.6,0,51.7-23.2,51.7-51.8
	C103.5,23.2,80.3,0,51.8,0 M70,84.1c-5.3,4-12.1,6-20.2,6c-10.1,0-18.4-3.5-24.9-10.4c-6.5-6.9-9.8-16.4-9.8-28.3
	c0-12.7,3.3-22.5,9.8-29.5c6.5-7,15.1-10.5,25.8-10.5c9.3,0,16.9,2.7,22.7,8.3c3.5,3.3,6,7.9,7.8,14L66,37.4c-0.9-4-2.8-7.1-5.6-9.3
	c-2.9-2.3-6.3-3.4-10.4-3.4c-5.6,0-10.2,2-13.7,6.1c-3.5,4-5.3,10.6-5.3,19.7c0,9.6,1.7,16.5,5.2,20.6c3.5,4.1,8,6.1,13.5,6.1
	c4.1,0,7.6-1.3,10.5-3.9c2.9-2.6,5.1-6.7,6.3-12.3l14.9,4.7C79.1,73.9,75.3,80.1,70,84.1"/>
</svg>
