<?xml version="1.0" encoding="iso-8859-1"?>
<!-- Generator: Adobe Illustrator 13.0.0, SVG Export Plug-In  -->
<!DOCTYPE svg [
	<!ENTITY ns_flows "http://ns.adobe.com/Flows/1.0/">
]>
<svg version="1.2" baseProfile="tiny"
	 xmlns="http://www.w3.org/2000/svg" xmlns:xlink="http://www.w3.org/1999/xlink" xmlns:a="http://ns.adobe.com/AdobeSVGViewerExtensions/3.0/"
	 x="0px" y="0px" width="86px" height="106px" viewBox="-0.2 -0.1 86 106" xml:space="preserve">
<defs>
</defs>
<path fill="#1972B0" d="M43,0C24.7,9.4,0,14.1,0,14.1c2.1,78.5,42.3,91.2,42.3,91.2c47.2-22.8,43-91.9,43-91.9C63.5,13.4,43,0,43,0
	 M47.8,77.8H36.2V66.2h11.6V77.8z M61.3,41.4c-1.4,2.3-4.5,5.4-9.3,9.3c-2.4,2-4,3.7-4.6,4.9c-0.6,1.2-0.9,3.4-0.8,6.6H36.2
	c0-1.5,0-2.4,0-2.8c0-3.4,0.6-6.2,1.7-8.4c1.1-2.2,3.4-4.7,6.8-7.4c3.4-2.7,5.4-4.5,6.1-5.4c1-1.3,1.5-2.8,1.5-4.4
	c0-2.3-0.9-4.2-2.7-5.8c-1.8-1.6-4.2-2.4-7.3-2.4c-2.9,0-5.4,0.8-7.4,2.5c-2,1.7-3.3,4.2-4.1,7.7l-10.6-1.3
	c0.3-4.9,2.4-9.1,6.3-12.5c3.9-3.4,9-5.2,15.3-5.2c6.7,0,11.9,1.7,15.9,5.2c3.9,3.5,5.9,7.5,5.9,12.1C63.5,36.7,62.8,39.1,61.3,41.4
	"/>
</svg>
