<?xml version="1.0" encoding="iso-8859-1"?>
<!-- Generator: Adobe Illustrator 13.0.0, SVG Export Plug-In  -->
<!DOCTYPE svg PUBLIC "-//W3C//DTD SVG 1.1 Tiny//EN" "http://www.w3.org/Graphics/SVG/1.1/DTD/svg11-tiny.dtd" [
	<!ENTITY ns_flows "http://ns.adobe.com/Flows/1.0/">
]>
<svg version="1.1" baseProfile="tiny"
	 xmlns="http://www.w3.org/2000/svg" xmlns:xlink="http://www.w3.org/1999/xlink" xmlns:a="http://ns.adobe.com/AdobeSVGViewerExtensions/3.0/"
	 x="0px" y="0px" width="86px" height="144px" viewBox="-0.1 -0.2 86 144" xml:space="preserve">
<defs>
</defs>
<path fill="#1972B1" d="M59,61.6v-3.8c-1.6-0.7-2.7-2.3-2.7-4.2V43.2c0-2.6,2.1-4.7,4.7-4.7c2.6,0,4.7,2.1,4.7,4.7v10.4
	c0,1.9-1.1,3.4-2.7,4.2v3.8h11.2c0-0.3,0.1-0.5,0.1-0.8v-17c0-7.9-6.5-14.4-14.4-14.4h-9.4l-7.6,18.5l-7.6-18.5h-9.4
	c-7.9,0-14.4,6.5-14.4,14.4v17c0,0.3,0.1,0.5,0.1,0.8H59z"/>
<rect x="26.1" y="91.7" fill="#1972B1" width="32.1" height="42.8"/>
<path fill="#1972B1" d="M64.6,138.5H19.9c-1.3,0-2.3,1-2.3,2.3c0,1.3,1,2.3,2.3,2.3h44.6c1.3,0,2.3-1,2.3-2.3
	C66.9,139.6,65.8,138.5,64.6,138.5"/>
<path fill="#1972B1" d="M49.5,23.8c3.7-2.3,6.2-6.3,6.2-10.9C55.7,5.8,49.9,0,42.8,0C35.7,0,30,5.8,30,12.9c0,4.7,2.5,8.7,6.2,10.9
	c2,1.2,4.2,1.9,6.7,1.9C45.3,25.7,47.5,25,49.5,23.8"/>
<rect y="66.4" fill="#1972B1" width="85" height="16.5"/>
</svg>
