<?xml version="1.0" encoding="utf-8"?>
<!-- Generator: Adobe Illustrator 13.0.0, SVG Export Plug-In  -->
<!DOCTYPE svg PUBLIC "-//W3C//DTD SVG 1.1//EN" "http://www.w3.org/Graphics/SVG/1.1/DTD/svg11.dtd" [
	<!ENTITY ns_flows "http://ns.adobe.com/Flows/1.0/">
]>
<svg version="1.1"
	 xmlns="http://www.w3.org/2000/svg" xmlns:xlink="http://www.w3.org/1999/xlink" xmlns:a="http://ns.adobe.com/AdobeSVGViewerExtensions/3.0/"
	 x="0px" y="0px" width="22px" height="20px" viewBox="-0.633 -0.918 22 20" enable-background="new -0.633 -0.918 22 20"
	 xml:space="preserve">
<defs>
</defs>
<path fill="#1972B0" d="M17.281,4.897c0.091,0.028,0.186,0.048,0.285,0.048c0.101,0,0.194-0.02,0.284-0.048
	c0.384-0.122,0.664-0.477,0.664-0.9c0-0.524-0.424-0.949-0.948-0.949c-0.523,0-0.947,0.425-0.947,0.949
	C16.619,4.42,16.898,4.775,17.281,4.897"/>
<path fill="#1972B0" d="M18.686,10.166V8.988V8.64h0.188c0.318,0,0.58-0.261,0.58-0.58V5.918c0-0.318-0.262-0.58-0.58-0.58h-0.729
	l-0.578,1.601l-0.578-1.601h-0.728c-0.319,0-0.581,0.262-0.581,0.58V8.06c0,0.319,0.262,0.58,0.581,0.58h0.187v0.348v1.17
	C15.002,10.349,14,10.909,14,11.616c0,0.874,1.52,1.532,3.533,1.532c2.015,0,3.534-0.658,3.534-1.532
	C21.067,10.918,20.096,10.366,18.686,10.166 M17.533,12.749c-1.847,0-3.133-0.597-3.133-1.133c0-0.423,0.805-0.878,2.047-1.056
	v0.842c0,0.322,0.259,0.58,0.58,0.58c0.245,0,0.455-0.153,0.539-0.371c0.084,0.218,0.293,0.371,0.539,0.371
	c0.321,0,0.58-0.258,0.58-0.58V10.57c1.205,0.182,1.981,0.631,1.981,1.046C20.667,12.152,19.38,12.749,17.533,12.749"/>
<path fill="#1972B0" d="M10.079,3.331c0.163,0.051,0.334,0.087,0.514,0.087c0.181,0,0.35-0.036,0.512-0.087
	c0.691-0.219,1.196-0.859,1.196-1.622C12.301,0.766,11.537,0,10.593,0C9.649,0,8.886,0.766,8.886,1.709
	C8.886,2.472,9.389,3.112,10.079,3.331"/>
<path fill="#1972B0" d="M12.609,12.812v-2.111v-0.629h0.338c0.573,0,1.045-0.47,1.045-1.045V5.171c0-0.574-0.472-1.045-1.045-1.045
	h-1.313l-1.041,2.885L9.551,4.126H8.24c-0.575,0-1.045,0.471-1.045,1.045v3.856c0,0.575,0.47,1.045,1.045,1.045h0.336v0.629v2.094
	c-2.612,0.343-4.409,1.363-4.409,2.64c0,1.575,2.737,2.764,6.366,2.764s6.367-1.188,6.367-2.764
	C16.9,14.178,15.156,13.169,12.609,12.812 M10.533,17.476c-3.328,0-5.645-1.076-5.645-2.042c0-0.761,1.45-1.582,3.688-1.899v1.518
	c0,0.576,0.467,1.045,1.045,1.045c0.441,0,0.82-0.279,0.972-0.671c0.151,0.392,0.527,0.671,0.971,0.671
	c0.579,0,1.046-0.469,1.046-1.045V13.55c2.171,0.328,3.569,1.136,3.569,1.884C16.179,16.4,13.86,17.476,10.533,17.476"/>
<path fill="#1972B0" d="M3.281,4.897c0.091,0.028,0.186,0.048,0.285,0.048c0.101,0,0.194-0.02,0.284-0.048
	c0.384-0.122,0.664-0.477,0.664-0.9c0-0.524-0.424-0.949-0.948-0.949c-0.523,0-0.947,0.425-0.947,0.949
	C2.619,4.42,2.898,4.775,3.281,4.897"/>
<path fill="#1972B0" d="M7.067,11.616c0-0.697-0.972-1.25-2.382-1.45V8.988V8.64h0.188c0.318,0,0.58-0.261,0.58-0.58V5.918
	c0-0.318-0.262-0.58-0.58-0.58H4.145L3.566,6.939L2.988,5.338H2.261c-0.319,0-0.581,0.262-0.581,0.58V8.06
	c0,0.319,0.262,0.58,0.581,0.58h0.187v0.348v1.17C1.002,10.349,0,10.909,0,11.616c0,0.874,1.52,1.532,3.533,1.532
	C5.548,13.148,7.067,12.49,7.067,11.616 M3.533,12.749c-1.847,0-3.133-0.597-3.133-1.133c0-0.423,0.805-0.878,2.047-1.056v0.842
	c0,0.322,0.259,0.58,0.58,0.58c0.245,0,0.455-0.153,0.539-0.371c0.084,0.218,0.293,0.371,0.539,0.371c0.321,0,0.58-0.258,0.58-0.58
	V10.57c1.205,0.182,1.981,0.631,1.981,1.046C6.667,12.152,5.38,12.749,3.533,12.749"/>
</svg>
