<?xml version="1.0" encoding="iso-8859-1"?>
<!-- Generator: Adobe Illustrator 13.0.0, SVG Export Plug-In  -->
<!DOCTYPE svg [
	<!ENTITY ns_flows "http://ns.adobe.com/Flows/1.0/">
]>
<svg version="1.2" baseProfile="tiny"
	 xmlns="http://www.w3.org/2000/svg" xmlns:xlink="http://www.w3.org/1999/xlink" xmlns:a="http://ns.adobe.com/AdobeSVGViewerExtensions/3.0/"
	 x="0px" y="0px" width="72px" height="84px" viewBox="-0.9 -0.6 72 84" xml:space="preserve">
<defs>
</defs>
<path fill="#1972B0" d="M0.1,16.5c0,0,37,11.7,70.2,0c0,0,0.6,34.9-8.8,48.8c-9.4,13.8-7.9,15.3-7.9,16.5c0,1.2-4.4,1.8-7.3,0.9
	c-2.9-0.9-8.5-2.6-10.3-1.2c-1.8,1.5-5.9,1.2-7,1.2c-1.2,0-8.5-2.1-10-3.2c-1.5-1.2-6.7-2.9-8.2-1.8C9.2,78.7,10.1,49.5,6.4,49
	C4.8,48.9-1,22.2,0.1,16.5"/>
<polygon fill="#1972B0" points="31.1,6.2 17.9,0.8 18.2,0 31.4,5.4 "/>
<polygon fill="#1972B0" points="35.9,6.2 49.2,0.8 48.9,0 35.6,5.4 "/>
</svg>
