<?xml version="1.0" encoding="utf-8"?>
<!-- Generator: Adobe Illustrator 13.0.0, SVG Export Plug-In  -->
<!DOCTYPE svg PUBLIC "-//W3C//DTD SVG 1.1//EN" "http://www.w3.org/Graphics/SVG/1.1/DTD/svg11.dtd" [
	<!ENTITY ns_flows "http://ns.adobe.com/Flows/1.0/">
]>
<svg version="1.1"
	 xmlns="http://www.w3.org/2000/svg" xmlns:xlink="http://www.w3.org/1999/xlink" xmlns:a="http://ns.adobe.com/AdobeSVGViewerExtensions/3.0/"
	 x="0px" y="0px" width="20px" height="17px" viewBox="-0.298 -0.591 20 17" enable-background="new -0.298 -0.591 20 17"
	 xml:space="preserve">
<defs>
</defs>
<polygon fill="#1972B0" points="5.286,2.64 2.223,7.223 8.052,11.118 9.62,8.772 11.115,6.536 "/>
<rect x="6.324" y="1.908" transform="matrix(0.8313 0.5558 -0.5558 0.8313 2.8529 -5.1007)" fill="#1972B0" width="7.012" height="0.485"/>
<path fill="#1972B0" d="M5.066,1.539l6.894,4.606c0.322,0.217,0.761,0.129,0.978-0.194c0.215-0.324,0.13-0.763-0.194-0.978
	L5.852,0.366C5.527,0.149,5.087,0.236,4.873,0.56C4.656,0.884,4.743,1.322,5.066,1.539"/>
<rect x="-0.022" y="11.403" transform="matrix(-0.8314 -0.5556 0.5556 -0.8314 -0.0908 23.2625)" fill="#1972B0" width="7.011" height="0.484"/>
<path fill="#1972B0" d="M7.99,12.084L1.097,7.478C0.773,7.26,0.335,7.348,0.12,7.671c-0.217,0.325-0.131,0.764,0.193,0.98
	l6.892,4.605c0.324,0.217,0.763,0.129,0.978-0.195C8.399,12.739,8.313,12.3,7.99,12.084"/>
<polygon fill="#1972B0" points="9.62,8.772 11.221,10.742 18.184,15.397 18.968,14.226 12.002,9.568 "/>
<path fill="#1972B0" d="M19.568,13.884c-0.081-0.055-0.476,0.395-0.881,1.001c-0.406,0.608-0.671,1.146-0.59,1.199
	c0.081,0.053,0.477-0.396,0.883-1.002C19.386,14.473,19.648,13.937,19.568,13.884"/>
</svg>
