<?xml version="1.0" encoding="iso-8859-1"?>
<!-- Generator: Adobe Illustrator 13.0.0, SVG Export Plug-In  -->
<!DOCTYPE svg [
	<!ENTITY ns_flows "http://ns.adobe.com/Flows/1.0/">
]>
<svg version="1.2" baseProfile="tiny"
	 xmlns="http://www.w3.org/2000/svg" xmlns:xlink="http://www.w3.org/1999/xlink" xmlns:a="http://ns.adobe.com/AdobeSVGViewerExtensions/3.0/"
	 x="0px" y="0px" width="236px" height="319px" viewBox="-1 -0.5 236 319" xml:space="preserve">
<defs>
</defs>
<rect x="3.7" y="58.1" fill="#DEDDDC" width="66.4" height="80.8"/>
<path fill="#DEDDDC" d="M92.1,0c-12.1,0-22,9.8-22,22v39.9h35.7V21.2C105.9,9.8,92.1,0,92.1,0"/>
<path fill="#DEDDDC" d="M165.2,135.5c-1.1,0-1.9-0.9-1.9-1.9c0-1.1,0.9-1.9,1.9-1.9v-28.8c-1.1,0-1.9-0.9-1.9-1.9
	c0-1,0.9-1.9,1.9-1.9V70.3c-1.1,0-1.9-0.9-1.9-1.9c0-1.1,0.9-1.9,1.9-1.9V37.6l-73.1,0c-12.1,0-22,9.8-22,22v82.7
	c0,12.1,9.8,22,22,22h73.1V135.5z"/>
<path fill="#DEDDDC" d="M147.7,15.8c0-8.7-7.1-15.8-15.8-15.8H92.1c-8.7,0-15.8,7.1-15.8,15.8c0,8.7,7.1,15.8,15.8,15.8h39.8
	C140.6,31.7,147.7,24.6,147.7,15.8"/>
<path fill="#1972B0" d="M110.8,102.2c0,0-13.3-36.2,27.9-39c0,0,11.3-2.1,11,3.2c-0.3,5.3,0.5,10.7,4.8,10.9
	c4.3,0.2,18.2-1.2,18.1,0.9c-0.1,2.1,9.1,20.7,9.1,20.7l14.4,21.5c0,0-8.3,10.5-9.8,8.9c-1.5-1.7-40.1-15-40.1-15L110.8,102.2z"/>
<path fill="#1972B0" d="M159.7,90.3c0,0-7.6,11.7-17.1,11.2l8.3,5.9c0,0,1.2-12.1,18.1-7.1l-8.8-3.9L159.7,90.3z"/>
<polygon fill="#1972B0" points="156,111.9 183.6,119.1 157.7,116.2 "/>
<path fill="#1972B0" d="M128.6,70.4c0,0-19.4,3.2-14.3,29l8.3,0.7C122.6,100.2,110.6,79.9,128.6,70.4"/>
<path fill="#1972B0" d="M157.6,119.6c-0.5,9.8-14.8,17.1-32,16.3c-17.2-0.8-30.8-9.5-30.3-19.3c0.5-9.8,14.8-17.1,32-16.3
	C144.5,101.2,158.1,109.8,157.6,119.6"/>
<path fill="#1972B0" d="M93.5,116.5c-0.5,11,13.5,20.3,32,21.2c18.5,0.9,33.4-7,33.9-17.9c0.5-11-13.5-20.3-32-21.2
	C108.9,97.6,94,105.5,93.5,116.5 M97,116.6c0.4-8.7,14.3-15.3,30.2-14.6c15.9,0.8,29,8.8,28.6,17.5c-0.4,8.7-14.3,15.3-30.2,14.6
	C109.7,133.3,96.6,125.3,97,116.6"/>
<path fill="#1972B0" d="M160.4,130.7c-0.6,11.9-18,20.7-38.9,19.7c-20.9-1-37.3-11.5-36.8-23.4c0.6-11.9,18-20.7,38.9-19.7
	C144.6,108.3,161,118.8,160.4,130.7"/>
<path fill="#1972B0" d="M83,126.9c-0.6,13.1,16.2,24.2,38.4,25.3c22.2,1.1,40.1-8.3,40.7-21.4c0.6-13.1-16.2-24.2-38.4-25.3
	C101.6,104.4,83.7,113.8,83,126.9 M86.6,127c0.5-10.9,17.2-19,37-18c19.9,1,35.6,10.6,35.1,21.6c-0.5,10.9-17.1,19-37,18
	C101.8,147.6,86,138,86.6,127"/>
<path fill="#1972B0" d="M104.5,176.4c-2.9,0.1-6,1.6-6.8,5.1c-1.1,4.9,2.1,6.1,4.7,7.7l0.4,0l2.8-12.7
	C105.3,176.4,104.9,176.4,104.5,176.4"/>
<path fill="#1972B0" d="M214.6,317.5c-0.1,0-0.1,0-0.1,0C214.5,317.5,214.6,317.5,214.6,317.5"/>
<path fill="#1972B0" d="M102.7,225c0.4,0,0.4,0.1,0.7,0l0.4,0c3.5-0.1,7.3-2.2,8.2-6.1c1-4.5-1.8-7.5-6-9L102.7,225z"/>
<path fill="#1972B0" d="M176.5,288.5c0,0,11.8-61.6,9.4-78.8c-2.2-41.7-29.2-77.6-67.3-92.6c-52-0.8-95.6,39.2-98.1,90.7
	c0,0-10.3,47.5-6.2,70.7c0,0-9.9,14.7-14,17.1c0,0-1.9,7.2,4.4,7.5c6.3,0.3,17.5-1.9,25.9-1.5c8.4,0.4,20.3,4.5,20.3,4.5
	s18-1.2,20.1-1.1c2.1,0.1,28.2,5.6,36.6,6c8.4,0.4,51.2-2,54.9-1.8c2.1,0.1,18.5,2.9,32.5,5.2c-2-2.3-3.7-4.4-4.3-5.9
	C188.6,303,176.5,288.5,176.5,288.5 M134.4,187.4l-15.5-1.4c0.6-4.1-1.2-8.4-5.7-8.8l-3.1,14.3c12.6,5.5,21.7,12.2,18.7,26
	c-3.3,15.1-13.5,20.4-25,20.8c-1.3,0-2.6,0-4,0l-2.2,10l-7.4-0.7l2.2-10c-12.8-1.7-21.7-10.8-18.2-26.8l16.2,1.5
	c-1.2,5.6,0.5,9.8,5,11.4l3.5-16.1c-11.5-5.2-20.5-10.2-17.4-24.5c3.5-15.9,15.4-19.6,27.2-20.5l1.1-5.1l0.3-1.3l7.4,0.7l-1.4,6.4
	C127.8,165.1,137.8,171.6,134.4,187.4"/>
<path fill="#1972B0" d="M215.3,317.6c0,0-0.1,0-0.1,0C215.2,317.6,215.2,317.6,215.3,317.6"/>
<path fill="#1972B0" d="M213.7,317.4C213.6,317.4,213.6,317.4,213.7,317.4C213.6,317.4,213.6,317.4,213.7,317.4"/>
<path fill="#1972B0" d="M215.1,317.6c-0.2,0-0.3,0-0.5-0.1C214.8,317.5,215,317.5,215.1,317.6"/>
<path fill="#1972B0" d="M215.7,317.6c-0.1,0-0.3,0-0.4,0C215.5,317.6,215.6,317.6,215.7,317.6"/>
<path fill="#1972B0" d="M194.9,314.3c7.9,1.3,15.1,2.5,18.7,3C210.1,316.8,202.9,315.7,194.9,314.3z"/>
<path fill="#1972B0" d="M118.6,117.1C118.6,117.1,118.6,117.1,118.6,117.1c1.1,0,2.2,0,3.3,0.1C120.8,117.1,119.7,117.1,118.6,117.1
	"/>
<path fill="#1972B0" d="M214.5,317.5c-0.2,0-0.5-0.1-0.8-0.1C214,317.4,214.2,317.4,214.5,317.5"/>
<path fill="#1972B0" d="M218.3,296.9c-1.9-5-12.8-18-12.8-18s10.6-55.7,8.5-71.2c-2.6-48.4-42-88-92.1-90.4
	c-1.1-0.1-2.2-0.1-3.3-0.1c38.1,15.1,65.1,50.9,67.3,92.6c2.4,17.2-9.4,78.8-9.4,78.8s12.1,14.5,14.2,20c0.6,1.5,2.2,3.6,4.3,5.9
	c7.9,1.3,15.1,2.5,18.7,3c0,0,0,0,0,0c0.3,0,0.6,0.1,0.8,0.1c0,0,0.1,0,0.1,0c0.2,0,0.4,0.1,0.5,0.1c0,0,0.1,0,0.1,0
	c0.2,0,0.3,0,0.4,0c3.7,0.2,18.4,0.2,18.4,0.2l0.2-4.2C234.4,313.7,220.2,301.8,218.3,296.9"/>
<path fill="#1972B0" d="M70.9,304.9c0,0-9.2-11.4-10.2-19.5c0,0-0.6,15.4,3.4,19.8L70.9,304.9z"/>
<path fill="#1972B0" d="M162.4,309.1c0,0,11.6-14.3,12.9-40.9c0,0-6.1,28.5-24.2,41.3L162.4,309.1z"/>
<path fill="#DEDDDC" d="M165.2,66.4h20.3c7.9,0,14.4-6.4,14.4-14.4c0-7.9-6.4-14.4-14.4-14.4h-20.3c-8,0-14.4,6.4-14.4,14.4
	C150.8,60,157.3,66.4,165.2,66.4"/>
<path fill="#DEDDDC" d="M165.2,164.3h13.1c7.9,0,14.4-6.4,14.4-14.4c0-7.9-6.4-14.4-14.4-14.4h-13.1c-8,0-14.4,6.4-14.4,14.4
	C150.8,157.8,157.3,164.3,165.2,164.3"/>
<path fill="#DEDDDC" d="M165.2,99h26.2c7.9,0,14.4-6.4,14.4-14.4c0-7.9-6.4-14.4-14.4-14.4h-26.2c-8,0-14.4,6.4-14.4,14.4
	C150.8,92.6,157.3,99,165.2,99"/>
<path fill="#DEDDDC" d="M165.2,131.7h20.3c7.9,0,14.4-6.4,14.4-14.4c0-7.9-6.4-14.4-14.4-14.4h-20.3c-8,0-14.4,6.4-14.4,14.4
	C150.8,125.2,157.3,131.7,165.2,131.7"/>
</svg>
