<?xml version="1.0" encoding="iso-8859-1"?>
<!-- Generator: Adobe Illustrator 13.0.0, SVG Export Plug-In  -->
<!DOCTYPE svg [
	<!ENTITY ns_flows "http://ns.adobe.com/Flows/1.0/">
]>
<svg version="1.2" baseProfile="tiny"
	 xmlns="http://www.w3.org/2000/svg" xmlns:xlink="http://www.w3.org/1999/xlink" xmlns:a="http://ns.adobe.com/AdobeSVGViewerExtensions/3.0/"
	 x="0px" y="0px" width="117px" height="152px" viewBox="-0.5 -0.8 117 152" xml:space="preserve">
<defs>
</defs>
<path fill="#D6D5D5" d="M116.1,19.2C86.4,19.2,58.5,0,58.5,0C33.6,13.4,0,20.2,0,20.2c2.9,112.3,57.6,130.5,57.6,130.5
	C121.9,118.1,116.1,19.2,116.1,19.2 M57.7,138.2c0,0-47.6-15.1-50.1-108.1c0,0,29.3-5.6,51-16.7c0,0,24.2,15.9,50.1,15.9
	C108.6,29.3,113.6,111.2,57.7,138.2"/>
<path fill="#1972B1" d="M58.5,13.4c-21.7,11.1-51,16.7-51,16.7c2.5,93,50.1,108.1,50.1,108.1c56-27,51-108.9,51-108.9
	C82.7,29.3,58.5,13.4,58.5,13.4 M64.1,105.7H50.4V91.9h13.7V105.7z M80.2,62.5c-1.7,2.7-5.4,6.4-11,11c-2.9,2.4-4.7,4.3-5.4,5.8
	c-0.7,1.5-1,4.1-0.9,7.9H50.4c0-1.8-0.1-2.9-0.1-3.3c0-4,0.7-7.4,2-10c1.3-2.6,4-5.5,8-8.8c4-3.3,6.4-5.4,7.2-6.4
	c1.2-1.6,1.8-3.4,1.8-5.3c0-2.7-1.1-5-3.2-6.9c-2.1-1.9-5-2.9-8.6-2.9c-3.5,0-6.4,1-8.7,3c-2.3,2-4,5-4.8,9.1l-12.6-1.6
	c0.4-5.8,2.8-10.8,7.5-14.9c4.6-4.1,10.7-6.1,18.2-6.1c7.9,0,14.2,2.1,18.8,6.2c4.7,4.1,7,8.9,7,14.4C82.8,56.9,81.9,59.8,80.2,62.5
	"/>
</svg>
