<?xml version="1.0" encoding="iso-8859-1"?>
<!-- Generator: Adobe Illustrator 13.0.0, SVG Export Plug-In  -->
<!DOCTYPE svg PUBLIC "-//W3C//DTD SVG 1.1 Tiny//EN" "http://www.w3.org/Graphics/SVG/1.1/DTD/svg11-tiny.dtd" [
	<!ENTITY ns_flows "http://ns.adobe.com/Flows/1.0/">
]>
<svg version="1.1" baseProfile="tiny"
	 xmlns="http://www.w3.org/2000/svg" xmlns:xlink="http://www.w3.org/1999/xlink" xmlns:a="http://ns.adobe.com/AdobeSVGViewerExtensions/3.0/"
	 x="0px" y="0px" width="139px" height="108px" viewBox="-0.9 -0.7 139 108" xml:space="preserve">
<defs>
</defs>
<path fill="#1972B1" d="M13.6,48.8c3.7-1.3,10.4-2.1,15.5-2.1c5.1,0,11.3,0.7,15.6,2.5c3.9,1.6-1.9,34.4-1.9,34.4H29.1H15.3
	C15.3,83.7,9.6,50.2,13.6,48.8"/>
<polygon fill="#1972B1" points="30.4,49.3 27.8,49.3 28.2,47.5 29.9,47.5 "/>
<path fill="#1972B1" d="M28.3,49.3h1.5c0,0,0.6,3.7,1.8,10.5c-1,1.1-2.6,2.7-2.6,2.7s-2-1.9-2.6-2.7C27.5,54.3,28.3,49.3,28.3,49.3"
	/>
<path fill="#1972B1" d="M46.3,104.6c0.2,0.4,1.3,0.9,1.9,0.6c0.6-0.3,1.3,0.4,0.3,0.9c-1,0.5-2.6,0.1-3-0.4c0,0.2,0,0.4,0,0.4
	l-1.6-0.1l0.3-1.6L46.3,104.6z"/>
<path fill="#1972B1" d="M36.1,80.9c10.8,4,13.8,15.7,10.4,23c-0.4,0-1.7-0.2-2.2-0.2c1.9-8.7-1-15.7-15.8-19.6
	C21.7,82.3,29.5,78.4,36.1,80.9"/>
<path fill="#1972B1" d="M20.8,80.9c-10.9,5.2-11.5,15.7-8,23c0.4,0,1.7-0.2,2.2-0.2c-1.9-8.7,0.7-15,13.5-19.6
	C35,81.7,27.1,77.9,20.8,80.9"/>
<path fill="#1972B1" d="M24.1,47v-9.4c0,0,4.4-4.9,9.6-0.2v9.5L24.1,47z"/>
<path fill="#1972B1" d="M27.2,38.7c0,0.3-0.2,0.5-0.5,0.5c-0.3,0-0.5-0.2-0.5-0.5c0-0.3,0.2-0.5,0.5-0.5
	C27,38.2,27.2,38.5,27.2,38.7"/>
<path fill="#1972B1" d="M23.2,36v11.1l5.9,1.4l5.4-1.4V36C28.4,32.8,23.2,36,23.2,36 M26.5,40.3c-0.8,0-1.5-0.7-1.5-1.5
	c0-0.8,0.7-1.5,1.5-1.5c0.8,0,1.5,0.7,1.5,1.5C27.9,39.6,27.3,40.3,26.5,40.3 M31.1,40.1c-0.8,0-1.5-0.7-1.5-1.5
	c0-0.8,0.7-1.5,1.5-1.5c0.8,0,1.5,0.7,1.5,1.5C32.6,39.4,31.9,40.1,31.1,40.1"/>
<path fill="#1972B1" d="M12.2,52.3c-0.5-4.5,6.1-3.5,5.7,2.1C16.4,72.9,2.6,66,3.2,47.9l1.5,0C5,61.7,13.4,62,12.2,52.3"/>
<path fill="#1972B1" d="M2.4,43c-0.3-0.3-0.3-0.8,0-1c0.3-0.3,0.8-0.3,1,0l1.8,1.9c0.3,0.3,0.3,0.8,0,1c-0.3,0.3-0.8,0.3-1,0L2.4,43
	z"/>
<path fill="#1972B1" d="M2.2,42.5c0-0.4,0.3-0.7,0.7-0.7c0.4,0,0.7,0.3,0.7,0.7l0,2.1c0,0.4-0.3,0.7-0.7,0.7c-0.4,0-0.7-0.3-0.7-0.7
	L2.2,42.5z"/>
<path fill="#1972B1" d="M44,55.8c-4.5-0.1-3-6.3,2.4-5.1c17.8,4.1,1.2,21.6-11.7,14.6l0.9-1.3C47.1,68.2,53.7,56,44,55.8"/>
<rect x="1.5" y="6.5" fill="#1972B1" width="1.4" height="100.1"/>
<polygon fill="#1972B1" points="2.2,0 0,4.3 2.2,8.5 4.3,4.3 "/>
<path fill="#1972B1" d="M53.7,48.8c3.7-1.3,10.4-2.1,15.5-2.1c5.1,0,11.3,0.7,15.6,2.5c3.9,1.6-1.9,34.4-1.9,34.4H69.2H55.4
	C55.4,83.7,49.7,50.2,53.7,48.8"/>
<polygon fill="#1972B1" points="70.5,49.3 67.9,49.3 68.3,47.5 70,47.5 "/>
<path fill="#1972B1" d="M68.4,49.3H70c0,0,0.6,3.7,1.8,10.5c-1,1.1-2.6,2.7-2.6,2.7s-2-1.9-2.6-2.7C67.6,54.3,68.4,49.3,68.4,49.3"
	/>
<path fill="#1972B1" d="M86.5,104.6c0.2,0.4,1.3,0.9,1.9,0.6c0.5-0.3,1.3,0.4,0.3,0.9c-1,0.5-2.6,0.1-3-0.4c0,0.2,0,0.4,0,0.4
	l-1.6-0.1l0.3-1.6L86.5,104.6z"/>
<path fill="#1972B1" d="M76.2,80.9c10.8,4,13.8,15.7,10.4,23c-0.4,0-1.7-0.2-2.2-0.2c1.9-8.7-1-15.7-15.8-19.6
	C61.8,82.3,69.7,78.4,76.2,80.9"/>
<path fill="#1972B1" d="M60.9,80.9c-10.9,5.2-11.5,15.7-8,23c0.4,0,1.7-0.2,2.2-0.2c-1.9-8.7,0.7-15,13.5-19.6
	C75.1,81.7,67.2,77.9,60.9,80.9"/>
<path fill="#1972B1" d="M64.2,47v-9.4c0,0,4.5-4.9,9.6-0.2v9.5L64.2,47z"/>
<path fill="#1972B1" d="M67.4,38.7c0,0.3-0.2,0.5-0.5,0.5c-0.3,0-0.5-0.2-0.5-0.5c0-0.3,0.2-0.5,0.5-0.5
	C67.1,38.2,67.4,38.5,67.4,38.7"/>
<path fill="#1972B1" d="M63.4,36v11.1l5.9,1.4l5.4-1.4V36C68.5,32.8,63.4,36,63.4,36 M66.6,40.3c-0.8,0-1.5-0.7-1.5-1.5
	c0-0.8,0.7-1.5,1.5-1.5c0.8,0,1.5,0.7,1.5,1.5C68.1,39.6,67.4,40.3,66.6,40.3 M71.2,40.1c-0.8,0-1.5-0.7-1.5-1.5
	c0-0.8,0.7-1.5,1.5-1.5c0.8,0,1.5,0.7,1.5,1.5C72.7,39.4,72,40.1,71.2,40.1"/>
<path fill="#1972B1" d="M52.3,52.3c-0.5-4.5,6.1-3.5,5.7,2.1C56.6,72.9,42.7,66,43.3,47.9l1.5,0C45.1,61.7,53.5,62,52.3,52.3"/>
<path fill="#1972B1" d="M44.7,50.4c0.5,0,0.9-0.4,0.9-0.9l0.1-5.1c0-0.5-0.4-0.9-0.9-0.9l-3.3,0c-0.5,0-0.9,0.4-0.9,0.9l-0.1,5.1
	c0,0.5,0.4,0.9,0.9,0.9L44.7,50.4z"/>
<path fill="#1972B1" d="M42.5,43c-0.3-0.3-0.3-0.8,0-1c0.3-0.3,0.8-0.3,1,0l1.8,1.9c0.3,0.3,0.3,0.8,0,1c-0.3,0.3-0.8,0.3-1,0
	L42.5,43z"/>
<path fill="#1972B1" d="M42.3,42.5c0-0.4,0.3-0.7,0.7-0.7c0.4,0,0.7,0.3,0.7,0.7l0,2.1c0,0.4-0.3,0.7-0.7,0.7
	c-0.4,0-0.7-0.3-0.7-0.7L42.3,42.5z"/>
<path fill="#1972B1" d="M40,50.4c-0.4,0-0.7-0.3-0.7-0.7c0-0.4,0.3-0.7,0.7-0.7l1.3,0c0.4,0,0.7,0.3,0.7,0.7c0,0.4-0.3,0.7-0.7,0.7
	L40,50.4z"/>
<path fill="#1972B1" d="M40.1,45c-0.4,0-0.7-0.3-0.7-0.7c0-0.4,0.3-0.7,0.7-0.7l1.3,0c0.4,0,0.7,0.3,0.7,0.7c0,0.4-0.3,0.7-0.7,0.7
	L40.1,45z"/>
<path fill="#1972B1" d="M40.1,46.8c-0.4,0-0.7-0.3-0.7-0.7c0-0.4,0.3-0.7,0.7-0.7l1.3,0c0.4,0,0.7,0.3,0.7,0.7
	c0,0.4-0.3,0.7-0.7,0.7L40.1,46.8z"/>
<path fill="#1972B1" d="M40.1,48.6c-0.4,0-0.7-0.3-0.7-0.7c0-0.4,0.3-0.7,0.7-0.7l1.3,0c0.4,0,0.7,0.3,0.7,0.7
	c0,0.4-0.3,0.7-0.7,0.7L40.1,48.6z"/>
<path fill="#1972B1" d="M84.2,55.8c-4.5-0.1-3-6.3,2.4-5.1c17.8,4.1,1.2,21.6-11.7,14.6l0.9-1.3C87.2,68.2,93.8,56,84.2,55.8"/>
<rect x="41.6" y="6.5" fill="#1972B1" width="1.4" height="100.1"/>
<polygon fill="#1972B1" points="42.4,0 40.1,4.3 42.3,8.5 44.4,4.3 "/>
<path fill="#1972B1" d="M97,48.8c3.7-1.3,10.4-2.1,15.5-2.1c5.1,0,11.3,0.7,15.6,2.5c3.9,1.6-1.9,34.4-1.9,34.4h-13.8H98.7
	C98.7,83.7,93,50.2,97,48.8"/>
<polygon fill="#1972B1" points="113.8,49.3 111.2,49.3 111.6,47.5 113.3,47.5 "/>
<path fill="#1972B1" d="M111.7,49.3h1.5c0,0,0.6,3.7,1.8,10.5c-1,1.1-2.6,2.7-2.6,2.7s-2-1.9-2.6-2.7
	C110.9,54.3,111.7,49.3,111.7,49.3"/>
<path fill="#1972B1" d="M129.7,104.6c0.2,0.4,1.3,0.9,1.9,0.6c0.5-0.3,1.3,0.4,0.3,0.9c-1,0.5-2.6,0.1-3-0.4c0,0.2,0,0.4,0,0.4
	l-1.6-0.1l0.3-1.6L129.7,104.6z"/>
<path fill="#1972B1" d="M119.5,80.9c10.8,4,13.8,15.7,10.4,23c-0.4,0-1.7-0.2-2.2-0.2c1.9-8.7-1-15.7-15.8-19.6
	C105.1,82.3,113,78.4,119.5,80.9"/>
<path fill="#1972B1" d="M104.2,80.9c-10.9,5.2-11.5,15.7-8,23c0.4,0,1.7-0.2,2.2-0.2c-1.9-8.7,0.7-15,13.5-19.6
	C118.4,81.7,110.5,77.9,104.2,80.9"/>
<path fill="#1972B1" d="M107.5,47v-9.4c0,0,4.5-4.9,9.6-0.2v9.5L107.5,47z"/>
<path fill="#1972B1" d="M110.6,38.7c0,0.3-0.2,0.5-0.5,0.5s-0.5-0.2-0.5-0.5c0-0.3,0.2-0.5,0.5-0.5S110.6,38.5,110.6,38.7"/>
<path fill="#1972B1" d="M106.6,36v11.1l5.9,1.4l5.4-1.4V36C111.8,32.8,106.6,36,106.6,36 M109.9,40.3c-0.8,0-1.5-0.7-1.5-1.5
	c0-0.8,0.7-1.5,1.5-1.5c0.8,0,1.5,0.7,1.5,1.5C111.4,39.6,110.7,40.3,109.9,40.3 M114.5,40.1c-0.8,0-1.5-0.7-1.5-1.5
	c0-0.8,0.6-1.5,1.5-1.5c0.8,0,1.5,0.7,1.5,1.5C116,39.4,115.3,40.1,114.5,40.1"/>
<path fill="#1972B1" d="M95.6,52.3c-0.5-4.5,6.1-3.5,5.7,2.1C99.9,72.9,86,66,86.6,47.9l1.6,0C88.4,61.7,96.8,62,95.6,52.3"/>
<path fill="#1972B1" d="M87.9,50.4c0.5,0,0.9-0.4,0.9-0.9l0.1-5.1c0-0.5-0.4-0.9-0.9-0.9l-3.2,0c-0.5,0-0.9,0.4-0.9,0.9l-0.1,5.1
	c0,0.5,0.4,0.9,0.9,0.9L87.9,50.4z"/>
<path fill="#1972B1" d="M85.8,43c-0.3-0.3-0.3-0.8,0-1c0.3-0.3,0.8-0.3,1,0l1.8,1.9c0.3,0.3,0.3,0.8,0,1c-0.3,0.3-0.8,0.3-1,0
	L85.8,43z"/>
<path fill="#1972B1" d="M85.6,42.5c0-0.4,0.3-0.7,0.7-0.7c0.4,0,0.7,0.3,0.7,0.7l0,2.1c0,0.4-0.3,0.7-0.7,0.7
	c-0.4,0-0.7-0.3-0.7-0.7L85.6,42.5z"/>
<path fill="#1972B1" d="M83.3,50.4c-0.4,0-0.7-0.3-0.7-0.7c0-0.4,0.3-0.7,0.7-0.7l1.3,0c0.4,0,0.7,0.3,0.7,0.7
	c0,0.4-0.3,0.7-0.7,0.7L83.3,50.4z"/>
<path fill="#1972B1" d="M83.4,45c-0.4,0-0.7-0.3-0.7-0.7c0-0.4,0.3-0.7,0.7-0.7l1.3,0c0.4,0,0.7,0.3,0.7,0.7c0,0.4-0.3,0.7-0.7,0.7
	L83.4,45z"/>
<path fill="#1972B1" d="M83.4,46.8c-0.4,0-0.7-0.3-0.7-0.7c0-0.4,0.3-0.7,0.7-0.7l1.3,0c0.4,0,0.7,0.3,0.7,0.7
	c0,0.4-0.3,0.7-0.7,0.7L83.4,46.8z"/>
<path fill="#1972B1" d="M83.3,48.6c-0.4,0-0.7-0.3-0.7-0.7c0-0.4,0.3-0.7,0.7-0.7l1.3,0c0.4,0,0.7,0.3,0.7,0.7
	c0,0.4-0.3,0.7-0.7,0.7L83.3,48.6z"/>
<path fill="#1972B1" d="M127.5,55.8c-4.5-0.1-3-6.3,2.4-5.1c17.8,4.1,1.2,21.6-11.7,14.6l0.9-1.3C130.5,68.2,137.1,56,127.5,55.8"/>
<rect x="84.9" y="6.5" fill="#1972B1" width="1.4" height="100.1"/>
<polygon fill="#1972B1" points="85.6,0 83.4,4.3 85.6,8.5 87.7,4.3 "/>
</svg>
