<?xml version="1.0" encoding="iso-8859-1"?>
<!-- Generator: Adobe Illustrator 13.0.0, SVG Export Plug-In  -->
<!DOCTYPE svg PUBLIC "-//W3C//DTD SVG 1.1 Tiny//EN" "http://www.w3.org/Graphics/SVG/1.1/DTD/svg11-tiny.dtd" [
	<!ENTITY ns_flows "http://ns.adobe.com/Flows/1.0/">
]>
<svg version="1.1" baseProfile="tiny"
	 xmlns="http://www.w3.org/2000/svg" xmlns:xlink="http://www.w3.org/1999/xlink" xmlns:a="http://ns.adobe.com/AdobeSVGViewerExtensions/3.0/"
	 x="0px" y="0px" width="50px" height="118px" viewBox="-0.4 -0.8 50 118" xml:space="preserve">
<defs>
</defs>
<path fill="#1972B1" d="M39.3,73.1h2.4c4.2,0,7.6-3.4,7.6-7.6v-28c0-4.2-3.4-7.6-7.6-7.6h-9.5l-7.6,20.9L17.1,30H7.6
	C3.4,30,0,33.4,0,37.5v28c0,4.2,3.4,7.6,7.6,7.6H10v4.6v31.6c0,4.2,3.4,7.6,7.6,7.6c3.2,0,6-2,7.1-4.9c1.1,2.8,3.8,4.9,7.1,4.9
	c4.2,0,7.6-3.4,7.6-7.6V77.7V73.1z"/>
<path fill="#1972B1" d="M28.4,24.2c5-1.6,8.7-6.2,8.7-11.8C37.1,5.6,31.5,0,24.7,0c-6.8,0-12.4,5.6-12.4,12.4
	c0,5.5,3.6,10.2,8.7,11.8c1.2,0.4,2.4,0.6,3.7,0.6C26,24.8,27.2,24.5,28.4,24.2"/>
</svg>
