<?xml version="1.0" encoding="utf-8"?>
<!-- Generator: Adobe Illustrator 13.0.0, SVG Export Plug-In  -->
<!DOCTYPE svg PUBLIC "-//W3C//DTD SVG 1.1//EN" "http://www.w3.org/Graphics/SVG/1.1/DTD/svg11.dtd" [
	<!ENTITY ns_flows "http://ns.adobe.com/Flows/1.0/">
]>
<svg version="1.1"
	 xmlns="http://www.w3.org/2000/svg" xmlns:xlink="http://www.w3.org/1999/xlink" xmlns:a="http://ns.adobe.com/AdobeSVGViewerExtensions/3.0/"
	 x="0px" y="0px" width="23px" height="18px" viewBox="-0.805 -0.93 23 18" enable-background="new -0.805 -0.93 23 18"
	 xml:space="preserve">
<defs>
</defs>
<path fill="#1972B0" d="M6.363,7.461C6.175,7.477,5.98,7.585,5.942,7.81C5.886,8.131,6.101,8.195,6.271,8.292H6.3L6.439,7.46
	C6.414,7.458,6.388,7.459,6.363,7.461"/>
<path fill="#1972B0" d="M6.397,10.599c0.024,0,0.022,0.002,0.048,0l0.024-0.001c0.223-0.02,0.467-0.167,0.508-0.42
	c0.05-0.294-0.142-0.479-0.415-0.559L6.397,10.599z"/>
<path fill="#1972B0" d="M16.515,10.984c-0.109,0.008-0.222,0.07-0.243,0.201c-0.032,0.187,0.092,0.223,0.19,0.279h0.017l0.08-0.48
	C16.544,10.982,16.53,10.982,16.515,10.984"/>
<path fill="#1972B0" d="M16.535,12.8c0.015,0,0.014,0.001,0.028,0h0.014c0.129-0.013,0.271-0.097,0.294-0.244
	c0.029-0.17-0.081-0.276-0.24-0.323L16.535,12.8z"/>
<path fill="#1972B0" d="M20.987,15.272c-0.079-0.181-0.513-0.649-0.513-0.649s0.296-2.101,0.188-2.676
	c-0.132-1.285-0.955-2.365-2.095-2.882c-0.018-0.091-0.055-0.178-0.115-0.257c0.001-0.015,0.007-0.029,0.007-0.044
	c0-0.012-0.004-0.022-0.006-0.034c0.432,0.131,0.996,0.305,1.032,0.342c0.06,0.061,0.35-0.349,0.35-0.349l-0.578-0.777
	c0,0-0.379-0.677-0.379-0.758c0-0.079-0.519,0-0.678,0c-0.16,0-0.2-0.199-0.2-0.398c0-0.199-0.418-0.1-0.418-0.1
	c-1.338,0.156-1.082,1.187-0.993,1.447c-0.261,0.092-0.452,0.239-0.54,0.416c-0.209,0.124-0.351,0.287-0.402,0.469
	c-1.299,0.543-2.213,1.81-2.213,3.288c0,0-0.125,0.752-0.158,1.516c-0.041-0.043-0.07-0.076-0.07-0.076s0.511-3.629,0.323-4.627
	C13.3,6.906,11.878,5.04,9.909,4.146C9.877,3.99,9.813,3.84,9.708,3.702C9.71,3.677,9.721,3.653,9.721,3.627
	c0-0.021-0.008-0.039-0.011-0.059c0.746,0.225,1.721,0.527,1.784,0.591c0.103,0.104,0.604-0.603,0.604-0.603l-1-1.343
	c0,0-0.654-1.171-0.654-1.309c0-0.138-0.896,0-1.171,0c-0.276,0-0.346-0.345-0.346-0.689c0-0.344-0.723-0.172-0.723-0.172
	c-2.312,0.269-1.869,2.049-1.716,2.5C6.04,2.702,5.708,2.956,5.555,3.262C5.195,3.476,4.95,3.757,4.861,4.073
	C2.616,5.01,1.038,7.198,1.038,9.754c0,0-0.517,3.098-0.176,4.578c0,0-0.595,0.979-0.851,1.146c0,0-0.101,0.471,0.307,0.471
	c0.406,0,1.122-0.18,1.666-0.18s1.326,0.227,1.326,0.227s0.481-0.057,0.859-0.098l0.433-0.039c0.137,0,1.837,0.271,2.381,0.271
	c0.387,0,1.891-0.148,2.813-0.234l0.721-0.059c0.139,0,1.201,0.128,2.117,0.236c0.516,0.061,0.986,0.114,1.218,0.136h0.001
	c0.02,0.002,0.036,0.004,0.053,0.005c0.003,0,0.006,0.001,0.009,0.001c0.014,0.001,0.024,0.001,0.035,0.002
	c0.003,0,0.007,0,0.009,0.001c0.012,0,0.021,0.001,0.028,0.001c0.237,0,1.191-0.045,1.191-0.045v-0.269c0,0-0.016-0.013-0.036-0.028
	c0.035-0.005,0.07-0.009,0.104-0.011l0.251-0.022c0.079,0,1.062,0.156,1.378,0.156c0.225,0,1.094-0.085,1.628-0.136l0.417-0.033
	c0.08,0,0.695,0.074,1.225,0.137c0.299,0.034,0.571,0.066,0.705,0.078c0.012,0.001,0.021,0.002,0.031,0.003
	c0.002,0,0.003,0.001,0.005,0.001c0.007,0,0.015,0,0.021,0.001c0.002,0,0.004,0,0.005,0c0.007,0,0.013,0.001,0.017,0.001
	c0.138,0,0.689-0.025,0.689-0.025v-0.156C21.617,15.871,21.065,15.455,20.987,15.272 M8.325,8.076L7.32,8.034
	c0.029-0.27-0.103-0.54-0.398-0.553L6.764,8.414c0.832,0.313,1.442,0.719,1.292,1.615c-0.166,0.988-0.805,1.36-1.547,1.424
	c-0.084,0.007-0.169,0.011-0.256,0.01l-0.109,0.65l-0.481-0.022l0.108-0.649c-0.83-0.072-1.434-0.626-1.258-1.672l1.052,0.049
	c-0.063,0.367,0.063,0.631,0.358,0.719l0.176-1.053C5.342,9.186,4.742,8.89,4.9,7.958c0.174-1.038,0.929-1.315,1.692-1.41
	l0.056-0.33l0.014-0.084l0.482,0.022L7.075,6.572C7.828,6.653,8.497,7.045,8.325,8.076 M17.496,12.471
	c-0.097,0.57-0.466,0.787-0.896,0.823c-0.048,0.004-0.097,0.007-0.147,0.006l-0.063,0.376l-0.278-0.014l0.063-0.375
	c-0.479-0.041-0.829-0.361-0.728-0.967l0.608,0.027c-0.036,0.213,0.036,0.365,0.208,0.416l0.102-0.609
	c-0.438-0.172-0.785-0.344-0.694-0.883c0.101-0.601,0.538-0.761,0.979-0.816l0.032-0.191l0.008-0.048l0.279,0.013l-0.04,0.241
	c0.436,0.046,0.822,0.272,0.724,0.871l-0.582-0.025c0.018-0.157-0.06-0.313-0.23-0.319l-0.091,0.539
	C17.229,11.717,17.583,11.951,17.496,12.471"/>
</svg>
