<?xml version="1.0" encoding="utf-8"?>
<!-- Generator: Adobe Illustrator 13.0.0, SVG Export Plug-In  -->
<!DOCTYPE svg [
	<!ENTITY ns_flows "http://ns.adobe.com/Flows/1.0/">
]>
<svg version="1.2" baseProfile="tiny"
	 xmlns="http://www.w3.org/2000/svg" xmlns:xlink="http://www.w3.org/1999/xlink" xmlns:a="http://ns.adobe.com/AdobeSVGViewerExtensions/3.0/"
	 x="0px" y="0px" width="29px" height="20px" viewBox="-0.684 -0.59 29 20" xml:space="preserve">
<defs>
</defs>
<path fill="#1972B0" d="M16.422,10.904c0.25-1.106,0.232-2.229-0.021-3.287c0.716-0.358,1.446-0.73,2.2-1.125l-0.725-1.727
	c0,0-0.852,0.209-2.377,0.696c-0.58-0.936-1.374-1.745-2.349-2.349c0.255-0.76,0.509-1.545,0.763-2.357L12.066,0
	c0,0-0.441,0.747-1.163,2.193C9.795,1.944,8.672,1.961,7.614,2.215c-0.36-0.717-0.731-1.448-1.126-2.202L4.76,0.739
	c0,0,0.209,0.851,0.697,2.375C4.514,3.7,3.699,4.502,3.094,5.489C2.334,5.235,1.553,4.981,0.74,4.728L0.032,6.462
	c0,0,0.74,0.452,2.172,1.19C1.942,8.77,1.951,9.904,2.205,10.977C1.486,11.333,0.754,11.704,0,12.1l0.772,1.84
	c0,0,0.849-0.222,2.372-0.728c0.582,0.921,1.374,1.715,2.343,2.31c-0.254,0.758-0.508,1.541-0.762,2.353l1.734,0.709
	c0,0,0.452-0.739,1.191-2.173c1.117,0.261,2.25,0.253,3.32,0c0.358,0.719,0.73,1.451,1.126,2.207l1.841-0.773
	c0,0-0.223-0.851-0.731-2.371c0.915-0.578,1.703-1.363,2.298-2.32c0.76,0.256,1.543,0.512,2.357,0.766l0.755-1.85
	C18.616,12.068,17.867,11.628,16.422,10.904 M13.803,11.146c-1.015,2.483-3.852,3.674-6.334,2.66
	C4.985,12.791,3.795,9.955,4.81,7.471c1.014-2.483,3.849-3.674,6.334-2.658C13.627,5.827,14.818,8.663,13.803,11.146"/>
<path fill="#1972B0" d="M26.762,12.796c0.381-0.147,0.77-0.302,1.172-0.466l-0.284-0.913c0,0-0.445,0.065-1.242,0.239
	c-0.251-0.502-0.614-0.951-1.081-1.306c0.165-0.374,0.332-0.76,0.501-1.159l-0.903-0.474c0,0-0.26,0.358-0.695,1.06
	c-0.551-0.182-1.122-0.226-1.672-0.147c-0.149-0.381-0.303-0.77-0.469-1.172l-0.91,0.285c0,0,0.064,0.445,0.24,1.242
	c-0.509,0.252-0.961,0.621-1.314,1.092c-0.374-0.164-0.76-0.33-1.159-0.498L18.5,11.425c0,0,0.355,0.267,1.047,0.708
	c-0.187,0.557-0.235,1.133-0.158,1.689c-0.383,0.147-0.772,0.301-1.174,0.466l0.304,0.972c0,0,0.442-0.072,1.239-0.256
	c0.252,0.495,0.617,0.938,1.08,1.285c-0.164,0.374-0.332,0.759-0.5,1.158l0.849,0.443c0,0,0.264-0.354,0.708-1.047
	c0.555,0.186,1.132,0.237,1.687,0.159c0.148,0.382,0.302,0.772,0.468,1.175l0.972-0.304c0,0-0.073-0.443-0.257-1.241
	c0.492-0.25,0.931-0.609,1.277-1.068c0.373,0.168,0.76,0.334,1.16,0.502l0.473-0.903c0,0-0.358-0.259-1.059-0.696
	C26.795,13.917,26.84,13.346,26.762,12.796 M25.674,14.674c-0.75,1.436-2.521,1.99-3.957,1.239c-1.435-0.75-1.987-2.521-1.237-3.955
	c0.75-1.435,2.521-1.99,3.954-1.24C25.868,11.469,26.424,13.238,25.674,14.674"/>
</svg>
