<?xml version="1.0" encoding="utf-8"?>
<!-- Generator: Adobe Illustrator 13.0.0, SVG Export Plug-In  -->
<!DOCTYPE svg [
	<!ENTITY ns_flows "http://ns.adobe.com/Flows/1.0/">
]>
<svg version="1.2" baseProfile="tiny"
	 xmlns="http://www.w3.org/2000/svg" xmlns:xlink="http://www.w3.org/1999/xlink" xmlns:a="http://ns.adobe.com/AdobeSVGViewerExtensions/3.0/"
	 x="0px" y="0px" width="154px" height="153px" viewBox="-1 -0.061 154 153" xml:space="preserve">
<defs>
</defs>
<path fill="#1971B0" d="M76.47,0C34.237,0,0,34.235,0,76.471c0,42.231,34.237,76.468,76.47,76.468
	c42.233,0,76.468-34.236,76.468-76.468C152.938,34.235,118.704,0,76.47,0 M119.597,109.644c-2.604,4.383-6.001,7.907-10.193,10.575
	c-4.19,2.666-8.986,4.542-14.384,5.62c-5.4,1.077-10.892,1.619-16.479,1.619c-5.716,0-11.306-0.572-16.766-1.716
	c-5.462-1.142-10.321-3.048-14.574-5.715c-4.257-2.667-7.749-6.192-10.479-10.574c-2.733-4.382-4.224-9.874-4.477-16.479h25.72
	c0,2.923,0.601,5.428,1.81,7.525c1.205,2.096,2.762,3.81,4.668,5.144c1.905,1.333,4.096,2.319,6.572,2.953
	c2.477,0.636,5.049,0.952,7.716,0.952c1.906,0,3.906-0.221,6.002-0.666c2.096-0.444,4.001-1.144,5.716-2.097
	c1.715-0.952,3.144-2.221,4.286-3.81c1.144-1.587,1.715-3.587,1.715-6.002c0-4.063-2.699-7.112-8.097-9.144
	c-5.4-2.031-12.926-4.064-22.577-6.098c-3.938-0.888-7.781-1.936-11.526-3.145c-3.748-1.205-7.082-2.792-10.003-4.762
	c-2.922-1.968-5.271-4.444-7.048-7.43c-1.781-2.983-2.668-6.635-2.668-10.955c0-6.349,1.239-11.556,3.715-15.623
	c2.477-4.063,5.746-7.27,9.812-9.621c4.063-2.348,8.636-4,13.717-4.953c5.079-0.954,10.288-1.429,15.623-1.429
	c5.334,0,10.508,0.509,15.527,1.524c5.016,1.018,9.493,2.732,13.432,5.144c3.936,2.414,7.207,5.621,9.812,9.621
	c2.602,4.001,4.159,9.05,4.668,15.146H95.115c-0.381-5.206-2.351-8.731-5.905-10.574c-3.558-1.839-7.749-2.762-12.574-2.762
	c-1.524,0-3.176,0.096-4.954,0.286c-1.779,0.191-3.399,0.604-4.858,1.238c-1.461,0.637-2.7,1.557-3.715,2.763
	c-1.018,1.209-1.524,2.828-1.524,4.858c0,2.414,0.887,4.382,2.667,5.906c1.777,1.524,4.096,2.762,6.954,3.716
	c2.858,0.952,6.126,1.809,9.812,2.572c3.683,0.761,7.43,1.589,11.24,2.476c3.936,0.891,7.778,1.971,11.527,3.239
	c3.744,1.271,7.078,2.953,10.002,5.048c2.92,2.097,5.269,4.701,7.049,7.812c1.777,3.113,2.667,6.954,2.667,11.526
	C123.502,99.833,122.199,105.262,119.597,109.644"/>
</svg>
