<?xml version="1.0" encoding="utf-8"?>
<!-- Generator: Adobe Illustrator 13.0.0, SVG Export Plug-In  -->
<!DOCTYPE svg PUBLIC "-//W3C//DTD SVG 1.1//EN" "http://www.w3.org/Graphics/SVG/1.1/DTD/svg11.dtd" [
	<!ENTITY ns_flows "http://ns.adobe.com/Flows/1.0/">
]>
<svg version="1.1"
	 xmlns="http://www.w3.org/2000/svg" xmlns:xlink="http://www.w3.org/1999/xlink" xmlns:a="http://ns.adobe.com/AdobeSVGViewerExtensions/3.0/"
	 x="0px" y="0px" width="20px" height="20px" viewBox="-0.826 -0.455 20 20" enable-background="new -0.826 -0.455 20 20"
	 xml:space="preserve">
<defs>
</defs>
<path fill="#1972B0" d="M5.245,8.55l1.648-1.651L9.585,9.59c0.126,0.127,0.292,0.189,0.457,0.189c0.167,0,0.331-0.063,0.459-0.189
	l4.188-4.188c0.253-0.253,0.253-0.663,0-0.916s-0.662-0.253-0.916,0l-3.73,3.73l-2.69-2.691c-0.122-0.121-0.286-0.19-0.459-0.19
	c-0.171,0-0.336,0.069-0.457,0.19L4.328,7.634c-0.252,0.252-0.252,0.663,0,0.916C4.581,8.802,4.992,8.803,5.245,8.55"/>
<path fill="#1972B0" d="M13.493,17.226l-3.429-1.979v-1.469H8.952v1.469l-3.428,1.979c-0.267,0.151-0.358,0.493-0.205,0.759
	c0.099,0.17,0.284,0.276,0.483,0.276c0.098,0,0.193-0.024,0.277-0.074l2.872-1.659v1.99c0,0.268,0.25,0.482,0.557,0.482
	c0.306,0,0.556-0.215,0.556-0.482v-1.99l2.873,1.659c0.084,0.05,0.18,0.074,0.276,0.074c0.2,0,0.386-0.106,0.483-0.276
	C13.85,17.719,13.76,17.377,13.493,17.226"/>
<path fill="#1972B0" d="M18.009,0H1.008C0.451,0,0,0.452,0,1.008v0.524C0,2.088,0.451,2.54,1.008,2.54h0.436v9.356
	c0,0.557,0.451,1.008,1.009,1.008h14.113c0.558,0,1.009-0.451,1.009-1.008V2.54h0.435c0.557,0,1.009-0.452,1.009-1.008V1.008
	C19.018,0.452,18.565,0,18.009,0 M16.266,11.596H2.752V2.479h13.514V11.596z"/>
</svg>
