<?xml version="1.0" encoding="iso-8859-1"?>
<!-- Generator: Adobe Illustrator 13.0.0, SVG Export Plug-In  -->
<!DOCTYPE svg [
	<!ENTITY ns_flows "http://ns.adobe.com/Flows/1.0/">
]>
<svg version="1.2" baseProfile="tiny"
	 xmlns="http://www.w3.org/2000/svg" xmlns:xlink="http://www.w3.org/1999/xlink" xmlns:a="http://ns.adobe.com/AdobeSVGViewerExtensions/3.0/"
	 x="0px" y="0px" width="399px" height="314px" viewBox="-0.8 -0.6 399 314" xml:space="preserve">
<defs>
</defs>
<path fill="#1972B0" d="M170.4,304.5c-0.3,0.4-1.7,0.7-2.3,0.3c-0.6-0.4-1.5,0.2-0.6,1.1c1,0.8,3,0.7,3.5,0.2c0,0.2-0.1,0.5-0.1,0.5
	l1.8,0.2l0-2L170.4,304.5z"/>
<path fill="#1972B0" d="M185.7,278.7c-11.2,1.1-18,15.2-15.3,24.8c0.5,0,2,0.1,2.6,0.1c-0.7-11.1,7-18.3,19.7-17.8
	C200.8,286.1,193.8,277.9,185.7,278.7"/>
<path fill="#1972B0" d="M192.3,310.3c-0.4,0.3-1.8,0.2-2.3-0.4c-0.4-0.6-1.5-0.2-0.8,0.9c0.7,1.1,2.7,1.5,3.3,1.2
	c-0.1,0.2-0.2,0.5-0.2,0.5l1.7,0.8l0.5-1.9L192.3,310.3z"/>
<path fill="#1972B0" d="M193.5,284.7c-6.7,9.2-3.8,17.1-0.9,24.7c0.5,0.2,1.8,0.7,2.4,0.9c-1-7.5-2.2-14.2,7.3-21.3
	C209,284,198.5,277.9,193.5,284.7"/>
<path fill="#1972B0" d="M176.3,235.5c-1.9-0.3-3.4,0.1-4.3,1.5c-0.9,1.4-1.5,2.6-1.5,2.6l1.1,0.2c0,0-0.2,0.6-0.2,0.8
	c-0.1,0.3,0.1,0.4,0.3,0.5c-0.2,0-0.4,0.1-0.5,0.4c-0.1,0.3,0,0.6,0.1,0.7c0.6,2,2.6,5.4,2.6,5.4l7.6-2.9c0,0-2.4-3.1-2.2-4.5
	C179.6,237.2,178.5,235.9,176.3,235.5"/>
<path fill="#1972B0" d="M172.6,237.8c-0.1,0.2,0,0.5,0.2,0.6c0.2,0.1,0.5,0,0.6-0.2c0.1-0.2,0-0.5-0.2-0.6
	C173,237.5,172.7,237.5,172.6,237.8"/>
<path fill="#1972B0" d="M173.6,238c-0.1,0.2,0,0.5,0.2,0.6c0.2,0.1,0.5,0,0.6-0.2c0.1-0.2,0-0.5-0.2-0.6
	C173.9,237.6,173.7,237.7,173.6,238"/>
<path fill="#1972B0" d="M179.2,236.3c0.2-1-0.7-2.1-1.7-2.1c-1,0-1.8-0.5-1.6-0.9c-1,0.5-1.3,2-0.6,2.7c0.7,0.7,2.2,1.2,3.3,1.4
	c-0.3,0.5,0,2.8,0.5,2.9C180.3,239.5,180.7,236.7,179.2,236.3"/>
<path fill="#1972B0" d="M192.6,239.5c-4.2,0.4-11.1,2.7-16.1,5c-5,2.4-10.8,6-14.2,9.8c-3.1,3.5,15.3,17.4,14,25.6
	c3.4,1,26.2,8.5,30.3,9.6C214.7,266,197.1,239.1,192.6,239.5"/>
<polygon fill="#1972B0" points="176.1,247.1 178.6,245.9 177.4,244.1 175.7,244.9 "/>
<path fill="#1972B0" d="M178.1,246.1l-1.5,0.7c0,0,1,4.2,2.8,11.7c1.5,0.6,3.7,1.6,3.7,1.6s1.1-2.9,1.4-4
	C181.1,250.8,178.1,246.1,178.1,246.1"/>
<path fill="#1972B0" d="M180.5,228c0.2-0.1,0.4,0,0.5,0.2l1.1,2.1c0.1,0.2,0,0.5-0.1,0.6l-1.4,0.8c-0.2,0.1-0.4,0-0.5-0.2l-1.1-2.1
	c-0.1-0.2,0-0.5,0.1-0.6L180.5,228z"/>
<path fill="#1972B0" d="M179.5,230.4c-0.2,0.1-0.2,0.3-0.1,0.5l0,0c0.1,0.2,0.3,0.3,0.5,0.1l1.3-0.8c0.2-0.1,0.2-0.3,0.1-0.5l0,0
	c-0.1-0.2-0.3-0.2-0.5-0.1L179.5,230.4z"/>
<path fill="#1972B0" d="M179.9,231.1c-0.2,0.1-0.2,0.3-0.1,0.5l0,0c0.1,0.2,0.3,0.3,0.5,0.1l1.3-0.8c0.2-0.1,0.2-0.3,0.1-0.5l0-0.1
	c-0.1-0.2-0.3-0.2-0.5-0.1L179.9,231.1z"/>
<path fill="#1972B0" d="M179.2,229.7c-0.2,0.1-0.2,0.3-0.1,0.5l0,0c0.1,0.2,0.3,0.3,0.5,0.1l1.3-0.8c0.2-0.1,0.2-0.3,0.1-0.5l0,0
	c-0.1-0.2-0.3-0.2-0.5-0.1L179.2,229.7z"/>
<path fill="#1972B0" d="M178.8,229c-0.2,0.1-0.2,0.3-0.1,0.5l0,0c0.1,0.2,0.3,0.3,0.5,0.1l1.3-0.8c0.2-0.1,0.2-0.3,0.1-0.5l0,0
	c-0.1-0.2-0.3-0.2-0.5-0.1L178.8,229z"/>
<path fill="#1972B0" d="M192.6,239.5c-5.9,0.8-1.8,10.4,5.1,7.8c22.9-8.7,3.9-31.6-16.6-19.2l1.1,2.1
	C198.3,221.8,205.4,237.9,192.6,239.5"/>
<path fill="#1972B0" d="M160.6,235.4c-0.2,0.1-0.3,0.3-0.2,0.5l0.8,2.3c0.1,0.2,0.3,0.3,0.5,0.3l1.5-0.6c0.2-0.1,0.3-0.3,0.2-0.5
	l-0.8-2.3c-0.1-0.2-0.3-0.3-0.5-0.3L160.6,235.4z"/>
<path fill="#1972B0" d="M163,236.3c0.2-0.1,0.4,0,0.5,0.2l0,0c0.1,0.2,0,0.4-0.2,0.5l-1.4,0.5c-0.2,0.1-0.4,0-0.5-0.2l0,0
	c-0.1-0.2,0-0.4,0.2-0.5L163,236.3z"/>
<path fill="#1972B0" d="M163.2,237c0.2-0.1,0.4,0,0.5,0.2l0,0c0.1,0.2,0,0.4-0.2,0.5l-1.4,0.5c-0.2,0.1-0.4,0-0.5-0.2l0,0
	c-0.1-0.2,0-0.4,0.2-0.5L163.2,237z"/>
<path fill="#1972B0" d="M162.7,235.5c0.2-0.1,0.4,0,0.5,0.2l0,0c0.1,0.2,0,0.4-0.2,0.5l-1.4,0.5c-0.2,0.1-0.4,0-0.5-0.2l0,0
	c-0.1-0.2,0-0.4,0.2-0.5L162.7,235.5z"/>
<path fill="#1972B0" d="M162.5,234.7c0.2-0.1,0.4,0,0.5,0.2l0,0.1c0.1,0.2,0,0.4-0.2,0.5l-1.4,0.5c-0.2,0.1-0.4,0-0.5-0.2l0,0
	c-0.1-0.2,0-0.4,0.2-0.5L162.5,234.7z"/>
<path fill="#1972B0" d="M162.3,254.4c4.5-4.2,8.9,4.6,2.5,8.3c-21.4,12.3-22.7-19.1-4.5-26.7l0.8,2.3
	C147.2,246.9,152.7,263.3,162.3,254.4"/>
<rect x="287.6" y="52.2" transform="matrix(0.4683 0.8836 -0.8836 0.4683 305.9796 -162.5331)" fill="#1972B0" width="0.8" height="241.4"/>
<polygon fill="#1972B0" points="182,229 181.7,228.3 397.7,141.9 398,142.6 "/>
<rect x="287.3" y="90.8" transform="matrix(0.2581 0.9661 -0.9661 0.2581 405.2494 -130.6977)" fill="#1972B0" width="0.8" height="215.3"/>
<rect x="287.1" y="108.4" transform="matrix(0.1377 0.9905 -0.9905 0.1377 458.7106 -101.2784)" fill="#1972B0" width="0.8" height="208.9"/>
<polygon fill="#1972B0" points="183.5,228.2 183.4,227.4 387.9,215.3 387.9,216.1 "/>
<polygon fill="#1972B0" points="386.1,236.3 183.5,228.4 183.5,227.6 386.1,235.5 "/>
<polygon fill="#1972B0" points="390.9,254.6 182.8,228.4 182.9,227.6 391,253.8 "/>
<polygon fill="#1972B0" points="389.1,246.7 181.6,229 181.7,228.2 389.2,245.9 "/>
<rect x="289.5" y="36.4" transform="matrix(0.5286 0.8489 -0.8489 0.5286 273.91 -169.8223)" fill="#1972B0" width="0.8" height="250.6"/>
<polygon fill="#1972B0" points="182.7,228.7 182.2,228 388.5,69.2 389,69.8 "/>
<polygon fill="#1972B0" points="182,228.9 181.5,228.3 390.7,40 391.3,40.7 "/>
<rect x="286.1" y="-31.7" transform="matrix(0.7238 0.69 -0.69 0.7238 161.6609 -164.6758)" fill="#1972B0" width="0.8" height="302.5"/>
<path fill="#1972B0" d="M94.1,261.7c-3.6,0-6.7-0.5-9.3-1.5c-4.3-1.7-7.2-4.8-8.5-9.2c-2.4-7.9-1.9-13.7,1.4-17.2
	c6.3-6.7,21-3.2,27.2-1.7c0.9,0.2,1.5,0.4,2,0.4c1.6,0.3,6.4,0.2,11.6-1c4.3-1,10-3,12.9-6.8c2.3-2.9,2.4-6.5,0.4-10.7
	c-8.6-18.2-28.3-12.7-34.7-10.9c-3.2,0.9-7.9,5.9-12.8,11.2c-7.1,7.6-15.1,16.2-22,16.2c-0.2,0-0.5,0-0.7,0c-2.7-0.2-5-1.8-6.9-4.7
	c-3.5-5.3-4.1-10.5-1.6-15.4c4.1-8.3,16.2-13.3,21.6-13.6c3.3-0.2,9.3-1.7,14.6-4.5c3.3-1.7,8.8-5.3,8.8-9.8c0-5-5.8-16.7-14.7-23.5
	c-4.4-3.3-11.3-6.8-19.5-4.6c-5.4,1.5-9.3,4.4-11.6,8.7c-4.8,9.1-0.6,21.3-0.6,21.4c0.6,1.8,0.7,13-5.5,16.8
	c-1.4,0.8-2.9,1.3-4.7,1.3c-6.5,0-15.5-6-26.9-18c-6.1-6.5-10.4-12.2-12.6-17.1c-2-4.4-2.4-8.2-1.2-11.3c3-8.2,15.6-9.5,21.7-10.1
	c1.2-0.1,2.4-0.3,2.7-0.4c0.7-0.3,1.9-0.4,3.6-0.6c4.1-0.4,10.4-1,13.3-4.8c1.4-1.9,1.9-4.5,1.3-7.7l1.6-0.3c0.7,3.7,0.1,6.7-1.6,9
	c-3.3,4.4-10,5-14.4,5.5c-1.4,0.1-2.6,0.3-3.1,0.5c-0.5,0.2-1.3,0.3-3.1,0.5c-5.7,0.6-17.7,1.9-20.3,9.1c-2.2,6,2.3,15,13.5,26.8
	c17.1,18.1,25.5,18.9,29.5,16.5c5.2-3.2,5.4-13.4,4.8-14.9c-1.3-3.5-3.6-14.5,0.7-22.7c2.5-4.7,6.7-7.9,12.6-9.5
	c7-1.9,14.3-0.2,21,4.9c9.5,7.3,15.4,19.4,15.4,24.8c0,5.1-5.3,8.9-9.7,11.3c-5.6,2.9-11.7,4.5-15.3,4.7c-2.2,0.1-6.3,1.3-10.5,3.6
	c-3.2,1.8-7.6,4.8-9.8,9.2c-2.2,4.3-1.6,8.9,1.5,13.8c1.6,2.5,3.5,3.8,5.7,4c6.3,0.5,14.3-8.1,21.4-15.6c5.3-5.7,10-10.6,13.6-11.7
	c4.8-1.3,11.9-3,18.8-1.9c8.1,1.2,14.1,5.8,17.8,13.7c2.3,4.8,2.1,9-0.6,12.4c-3.2,4.2-9.3,6.3-13.8,7.4c-5,1.2-10.1,1.4-12.2,1
	c-0.5-0.1-1.2-0.3-2-0.5c-6-1.4-20-4.8-25.7,1.2c-2.9,3.1-3.2,8.3-1,15.6c1.2,4,3.7,6.6,7.5,8.2c8.5,3.4,23.9,0.6,44.3-7.9
	c15.6-6.5,28.7-14.1,28.8-14.1l0.8,1.4c-0.1,0.1-13.3,7.7-29,14.2C115.2,258.5,103.1,261.7,94.1,261.7"/>
<path fill="#1972B0" d="M65.4,6.5h-18V3.8c0-2.1-1.7-3.8-3.9-3.8h-15c-2.1,0-3.9,1.7-3.9,3.8v2.6H7.4c-2.1,0-3.9,1.7-3.9,3.9v125.3
	c0,2.1,1.7,3.9,3.9,3.9h58c2.1,0,3.9-1.7,3.9-3.9V10.3C69.3,8.2,67.5,6.5,65.4,6.5 M39.6,80.3v4.8H35v-4.4c-3.1-0.1-6.2-1-7.9-2
	l1.4-5.5c2,1.1,4.7,2.1,7.8,2.1c2.7,0,4.5-1,4.5-2.9c0-1.8-1.5-2.9-4.9-4.1c-5-1.7-8.4-4-8.4-8.6c0-4.1,2.9-7.3,7.9-8.3v-4.4h4.6
	v4.1c3.1,0.1,5.2,0.8,6.8,1.5l-1.4,5.3c-1.2-0.5-3.4-1.6-6.7-1.6c-3,0-4,1.3-4,2.6c0,1.5,1.6,2.5,5.6,4c5.6,2,7.8,4.5,7.8,8.7
	C47.9,75.8,45,79.4,39.6,80.3"/>
</svg>
