<?xml version="1.0" encoding="iso-8859-1"?>
<!-- Generator: Adobe Illustrator 13.0.0, SVG Export Plug-In  -->
<!DOCTYPE svg [
	<!ENTITY ns_flows "http://ns.adobe.com/Flows/1.0/">
]>
<svg version="1.2" baseProfile="tiny"
	 xmlns="http://www.w3.org/2000/svg" xmlns:xlink="http://www.w3.org/1999/xlink" xmlns:a="http://ns.adobe.com/AdobeSVGViewerExtensions/3.0/"
	 x="0px" y="0px" width="307px" height="327px" viewBox="-1 -0.1 307 327" xml:space="preserve">
<defs>
</defs>
<path fill="#1972B0" d="M274.1,325.6c-0.1,0-0.1,0-0.2,0c0,0-0.1,0-0.1,0C273.9,325.6,274,325.6,274.1,325.6z M254.1,323.4
	c7.6,0.9,14.6,1.7,19.7,2.3C268.8,325.1,261.7,324.2,254.1,323.4L254.1,323.4z M283.4,299.2c-2.7-6.3-17.8-22.6-17.8-22.6
	s10.3-73,6.5-93.1c-4.6-44.5-33-82.1-72.6-100.1c-0.6-3.1-2-6.1-4.1-8.8c0.1-0.5,0.1-1.1,0.1-1.6c0-0.4,0-0.8,0-1.1
	c15,4.5,34.4,10.6,35.7,11.8c2,2.1,12.1-12.1,12.1-12.1l-20.1-27c0,0-13.2-23.5-13.2-26.3c0-2.8-18,0-23.5,0
	c-5.6,0-6.9-6.9-6.9-13.8c0-6.9-14.5-3.5-14.5-3.5c-46.3,5.4-37.6,40.9-34.6,50.2c-9.2,3.2-16,8.4-19,14.7
	c-7.1,4.3-12,9.8-13.8,16.1c-45.1,18.9-76.8,63-76.8,114.4c0,0-10.4,62.3-3.5,92.1c0,0-12,19.7-17.1,23.1c0,0-2.1,9.5,6.2,9.5
	c8.2,0,22.6-3.6,33.5-3.6c10.9,0,26.7,4.5,26.7,4.5s9.6-1.1,17.2-1.9l8.8-0.8c2.7,0,36.9,5.4,47.9,5.4c7.9,0,38.8-3,57.3-4.7
	l13.7-1.1c0.1,0,0.1,0,0.2,0c2.8,0,24.2,2.6,42.6,4.7c-0.5-0.5-0.9-0.9-1.3-1.4c0.4,0.5,0.9,0.9,1.3,1.4c7.6,0.9,14.7,1.7,19.8,2.3
	c0.3,0,0.5,0.1,0.8,0.1c1.5,0.2,2.8,0.3,3.9,0.4h0c0.4,0,0.8,0,1.1,0.1c0.1,0,0.1,0,0.2,0c0.1,0,0.2,0,0.3,0c-0.1,0-0.2,0-0.3,0
	c0.3,0,0.5,0,0.7,0c0.1,0,0.1,0,0.2,0c0.2,0,0.4,0,0.6,0c4.8,0,24-0.9,24-0.9V320C305.3,320,286.1,305.5,283.4,299.2z"/>
<rect x="79.8" y="107.2" fill="#FFFFFF" width="113.1" height="166.4"/>
<path fill="#1972B0" d="M131.3,53.3c0,0-19.6-46.2,33.7-52.4c0,0,14.5-3.5,14.5,3.5c0,6.9,1.4,13.8,6.9,13.8c5.5,0,23.5-2.8,23.5,0
	c0,2.8,13.2,26.3,13.2,26.3l20.1,27c0,0-10.1,14.2-12.1,12.1c-2.1-2.1-53-17-53-17L131.3,53.3z"/>
<path fill="#1972B0" d="M194.1,34.7c0,0-9.1,15.7-21.5,15.7l11.1,7.1c0,0,0.8-15.8,23.1-10.3l-11.7-4.5L194.1,34.7z"/>
<polygon fill="#1972B0" points="190.7,63 226.9,70.6 193.1,68.5 "/>
<path fill="#1972B0" d="M152.4,10.9c0,0-25,5.4-16.7,38.6l10.8,0.4C146.5,49.9,129.7,24.4,152.4,10.9"/>
<path fill="#1972B0" d="M193.2,73c0,12.8-18.2,23.2-40.6,23.2c-22.4,0-40.6-10.4-40.6-23.2c0-12.8,18.2-23.1,40.6-23.1
	C175.1,49.8,193.2,60.2,193.2,73"/>
<path fill="#1972B0" d="M109.8,73c0,14.3,18.8,25.5,42.9,25.5c24.1,0,42.9-11.2,42.9-25.5c0-14.3-18.8-25.4-42.9-25.4
	C128.6,47.5,109.8,58.7,109.8,73 M114.4,73c0-11.3,17.5-20.8,38.3-20.8c20.7,0,38.3,9.6,38.3,20.8s-17.5,20.8-38.3,20.8
	C131.9,93.8,114.4,84.2,114.4,73"/>
<path fill="#1972B0" d="M197.6,87.1c0,15.5-22,28.1-49.2,28.1c-27.2,0-49.2-12.6-49.2-28.1c0-15.5,22-28.1,49.2-28.1
	C175.6,59.1,197.6,71.6,197.6,87.1"/>
<path fill="#1972B0" d="M96.9,87.1c0,17,22.6,30.4,51.5,30.4c28.9,0,51.5-13.3,51.5-30.4c0-17-22.6-30.4-51.5-30.4
	C119.5,56.8,96.9,70.1,96.9,87.1 M101.5,87.1c0-14.2,21.1-25.8,46.9-25.8c25.9,0,46.9,11.6,46.9,25.8s-21,25.8-46.9,25.8
	C122.6,112.9,101.5,101.3,101.5,87.1"/>
<path fill="#1972B0" d="M128,150.1c-3.8,0.3-7.7,2.5-8.5,7c-1.1,6.5,3.2,7.8,6.6,9.7h0.6l2.8-16.7C129,150,128.5,150.1,128,150.1"/>
<path fill="#1972B0" d="M279.9,326.2c-0.1,0-0.1,0-0.2,0C279.8,326.2,279.8,326.2,279.9,326.2"/>
<path fill="#1972B0" d="M128.7,213.2c0.5,0,0.5,0.1,1,0l0.5,0c4.5-0.4,9.4-3.4,10.2-8.5c1-5.9-2.8-9.6-8.4-11.2L128.7,213.2z"/>
<path fill="#1972B0" d="M228.6,291c0,0,11.4-80.8,7.2-102.9c-5.5-54-42.9-98.8-93.3-115.9C74.9,74.4,20.9,129.1,20.9,196.2
	c0,0-10.4,62.3-3.5,92.1c0,0-12,19.7-17.1,23.1c0,0-2.1,9.5,6.2,9.5c8.2,0,22.6-3.6,33.5-3.6c10.9,0,26.7,4.5,26.7,4.5
	s23.3-2.7,26-2.7c2.7,0,36.9,5.4,47.9,5.4c10.9,0,66.3-5.9,71.1-5.9c2.8,0,24.2,2.6,42.6,4.7c-2.8-2.8-5-5.4-5.9-7.4
	C245.2,309,228.6,291,228.6,291 M167.5,162.5l-20.2-0.9c0.6-5.4-2.1-10.9-8-11.1l-3.2,18.8c16.7,6.3,29,14.5,26,32.5
	c-3.4,19.9-16.2,27.4-31.1,28.6c-1.7,0.2-3.4,0.2-5.1,0.2l-2.2,13.1l-9.7-0.5l2.2-13c-16.7-1.4-28.8-12.6-25.3-33.6l21.1,1
	c-1.3,7.4,1.3,12.7,7.2,14.4l3.6-21.2c-15.2-6-27.3-11.9-24.1-30.7c3.5-20.9,18.7-26.4,34.1-28.4l1.1-6.7l0.3-1.7l9.7,0.4l-1.4,8.4
	C157.4,133.8,170.9,141.7,167.5,162.5"/>
<path fill="#1972B0" d="M280.8,326.3c-0.1,0-0.1,0-0.2,0C280.6,326.2,280.7,326.2,280.8,326.3"/>
<path fill="#1972B0" d="M280.6,326.2c-0.2,0-0.4,0-0.7,0C280.2,326.2,280.4,326.2,280.6,326.2"/>
<path fill="#1972B0" d="M281.3,326.3c-0.1,0-0.3,0-0.6,0C281,326.3,281.2,326.3,281.3,326.3"/>
<path fill="#1972B0" d="M254.1,323.4c10.4,1.2,19.8,2.3,24.5,2.7C274,325.7,264.5,324.6,254.1,323.4L254.1,323.4z"/>
<path fill="#1972B0" d="M142.5,72.1C142.5,72.1,142.5,72.1,142.5,72.1c1.5,0,2.9-0.1,4.3-0.1C145.4,72,143.9,72.1,142.5,72.1"/>
<path fill="#1972B0" d="M279.7,326.2c-0.3,0-0.7-0.1-1.1-0.1C279,326.1,279.4,326.2,279.7,326.2"/>
<path fill="#1972B0" d="M283.4,299.2c-2.7-6.3-17.8-22.6-17.8-22.6s10.3-73,6.5-93.1C265.7,120.9,212,72,146.8,72
	c-1.4,0-2.9,0.1-4.3,0.1c50.4,17.1,87.7,61.9,93.3,115.9c4.2,22.1-7.2,102.9-7.2,102.9s16.6,18,19.7,25c0.9,1.9,3.1,4.6,5.9,7.4
	c10.4,1.2,19.8,2.3,24.5,2.8h0c0.4,0,0.8,0,1.1,0.1c0.1,0,0.1,0,0.2,0c0.3,0,0.5,0,0.7,0.1c0.1,0,0.1,0,0.2,0c0.2,0,0.4,0,0.6,0
	c4.8,0,24-0.9,24-0.9V320C305.3,320,286.1,305.5,283.4,299.2"/>
<path fill="#1972B0" d="M92.6,319.1c0,0-12.7-14.2-14.5-24.6c0,0,0.3,20.1,5.6,25.4L92.6,319.1z"/>
<path fill="#1972B0" d="M211.6,318.6c0,0,14.1-19.3,14.1-54c0,0-6,37.4-28.8,55.2L211.6,318.6z"/>
</svg>
