<?xml version="1.0" encoding="iso-8859-1"?>
<!-- Generator: Adobe Illustrator 13.0.0, SVG Export Plug-In  -->
<!DOCTYPE svg PUBLIC "-//W3C//DTD SVG 1.1 Tiny//EN" "http://www.w3.org/Graphics/SVG/1.1/DTD/svg11-tiny.dtd" [
	<!ENTITY ns_flows "http://ns.adobe.com/Flows/1.0/">
]>
<svg version="1.1" baseProfile="tiny"
	 xmlns="http://www.w3.org/2000/svg" xmlns:xlink="http://www.w3.org/1999/xlink" xmlns:a="http://ns.adobe.com/AdobeSVGViewerExtensions/3.0/"
	 x="0px" y="0px" width="95px" height="116px" viewBox="-0.9 -0.7 95 116" xml:space="preserve">
<defs>
</defs>
<path fill="#1972B1" d="M85,24.3c-0.8,0-1.4-0.6-1.4-1.4l-0.1-8.2c0-0.8,0.6-1.4,1.4-1.4l5.2-0.1c0.8,0,1.4,0.6,1.4,1.4l0.1,8.2
	c0,0.8-0.6,1.4-1.4,1.4L85,24.3z"/>
<path fill="#1972B1" d="M88.5,12.3c0.5-0.5,0.4-1.2,0-1.7c-0.5-0.5-1.2-0.4-1.7,0l-3,3c-0.5,0.5-0.4,1.2,0,1.7
	c0.5,0.5,1.2,0.4,1.7,0L88.5,12.3z"/>
<path fill="#1972B1" d="M88.8,11.5c0-0.7-0.5-1.2-1.2-1.2c-0.7,0-1.2,0.5-1.2,1.2l0,3.4c0,0.6,0.5,1.2,1.2,1.2
	c0.6,0,1.2-0.5,1.2-1.2L88.8,11.5z"/>
<path fill="#1972B1" d="M92.4,24.2c0.7,0,1.2-0.5,1.2-1.2c0-0.7-0.5-1.2-1.2-1.2l-2.1,0c-0.7,0-1.2,0.5-1.2,1.2
	c0,0.7,0.5,1.2,1.2,1.2L92.4,24.2z"/>
<path fill="#1972B1" d="M92.3,15.5c0.7,0,1.2-0.5,1.2-1.2c0-0.7-0.5-1.2-1.2-1.2l-2.1,0c-0.6,0-1.2,0.5-1.2,1.2
	c0,0.7,0.5,1.2,1.2,1.2L92.3,15.5z"/>
<path fill="#1972B1" d="M92.4,18.4c0.7,0,1.2-0.5,1.2-1.2c0-0.6-0.5-1.2-1.2-1.2l-2.1,0c-0.7,0-1.2,0.5-1.2,1.2
	c0,0.6,0.5,1.2,1.2,1.2L92.4,18.4z"/>
<path fill="#1972B1" d="M92.4,21.3c0.7,0,1.2-0.5,1.2-1.2c0-0.6-0.5-1.2-1.2-1.2l-2.1,0c-0.6,0-1.2,0.5-1.2,1.2
	c0,0.7,0.5,1.2,1.2,1.2L92.4,21.3z"/>
<path fill="#1972B1" d="M21.9,22.8c6-2,16.6-3.3,24.8-3.3c8.2,0,18.1,1.1,25,4c6.2,2.6-3,55.1-3,55.1h-22h-22
	C24.7,78.5,15.5,25,21.9,22.8"/>
<polygon fill="#1972B1" points="48.8,23.6 44.7,23.6 45.2,20.7 48.1,20.7 "/>
<path fill="#1972B1" d="M45.5,23.6h2.4c0,0,1,6,2.9,16.8c-1.6,1.7-4.2,4.3-4.2,4.3s-3.1-3.1-4.2-4.3C44.1,31.5,45.5,23.6,45.5,23.6"
	/>
<path fill="#1972B1" d="M74.3,112.1c0.3,0.6,2.1,1.4,3,1c0.9-0.4,2,0.7,0.5,1.5c-1.5,0.8-4.1,0.2-4.7-0.7c0,0.3,0,0.7,0,0.7
	l-2.5-0.1l0.4-2.5L74.3,112.1z"/>
<path fill="#1972B1" d="M57.9,74.1c17.3,6.5,22.1,25.1,16.6,36.8c-0.7-0.1-2.6-0.3-3.5-0.3c3-14-1.5-25.2-25.3-31.3
	C34.9,76.4,47.5,70.2,57.9,74.1"/>
<path fill="#1972B1" d="M33.5,74.1c-17.4,8.3-18.4,25.1-12.8,36.8c0.7-0.1,2.7-0.3,3.5-0.3c-3-14,1.1-24,21.6-31.3
	C56.2,75.5,43.5,69.3,33.5,74.1"/>
<path fill="#1972B1" d="M38.7,19.8V4.8c0,0,7.1-7.8,15.4-0.3v15.3L38.7,19.8z"/>
<path fill="#1972B1" d="M43.8,6.7c0,0.4-0.4,0.8-0.8,0.8c-0.4,0-0.8-0.4-0.8-0.8c0-0.4,0.4-0.8,0.8-0.8C43.4,5.9,43.8,6.2,43.8,6.7"
	/>
<path fill="#1972B1" d="M37.4,2.2V20l9.5,2.3l8.6-2.3V2.2C45.6-2.8,37.4,2.2,37.4,2.2 M42.6,9.1c-1.3,0-2.3-1-2.3-2.3
	c0-1.3,1-2.3,2.3-2.3c1.3,0,2.3,1,2.3,2.3C44.9,8.1,43.8,9.1,42.6,9.1 M49.9,8.8c-1.3,0-2.3-1-2.3-2.3c0-1.3,1-2.3,2.3-2.3
	c1.3,0,2.3,1,2.3,2.3C52.3,7.8,51.2,8.8,49.9,8.8"/>
<path fill="#1972B1" d="M72.8,27.3c0.9-7.2-9.8-5.6-9.1,3.3C66,60.2,88.1,49.1,87.2,20.3l-2.5,0C84.3,42.2,70.9,42.7,72.8,27.3"/>
<path fill="#1972B1" d="M8.6,24.3c0.8,0,1.4-0.6,1.4-1.4l0.1-8.2c0-0.8-0.6-1.4-1.4-1.4l-5.2-0.1c-0.8,0-1.4,0.6-1.4,1.4L2,22.8
	c0,0.8,0.6,1.4,1.4,1.4L8.6,24.3z"/>
<path fill="#1972B1" d="M5.1,12.3c-0.5-0.5-0.4-1.2,0-1.7c0.5-0.5,1.2-0.4,1.7,0l3,3c0.5,0.5,0.4,1.2,0,1.7c-0.5,0.5-1.2,0.4-1.7,0
	L5.1,12.3z"/>
<path fill="#1972B1" d="M4.8,11.5c0-0.7,0.5-1.2,1.2-1.2c0.6,0,1.2,0.5,1.2,1.2l0,3.4c0,0.6-0.5,1.2-1.2,1.2c-0.7,0-1.2-0.5-1.2-1.2
	L4.8,11.5z"/>
<path fill="#1972B1" d="M1.2,24.2C0.5,24.2,0,23.6,0,23c0-0.7,0.6-1.2,1.2-1.2l2.1,0c0.7,0,1.2,0.5,1.2,1.2c0,0.7-0.5,1.2-1.2,1.2
	L1.2,24.2z"/>
<path fill="#1972B1" d="M1.3,15.5c-0.7,0-1.2-0.5-1.2-1.2c0-0.7,0.5-1.2,1.2-1.2l2.1,0c0.7,0,1.2,0.5,1.2,1.2c0,0.7-0.5,1.2-1.2,1.2
	L1.3,15.5z"/>
<path fill="#1972B1" d="M1.2,18.4c-0.7,0-1.2-0.5-1.2-1.2c0-0.6,0.5-1.2,1.2-1.2l2.1,0c0.7,0,1.2,0.5,1.2,1.2c0,0.6-0.5,1.2-1.2,1.2
	L1.2,18.4z"/>
<path fill="#1972B1" d="M1.2,21.3c-0.7,0-1.2-0.5-1.2-1.2c0-0.6,0.5-1.2,1.2-1.2l2.1,0c0.6,0,1.2,0.5,1.2,1.2c0,0.7-0.5,1.2-1.2,1.2
	L1.2,21.3z"/>
<path fill="#1972B1" d="M20.8,27.3c-0.9-7.2,9.8-5.6,9.1,3.3C27.6,60.2,5.5,49.1,6.4,20.3l2.5,0C9.3,42.2,22.7,42.7,20.8,27.3"/>
<path fill="#1972B1" d="M21.9,112.4c-0.2,0.5-1.9,1.2-2.7,0.9c-0.8-0.4-1.8,0.6-0.4,1.3c1.4,0.7,3.7,0.2,4.3-0.6c0,0.3,0,0.6,0,0.6
	l2.3-0.1l-0.4-2.3L21.9,112.4z"/>
</svg>
