<?xml version="1.0" encoding="iso-8859-1"?>
<!-- Generator: Adobe Illustrator 13.0.0, SVG Export Plug-In  -->
<!DOCTYPE svg [
	<!ENTITY ns_flows "http://ns.adobe.com/Flows/1.0/">
]>
<svg version="1.2" baseProfile="tiny"
	 xmlns="http://www.w3.org/2000/svg" xmlns:xlink="http://www.w3.org/1999/xlink" xmlns:a="http://ns.adobe.com/AdobeSVGViewerExtensions/3.0/"
	 x="0px" y="0px" width="104px" height="104px" viewBox="-0.3 -0.2 104 104" xml:space="preserve">
<defs>
</defs>
<path fill="#1972B1" d="M51.7,0C23.2,0,0,23.2,0,51.7c0,28.6,23.2,51.8,51.7,51.8c28.6,0,51.8-23.2,51.8-51.8
	C103.5,23.2,80.3,0,51.7,0 M80.9,74.2c-1.8,3-4.1,5.3-6.9,7.2c-2.8,1.8-6.1,3.1-9.7,3.8c-3.6,0.7-7.4,1.1-11.2,1.1
	c-3.9,0-7.7-0.4-11.3-1.2c-3.7-0.8-7-2.1-9.9-3.9c-2.9-1.8-5.2-4.2-7.1-7.2c-1.9-3-2.9-6.7-3-11.2h17.4c0,2,0.4,3.7,1.2,5.1
	c0.8,1.4,1.9,2.6,3.2,3.5c1.3,0.9,2.8,1.6,4.4,2c1.7,0.4,3.4,0.6,5.2,0.6c1.3,0,2.6-0.1,4.1-0.4c1.4-0.3,2.7-0.8,3.9-1.4
	c1.2-0.6,2.1-1.5,2.9-2.6c0.8-1.1,1.2-2.4,1.2-4.1c0-2.7-1.8-4.8-5.5-6.2s-8.7-2.8-15.3-4.1c-2.7-0.6-5.3-1.3-7.8-2.1
	c-2.5-0.8-4.8-1.9-6.8-3.2c-2-1.3-3.6-3-4.8-5c-1.2-2-1.8-4.5-1.8-7.4c0-4.3,0.8-7.8,2.5-10.6c1.7-2.7,3.9-4.9,6.6-6.5
	c2.7-1.6,5.8-2.7,9.3-3.4c3.4-0.6,7-1,10.6-1c3.6,0,7.1,0.3,10.5,1c3.4,0.7,6.4,1.8,9.1,3.5c2.7,1.6,4.9,3.8,6.6,6.5
	c1.8,2.7,2.8,6.1,3.2,10.3H64.4c-0.3-3.5-1.6-5.9-4-7.2c-2.4-1.2-5.2-1.9-8.5-1.9c-1,0-2.2,0.1-3.4,0.2c-1.2,0.1-2.3,0.4-3.3,0.8
	c-1,0.4-1.8,1.1-2.5,1.9c-0.7,0.8-1,1.9-1,3.3c0,1.6,0.6,3,1.8,4c1.2,1,2.8,1.9,4.7,2.5c1.9,0.6,4.1,1.2,6.6,1.7
	c2.5,0.5,5,1.1,7.6,1.7c2.7,0.6,5.3,1.3,7.8,2.2c2.5,0.9,4.8,2,6.8,3.4c2,1.4,3.6,3.2,4.8,5.3c1.2,2.1,1.8,4.7,1.8,7.8
	C83.6,67.6,82.7,71.2,80.9,74.2"/>
</svg>
