<?xml version="1.0" encoding="iso-8859-1"?>
<!-- Generator: Adobe Illustrator 13.0.0, SVG Export Plug-In  -->
<!DOCTYPE svg PUBLIC "-//W3C//DTD SVG 1.1 Tiny//EN" "http://www.w3.org/Graphics/SVG/1.1/DTD/svg11-tiny.dtd" [
	<!ENTITY ns_flows "http://ns.adobe.com/Flows/1.0/">
]>
<svg version="1.1" baseProfile="tiny"
	 xmlns="http://www.w3.org/2000/svg" xmlns:xlink="http://www.w3.org/1999/xlink" xmlns:a="http://ns.adobe.com/AdobeSVGViewerExtensions/3.0/"
	 x="0px" y="0px" width="80px" height="105px" viewBox="-0.6 -0.8 80 105" xml:space="preserve">
<defs>
</defs>
<path fill="#1972B1" d="M26.1,102.9c0.1,0.2,0.7,0.5,1,0.3c0.3-0.1,0.7,0.2,0.2,0.5c-0.5,0.3-1.4,0.1-1.6-0.2c0,0.1,0,0.2,0,0.2
	l-0.9-0.1l0.1-0.8L26.1,102.9z"/>
<path fill="#1972B1" d="M20.6,90.1c5.8,2.2,7.4,8.4,5.6,12.4c-0.2,0-0.9-0.1-1.2-0.1c1-4.7-0.5-8.5-8.5-10.5
	C12.9,90.9,17.1,88.8,20.6,90.1"/>
<path fill="#1972B1" d="M8.1,102.9c-0.1,0.2-0.7,0.5-1,0.3c-0.3-0.1-0.7,0.2-0.2,0.5c0.5,0.3,1.4,0.1,1.6-0.2c0,0.1,0,0.2,0,0.2
	l0.9-0.1l-0.1-0.8L8.1,102.9z"/>
<path fill="#1972B1" d="M12.4,90.1c-5.9,2.8-6.2,8.4-4.3,12.4c0.2,0,0.9-0.1,1.2-0.1c-1-4.7,0.4-8.1,7.3-10.5
	C20.1,90.6,15.8,88.5,12.4,90.1"/>
<path fill="#1972B1" d="M62.1,67.7c0.9-0.3,1.6-0.2,2.1,0.4c0.5,0.6,0.9,1.1,0.9,1.1l-0.5,0.2c0,0,0.1,0.3,0.2,0.4
	c0,0.1,0,0.2-0.1,0.3c0.1,0,0.2,0,0.3,0.2c0.1,0.2,0,0.3,0,0.3c0.1,0.1,0.6,1.3,0.6,1.3l-4,1.2c0,0-0.6-2.8-0.8-3.5
	C60.6,68.7,61.1,68.1,62.1,67.7"/>
<path fill="#1972B1" d="M64.1,68.5c0.1,0.1,0,0.2-0.1,0.3c-0.1,0.1-0.2,0-0.3-0.1c-0.1-0.1,0-0.2,0.1-0.3
	C63.9,68.4,64,68.4,64.1,68.5"/>
<path fill="#1972B1" d="M63.6,68.7c0.1,0.1,0,0.2-0.1,0.3c-0.1,0.1-0.2,0-0.3-0.1c-0.1-0.1,0-0.2,0.1-0.3
	C63.4,68.5,63.5,68.6,63.6,68.7"/>
<path fill="#1972B1" d="M60.6,68.3c-0.2-0.5,0.2-1,0.7-1.1c0.5-0.1,0.9-0.3,0.7-0.6c0.5,0.2,0.8,0.8,0.5,1.2c-0.3,0.4-1,0.7-1.6,0.9
	c0.2,0.2,0.2,1.3-0.1,1.4C60.3,69.8,60,68.6,60.6,68.3"/>
<path fill="#1972B1" d="M55.2,72.9c2-0.7,5.6-1.1,8.3-1.1c2.8,0,6.1,0.4,8.4,1.3c2.1,0.9-1,18.5-1,18.5h-7.4h-7.4
	C56.2,91.6,53.1,73.6,55.2,72.9"/>
<polygon fill="#1972B1" points="64.3,72.8 62.9,72.8 63.1,71.8 64,71.8 "/>
<path fill="#1972B1" d="M63.2,72.8H64c0,0,0.3,2,1,5.7c-0.6,0.6-1.4,1.4-1.4,1.4s-1.1-1-1.4-1.4C62.7,75.4,63.2,72.8,63.2,72.8"/>
<path fill="#1972B1" d="M72.8,102.9c0.1,0.2,0.7,0.5,1,0.3c0.3-0.1,0.7,0.2,0.2,0.5c-0.5,0.3-1.4,0.1-1.6-0.2c0,0.1,0,0.2,0,0.2
	l-0.9-0.1l0.1-0.8L72.8,102.9z"/>
<path fill="#1972B1" d="M67.3,90.1c5.8,2.2,7.4,8.4,5.6,12.4c-0.2,0-0.9-0.1-1.2-0.1c1-4.7-0.5-8.5-8.5-10.5
	C59.6,90.9,63.8,88.8,67.3,90.1"/>
<path fill="#1972B1" d="M54.8,102.9c-0.1,0.2-0.7,0.5-1,0.3c-0.3-0.1-0.7,0.2-0.2,0.5c0.5,0.3,1.4,0.1,1.6-0.2c0,0.1,0,0.2,0,0.2
	l0.9-0.1l-0.1-0.8L54.8,102.9z"/>
<path fill="#1972B1" d="M59.1,90.1c-5.9,2.8-6.2,8.4-4.3,12.4c0.2,0,0.9-0.1,1.2-0.1c-1-4.7,0.4-8.1,7.3-10.5
	C66.8,90.6,62.5,88.5,59.1,90.1"/>
<path fill="#1972B1" d="M55.2,72.9c2.9-0.9,2.9,4.1-0.8,4.4c-12.2,0.9-9-10,2.8-11.5l0.1,1.1C48.5,68.6,49.1,74.8,55.2,72.9"/>
<path fill="#1972B1" d="M72,73.1c-2.9-0.9-3.2,3.8,0.5,4.1c12.2,0.9,5.3-14.9-4.3-12.8l0.3,1.1C76.5,65.1,78.1,75,72,73.1"/>
<path fill="#1972B1" d="M39.8,67.7c0.9-0.3,1.6-0.2,2.1,0.4c0.5,0.6,0.9,1.1,0.9,1.1l-0.5,0.2c0,0,0.1,0.3,0.2,0.4
	c0,0.1,0,0.2-0.1,0.3c0.1,0,0.2,0,0.3,0.2c0.1,0.2,0,0.3,0,0.3c0.1,0.1,0.6,1.3,0.6,1.3l-4,1.2c0,0-0.6-2.8-0.8-3.5
	C38.3,68.7,38.7,68.1,39.8,67.7"/>
<path fill="#1972B1" d="M41.7,68.5c0.1,0.1,0,0.2-0.1,0.3c-0.1,0.1-0.2,0-0.3-0.1c-0.1-0.1,0-0.2,0.1-0.3
	C41.5,68.4,41.7,68.4,41.7,68.5"/>
<path fill="#1972B1" d="M41.2,68.7c0.1,0.1,0,0.2-0.1,0.3c-0.1,0.1-0.2,0-0.3-0.1s0-0.2,0.1-0.3C41,68.5,41.2,68.6,41.2,68.7"/>
<path fill="#1972B1" d="M38.3,68.3c-0.2-0.5,0.2-1,0.7-1.1c0.5-0.1,0.9-0.3,0.7-0.6c0.5,0.2,0.8,0.8,0.5,1.2c-0.3,0.4-1,0.7-1.6,0.9
	c0.2,0.2,0.2,1.3-0.1,1.4C38,69.8,37.6,68.6,38.3,68.3"/>
<path fill="#1972B1" d="M32.9,72.9c2-0.7,5.6-1.1,8.3-1.1c2.8,0,6.1,0.4,8.4,1.3c2.1,0.9-1,18.5-1,18.5h-7.4h-7.4
	C33.8,91.6,30.7,73.6,32.9,72.9"/>
<polygon fill="#1972B1" points="41.9,72.8 40.5,72.8 40.7,71.8 41.7,71.8 "/>
<path fill="#1972B1" d="M40.8,72.8h0.8c0,0,0.3,2,1,5.7c-0.6,0.6-1.4,1.4-1.4,1.4s-1.1-1-1.4-1.4C40.4,75.4,40.8,72.8,40.8,72.8"/>
<path fill="#1972B1" d="M50.5,102.9c0.1,0.2,0.7,0.5,1,0.3c0.3-0.1,0.7,0.2,0.2,0.5c-0.5,0.3-1.4,0.1-1.6-0.2c0,0.1,0,0.2,0,0.2
	l-0.9-0.1l0.1-0.8L50.5,102.9z"/>
<path fill="#1972B1" d="M45,90.1c5.8,2.2,7.4,8.4,5.6,12.4c-0.2,0-0.9-0.1-1.2-0.1c1-4.7-0.5-8.5-8.5-10.5
	C37.2,90.9,41.5,88.8,45,90.1"/>
<path fill="#1972B1" d="M32.5,102.9c-0.1,0.2-0.7,0.5-1,0.3c-0.3-0.1-0.7,0.2-0.2,0.5c0.5,0.3,1.4,0.1,1.6-0.2c0,0.1,0,0.2,0,0.2
	l0.9-0.1l-0.1-0.8L32.5,102.9z"/>
<path fill="#1972B1" d="M36.8,90.1c-5.9,2.8-6.2,8.4-4.3,12.4c0.2,0,0.9-0.1,1.2-0.1c-1-4.7,0.4-8.1,7.3-10.5
	C44.4,90.6,40.2,88.5,36.8,90.1"/>
<path fill="#1972B1" d="M32.9,72.9c2.9-0.9,2.9,4.1-0.8,4.4c-12.2,0.9-9-10,2.8-11.5l0.1,1.1C26.1,68.6,26.7,74.8,32.9,72.9"/>
<path fill="#1972B1" d="M49.6,73.1c-2.9-0.9-3.2,3.8,0.5,4.1c12.2,0.9,5.3-14.9-4.3-12.8l0.3,1.1C54.2,65.1,55.8,75,49.6,73.1"/>
<path fill="#1972B1" d="M48.3,35.6c0.9-0.3,1.6-0.2,2.1,0.4c0.5,0.6,0.9,1.1,0.9,1.1l-0.5,0.2c0,0,0.1,0.3,0.2,0.4
	c0,0.1,0,0.2-0.1,0.3c0.1,0,0.2,0,0.3,0.2c0.1,0.2,0,0.3,0,0.3c0.1,0.1,0.6,1.3,0.6,1.3l-4,1.2c0,0-0.6-2.8-0.8-3.5
	C46.7,36.5,47.2,35.9,48.3,35.6"/>
<path fill="#1972B1" d="M50.2,36.4c0.1,0.1,0,0.2-0.1,0.3c-0.1,0.1-0.2,0-0.3-0.1c-0.1-0.1,0-0.2,0.1-0.3
	C50,36.2,50.1,36.3,50.2,36.4"/>
<path fill="#1972B1" d="M49.7,36.5c0.1,0.1,0,0.2-0.1,0.3c-0.1,0.1-0.2,0-0.3-0.1c-0.1-0.1,0-0.2,0.1-0.3
	C49.5,36.4,49.6,36.4,49.7,36.5"/>
<path fill="#1972B1" d="M46.8,36.1c-0.2-0.5,0.2-1,0.7-1.1c0.5-0.1,0.9-0.3,0.7-0.6c0.5,0.2,0.8,0.8,0.5,1.2c-0.3,0.4-1,0.7-1.6,0.9
	c0.2,0.2,0.2,1.3-0.1,1.4C46.5,37.7,46.1,36.4,46.8,36.1"/>
<path fill="#1972B1" d="M41.3,40.7c2-0.7,5.6-1.1,8.3-1.1c2.8,0,6.1,0.4,8.4,1.3c2.1,0.9-1,18.5-1,18.5h-7.4h-7.4
	C42.3,59.5,39.2,41.5,41.3,40.7"/>
<polygon fill="#1972B1" points="50.4,40.6 49,40.6 49.2,39.6 50.1,39.6 "/>
<path fill="#1972B1" d="M49.3,40.6h0.8c0,0,0.3,2,1,5.7c-0.6,0.6-1.4,1.4-1.4,1.4s-1.1-1-1.4-1.4C48.8,43.3,49.3,40.6,49.3,40.6"/>
<path fill="#1972B1" d="M59,70.8c0.1,0.2,0.7,0.5,1,0.3c0.3-0.1,0.7,0.2,0.2,0.5c-0.5,0.3-1.4,0.1-1.6-0.2c0,0.1,0,0.2,0,0.2l-0.9,0
	l0.1-0.8L59,70.8z"/>
<path fill="#1972B1" d="M53.4,58c5.8,2.2,7.4,8.4,5.6,12.4c-0.2,0-0.9-0.1-1.2-0.1c1-4.7-0.5-8.5-8.5-10.5
	C45.7,58.8,49.9,56.7,53.4,58"/>
<path fill="#1972B1" d="M41,70.8c-0.1,0.2-0.7,0.5-1,0.3c-0.3-0.1-0.7,0.2-0.2,0.5c0.5,0.3,1.4,0.1,1.6-0.2c0,0.1,0,0.2,0,0.2l0.9,0
	l-0.1-0.8L41,70.8z"/>
<path fill="#1972B1" d="M45.2,58c-5.9,2.8-6.2,8.4-4.3,12.4c0.2,0,0.9-0.1,1.2-0.1c-1-4.7,0.4-8.1,7.3-10.5
	C52.9,58.4,48.6,56.4,45.2,58"/>
<path fill="#1972B1" d="M41.3,40.7c2.9-0.9,2.9,4.1-0.8,4.4c-12.2,0.9-9-10,2.8-11.5l0.2,1.1C34.6,36.4,35.2,42.6,41.3,40.7"/>
<path fill="#1972B1" d="M58.1,41c-2.9-0.9-3.2,3.8,0.5,4.1c12.2,0.9,5.3-14.9-4.3-12.8l0.3,1.1C62.6,32.9,64.3,42.9,58.1,41"/>
<path fill="#1972B1" d="M36.9,3.5c0.9-0.3,1.6-0.2,2.1,0.4C39.6,4.4,40,5,40,5l-0.5,0.2c0,0,0.1,0.3,0.2,0.4c0,0.1,0,0.2-0.1,0.3
	c0.1,0,0.2,0,0.3,0.1c0.1,0.2,0,0.3,0,0.3c0.1,0.1,0.6,1.3,0.6,1.3l-4,1.2c0,0-0.6-2.8-0.8-3.5C35.3,4.4,35.8,3.8,36.9,3.5"/>
<path fill="#1972B1" d="M38.8,4.3c0.1,0.1,0,0.2-0.1,0.3c-0.1,0.1-0.2,0-0.3-0.1c-0.1-0.1,0-0.2,0.1-0.3C38.6,4.1,38.7,4.2,38.8,4.3
	"/>
<path fill="#1972B1" d="M38.3,4.4c0.1,0.1,0,0.2-0.1,0.3c-0.1,0.1-0.2,0-0.3-0.1c-0.1-0.1,0-0.2,0.1-0.3C38.1,4.3,38.3,4.3,38.3,4.4
	"/>
<path fill="#1972B1" d="M35.4,4c-0.2-0.5,0.2-1,0.7-1.1c0.5-0.1,0.9-0.3,0.7-0.6c0.5,0.2,0.8,0.8,0.5,1.2c-0.3,0.4-1,0.7-1.6,0.9
	c0.2,0.2,0.2,1.3-0.1,1.4C35.1,5.6,34.7,4.3,35.4,4"/>
<path fill="#1972B1" d="M30,8.6c2-0.7,5.6-1.1,8.3-1.1c2.8,0,6.1,0.4,8.4,1.3c2.1,0.9-1,18.5-1,18.5h-7.4h-7.4
	C30.9,27.4,27.8,9.4,30,8.6"/>
<polygon fill="#1972B1" points="39,8.5 37.6,8.5 37.8,7.5 38.8,7.5 "/>
<path fill="#1972B1" d="M37.9,8.5h0.8c0,0,0.3,2,1,5.7c-0.6,0.6-1.4,1.4-1.4,1.4s-1.1-1-1.4-1.4C37.4,11.2,37.9,8.5,37.9,8.5"/>
<path fill="#1972B1" d="M47.6,38.7c0.1,0.2,0.7,0.5,1,0.3c0.3-0.1,0.7,0.2,0.2,0.5c-0.5,0.3-1.4,0.1-1.6-0.2c0,0.1,0,0.2,0,0.2
	l-0.9-0.1l0.1-0.8L47.6,38.7z"/>
<path fill="#1972B1" d="M42.1,25.9c5.8,2.2,7.4,8.4,5.6,12.4c-0.2,0-0.9-0.1-1.2-0.1c1-4.7-0.5-8.5-8.5-10.5
	C34.3,26.7,38.6,24.6,42.1,25.9"/>
<path fill="#1972B1" d="M29.6,38.7c-0.1,0.2-0.7,0.5-1,0.3c-0.3-0.1-0.7,0.2-0.2,0.5c0.5,0.3,1.4,0.1,1.6-0.2c0,0.1,0,0.2,0,0.2
	l0.9-0.1l-0.1-0.8L29.6,38.7z"/>
<path fill="#1972B1" d="M33.9,25.9c-5.9,2.8-6.2,8.4-4.3,12.4c0.2,0,0.9-0.1,1.2-0.1c-1-4.7,0.4-8.1,7.3-10.5
	C41.5,26.4,37.2,24.3,33.9,25.9"/>
<path fill="#1972B1" d="M30,8.6c2.9-0.9,2.9,4.1-0.8,4.4C17,14,20.2,3,32,1.6l0.1,1.1C23.2,4.3,23.8,10.5,30,8.6"/>
<path fill="#1972B1" d="M46.7,8.9c-2.9-0.9-3.2,3.8,0.5,4.1c12.2,0.9,5.3-14.9-4.3-12.8l0.3,1.1C51.2,0.8,52.9,10.8,46.7,8.9"/>
<path fill="#1972B1" d="M27.3,35.6c0.9-0.3,1.6-0.2,2.1,0.4c0.5,0.6,0.9,1.1,0.9,1.1l-0.5,0.2c0,0,0.1,0.3,0.2,0.4
	c0,0.1,0,0.2-0.1,0.3c0.1,0,0.2,0,0.3,0.2c0.1,0.2,0,0.3,0,0.3c0.1,0.1,0.6,1.3,0.6,1.3l-4,1.2c0,0-0.6-2.8-0.8-3.5
	C25.7,36.5,26.2,35.9,27.3,35.6"/>
<path fill="#1972B1" d="M29.2,36.4c0.1,0.1,0,0.2-0.1,0.3c-0.1,0.1-0.2,0-0.3-0.1c-0.1-0.1,0-0.2,0.1-0.3
	C29,36.2,29.1,36.3,29.2,36.4"/>
<path fill="#1972B1" d="M28.7,36.5c0.1,0.1,0,0.2-0.1,0.3c-0.1,0.1-0.2,0-0.3-0.1c-0.1-0.1,0-0.2,0.1-0.3
	C28.5,36.4,28.7,36.4,28.7,36.5"/>
<path fill="#1972B1" d="M25.8,36.1c-0.2-0.5,0.2-1,0.7-1.1c0.5-0.1,0.9-0.3,0.7-0.6c0.5,0.2,0.8,0.8,0.5,1.2c-0.3,0.4-1,0.7-1.6,0.9
	c0.2,0.2,0.2,1.3-0.1,1.4C25.5,37.7,25.1,36.4,25.8,36.1"/>
<path fill="#1972B1" d="M20.4,40.7c2-0.7,5.6-1.1,8.3-1.1c2.8,0,6.1,0.4,8.4,1.3c2.1,0.9-1,18.5-1,18.5h-7.4h-7.4
	C21.3,59.5,18.2,41.5,20.4,40.7"/>
<polygon fill="#1972B1" points="29.4,40.6 28,40.6 28.2,39.6 29.2,39.6 "/>
<path fill="#1972B1" d="M28.3,40.6h0.8c0,0,0.3,2,1,5.7c-0.6,0.6-1.4,1.4-1.4,1.4s-1.1-1-1.4-1.4C27.8,43.3,28.3,40.6,28.3,40.6"/>
<path fill="#1972B1" d="M38,70.8c0.1,0.2,0.7,0.5,1,0.3c0.3-0.1,0.7,0.2,0.2,0.5c-0.5,0.3-1.4,0.1-1.6-0.2c0,0.1,0,0.2,0,0.2l-0.9,0
	l0.1-0.8L38,70.8z"/>
<path fill="#1972B1" d="M32.5,58c5.8,2.2,7.4,8.4,5.6,12.4c-0.2,0-0.9-0.1-1.2-0.1c1-4.7-0.5-8.5-8.5-10.5
	C24.7,58.8,29,56.7,32.5,58"/>
<path fill="#1972B1" d="M20,70.8c-0.1,0.2-0.7,0.5-1,0.3c-0.3-0.1-0.7,0.2-0.2,0.5c0.5,0.3,1.4,0.1,1.6-0.2c0,0.1,0,0.2,0,0.2l0.9,0
	l-0.1-0.8L20,70.8z"/>
<path fill="#1972B1" d="M24.3,58c-5.9,2.8-6.2,8.4-4.3,12.4c0.2,0,0.9-0.1,1.2-0.1c-1-4.7,0.4-8.1,7.3-10.5
	C31.9,58.4,27.6,56.4,24.3,58"/>
<path fill="#1972B1" d="M20.4,40.7c2.9-0.9,2.9,4.1-0.8,4.4c-12.2,0.9-9-10,2.8-11.5l0.2,1.1C13.6,36.4,14.2,42.6,20.4,40.7"/>
<path fill="#1972B1" d="M37.1,41c-2.9-0.9-3.2,3.8,0.5,4.1c12.2,0.9,5.3-14.9-4.3-12.8l0.3,1.1C41.6,32.9,43.3,42.9,37.1,41"/>
<path fill="#1972B1" d="M15.4,67.7c0.9-0.3,1.6-0.2,2.1,0.4c0.5,0.6,0.9,1.1,0.9,1.1L18,69.4c0,0,0.1,0.3,0.2,0.4
	c0,0.1,0,0.2-0.1,0.3c0.1,0,0.2,0,0.3,0.2c0.1,0.2,0,0.3,0,0.3c0.1,0.1,0.6,1.3,0.6,1.3l-4,1.2c0,0-0.6-2.8-0.8-3.5
	C13.9,68.7,14.4,68.1,15.4,67.7"/>
<path fill="#1972B1" d="M17.4,68.5c0.1,0.1,0,0.2-0.1,0.3c-0.1,0.1-0.2,0-0.3-0.1c-0.1-0.1,0-0.2,0.1-0.3
	C17.2,68.4,17.3,68.4,17.4,68.5"/>
<path fill="#1972B1" d="M16.9,68.7c0.1,0.1,0,0.2-0.1,0.3c-0.1,0.1-0.2,0-0.3-0.1c-0.1-0.1,0-0.2,0.1-0.3
	C16.7,68.5,16.8,68.6,16.9,68.7"/>
<path fill="#1972B1" d="M14,68.3c-0.2-0.5,0.2-1,0.7-1.1c0.5-0.1,0.9-0.3,0.7-0.6c0.5,0.2,0.7,0.8,0.5,1.2c-0.3,0.4-1,0.7-1.6,0.9
	c0.2,0.2,0.2,1.3-0.1,1.4C13.6,69.8,13.3,68.6,14,68.3"/>
<path fill="#1972B1" d="M8.5,72.9c2-0.7,5.6-1.1,8.3-1.1c2.8,0,6.1,0.4,8.4,1.3c2.1,0.9-1,18.5-1,18.5h-7.4H9.5
	C9.5,91.6,6.4,73.6,8.5,72.9"/>
<polygon fill="#1972B1" points="17.6,72.8 16.2,72.8 16.4,71.8 17.3,71.8 "/>
<path fill="#1972B1" d="M16.5,72.8h0.8c0,0,0.3,2,1,5.7c-0.6,0.6-1.4,1.4-1.4,1.4s-1.1-1-1.4-1.4C16,75.4,16.5,72.8,16.5,72.8"/>
<path fill="#1972B1" d="M8.5,72.9c2.9-0.9,2.9,4.1-0.8,4.4c-12.2,0.9-9-10,2.8-11.5l0.1,1.1C1.8,68.6,2.4,74.8,8.5,72.9"/>
<path fill="#1972B1" d="M25.3,73.1c-2.9-0.9-3.2,3.8,0.5,4.1c12.2,0.9,5.3-14.9-4.3-12.8l0.3,1.1C29.8,65.1,31.4,75,25.3,73.1"/>
</svg>
