<?xml version="1.0" encoding="utf-8"?>
<!-- Generator: Adobe Illustrator 13.0.0, SVG Export Plug-In  -->
<!DOCTYPE svg [
	<!ENTITY ns_flows "http://ns.adobe.com/Flows/1.0/">
]>
<svg version="1.2" baseProfile="tiny"
	 xmlns="http://www.w3.org/2000/svg" xmlns:xlink="http://www.w3.org/1999/xlink" xmlns:a="http://ns.adobe.com/AdobeSVGViewerExtensions/3.0/"
	 x="0px" y="0px" width="197px" height="459px" viewBox="-0.6 0 197 459" xml:space="preserve">
<defs>
</defs>
<path fill="none" stroke="#2E74A6" stroke-width="4" d="M155.1,286.7h9.5c16.2,0,29.5-13.3,29.5-29.5v-109
	c0-16.2-13.3-29.5-29.5-29.5h-37.1L98,200.2l-29.5-81.5h-37C15.3,118.6,2,131.9,2,148.2v109c0,16.3,13.3,29.5,29.5,29.5H41v17.7v123
	c0,16.3,13.2,29.5,29.5,29.5c12.5,0,23.2-7.9,27.5-18.9c4.3,11.1,14.9,18.9,27.5,18.9c16.3,0,29.5-13.2,29.5-29.5v-123V286.7z"/>
<path fill="none" stroke="#2E74A6" stroke-width="4" d="M112.5,96.1c19.5-6.2,33.8-24.3,33.8-45.8C146.3,23.6,124.7,2,98,2
	S49.8,23.6,49.8,50.3c0,21.6,14.2,39.6,33.7,45.8c4.6,1.5,9.4,2.5,14.5,2.5C103.1,98.6,107.9,97.6,112.5,96.1"/>
</svg>
