<?xml version="1.0" encoding="utf-8"?>
<!-- Generator: Adobe Illustrator 13.0.0, SVG Export Plug-In  -->
<!DOCTYPE svg [
	<!ENTITY ns_flows "http://ns.adobe.com/Flows/1.0/">
]>
<svg version="1.2" baseProfile="tiny"
	 xmlns="http://www.w3.org/2000/svg" xmlns:xlink="http://www.w3.org/1999/xlink" xmlns:a="http://ns.adobe.com/AdobeSVGViewerExtensions/3.0/"
	 x="0px" y="0px" width="154px" height="153px" viewBox="-1 -0.062 154 153" xml:space="preserve">
<defs>
</defs>
<path fill="#1971B0" d="M76.47,0C34.237,0,0,34.234,0,76.47c0,42.232,34.237,76.468,76.47,76.468s76.468-34.236,76.468-76.468
	C152.938,34.234,118.704,0,76.47,0 M103.457,124.329c-7.852,5.959-17.813,8.938-29.882,8.938c-14.936,0-27.211-5.102-36.827-15.306
	c-9.616-10.204-14.424-24.155-14.424-41.852c0-18.72,4.834-33.259,14.501-43.617C46.491,22.135,59.2,16.956,74.955,16.956
	c13.758,0,24.935,4.066,33.527,12.199c5.115,4.808,8.951,11.713,11.508,20.715l-22.479,5.371c-1.33-5.831-4.105-10.435-8.325-13.81
	c-4.219-3.376-9.348-5.064-15.382-5.064c-8.338,0-15.102,2.992-20.293,8.976c-5.192,5.985-7.787,15.678-7.787,29.078
	c0,14.22,2.556,24.348,7.672,30.382c5.114,6.036,11.764,9.054,19.947,9.054c6.036,0,11.227-1.918,15.576-5.754
	c4.347-3.837,7.467-9.871,9.359-18.106l22.02,6.981C116.921,109.253,111.308,118.371,103.457,124.329"/>
</svg>
