<?xml version="1.0" encoding="iso-8859-1"?>
<!-- Generator: Adobe Illustrator 13.0.0, SVG Export Plug-In  -->
<!DOCTYPE svg [
	<!ENTITY ns_flows "http://ns.adobe.com/Flows/1.0/">
]>
<svg version="1.2" baseProfile="tiny"
	 xmlns="http://www.w3.org/2000/svg" xmlns:xlink="http://www.w3.org/1999/xlink" xmlns:a="http://ns.adobe.com/AdobeSVGViewerExtensions/3.0/"
	 x="0px" y="0px" width="109px" height="110px" viewBox="-0.3 -0.6 109 110" xml:space="preserve">
<defs>
</defs>
<path fill="#1972B0" d="M54.3,0C24.3,0,0,24.3,0,54.3c0,30,24.3,54.3,54.3,54.3c30,0,54.3-24.3,54.3-54.3C108.7,24.3,84.4,0,54.3,0
	 M58,86.6v9.9h-9.5v-9.2C42,87,35.7,85.3,32,83.1l2.9-11.4C39,74,44.7,76,51,76c5.5,0,9.3-2.1,9.3-6c0-3.7-3.1-6-10.3-8.5
	C39.7,58,32.5,53.2,32.5,43.7c0-8.6,6-15.3,16.4-17.3v-9.3h9.5v8.6c6.5,0.3,10.9,1.7,14.1,3.2l-2.8,11c-2.5-1.1-7-3.3-14-3.3
	c-6.3,0-8.4,2.7-8.4,5.5c0,3.2,3.4,5.3,11.7,8.4c11.6,4.1,16.3,9.4,16.3,18.2C75.4,77.3,69.2,84.7,58,86.6"/>
<polygon fill="#DEDDDC" points="103,106.8 5.6,9.3 8,6.9 105.4,104.4 "/>
<polygon fill="#DEDDDC" points="8,106.8 5.6,104.4 103,6.9 105.4,9.3 "/>
</svg>
