<?xml version="1.0" encoding="iso-8859-1"?>
<!-- Generator: Adobe Illustrator 13.0.0, SVG Export Plug-In  -->
<!DOCTYPE svg [
	<!ENTITY ns_flows "http://ns.adobe.com/Flows/1.0/">
]>
<svg version="1.2" baseProfile="tiny"
	 xmlns="http://www.w3.org/2000/svg" xmlns:xlink="http://www.w3.org/1999/xlink" xmlns:a="http://ns.adobe.com/AdobeSVGViewerExtensions/3.0/"
	 x="0px" y="0px" width="143px" height="152px" viewBox="-0.2 -0.7 143 152" xml:space="preserve">
<defs>
</defs>
<path fill="#DEDDDC" d="M81.8,69.6c14.4-4.6,25-17.9,25-33.9C106.7,16,90.8,0,71,0C51.3,0,35.3,16,35.3,35.7
	c0,15.9,10.5,29.3,25,33.9c3.4,1.1,7,1.8,10.7,1.8C74.8,71.4,78.3,70.7,81.8,69.6"/>
<path fill="#1972B0" d="M60.4,33.5c0,1.7-1.4,3.1-3.1,3.1c-1.7,0-3.1-1.4-3.1-3.1s1.4-3.1,3.1-3.1C59,30.4,60.4,31.8,60.4,33.5"/>
<path fill="#1972B0" d="M84.7,33.5c0,1.7-1.4,3.1-3.1,3.1c-1.7,0-3.1-1.4-3.1-3.1s1.4-3.1,3.1-3.1C83.3,30.4,84.7,31.8,84.7,33.5"/>
<path fill="#DEDDDC" d="M142.1,95.7c0-12-9.8-21.8-21.8-21.8H92.8L71,134.2L49.2,73.9H21.8C9.8,73.9,0,83.7,0,95.7v55.5h142.1V95.7z
	"/>
</svg>
