<?xml version="1.0" encoding="iso-8859-1"?>
<!-- Generator: Adobe Illustrator 13.0.0, SVG Export Plug-In  -->
<!DOCTYPE svg [
	<!ENTITY ns_flows "http://ns.adobe.com/Flows/1.0/">
]>
<svg version="1.2" baseProfile="tiny"
	 xmlns="http://www.w3.org/2000/svg" xmlns:xlink="http://www.w3.org/1999/xlink" xmlns:a="http://ns.adobe.com/AdobeSVGViewerExtensions/3.0/"
	 x="0px" y="0px" width="138px" height="144px" viewBox="-0.8 -0.5 138 144" xml:space="preserve">
<defs>
</defs>
<path fill="#1972B1" d="M103.7,143.4H0V0h103.7V143.4z M3.1,140.3h97.6V3.1H3.1V140.3z"/>
<path fill="#1972B1" d="M131.4,77.1l-8.5-8.5l-35.2,35.2l-6.1,13.4c-0.2,0.4-0.1,0.9,0.2,1.2c0.2,0.2,0.5,0.3,0.7,0.3
	c0.2,0,0.3,0,0.5-0.1l13.2-6.3L131.4,77.1z"/>
<path fill="#1972B1" d="M134.6,65.4c-1.2-1.2-2.7-1.8-4.3-1.8c-1.5,0-3.1,0.6-4.2,1.8l-1,1l8.5,8.5l1-1
	C136.9,71.6,136.9,67.7,134.6,65.4"/>
<path fill="#1972B1" d="M49.2,130c-2.5,0-4.1-0.7-4.9-2.2c-0.3-0.7-0.5-1.4-0.4-2.3c-1.1-0.5-2-1.1-2.6-1.9c-1-1.6-0.6-3.6,1.5-6
	c0.2-0.2,0.3-0.3,0.4-0.5l-0.5-0.1c-0.6,0.5-1.3,1-1.9,1.6l-0.9-1c0.4-0.3,0.8-0.7,1.1-1l-8.6-2.1L56,108l-1.5,1.7
	c-1.4,1.6-3.7,4.5-5.7,7.5l4,1l0.1,0.3c0.5,0.9,3,5.5,3,6.9c0,0.7-0.8,0.9-1.1,1c-1.7,0.5-6.3,0.7-9.8-0.3c0,0.5,0.1,0.9,0.3,1.2
	c0.7,1.3,2.5,1.7,5.5,1.3c6.1-0.7,10.3-2.6,12.5-5.5c1-1.4,1.3-2.8,1.4-3.8c-1.2-0.7-2.7-1.6-4.4-2.9c-2.8-2.1-3.2-2.4-2.7-3.1
	c0.4-0.6,0.5-0.8,8.1,4l0.2,0.2l0.1,0.3c0,0,0.1,0.3,0.1,0.8c3.3,1.7,4.5,1.1,4.5,1.1l0.7-0.5c-0.8-1.3-1.8-2.6-3.1-3.7l0.9-1
	c1.4,1.2,2.4,2.5,3.3,3.9l0.7-0.5l-0.5,0.9c0.5,0.8,1,1.6,1.4,2.3c0,0.1,0,0.1,0.1,0.1c2.8-2.4,4.5-4.1,5.7-5.3c1.4-1.5,2-2,2.7-1.8
	c0.6,0.1,0.8,0.8,0.9,1.1c0.5,1.6-0.2,5.9-1.8,8.6c-0.9,1.6-2,2.5-3.3,2.7c-2,0.4-3.3-1.1-4.5-3.2c-2.6,2.2-4,2.8-4.8,2.1
	c-0.7-0.6-0.4-2,0.7-4.2c-0.8,0-2-0.3-3.7-1.1c-0.2,1.1-0.6,2.5-1.6,3.9c-2.3,3.3-6.8,5.3-13.4,6.1C50.5,129.9,49.8,130,49.2,130
	 M45.3,124.7c3.3,1,8.2,0.8,9.4,0.3c-0.2-1-1.5-3.5-2.7-5.7l-3.9-0.9C46.8,120.6,45.6,122.9,45.3,124.7 M74.9,122.2
	c1.2,1.9,2.1,3,3.3,2.8c1.1-0.2,1.9-1.2,2.4-2.1c1.6-2.6,2-6.5,1.7-7.5c0,0,0,0,0-0.1c-0.3,0.2-0.8,0.8-1.4,1.3
	C79.6,117.9,77.8,119.7,74.9,122.2 M44.6,117.5c-0.3,0.3-0.5,0.6-0.9,1c-1.7,2-2.1,3.6-1.1,4.7c0.4,0.4,0.9,0.7,1.4,1
	c0.4-1.9,1.4-4.1,2.7-6.2L44.6,117.5z M72,119.8l-0.3,0.6c-0.9,1.5-1.5,3-1.6,3.7c0.3-0.1,1.2-0.5,3.2-2.1c-0.1-0.1-0.1-0.2-0.2-0.3
	C72.6,121,72.3,120.4,72,119.8 M45.5,116.4l2,0.5c1.6-2.5,3.4-4.9,4.7-6.4l-14.5,4l4.6,1.1c3.5-2.7,3.9-2.3,4.2-2
	C47,114,47,114.4,45.5,116.4 M44,116l0.1,0c0.1-0.1,0.2-0.2,0.3-0.3C44.3,115.8,44.1,115.9,44,116"/>
<path fill="#1972B1" d="M18.5,18.5l2.2,0.7c-0.3,1.2-0.9,2.1-1.7,2.7c-0.8,0.6-1.8,0.9-3,0.9c-1.5,0-2.7-0.5-3.6-1.5
	c-1-1-1.4-2.4-1.4-4.1c0-1.9,0.5-3.3,1.4-4.3c1-1,2.2-1.5,3.8-1.5c1.4,0,2.5,0.4,3.3,1.2c0.5,0.5,0.9,1.2,1.1,2l-2.2,0.5
	c-0.1-0.6-0.4-1-0.8-1.4c-0.4-0.3-0.9-0.5-1.5-0.5c-0.8,0-1.5,0.3-2,0.9c-0.5,0.6-0.8,1.5-0.8,2.9c0,1.4,0.3,2.4,0.8,3
	c0.5,0.6,1.2,0.9,2,0.9c0.6,0,1.1-0.2,1.5-0.6C18,19.9,18.3,19.4,18.5,18.5"/>
<path fill="#1972B1" d="M21.5,17.1c0-1.1,0.2-2.1,0.5-2.9c0.3-0.6,0.6-1.1,1-1.5c0.4-0.5,0.9-0.8,1.4-1c0.7-0.3,1.5-0.4,2.4-0.4
	c1.6,0,2.9,0.5,3.9,1.5c1,1,1.5,2.4,1.5,4.2c0,1.8-0.5,3.2-1.5,4.2c-1,1-2.3,1.5-3.9,1.5c-1.7,0-3-0.5-3.9-1.5
	C22,20.3,21.5,18.9,21.5,17.1 M23.8,17.1c0,1.3,0.3,2.2,0.9,2.9c0.6,0.6,1.3,1,2.2,1c0.9,0,1.6-0.3,2.2-1c0.6-0.6,0.9-1.6,0.9-2.9
	c0-1.3-0.3-2.2-0.8-2.9c-0.6-0.6-1.3-0.9-2.2-0.9c-0.9,0-1.7,0.3-2.2,0.9C24.1,14.8,23.8,15.8,23.8,17.1"/>
<polygon fill="#1972B1" points="33.4,22.6 33.4,11.5 35.6,11.5 40.2,18.9 40.2,11.5 42.3,11.5 42.3,22.6 40,22.6 35.5,15.4 
	35.5,22.6 "/>
<polygon fill="#1972B1" points="46.5,22.6 46.5,13.4 43.2,13.4 43.2,11.5 52,11.5 52,13.4 48.8,13.4 48.8,22.6 "/>
<path fill="#1972B1" d="M52.9,22.6V11.5h4.7c1.2,0,2.1,0.1,2.6,0.3c0.5,0.2,1,0.6,1.3,1.1c0.3,0.5,0.5,1.1,0.5,1.8
	c0,0.8-0.2,1.5-0.7,2.1c-0.5,0.5-1.2,0.9-2.2,1c0.5,0.3,0.9,0.6,1.2,0.9c0.3,0.3,0.7,0.9,1.3,1.8l1.4,2.2h-2.7l-1.6-2.4
	c-0.6-0.9-1-1.4-1.2-1.6c-0.2-0.2-0.4-0.4-0.7-0.5C56.5,18,56.1,18,55.6,18h-0.5v4.6H52.9z M55.1,16.2h1.7c1.1,0,1.8,0,2-0.1
	c0.3-0.1,0.5-0.3,0.6-0.5c0.2-0.2,0.2-0.5,0.2-0.8c0-0.4-0.1-0.7-0.3-0.9c-0.2-0.2-0.5-0.4-0.8-0.4c-0.2,0-0.7,0-1.6,0h-1.8V16.2z"
	/>
<path fill="#1972B1" d="M73.5,22.6h-2.4l-1-2.5h-4.5l-0.9,2.5h-2.4l4.3-11.1H69L73.5,22.6z M69.4,18.2l-1.5-4.1l-1.5,4.1H69.4z"/>
<path fill="#1972B1" d="M81.2,18.5l2.2,0.7c-0.3,1.2-0.9,2.1-1.7,2.7c-0.8,0.6-1.8,0.9-3,0.9c-1.5,0-2.7-0.5-3.6-1.5
	c-0.9-1-1.4-2.4-1.4-4.1c0-1.9,0.5-3.3,1.4-4.3c1-1,2.2-1.5,3.8-1.5c1.4,0,2.5,0.4,3.3,1.2c0.5,0.5,0.9,1.2,1.1,2l-2.2,0.5
	c-0.1-0.6-0.4-1-0.8-1.4c-0.4-0.3-0.9-0.5-1.5-0.5c-0.8,0-1.5,0.3-2,0.9C76.2,14.7,76,15.7,76,17c0,1.4,0.3,2.4,0.8,3
	c0.5,0.6,1.2,0.9,2,0.9c0.6,0,1.1-0.2,1.5-0.6C80.7,19.9,81,19.4,81.2,18.5"/>
<polygon fill="#1972B1" points="87.2,22.6 87.2,13.4 83.9,13.4 83.9,11.5 92.7,11.5 92.7,13.4 89.4,13.4 89.4,22.6 "/>
<rect x="17.3" y="132.6" fill="#1972B1" width="74" height="0.9"/>
</svg>
