<?xml version="1.0" encoding="iso-8859-1"?>
<!-- Generator: Adobe Illustrator 13.0.0, SVG Export Plug-In  -->
<!DOCTYPE svg [
	<!ENTITY ns_flows "http://ns.adobe.com/Flows/1.0/">
]>
<svg version="1.2" baseProfile="tiny"
	 xmlns="http://www.w3.org/2000/svg" xmlns:xlink="http://www.w3.org/1999/xlink" xmlns:a="http://ns.adobe.com/AdobeSVGViewerExtensions/3.0/"
	 x="0px" y="0px" width="100px" height="149px" viewBox="-0.6 0 100 149" xml:space="preserve">
<defs>
</defs>
<path fill="#1972B0" d="M76.9,22.4C75.2,9.8,64.4,0,51.3,0c-1.2,0-2.4,0.1-3.6,0.3C46.5,0.1,45.2,0,44,0C30.9,0,20.1,9.8,18.4,22.4
	H0v126.2h98.9V22.4H76.9z M47.6,2.8c10,1.6,18,9.5,19.5,19.6h-39C29.7,12.3,37.6,4.4,47.6,2.8 M74.4,22.4h-4.7
	C68.5,14,63.4,6.9,56.2,3C65.6,5.1,72.9,12.8,74.4,22.4 M39.1,3C31.9,6.9,26.8,14,25.6,22.4h-4.7C22.4,12.8,29.7,5.1,39.1,3"/>
</svg>
