<?xml version="1.0" encoding="iso-8859-1"?>
<!-- Generator: Adobe Illustrator 13.0.0, SVG Export Plug-In  -->
<!DOCTYPE svg PUBLIC "-//W3C//DTD SVG 1.1 Tiny//EN" "http://www.w3.org/Graphics/SVG/1.1/DTD/svg11-tiny.dtd" [
	<!ENTITY ns_flows "http://ns.adobe.com/Flows/1.0/">
]>
<svg version="1.1" baseProfile="tiny"
	 xmlns="http://www.w3.org/2000/svg" xmlns:xlink="http://www.w3.org/1999/xlink" xmlns:a="http://ns.adobe.com/AdobeSVGViewerExtensions/3.0/"
	 x="0px" y="0px" width="107px" height="112px" viewBox="-0.2 -0.7 107 112" xml:space="preserve">
<defs>
</defs>
<path fill="#1972B1" d="M37.7,13.1c2.5-0.8,4.4-0.6,5.8,1c1.4,1.6,2.5,3,2.5,3l-1.4,0.4c0,0,0.3,0.7,0.5,1c0.1,0.3-0.1,0.5-0.4,0.7
	c0.3,0,0.6,0.1,0.7,0.4c0.2,0.4-0.1,0.7,0,0.9c0.2,0.4,1.5,3.5,1.5,3.5l-10.8,3.4c0,0-1.6-7.6-2-9.3C33.5,15.7,34.8,14,37.7,13.1"/>
<path fill="#1972B1" d="M42.8,15.2c0.2,0.3,0.1,0.6-0.2,0.8c-0.3,0.2-0.6,0.1-0.8-0.2c-0.2-0.3-0.1-0.6,0.2-0.8
	C42.3,14.8,42.7,14.9,42.8,15.2"/>
<path fill="#1972B1" d="M41.5,15.6c0.2,0.3,0.1,0.6-0.2,0.8c-0.3,0.2-0.6,0.1-0.8-0.2c-0.2-0.3-0.1-0.6,0.2-0.8
	C41,15.2,41.3,15.3,41.5,15.6"/>
<path fill="#1972B1" d="M33.6,14.5c-0.4-1.3,0.6-2.8,2-3c1.4-0.2,2.3-0.9,2-1.5c1.4,0.5,2,2.2,1.3,3.3c-0.8,1.1-2.8,2-4.3,2.4
	c0.5,0.6,0.5,3.5-0.2,3.8C32.8,18.8,31.8,15.4,33.6,14.5"/>
<path fill="#1972B1" d="M19,27c5.4-1.8,15.1-3,22.5-3c7.4,0,16.4,1,22.7,3.6c5.7,2.4-2.7,49.9-2.7,49.9h-20h-20
	C21.5,77.5,13.2,29,19,27"/>
<polygon fill="#1972B1" points="43.4,26.6 39.6,26.6 40.2,23.9 42.7,23.9 "/>
<path fill="#1972B1" d="M40.4,26.6h2.2c0,0,0.9,5.4,2.7,15.3c-1.5,1.5-3.8,3.9-3.8,3.9s-2.8-2.8-3.8-3.9
	C39.2,33.8,40.4,26.6,40.4,26.6"/>
<path fill="#1972B1" d="M66.5,108c0.2,0.5,1.9,1.2,2.7,0.9c0.8-0.4,1.8,0.6,0.4,1.3c-1.4,0.7-3.8,0.2-4.3-0.6c0,0.3,0,0.6,0,0.6
	l-2.3-0.1l0.4-2.3L66.5,108z"/>
<path fill="#1972B1" d="M51.6,73.5c15.7,5.9,20,22.8,15,33.4c-0.6-0.1-2.4-0.2-3.2-0.3c2.8-12.7-1.4-22.9-23-28.4
	C30.8,75.6,42.2,69.9,51.6,73.5"/>
<path fill="#1972B1" d="M18,108c-0.2,0.5-1.9,1.2-2.7,0.9c-0.8-0.4-1.8,0.6-0.4,1.3c1.4,0.7,3.8,0.2,4.3-0.6c0,0.3,0,0.6,0,0.6
	l2.3-0.1l-0.4-2.3L18,108z"/>
<path fill="#1972B1" d="M29.5,73.5C13.7,81,12.8,96.3,17.8,106.9c0.6-0.1,2.4-0.2,3.2-0.3c-2.8-12.7,1-21.8,19.6-28.4
	C50.1,74.8,38.6,69.2,29.5,73.5"/>
<path fill="#1972B1" d="M6.8,81.4c-0.1,1.5-0.7,3-1.2,3.5c-0.5,0.5-1-0.1-0.8-0.7c0.3-0.7,0.4-1.3,0.4-1.3s-3.2,0.7-4.1,2
	c-0.6,0.8-1.4,0.7-1.1,0c0.9-2.3,2.6-3,4-4.8C5,78.8,7.2,80.1,6.8,81.4"/>
<path fill="#1972B1" d="M26.4,33.7c2.5-7.6-9-9.4-10.4-1.8c-2,10.9-2.8,29.7-11.5,47.3l2.7,1.4C17.9,64.5,20.9,50.3,26.4,33.7"/>
<path fill="#1972B1" d="M63.6,29.5c-0.8-8.2-13.1-4-9.9,5.6c10.8,31.8,43.4-2.7,27.6-24.7l-2.5,1.9C88.8,32.3,65.4,47.2,63.6,29.5"
	/>
<path fill="#1972B1" d="M80.2,10.8c2.3-1.2,4.8-1.6,5.9-1.5c1.1,0.1,0.6,1.4-0.5,1.6c-1.2,0.2-2.2,0.6-2.2,0.6s3.4,3.5,6,3.5
	c1.6,0,2,1.1,0.8,1.4c-4,0.9-6.4-0.8-10-1C77.8,15.2,78,11.3,80.2,10.8"/>
<rect x="60.9" y="10" fill="#1972B1" width="45.5" height="1.9"/>
<rect x="67.2" fill="#1972B1" width="5.2" height="11.3"/>
<path fill="#1972B1" d="M74.2,6.1c0,0,7.7,8.8,24.8-0.2L74.2,6.1z"/>
</svg>
