<?xml version="1.0" encoding="iso-8859-1"?>
<!-- Generator: Adobe Illustrator 13.0.0, SVG Export Plug-In  -->
<!DOCTYPE svg [
	<!ENTITY ns_flows "http://ns.adobe.com/Flows/1.0/">
]>
<svg version="1.2" baseProfile="tiny"
	 xmlns="http://www.w3.org/2000/svg" xmlns:xlink="http://www.w3.org/1999/xlink" xmlns:a="http://ns.adobe.com/AdobeSVGViewerExtensions/3.0/"
	 x="0px" y="0px" width="72px" height="151px" viewBox="-0.7 -0.6 72 151" xml:space="preserve">
<defs>
</defs>
<path fill="#1972B0" d="M67.6,12.1h-9.4V2c0-1.1-0.9-2-2-2H14.5c-1.1,0-2,0.9-2,2v10.1H3.1c-1.7,0-3.1,1.4-3.1,3.1v131.9
	c0,1.7,1.4,3.1,3.1,3.1h64.5c1.7,0,3.1-1.4,3.1-3.1V15.2C70.7,13.5,69.3,12.1,67.6,12.1 M11.9,128.3H3.3v-8.6h8.6V128.3z
	 M11.9,108.5H3.3v-8.6h8.6V108.5z M11.9,89.2H3.3v-8.6h8.6V89.2z M11.9,68.8H3.3v-8.6h8.6V68.8z M11.9,49H3.3v-8.6h8.6V49z
	 M11.9,27.6H3.3V19h8.6V27.6z M23.1,128.3h-8.6v-8.6h8.6V128.3z M23.1,108.5h-8.6v-8.6h8.6V108.5z M23.1,89.2h-8.6v-8.6h8.6V89.2z
	 M23.1,68.8h-8.6v-8.6h8.6V68.8z M23.1,49h-8.6v-8.6h8.6V49z M23.1,27.6h-8.6V19h8.6V27.6z M34.3,128.3h-8.6v-8.6h8.6V128.3z
	 M34.3,108.5h-8.6v-8.6h8.6V108.5z M34.3,89.2h-8.6v-8.6h8.6V89.2z M34.3,68.8h-8.6v-8.6h8.6V68.8z M34.3,49h-8.6v-8.6h8.6V49z
	 M34.3,27.6h-8.6V19h8.6V27.6z M45.4,128.3h-8.6v-8.6h8.6V128.3z M45.4,108.5h-8.6v-8.6h8.6V108.5z M45.4,89.2h-8.6v-8.6h8.6V89.2z
	 M45.4,68.8h-8.6v-8.6h8.6V68.8z M45.4,49h-8.6v-8.6h8.6V49z M45.4,27.6h-8.6V19h8.6V27.6z M56.6,128.3H48v-8.6h8.6V128.3z
	 M56.6,108.5H48v-8.6h8.6V108.5z M56.6,89.2H48v-8.6h8.6V89.2z M56.6,68.8H48v-8.6h8.6V68.8z M56.6,49H48v-8.6h8.6V49z M56.6,27.6
	H48V19h8.6V27.6z M67.8,128.3h-8.6v-8.6h8.6V128.3z M67.8,108.5h-8.6v-8.6h8.6V108.5z M67.8,89.2h-8.6v-8.6h8.6V89.2z M67.8,68.8
	h-8.6v-8.6h8.6V68.8z M67.8,49h-8.6v-8.6h8.6V49z M67.8,27.6h-8.6V19h8.6V27.6z"/>
</svg>
