<?xml version="1.0" encoding="iso-8859-1"?>
<!-- Generator: Adobe Illustrator 13.0.0, SVG Export Plug-In  -->
<!DOCTYPE svg [
	<!ENTITY ns_flows "http://ns.adobe.com/Flows/1.0/">
]>
<svg version="1.2" baseProfile="tiny"
	 xmlns="http://www.w3.org/2000/svg" xmlns:xlink="http://www.w3.org/1999/xlink" xmlns:a="http://ns.adobe.com/AdobeSVGViewerExtensions/3.0/"
	 x="0px" y="0px" width="125px" height="155px" viewBox="-1 -0.8 125 155" xml:space="preserve">
<defs>
</defs>
<path fill="#1972B0" d="M103.1,150.5h-2.8c-1.2,0-2.1-0.9-2.1-2.1V105V68.5c0-1.1-0.9-2.1-2.1-2.1H82.7c-1.2,0-2.1,0.9-2.1,2.1v34.4
	c0,1.1-0.8,1.6-1.8,1L57.9,92c-1-0.6-1.8-0.1-1.8,1v9.9c0,1.1-0.8,1.6-1.8,1L33.4,92c-1-0.6-1.8-0.1-1.8,1v9.9c0,1.1-0.8,1.6-1.8,1
	L8.8,92c-1-0.6-1.8-0.1-1.8,1V105v43.5c0,1.2-0.9,2.1-2.1,2.1H2.1c-1.2,0-2.1,0.8-2.1,1.8c0,1,0.9,1.7,2.1,1.7h101
	c1.2,0,2.1-0.8,2.1-1.7C105.2,151.3,104.2,150.5,103.1,150.5 M34.3,141.7H21.8v-12.5h12.5V141.7z M34.3,125.3H21.8v-12.5h12.5V125.3
	z M58.1,141.7H45.6v-12.5h12.5V141.7z M58.1,125.3H45.6v-12.5h12.5V125.3z M81.9,141.7H69.4v-12.5h12.5V141.7z M81.9,125.3H69.4
	v-12.5h12.5V125.3z"/>
<path fill="#D5D5D5" d="M97.7,59.2c0,1.5-2.2,2.6-4.8,2.6c-2.7,0-4.8-1.2-4.8-2.6c0-1.5,2.2-2.6,4.8-2.6
	C95.5,56.5,97.7,57.7,97.7,59.2"/>
<path fill="#D5D5D5" d="M104.7,48.6c0,2.4-3.5,4.3-7.8,4.3c-4.3,0-7.9-1.9-7.9-4.3c0-2.4,3.5-4.3,7.9-4.3
	C101.2,44.4,104.7,46.3,104.7,48.6"/>
<path fill="#D5D5D5" d="M101.2,35.5c0,3.8-5.7,6.9-12.7,6.9c-7,0-12.7-3.1-12.7-6.9c0-3.8,5.7-6.9,12.7-6.9
	C95.5,28.6,101.2,31.7,101.2,35.5"/>
<path fill="#D5D5D5" d="M123.2,12c0,6.6-9.8,12-21.9,12c-12.1,0-21.9-5.4-21.9-12c0-6.6,9.8-12,21.9-12C113.4,0,123.2,5.4,123.2,12"
	/>
</svg>
