<?xml version="1.0" encoding="iso-8859-1"?>
<!-- Generator: Adobe Illustrator 13.0.0, SVG Export Plug-In  -->
<!DOCTYPE svg PUBLIC "-//W3C//DTD SVG 1.1 Tiny//EN" "http://www.w3.org/Graphics/SVG/1.1/DTD/svg11-tiny.dtd" [
	<!ENTITY ns_flows "http://ns.adobe.com/Flows/1.0/">
]>
<svg version="1.1" baseProfile="tiny"
	 xmlns="http://www.w3.org/2000/svg" xmlns:xlink="http://www.w3.org/1999/xlink" xmlns:a="http://ns.adobe.com/AdobeSVGViewerExtensions/3.0/"
	 x="0px" y="0px" width="63px" height="134px" viewBox="-0.9 0 63 134" xml:space="preserve">
<defs>
</defs>
<path fill="#1972B1" d="M61.7,79.2c0,3.6-13.8,6.6-30.8,6.6c-17,0-30.8-3-30.8-6.6c0-3.6,13.8-6.6,30.8-6.6
	C47.9,72.6,61.7,75.6,61.7,79.2"/>
<path fill="#1972B1" d="M30.9,10.7h1h1v0c1,0,2.1,0.1,3.1,0.1l0.1,0c0,0-1-2.4-1.2-2.7c-0.1-0.1,0.1-0.4,0-0.7
	c-0.1-0.3-0.3-0.3-0.6-0.3c0.2-0.2,0.4-0.3,0.3-0.5c-0.1-0.2-0.3-0.8-0.3-0.8l1.1-0.3c0,0-0.8-1.1-1.9-2.3c-0.9-1-1.9-1.3-3.3-1
	c0,0.2-0.1,0.3-0.2,0.5c-0.6,0.8-2.1,1.5-3.3,1.8C27,4.8,27,7,26.5,7.3c0.2,1,0.5,2.4,0.8,3.6C28.5,10.8,29.8,10.8,30.9,10.7
	L30.9,10.7z M32.4,3.8C32.6,3.7,32.8,3.8,33,4c0.1,0.2,0.1,0.5-0.1,0.6c-0.2,0.1-0.5,0.1-0.6-0.1C32.1,4.3,32.2,4,32.4,3.8
	 M31.4,4.2C31.6,4,31.8,4.1,32,4.3c0.1,0.2,0.1,0.5-0.1,0.6C31.7,5,31.4,5,31.2,4.8C31.1,4.6,31.2,4.3,31.4,4.2"/>
<path fill="#1972B1" d="M32.9,4.6C33.1,4.4,33.1,4.2,33,4c-0.1-0.2-0.4-0.3-0.6-0.1c-0.2,0.1-0.3,0.4-0.1,0.6
	C32.4,4.7,32.7,4.7,32.9,4.6"/>
<path fill="#1972B1" d="M31.9,4.9c0.2-0.1,0.3-0.4,0.1-0.6c-0.1-0.2-0.4-0.3-0.6-0.1c-0.2,0.1-0.3,0.4-0.1,0.6
	C31.4,5,31.7,5,31.9,4.9"/>
<path fill="#1972B1" d="M29,2.3c0.4-0.1,0.8-0.2,1.1-0.3c0.2-0.8-0.3-1.8-1.2-2.1c0.3,0.5-0.5,1-1.5,1.2c-1.1,0.1-1.8,1.3-1.5,2.3
	c-1.4,0.7-0.6,3.3,0.6,3.8c0,0,0,0,0,0c-0.1-0.4-0.2-0.8-0.2-1C25.8,4.3,26.8,3,29,2.3"/>
<path fill="#1972B1" d="M26.6,4.4c1.1-0.3,2.7-1,3.3-1.8c0.1-0.1,0.2-0.3,0.2-0.5c-0.4,0.1-0.7,0.2-1.1,0.3c-2.2,0.7-3.2,2-2.7,3.9
	c0.1,0.2,0.1,0.6,0.2,1C27,7,27,4.8,26.6,4.4"/>
<path fill="#1972B1" d="M20.5,17.4c1.2-0.4,2.5-0.9,3.7-1.5c0,0,2.8,1.9,5.9,2.2c0.6-3.1,0.9-5.3,0.9-5.3h-0.6l0-0.2l-2.7,0.9
	c0,0-0.2-1.1-0.5-2.5c-4.7,0.3-9.6,1.1-12.7,2.2c-0.4,0.1-0.7,0.6-1,1.2C16.2,11.8,21.3,13.3,20.5,17.4"/>
<path fill="#1972B1" d="M50.2,14.4c-0.2-0.5-0.5-0.8-0.8-0.9c-3.7-1.6-8.7-2.4-13.4-2.7l-2.9,0.9l0.2,1h-0.6c0,0,0.7,4.2,2.1,11.7
	c-1.1,1.2-2.9,3-2.9,3s-1.1-1.1-2-2c-0.9,3-2.6,6.1-5.8,7.7c0,0-4.1-1.4-5.9-8.7c-1.3,4.1-2.5,8.1-4,12.1c1,8.2,2.2,15.3,2.2,15.3
	h1.2c1.4-1.2,3-2.2,4.9-3.1c3.3-1.6,7-1.4,9.3-0.6c2.2-0.5,5.1-0.4,7.8,0.6c2.1,0.8,4,1.9,5.6,3.1h2c0,0,1.2-7.1,2.3-15.2
	c-1.9-6-3.4-12-5.3-18.5C43,13.6,47.9,11.8,50.2,14.4"/>
<path fill="#1972B1" d="M30.6,12.5l0.4-1.8c-1.2,0-2.4,0.1-3.6,0.2c0.3,1.4,0.5,2.5,0.5,2.5L30.6,12.5z"/>
<path fill="#1972B1" d="M33.2,11.7l2.9-0.9c-1.1-0.1-2.1-0.1-3.1-0.1L33.2,11.7z"/>
<path fill="#1972B1" d="M30.9,10.7L30.9,10.7c0.3,0,0.7,0,1,0H30.9z"/>
<path fill="#1972B1" d="M32.9,10.7h-1C32.3,10.7,32.6,10.7,32.9,10.7L32.9,10.7z"/>
<polygon fill="#1972B1" points="30.5,12.8 31.1,12.8 32.8,12.8 33.4,12.8 33.2,11.7 30.6,12.5 "/>
<path fill="#1972B1" d="M32,10.7c-0.3,0-0.7,0-1,0l-0.4,1.8l2.6-0.8l-0.2-1C32.6,10.7,32.3,10.7,32,10.7"/>
<path fill="#1972B1" d="M30.2,18.1c0.2,0,0.5,0,0.7,0c0,0,0.2,3.6-0.9,7.4c0.9,0.9,2,2,2,2s1.8-1.8,2.9-3
	c-1.3-7.6-2.1-11.7-2.1-11.7h-1.7C31.1,12.8,30.7,14.9,30.2,18.1"/>
<path fill="#1972B1" d="M53.4,76.1c-0.6,0.3-1.9-0.3-2.1-0.7l-2.4-0.1l-0.3,1.8l1.8,0.1c0,0,0-0.3,0-0.5c0.4,0.6,2.2,1,3.3,0.5
	C54.8,76.6,54,75.8,53.4,76.1"/>
<path fill="#1972B1" d="M31.2,52.5C47.8,56.7,51,64.6,48.9,74.3c0.6,0.1,1.9,0.2,2.4,0.2c3.2-6.7,1.5-16.7-6-22.6h-13
	C32,52.2,31.7,52.3,31.2,52.5"/>
<path fill="#1972B1" d="M32,48.3c2.2,0.8,3,2.4,0.4,3.7h13c-1.6-1.3-3.5-2.3-5.6-3.1C37.1,47.9,34.2,47.8,32,48.3"/>
<path fill="#1972B1" d="M13.8,75.5c-0.2,0.4-1.5,1-2.1,0.7c-0.6-0.3-1.4,0.5-0.3,1c1.1,0.6,2.9,0.1,3.3-0.5c0,0.2,0,0.5,0,0.5
	l1.8-0.1l-0.3-1.8L13.8,75.5z"/>
<path fill="#1972B1" d="M17.8,52c-7.4,6.2-7.3,15.7-4.1,22.6c0.5,0,1.9-0.2,2.4-0.2c-2.1-9.8,0.8-16.8,15.1-21.9
	c-0.6-0.1-1-0.3-1.4-0.5H17.8z"/>
<path fill="#1972B1" d="M32,48.3c-2.2-0.8-5.9-1-9.2,0.6c-1.9,0.9-3.5,2-4.9,3.1h12C26.9,50.7,28.7,49,32,48.3"/>
<path fill="#1972B1" d="M32,52h-2.1c0.4,0.2,0.9,0.3,1.4,0.5c0.4-0.1,0.8-0.3,1.1-0.5H32z"/>
<path fill="#1972B1" d="M29.8,52H32h0.4c2.6-1.3,1.9-2.9-0.4-3.7C28.7,49,26.9,50.7,29.8,52"/>
<path fill="#1972B1" d="M3.2,53.9c-1.1,1.3-2.4,1.9-3.1,3.7c-0.2,0.5,0.4,0.7,0.8,0C1.6,56.6,4,56,4,56s-0.1,0.5-0.3,1
	c-0.2,0.5,0.2,1,0.6,0.6c0.4-0.4,0.8-1.5,0.9-2.7c0.1-0.4,0-0.7-0.3-1l-0.8-0.4C3.8,53.5,3.4,53.6,3.2,53.9"/>
<path fill="#1972B1" d="M13.7,14.3c-0.6,0.6-1.1,1.4-1.3,2.5c-1.5,8.4-2.1,22.9-8.8,36.4l0.6,0.3c0.3,0,0.6,0.2,0.8,0.4l0.7,0.3
	c4-6.1,6.6-11.8,8.7-17.6C13.2,27.9,12.4,17.8,13.7,14.3"/>
<path fill="#1972B1" d="M17.5,18.2c0,0,1.3-0.3,3-0.8c0.8-4.2-4.3-5.6-6.9-3.1c-1.3,3.5-0.4,13.6,0.7,22.4c1.5-4,2.7-8,4-12.1
	C17.9,22.8,17.6,20.7,17.5,18.2"/>
<path fill="#1972B1" d="M4.9,54c-0.2-0.2-0.5-0.4-0.8-0.4L4.9,54z"/>
<path fill="#1972B1" d="M61.8,57c-0.6-1.8-1.8-2.3-2.7-3.7l-1.8,1c0.1,1.2,0.5,2.3,0.8,2.7c0.3,0.4,0.7-0.1,0.5-0.6
	c-0.2-0.5-0.3-1-0.3-1s2.2,0.5,2.8,1.5C61.4,57.7,62,57.6,61.8,57"/>
<path fill="#1972B1" d="M59.1,53.4c-5.9-13.5-6.4-28-7.7-36.4c-0.2-1.1-0.6-1.9-1.1-2.5c1.4,3.2,0.5,13.4-0.6,22.4
	c1.8,5.8,4.1,11.5,7.6,17.6C57,53.4,58.5,52.5,59.1,53.4"/>
<path fill="#1972B1" d="M50.2,14.4c-2.4-2.7-7.2-0.9-5.9,3.9c1.9,6.5,3.3,12.5,5.3,18.5C50.8,27.9,51.6,17.6,50.2,14.4"/>
<path fill="#1972B1" d="M57.3,54.4l1.8-1C58.5,52.5,57,53.4,57.3,54.4"/>
<rect x="27.6" y="80.9" fill="#1972B1" width="6.5" height="52.5"/>
</svg>
