<?xml version="1.0" encoding="iso-8859-1"?>
<!-- Generator: Adobe Illustrator 13.0.0, SVG Export Plug-In  -->
<!DOCTYPE svg PUBLIC "-//W3C//DTD SVG 1.1 Tiny//EN" "http://www.w3.org/Graphics/SVG/1.1/DTD/svg11-tiny.dtd" [
	<!ENTITY ns_flows "http://ns.adobe.com/Flows/1.0/">
]>
<svg version="1.1" baseProfile="tiny"
	 xmlns="http://www.w3.org/2000/svg" xmlns:xlink="http://www.w3.org/1999/xlink" xmlns:a="http://ns.adobe.com/AdobeSVGViewerExtensions/3.0/"
	 x="0px" y="0px" width="77px" height="129px" viewBox="-1 -1 77 129" xml:space="preserve">
<defs>
</defs>
<path fill="#1972B1" d="M39.6,49.2h1.2h1.1l0,0c1.2,0,2.4,0.1,3.6,0.1l0.1,0c0,0-1.2-2.8-1.4-3.1c-0.1-0.2,0.2-0.4,0-0.8
	c-0.1-0.3-0.4-0.4-0.6-0.4c0.3-0.2,0.4-0.4,0.3-0.6c-0.1-0.3-0.4-0.9-0.4-0.9l1.2-0.4c0,0-1-1.3-2.2-2.7c-1-1.1-2.3-1.5-3.9-1.2
	c0,0.2-0.1,0.4-0.3,0.6c-0.7,0.9-2.5,1.7-3.8,2.1c0.4,0.5,0.5,3-0.1,3.4c0.3,1.2,0.6,2.8,0.9,4.2C36.8,49.3,38.2,49.2,39.6,49.2
	L39.6,49.2z M41.2,41.2c0.2-0.2,0.6-0.1,0.7,0.1c0.2,0.2,0.1,0.6-0.1,0.7c-0.2,0.2-0.6,0.1-0.7-0.1C40.9,41.7,41,41.3,41.2,41.2
	 M40.1,41.5c0.2-0.2,0.6-0.1,0.7,0.1c0.2,0.2,0.1,0.6-0.1,0.7c-0.2,0.2-0.6,0.1-0.7-0.1C39.8,42,39.8,41.7,40.1,41.5"/>
<path fill="#1972B1" d="M41.8,42c0.2-0.2,0.3-0.5,0.1-0.7c-0.2-0.2-0.5-0.3-0.7-0.1c-0.2,0.2-0.3,0.5-0.1,0.7
	C41.3,42.1,41.6,42.2,41.8,42"/>
<path fill="#1972B1" d="M40.7,42.4c0.2-0.2,0.3-0.5,0.1-0.7c-0.2-0.2-0.5-0.3-0.7-0.1c-0.2,0.2-0.3,0.5-0.1,0.7
	C40.1,42.5,40.4,42.6,40.7,42.4"/>
<path fill="#1972B1" d="M37.3,39.4c0.5-0.1,0.9-0.2,1.3-0.3c0.2-0.9-0.4-2.1-1.4-2.4c0.3,0.5-0.5,1.2-1.8,1.3
	c-1.2,0.1-2.1,1.5-1.7,2.7c-1.7,0.8-0.8,3.8,0.7,4.5c0,0,0,0,0,0c-0.1-0.5-0.2-0.9-0.3-1.2C33.6,41.7,34.8,40.2,37.3,39.4"/>
<path fill="#1972B1" d="M34.6,41.8c1.3-0.4,3.1-1.2,3.8-2.1c0.1-0.2,0.2-0.4,0.3-0.6c-0.4,0.1-0.8,0.2-1.3,0.3
	c-2.6,0.8-3.8,2.3-3.2,4.5c0.1,0.3,0.2,0.7,0.3,1.2C35.1,44.8,35,42.3,34.6,41.8"/>
<path fill="#1972B1" d="M27.5,57c1.4-0.4,3-1,4.4-1.8c0,0,3.2,2.2,6.9,2.5c0.6-3.6,1.1-6.2,1.1-6.2h-0.7l0.1-0.3l-3.2,1
	c0,0-0.3-1.3-0.6-2.9c-5.4,0.4-11.1,1.3-14.7,2.5c-0.5,0.2-0.8,0.7-1.1,1.4C22.5,50.4,28.4,52.1,27.5,57"/>
<path fill="#1972B1" d="M62,53.5c-0.2-0.6-0.5-0.9-0.9-1.1c-4.3-1.8-10.1-2.8-15.6-3.1l-3.3,1l0.3,1.2h-0.7c0,0,0.8,4.9,2.4,13.7
	c-1.3,1.4-3.4,3.5-3.4,3.5s-1.3-1.2-2.3-2.3c-1,3.5-3,7.1-6.8,9c0,0-3.1-1-5.4-6c-1.2,5.5-3.4,8.6-5.9,9.7c0,0.1-0.1,0.2-0.1,0.2
	c1.2,9.5,2.6,17.8,2.6,17.8h1.4c1.6-1.4,3.5-2.6,5.7-3.6c3.8-1.8,8.2-1.7,10.7-0.7c2.6-0.5,5.9-0.5,9.1,0.7c2.5,0.9,4.6,2.2,6.5,3.6
	h2.3c0,0,1.4-8.2,2.6-17.6c-2.2-6.9-3.9-13.9-6.1-21.5C53.6,52.5,59.3,50.4,62,53.5"/>
<path fill="#1972B1" d="M39.2,51.3l0.4-2.1c-1.4,0-2.8,0.1-4.2,0.2c0.3,1.6,0.6,2.9,0.6,2.9L39.2,51.3z"/>
<path fill="#1972B1" d="M42.2,50.4l3.3-1c-1.2-0.1-2.4-0.1-3.6-0.1L42.2,50.4z"/>
<path fill="#1972B1" d="M39.6,49.2L39.6,49.2c0.4,0,0.8,0,1.2,0H39.6z"/>
<path fill="#1972B1" d="M41.9,49.2h-1.1C41.1,49.2,41.5,49.2,41.9,49.2L41.9,49.2z"/>
<polygon fill="#1972B1" points="39.1,51.6 39.8,51.6 41.8,51.6 42.4,51.6 42.2,50.4 39.2,51.3 "/>
<path fill="#1972B1" d="M40.8,49.2c-0.4,0-0.8,0-1.2,0l-0.4,2.1l3-0.9l-0.3-1.2C41.5,49.2,41.1,49.2,40.8,49.2"/>
<path fill="#1972B1" d="M38.7,57.7c0.3,0,0.6,0,0.9,0c0,0,0.2,4.2-1.1,8.6c1,1.1,2.3,2.3,2.3,2.3s2-2.1,3.4-3.5
	c-1.6-8.8-2.4-13.7-2.4-13.7h-2C39.8,51.6,39.4,54.1,38.7,57.7"/>
<path fill="#1972B1" d="M65.6,125.2c-0.7,0.3-2.2-0.3-2.4-0.8l-2.8-0.2l-0.3,2l2.1,0.1c0,0,0-0.3,0-0.6c0.5,0.7,2.6,1.2,3.8,0.5
	C67.3,125.7,66.3,124.9,65.6,125.2"/>
<path fill="#1972B1" d="M39.9,97.7c19.3,5,23,14.1,20.5,25.4c0.7,0.1,2.3,0.2,2.8,0.3c3.7-7.8,1.7-19.5-7-26.3H41.2
	C40.9,97.3,40.4,97.5,39.9,97.7"/>
<path fill="#1972B1" d="M40.8,92.8c2.6,1,3.5,2.8,0.4,4.3h15.1c-1.9-1.5-4-2.7-6.5-3.6C46.7,92.3,43.3,92.3,40.8,92.8"/>
<path fill="#1972B1" d="M19.7,124.4c-0.2,0.5-1.7,1.1-2.4,0.8c-0.7-0.3-1.6,0.5-0.4,1.2c1.2,0.7,3.4,0.2,3.8-0.5c0,0.3,0,0.6,0,0.6
	l2.1-0.1l-0.3-2L19.7,124.4z"/>
<path fill="#1972B1" d="M24.3,97.1c-8.6,7.3-8.5,18.3-4.7,26.3c0.6-0.1,2.2-0.2,2.8-0.3c-2.5-11.4,0.9-19.5,17.5-25.4
	c-0.6-0.2-1.2-0.4-1.6-0.5H24.3z"/>
<path fill="#1972B1" d="M40.8,92.8c-2.6-1-6.9-1.1-10.7,0.7c-2.2,1.1-4.1,2.3-5.7,3.6h14C34.9,95.7,36.9,93.6,40.8,92.8"/>
<path fill="#1972B1" d="M40.8,97.1h-2.5c0.4,0.2,1,0.4,1.6,0.5c0.5-0.2,0.9-0.4,1.3-0.5H40.8z"/>
<path fill="#1972B1" d="M38.3,97.1h2.5h0.4c3-1.5,2.2-3.3-0.4-4.3C36.9,93.6,34.9,95.7,38.3,97.1"/>
<path fill="#1972B1" d="M18.9,60.8c-0.5-4.2,3.3-5.1,5.9-3.1c0.6-0.2,1.6-0.4,2.7-0.8c0.9-4.8-5-6.5-8-3.6
	c-0.8,2.2-0.9,6.5-0.6,11.7C19.1,63.8,19.1,62.4,18.9,60.8"/>
<path fill="#1972B1" d="M20.3,79.2c0,0.1,0,0.1,0,0.2c0-0.1,0.1-0.2,0.1-0.2C20.3,79.1,20.3,79.1,20.3,79.2"/>
<path fill="#1972B1" d="M9.4,99.4c-0.3-0.3-0.6-0.4-1-0.5L9.4,99.4z"/>
<path fill="#1972B1" d="M75.5,103c-0.7-2-2.1-2.7-3.2-4.3l-2.1,1.2c0.1,1.4,0.6,2.6,0.9,3.1c0.4,0.5,0.8-0.1,0.6-0.7
	c-0.2-0.6-0.3-1.1-0.3-1.1s2.5,0.6,3.2,1.8C75,103.8,75.7,103.6,75.5,103"/>
<path fill="#1972B1" d="M72.3,98.7c-6.8-15.7-7.4-32.6-9-42.3c-0.2-1.2-0.7-2.2-1.3-2.9c1.6,3.7,0.6,15.6-0.7,26
	c2.2,6.7,4.8,13.4,8.9,20.4C69.8,98.8,71.6,97.7,72.3,98.7"/>
<path fill="#1972B1" d="M62,53.5c-2.7-3.1-8.4-1-6.8,4.5c2.2,7.6,3.9,14.6,6.1,21.5C62.6,69.1,63.6,57.2,62,53.5"/>
<path fill="#1972B1" d="M70.2,100l2.1-1.2C71.6,97.7,69.8,98.8,70.2,100"/>
<path fill="#1972B1" d="M5.8,54.4l2.3,0c0,1.2,0.1,2.4,0.2,3.5C8.7,57.7,9,57.2,9,56.7l0.1-7.4c0,0,0,0,0-0.1c0,0.3-0.1,0.5-0.3,0.7
	c-0.4,0.4-1.1,0.4-1.5,0L6.4,49l0,0.5c0,0.6-0.5,1.1-1.1,1.1c-0.6,0-1.1-0.5-1.1-1.1l0-1.6l-1.1,0h0c0.6,0,1,0.5,1,1.1
	c0,0.6-0.5,1.1-1.1,1.1l-1.2,0l0,0.5l1.2,0c0.6,0,1.1,0.5,1.1,1.1c0,0.6-0.5,1.1-1.1,1.1l-1.2,0l0,0.5l1.2,0c0.6,0,1.1,0.5,1.1,1.1
	c0,0.6-0.5,1.1-1.1,1.1l-1.2,0l0,0.5l1.2,0c0.6,0,1.1,0.5,1.1,1.1c0,0.6-0.5,1-1,1.1h0l2.8,0C5.8,56.8,5.8,55.6,5.8,54.4"/>
<path fill="#1972B1" d="M4.3,46.3c0,0,0,0.1,0,0.1v0C4.3,46.4,4.3,46.3,4.3,46.3"/>
<path fill="#1972B1" d="M6.4,48l1.4,0c0.7,0,1.2,0.5,1.3,1.2c0-0.3-0.1-0.6-0.3-0.8l-2.7-2.7c0.2,0.2,0.3,0.5,0.3,0.8L6.4,48z"/>
<path fill="#1972B1" d="M7.9,48l-1.4,0l0,1l0.9,0.9c0.4,0.4,1.1,0.4,1.5,0c0.2-0.2,0.3-0.4,0.3-0.7C9.1,48.6,8.6,48,7.9,48"/>
<path fill="#1972B1" d="M4.6,47.2c-0.2-0.2-0.3-0.5-0.3-0.8l0,1.5l1.1,0L4.6,47.2z"/>
<path fill="#1972B1" d="M6.2,45.7L6.2,45.7c-0.2-0.2-0.5-0.3-0.8-0.3c-0.6,0-1,0.4-1.1,1c0-0.2,0.1-0.5,0.3-0.6
	C5.1,45.2,5.7,45.3,6.2,45.7"/>
<path fill="#1972B1" d="M5.3,50.6c0.6,0,1.1-0.5,1.1-1.1l0-0.5l-1-1l-1.1,0l0,1.6C4.3,50.1,4.8,50.6,5.3,50.6"/>
<path fill="#1972B1" d="M5.4,48l1,0l0-1.6c0-0.3-0.1-0.6-0.3-0.8l0,0c-0.4-0.4-1.1-0.4-1.5,0c-0.2,0.2-0.3,0.4-0.3,0.6
	c0,0,0,0.1,0,0.1v0c0,0.3,0.1,0.5,0.3,0.8L5.4,48z"/>
<polygon fill="#1972B1" points="5.4,48 6.4,49 6.4,48 "/>
<path fill="#1972B1" d="M1.8,56.6l0-0.9l-0.7,0c-0.6,0-1.1,0.5-1.1,1.1c0,0.6,0.5,1.1,1.1,1.1l1.9,0h0C2.3,57.9,1.8,57.3,1.8,56.6"
	/>
<path fill="#1972B1" d="M4.1,56.9c0-0.6-0.5-1.1-1.1-1.1l-1.2,0l0,0.9c0,0.7,0.5,1.3,1.2,1.3C3.6,57.9,4,57.5,4.1,56.9"/>
<path fill="#1972B1" d="M3.1,48L3.1,48l-2,0c-0.6,0-1.1,0.5-1.1,1.1c0,0.6,0.5,1.1,1.1,1.1l0.7,0l0-0.9C1.9,48.5,2.4,48,3.1,48"/>
<path fill="#1972B1" d="M4.1,49c0-0.6-0.4-1-1-1.1c-0.7,0-1.3,0.6-1.3,1.3l0,0.9l1.2,0C3.7,50.1,4.1,49.6,4.1,49"/>
<path fill="#1972B1" d="M1.1,50.5c-0.6,0-1.1,0.5-1.1,1.1c0,0.6,0.5,1.1,1.1,1.1l0.7,0l0-2.1L1.1,50.5z"/>
<path fill="#1972B1" d="M4.1,51.6c0-0.6-0.5-1.1-1.1-1.1l-1.2,0l0,2.1l1.2,0C3.6,52.7,4.1,52.2,4.1,51.6"/>
<path fill="#1972B1" d="M1.1,53.2c-0.6,0-1.1,0.5-1.1,1.1c0,0.6,0.5,1.1,1.1,1.1l0.7,0l0-2.1L1.1,53.2z"/>
<path fill="#1972B1" d="M4.1,54.3c0-0.6-0.5-1.1-1.1-1.1l-1.2,0l0,2.1l1.2,0C3.6,55.3,4.1,54.8,4.1,54.3"/>
<path fill="#1972B1" d="M8.3,57.9C8.1,58,7.9,58,7.7,58l-1.9,0C6.5,73,14.3,81.7,20.3,79.1c-0.6-4.7-1.1-9.7-1.3-14.1
	C18,73.7,9.7,72.3,8.3,57.9"/>
<path fill="#1972B1" d="M20.4,79.1c2.5-1.1,4.7-4.2,5.9-9.7c-0.5-1.2-1-2.5-1.4-4.1C23.4,70,22,74.6,20.4,79.1"/>
<path fill="#1972B1" d="M24.9,65.3c-0.5-2-0.8-4.5-0.9-7.4c0,0,0.3-0.1,0.8-0.2c-2.6-2-6.4-1.1-5.9,3c0.2,1.6,0.2,3,0.1,4.2
	c0.2,4.4,0.8,9.4,1.3,14.1c0,0,0.1,0,0.1,0C22,74.6,23.4,70,24.9,65.3"/>
<path fill="#1972B1" d="M8.3,57.9c-0.1-1.1-0.2-2.3-0.2-3.5l-2.3,0c0,1.2,0,2.4,0,3.6l1.9,0C7.9,58,8.1,58,8.3,57.9"/>
<rect x="2.9" y="7.8" fill="#1972B1" width="1.7" height="119.9"/>
<polygon fill="#1972B1" points="3.8,0 1.1,5.2 3.7,10.2 6.3,5.2 "/>
</svg>
