<?xml version="1.0" encoding="utf-8"?>
<!-- Generator: Adobe Illustrator 13.0.0, SVG Export Plug-In  -->
<!DOCTYPE svg PUBLIC "-//W3C//DTD SVG 1.1//EN" "http://www.w3.org/Graphics/SVG/1.1/DTD/svg11.dtd" [
	<!ENTITY ns_flows "http://ns.adobe.com/Flows/1.0/">
]>
<svg version="1.1"
	 xmlns="http://www.w3.org/2000/svg" xmlns:xlink="http://www.w3.org/1999/xlink" xmlns:a="http://ns.adobe.com/AdobeSVGViewerExtensions/3.0/"
	 x="0px" y="0px" width="19px" height="19px" viewBox="-0.602 -0.523 19 19" enable-background="new -0.602 -0.523 19 19"
	 xml:space="preserve">
<defs>
</defs>
<path fill="#1972B0" d="M16.489,9.603l1.305-0.731L16.482,8.15l1.145-0.966l-1.425-0.459l0.939-1.166l-1.485-0.181l0.702-1.321
	L14.865,4.16l0.44-1.432l-1.447,0.384l0.163-1.488l-1.351,0.649l-0.122-1.49l-1.201,0.893l-0.403-1.442L9.936,1.339L9.267,0
	L8.483,1.276l-0.91-1.189L7.047,1.489L5.928,0.495L5.676,1.969L4.39,1.205l0.03,1.497L3.013,2.193l0.313,1.463L1.849,3.426
	l0.584,1.376L0.938,4.855l0.835,1.242L0.313,6.431l1.055,1.061L0,8.097l1.237,0.842L0.008,9.792l1.373,0.594l-1.046,1.07
	l1.462,0.321l-0.825,1.249l1.495,0.04l-0.573,1.382l1.477-0.244l-0.302,1.465l1.403-0.518l-0.021,1.496l1.282-0.775l0.264,1.474
	l1.11-1.003l0.539,1.396l0.9-1.194l0.793,1.268l0.658-1.344l1.019,1.096l0.391-1.443l1.209,0.883l0.11-1.492l1.354,0.638
	l-0.174-1.485l1.449,0.371l-0.451-1.427l1.493,0.09l-0.714-1.315l1.485-0.194l-0.949-1.156l1.42-0.472L16.489,9.603z M3.468,10.288
	c-0.357,0-0.71-0.093-0.888-0.19l0.145-0.586c0.191,0.097,0.484,0.194,0.787,0.194c0.325,0,0.497-0.135,0.497-0.34
	c0-0.195-0.149-0.307-0.525-0.441c-0.522-0.182-0.862-0.47-0.862-0.927c0-0.535,0.447-0.944,1.188-0.944
	c0.354,0,0.615,0.074,0.802,0.158L4.451,7.783c-0.126-0.06-0.349-0.149-0.656-0.149s-0.456,0.14-0.456,0.303
	c0,0.2,0.177,0.288,0.581,0.442c0.555,0.206,0.815,0.495,0.815,0.936C4.735,9.84,4.33,10.288,3.468,10.288 M7.087,10.241
	L6.846,9.436H5.946l-0.224,0.805H4.987l0.959-3.138h0.931l0.975,3.138H7.087z M10.229,10.241H8.271V7.103h0.711v2.543h1.248V10.241z
	 M12.651,10.241H10.65V7.103h1.936v0.582h-1.225v0.652h1.156v0.578h-1.156v0.746h1.29V10.241z M13.904,10.288
	c-0.358,0-0.712-0.093-0.889-0.19l0.145-0.586c0.19,0.097,0.483,0.194,0.786,0.194c0.326,0,0.498-0.135,0.498-0.34
	c0-0.195-0.148-0.307-0.526-0.441c-0.521-0.182-0.86-0.47-0.86-0.927c0-0.535,0.446-0.944,1.186-0.944
	c0.355,0,0.615,0.074,0.802,0.158l-0.158,0.572c-0.126-0.06-0.348-0.149-0.656-0.149c-0.307,0-0.457,0.14-0.457,0.303
	c0,0.2,0.178,0.288,0.583,0.442c0.553,0.206,0.813,0.495,0.813,0.936C15.17,9.84,14.766,10.288,13.904,10.288"/>
<path fill="#1972B0" d="M6.389,7.634H6.38C6.333,7.82,6.287,8.057,6.235,8.239L6.049,8.905h0.693L6.547,8.239
	C6.491,8.053,6.436,7.82,6.389,7.634"/>
</svg>
