<?xml version="1.0" encoding="iso-8859-1"?>
<!-- Generator: Adobe Illustrator 13.0.0, SVG Export Plug-In  -->
<!DOCTYPE svg [
	<!ENTITY ns_flows "http://ns.adobe.com/Flows/1.0/">
]>
<svg version="1.2" baseProfile="tiny"
	 xmlns="http://www.w3.org/2000/svg" xmlns:xlink="http://www.w3.org/1999/xlink" xmlns:a="http://ns.adobe.com/AdobeSVGViewerExtensions/3.0/"
	 x="0px" y="0px" width="43px" height="128px" viewBox="-0.9 -0.2 43 128" xml:space="preserve">
<defs>
</defs>
<path fill="#1972B1" d="M35.6,0H5.8C2.6,0,0,2.6,0,5.8v116.1c0,3.2,2.6,5.8,5.8,5.8h29.8c3.2,0,5.8-2.6,5.8-5.8V5.8
	C41.4,2.6,38.8,0,35.6,0 M30.8,72.4H10.6c-0.7,0-1.2-0.5-1.2-1.2V14.5c0-0.7,0.5-1.2,1.2-1.2h20.3c0.7,0,1.2,0.5,1.2,1.2v56.7
	C32,71.9,31.5,72.4,30.8,72.4 M31.4,107.3c0,5.9-4.8,10.7-10.7,10.7c-5.9,0-10.7-4.8-10.7-10.7s4.8-10.7,10.7-10.7
	C26.6,96.7,31.4,101.4,31.4,107.3"/>
</svg>
