<?xml version="1.0" encoding="iso-8859-1"?>
<!-- Generator: Adobe Illustrator 13.0.0, SVG Export Plug-In  -->
<!DOCTYPE svg [
	<!ENTITY ns_flows "http://ns.adobe.com/Flows/1.0/">
]>
<svg version="1.2" baseProfile="tiny"
	 xmlns="http://www.w3.org/2000/svg" xmlns:xlink="http://www.w3.org/1999/xlink" xmlns:a="http://ns.adobe.com/AdobeSVGViewerExtensions/3.0/"
	 x="0px" y="0px" width="142px" height="58px" viewBox="-0.9 -1 142 58" xml:space="preserve">
<defs>
</defs>
<path fill="#1972B1" d="M106.3,19.1C100.1,7.9,86.3,0,70.2,0C54.1,0,40.3,7.9,34.1,19.1C13.7,21.9,0,26.9,0,32.6
	c0,5.7,13.8,10.8,34.5,13.5c2.5,0.3,5.2,0.6,7.9,0.9c0-0.2,0-0.3,0-0.5c0-6.4,12.5-11.6,27.8-11.6c15.4,0,27.8,5.2,27.8,11.6
	c0,0.2,0,0.3,0,0.5c2.7-0.3,5.4-0.6,7.9-0.9c20.6-2.7,34.5-7.8,34.5-13.5C140.4,26.9,126.7,21.9,106.3,19.1"/>
<path fill="#1972B1" d="M70.7,36.6c-15.9,0-28.9,4.5-28.9,10.1c0,5.6,12.9,10.1,28.9,10.1c15.9,0,28.9-4.5,28.9-10.1
	C99.6,41.1,86.6,36.6,70.7,36.6 M70.7,53.6c-11,0-19.9-3.1-19.9-6.9c0-3.8,8.9-6.9,19.9-6.9c11,0,19.9,3.1,19.9,6.9
	C90.6,50.5,81.7,53.6,70.7,53.6"/>
</svg>
