<?xml version="1.0" encoding="iso-8859-1"?>
<!-- Generator: Adobe Illustrator 13.0.0, SVG Export Plug-In  -->
<!DOCTYPE svg [
	<!ENTITY ns_flows "http://ns.adobe.com/Flows/1.0/">
]>
<svg version="1.2" baseProfile="tiny"
	 xmlns="http://www.w3.org/2000/svg" xmlns:xlink="http://www.w3.org/1999/xlink" xmlns:a="http://ns.adobe.com/AdobeSVGViewerExtensions/3.0/"
	 x="0px" y="0px" width="118px" height="119px" viewBox="-0.1 -0.8 118 119" xml:space="preserve">
<defs>
</defs>
<polygon fill="#1972B1" points="101.2,99.1 91.7,96.7 92.8,106.5 83.9,102.2 83.2,112.1 75.2,106.3 72.6,115.8 65.9,108.6 
	61.6,117.4 56.3,109.1 50.4,116.9 46.9,107.7 39.5,114.3 37.8,104.6 29.3,109.7 29.5,99.9 20.2,103.3 22.2,93.6 12.5,95.2 
	16.3,86.1 6.4,85.9 11.8,77.6 2.2,75.5 9.1,68.5 0,64.5 8.2,58.9 0,53.4 9,49.4 2.1,42.4 11.7,40.2 6.2,32 16,31.7 12.2,22.6 
	21.9,24.1 19.9,14.5 29.1,17.8 28.9,7.9 37.4,13 39.1,3.3 46.5,9.8 49.9,0.6 55.9,8.4 61.1,0 65.5,8.8 72.2,1.5 74.8,11 82.7,5.2 
	83.5,15 92.4,10.7 91.4,20.5 100.9,18 98,27.4 107.9,26.7 103.2,35.5 113,36.6 106.8,44.3 116.2,47.4 108.7,53.7 117.3,58.5 
	108.7,63.3 116.3,69.6 106.9,72.7 113.2,80.3 103.4,81.6 108.1,90.3 98.3,89.7 "/>
</svg>
