<?xml version="1.0" encoding="iso-8859-1"?>
<!-- Generator: Adobe Illustrator 13.0.0, SVG Export Plug-In  -->
<!DOCTYPE svg [
	<!ENTITY ns_flows "http://ns.adobe.com/Flows/1.0/">
]>
<svg version="1.2" baseProfile="tiny"
	 xmlns="http://www.w3.org/2000/svg" xmlns:xlink="http://www.w3.org/1999/xlink" xmlns:a="http://ns.adobe.com/AdobeSVGViewerExtensions/3.0/"
	 x="0px" y="0px" width="94px" height="149px" viewBox="-0.1 -1 94 149" xml:space="preserve">
<defs>
</defs>
<path fill="#1972B0" d="M93.9,147.7H0V18.3h93.9V147.7z M3.7,144h86.5V22H3.7V144z"/>
<polygon fill="#1972B0" points="45.5,59.8 43.3,59.9 44,62 41.8,61.9 42.1,64 40,63.5 40,65.7 38,64.9 37.7,67.1 35.8,66 35.2,68.1 
	33.5,66.8 32.6,68.8 31,67.3 29.9,69.1 28.6,67.4 27.2,69 26.1,67.1 24.5,68.5 23.8,66.5 21.9,67.7 21.5,65.6 19.5,66.5 19.4,64.3 
	17.3,64.9 17.4,62.8 15.3,63.1 15.8,61 13.6,61 14.4,58.9 12.2,58.6 13.3,56.8 11.2,56.1 12.5,54.4 10.5,53.5 12,52 10.2,50.8 
	11.9,49.5 10.3,48.1 12.2,47.1 10.8,45.5 12.8,44.7 11.6,42.9 13.8,42.4 12.9,40.5 15,40.3 14.4,38.2 16.5,38.4 16.2,36.3 
	18.3,36.7 18.3,34.6 20.4,35.3 20.7,33.2 22.6,34.2 23.2,32.1 24.9,33.4 25.8,31.5 27.3,33 28.5,31.2 29.8,32.9 31.2,31.3 
	32.2,33.2 33.8,31.7 34.6,33.8 36.4,32.6 36.9,34.7 38.8,33.8 39,36 41.1,35.3 40.9,37.5 43,37.2 42.6,39.3 44.7,39.3 44,41.3 
	46.1,41.6 45.1,43.5 47.2,44.1 45.9,45.9 47.8,46.7 46.3,48.3 48.1,49.4 46.4,50.7 48,52.1 46.1,53.2 47.6,54.8 45.5,55.6 
	46.7,57.4 44.6,57.8 "/>
<path fill="#1972B0" d="M42.3,50.1c0,7.3-5.9,13.1-13.2,13.1c-7.3,0-13.1-5.9-13.1-13.1C16,42.9,21.9,37,29.2,37
	C36.4,37,42.3,42.9,42.3,50.1"/>
<path fill="#1972B0" d="M52.8,5.3c0,2.9-2.4,5.3-5.3,5.3c-2.9,0-5.3-2.4-5.3-5.3S44.5,0,47.5,0C50.4,0,52.8,2.4,52.8,5.3"/>
<rect x="29.7" y="-1.4" transform="matrix(0.4526 0.8917 -0.8917 0.4526 28.8525 -19.4138)" fill="#1972B0" width="1.1" height="30.4"/>
<polygon fill="#1972B0" points="76.9,21.2 49.9,7.4 50.4,6.4 77.4,20.2 "/>
</svg>
