<?xml version="1.0" encoding="iso-8859-1"?>
<!-- Generator: Adobe Illustrator 13.0.0, SVG Export Plug-In  -->
<!DOCTYPE svg [
	<!ENTITY ns_flows "http://ns.adobe.com/Flows/1.0/">
]>
<svg version="1.2" baseProfile="tiny"
	 xmlns="http://www.w3.org/2000/svg" xmlns:xlink="http://www.w3.org/1999/xlink" xmlns:a="http://ns.adobe.com/AdobeSVGViewerExtensions/3.0/"
	 x="0px" y="0px" width="137px" height="100px" viewBox="-0.2 0 137 100" xml:space="preserve">
<defs>
</defs>
<path fill="#DEDDDC" d="M124.8,62.1c-0.9-0.5-1.6-1.4-1.7-2.5c-0.2-1,0.1-2.1,0.8-2.9c2.3-2.7,2.8-6.2,1.4-9.5
	c-1.1-2.5-3.9-5.2-8-5.2c-0.2,0-0.5,0-0.7,0c-1,0.1-2.1-0.3-2.8-1.1c-0.7-0.8-1.1-1.8-1-2.8c0.3-2.6-0.5-5-2.2-6.9
	c-1.7-1.9-4.1-3-6.6-3c-1.2,0-2.5,0.3-3.6,0.8c-1,0.5-2.2,0.4-3.2-0.1c-1-0.5-1.6-1.5-1.8-2.6c-0.7-5-5.1-7.7-8.9-7.7
	c-1.9,0-3.8,0.6-5.4,1.9c-0.8,0.6-1.9,0.9-2.9,0.7c-1-0.2-1.9-0.9-2.4-1.8c-1.5-2.9-4.4-4.7-7.6-4.8c-3.3,0.1-6.1,1.9-7.6,4.8
	c-0.5,0.9-1.4,1.6-2.4,1.8c-1,0.2-2.1,0-2.9-0.7c-1.6-1.2-3.4-1.9-5.4-1.9c-3.8,0-8.2,2.7-8.9,7.7c-0.1,1.1-0.8,2.1-1.8,2.6
	c-1,0.6-2.2,0.6-3.2,0.1c-1.2-0.5-2.4-0.8-3.6-0.8c-2.5,0-4.9,1.1-6.6,3c-1.7,1.9-2.4,4.3-2.2,6.9c0.1,1-0.2,2.1-1,2.8
	c-0.7,0.8-1.8,1.2-2.8,1.1c-0.2,0-0.5,0-0.7,0c-4.1,0-6.8,2.7-8,5.2c-1.5,3.2-1,6.8,1.4,9.5c0.7,0.8,1,1.9,0.8,2.9
	c-0.2,1-0.8,2-1.7,2.5c-4.4,2.5-5,6.8-4.2,9.9c0.8,3.1,3.5,6.7,8.6,6.7c10.6,0,18.9,0,25.5,0c13.4,0,20.1,0,26.8,0
	c6.7,0,13.4,0,26.8,0c6.6,0,14.8,0,25.4,0c5,0,7.7-3.6,8.5-6.7C129.8,68.8,129.2,64.5,124.8,62.1"/>
<path fill="#1972B0" d="M135.4,64c-0.8-2.2-2.2-4.2-4-5.9c2.2-4.3,2.4-9.3,0.3-13.9c-2.3-5-6.7-8.3-11.9-9.2
	c-0.4-3.2-1.7-6.2-3.9-8.6c-3.1-3.4-7.4-5.4-11.9-5.4c-0.9,0-1.7,0.1-2.6,0.2c-1-2.4-2.5-4.5-4.5-6.2c-2.9-2.4-6.6-3.7-10.3-3.7
	c-2.3,0-4.5,0.5-6.5,1.4c-1.1-1.3-2.4-2.4-3.9-3.2c-2.4-1.4-5.1-2.2-7.9-2.2h-0.1c-2.8,0.1-5.5,0.8-7.9,2.2c-1.5,0.9-2.8,2-3.9,3.2
	c-2-0.9-4.2-1.4-6.5-1.4c-3.8,0-7.4,1.3-10.4,3.7c-2,1.7-3.5,3.8-4.5,6.2c-0.9-0.1-1.7-0.2-2.6-0.2c-4.5,0-8.9,2-11.9,5.4
	c-2.2,2.4-3.5,5.4-3.9,8.6c-5.2,0.8-9.6,4.2-11.9,9.2C2.6,48.8,2.8,53.9,5,58.1c-1.8,1.6-3.1,3.6-4,5.9c-1.2,3.1-1.3,6.5-0.4,9.8
	c0.9,3.3,2.7,6.2,5.3,8.3c2.8,2.3,6.3,3.6,10.1,3.6c10.6,0,18.9,0,25.5,0c13.4,0,20.1,0,26.8,0c6.7,0,13.4,0,26.8,0
	c6.6,0,14.8,0,25.4,0c3.8,0,7.3-1.2,10.1-3.6c2.5-2.1,4.4-5.1,5.3-8.3C136.7,70.5,136.5,67.1,135.4,64 M129,72
	c-0.8,3.1-3.5,6.6-8.5,6.6c-10.6,0-18.8,0-25.4,0c-13.4,0-20.1,0-26.8,0c-6.7,0-13.4,0-26.8,0c-6.6,0-14.8,0-25.5,0
	c-5,0-7.7-3.6-8.6-6.6c-0.8-3.2-0.2-7.4,4.2-9.9c0.9-0.5,1.6-1.4,1.7-2.5c0.2-1-0.1-2.1-0.8-2.9c-2.3-2.7-2.8-6.2-1.4-9.5
	c1.1-2.5,3.9-5.2,8-5.2c0.2,0,0.5,0,0.7,0c1,0.1,2.1-0.3,2.8-1.1s1.1-1.8,1-2.8c-0.3-2.6,0.5-5,2.2-6.9c1.7-1.9,4.1-3,6.6-3
	c1.2,0,2.4,0.3,3.6,0.8c1,0.5,2.2,0.4,3.2-0.1c1-0.5,1.6-1.5,1.8-2.6c0.7-5,5.1-7.7,8.9-7.7c1.9,0,3.8,0.6,5.4,1.9
	c0.8,0.6,1.9,0.9,2.9,0.7c1-0.2,1.9-0.9,2.4-1.8c1.5-2.9,4.4-4.7,7.6-4.8c3.3,0.1,6.1,1.9,7.6,4.8c0.5,0.9,1.4,1.6,2.4,1.8
	c1,0.2,2.1,0,2.9-0.7c1.6-1.2,3.4-1.9,5.4-1.9c3.8,0,8.2,2.7,8.9,7.7c0.1,1.1,0.8,2.1,1.8,2.6c1,0.5,2.2,0.6,3.2,0.1
	c1.2-0.5,2.4-0.8,3.6-0.8c2.5,0,4.9,1.1,6.6,3c1.7,1.9,2.5,4.3,2.2,6.9c-0.1,1,0.2,2.1,1,2.8c0.7,0.8,1.8,1.1,2.8,1.1
	c0.2,0,0.5,0,0.7,0c4.1,0,6.9,2.7,8,5.2c1.5,3.3,1,6.8-1.4,9.5c-0.7,0.8-1,1.9-0.8,2.9c0.2,1,0.8,2,1.7,2.5
	C129.2,64.5,129.8,68.8,129,72"/>
<path fill="#1972B0" d="M31.4,62.5L31.4,62.5c-2,0-3.5-1.6-3.5-3.5c0-2,1.6-3.5,3.5-3.5c1.1,0,2.7-0.2,3.5-0.9c0.6-0.6,1-1.7,1-3.2
	V40.9c0-2,1.6-3.5,3.5-3.5c2,0,3.5,1.6,3.5,3.5v10.4c0,3.6-1.1,6.4-3.2,8.4C37.7,61.5,34.9,62.5,31.4,62.5"/>
<path fill="#1972B0" d="M89.3,49.1h-50c-2,0-3.5-1.6-3.5-3.5c0-2,1.6-3.5,3.5-3.5h50c2,0,3.5,1.6,3.5,3.5
	C92.9,47.5,91.3,49.1,89.3,49.1"/>
<path fill="#1972B0" d="M26.5,85.5c-2,0-3.5-1.6-3.5-3.5v-6c0-2,1.6-3.5,3.5-3.5c2,0,3.5,1.6,3.5,3.5v6C30,83.9,28.5,85.5,26.5,85.5
	"/>
<path fill="#1972B0" d="M50.1,85.5c-2,0-3.5-1.6-3.5-3.5v-6c0-2,1.6-3.5,3.5-3.5c2,0,3.5,1.6,3.5,3.5v6C53.6,83.9,52,85.5,50.1,85.5
	"/>
<path fill="#1972B0" d="M66.8,55.1c-2,0-3.5-1.6-3.5-3.5v-6c0-2,1.6-3.5,3.5-3.5c2,0,3.5,1.6,3.5,3.5v6
	C70.4,53.6,68.8,55.1,66.8,55.1"/>
<path fill="#1972B0" d="M54.2,49.1c-2,0-3.5-1.6-3.5-3.5v-6c0-2,1.6-3.5,3.5-3.5c2,0,3.5,1.6,3.5,3.5v6
	C57.8,47.5,56.2,49.1,54.2,49.1"/>
<path fill="#1972B0" d="M15.4,62.3h-6c-2,0-3.5-1.6-3.5-3.5c0-2,1.6-3.5,3.5-3.5h6c2,0,3.5,1.6,3.5,3.5C19,60.7,17.4,62.3,15.4,62.3
	"/>
<path fill="#1972B0" d="M39.8,33.3c-1.2,0-2.3-0.6-3-1.6l-2.7-4.1c-1.1-1.6-0.6-3.8,1-4.9c1.6-1.1,3.8-0.6,4.9,1l2.7,4.1
	c1.1,1.6,0.6,3.8-1,4.9C41.1,33.1,40.4,33.3,39.8,33.3"/>
<path fill="#1972B0" d="M126.2,62.3h-6.7c-2,0-3.5-1.6-3.5-3.5c0-2,1.6-3.5,3.5-3.5h6.7c2,0,3.5,1.6,3.5,3.5
	C129.7,60.7,128.1,62.3,126.2,62.3"/>
<path fill="#1972B0" d="M103.8,50.1c-2,0-3.5-1.6-3.5-3.5c0-4.8,2.2-7.5,4.1-8.9c2.6-2,6.4-3,11.5-3c2,0,3.5,1.6,3.5,3.5
	s-1.6,3.5-3.5,3.5c-8.5,0-8.5,3-8.5,4.8C107.4,48.5,105.8,50.1,103.8,50.1"/>
<rect x="74.4" y="63.6" fill="#DEDDDC" width="21.5" height="32.1"/>
<path fill="#1972B0" d="M74.4,99.3c-2,0-3.5-1.6-3.5-3.5V63.6c0-2,1.6-3.5,3.5-3.5s3.5,1.6,3.5,3.5v32.1
	C78,97.7,76.4,99.3,74.4,99.3"/>
<rect x="57" y="3.5" fill="#DEDDDC" width="21.5" height="16.8"/>
<path fill="#1972B0" d="M57,20.9c-2,0-3.5-1.6-3.5-3.5V3.5c0-2,1.6-3.5,3.5-3.5c2,0,3.5,1.6,3.5,3.5v13.9C60.6,19.4,59,20.9,57,20.9
	"/>
<path fill="#1972B0" d="M78.5,20.9c-2,0-3.5-1.6-3.5-3.5V3.5c0-2,1.6-3.5,3.5-3.5c2,0,3.5,1.6,3.5,3.5v13.9
	C82.1,19.4,80.5,20.9,78.5,20.9"/>
<path fill="#1972B0" d="M96,99.3c-2,0-3.5-1.6-3.5-3.5V76.1c0-2,1.6-3.5,3.5-3.5c2,0,3.5,1.6,3.5,3.5v19.7
	C99.5,97.7,97.9,99.3,96,99.3"/>
<path fill="#1972B0" d="M54.5,30.6c-1.5,0-2.8-0.9-3.3-2.4c-0.7-1.8,0.3-3.9,2.1-4.5c0.6-0.2,1-0.4,1-1.6c0.1-1.4-0.5-3-0.7-3.7
	c-0.6-1.9,0.4-3.9,2.3-4.5c1.9-0.6,3.9,0.4,4.5,2.3c0.3,1,1.2,3.5,1,6.2c-0.1,1.7-0.5,3.2-1.3,4.5c-1,1.6-2.5,2.7-4.4,3.4
	C55.3,30.5,54.9,30.6,54.5,30.6"/>
<path fill="#1972B0" d="M24.8,46.5c-0.9,0-1.7-0.3-2.4-0.9l-5.2-4.7c-1.4-1.3-1.5-3.6-0.2-5c1.3-1.4,3.6-1.5,5-0.2l5.2,4.7
	c1.4,1.3,1.5,3.6,0.2,5C26.7,46.2,25.8,46.5,24.8,46.5"/>
<path fill="#1972B0" d="M80.8,49.1c-2,0-3.5-1.6-3.5-3.5v-5.9c0-3.1,1.3-5.9,3.7-7.8c2.1-1.7,4.9-2.7,7.8-2.7h3l3.7-5.5
	c1.1-1.6,3.3-2.1,4.9-1c1.6,1.1,2.1,3.3,1,4.9l-4.8,7.1c-0.7,1-1.8,1.6-2.9,1.6h-4.9c-1.8,0-4.4,0.9-4.4,3.4v5.9
	C84.4,47.5,82.8,49.1,80.8,49.1"/>
<path fill="#1972B0" d="M109.2,75.5c-2,0-3.5-1.6-3.5-3.5c0-1.8,0-4.8-8.5-4.8H53.4c-2,0-3.5-1.6-3.5-3.5s1.6-3.5,3.5-3.5h43.7
	c5.1,0,8.9,1,11.5,3c1.9,1.4,4.1,4.1,4.1,8.9C112.7,73.9,111.1,75.5,109.2,75.5"/>
<path fill="#1972B0" d="M86,67.2c-2,0-3.5-1.6-3.5-3.5v-6c0-2,1.6-3.5,3.5-3.5c2,0,3.5,1.6,3.5,3.5v6C89.6,65.6,88,67.2,86,67.2"/>
<path fill="#1972B0" d="M75.8,25.1c-0.7,0-1.3-0.2-1.9-0.6c-1.6-1.1-2.1-3.3-1-4.9l2.7-4.1c1.1-1.6,3.3-2.1,4.9-1
	c1.6,1.1,2.1,3.3,1,4.9l-2.7,4.1C78.1,24.5,77,25.1,75.8,25.1"/>
</svg>
