<?xml version="1.0" encoding="iso-8859-1"?>
<!-- Generator: Adobe Illustrator 13.0.0, SVG Export Plug-In  -->
<!DOCTYPE svg [
	<!ENTITY ns_flows "http://ns.adobe.com/Flows/1.0/">
]>
<svg version="1.2" baseProfile="tiny"
	 xmlns="http://www.w3.org/2000/svg" xmlns:xlink="http://www.w3.org/1999/xlink" xmlns:a="http://ns.adobe.com/AdobeSVGViewerExtensions/3.0/"
	 x="0px" y="0px" width="91px" height="91px" viewBox="-0.9 -0.7 91 91" xml:space="preserve">
<defs>
</defs>
<path fill="#1972B1" d="M89.6,44.8C89.6,20.1,69.5,0,44.8,0C20.1,0,0,20.1,0,44.8s20.1,44.8,44.8,44.8
	C69.5,89.6,89.6,69.5,89.6,44.8 M66.1,29l-20,40c-1,2.1-3.1,3.4-5.4,3.7c-0.2,0-0.4,0-0.7,0c-2.1,0-4-1-5.3-2.6L22.6,54.2
	c-2.3-2.9-1.7-7.2,1.2-9.4c2.9-2.3,7.2-1.8,9.4,1.2l5.7,7.4l15.2-30.4c1.6-3.3,5.7-4.7,9-3C66.4,21.6,67.8,25.6,66.1,29"/>
</svg>
