<?xml version="1.0" encoding="iso-8859-1"?>
<!-- Generator: Adobe Illustrator 13.0.0, SVG Export Plug-In  -->
<!DOCTYPE svg [
	<!ENTITY ns_flows "http://ns.adobe.com/Flows/1.0/">
]>
<svg version="1.2" baseProfile="tiny"
	 xmlns="http://www.w3.org/2000/svg" xmlns:xlink="http://www.w3.org/1999/xlink" xmlns:a="http://ns.adobe.com/AdobeSVGViewerExtensions/3.0/"
	 x="0px" y="0px" width="237px" height="281px" viewBox="-1 -0.1 237 281" xml:space="preserve">
<defs>
</defs>
<g>
	<path fill="#E5E5E5" d="M69.4,231.7H47c-13.6,0-24.6,11-24.6,24.6c0,13.6,11,24.6,24.6,24.6h22.4c13.6,0,24.6-11,24.6-24.6
		C94,242.7,83,231.7,69.4,231.7z M68.6,275.9h-12c-1.3,0-2.5-1.1-2.5-2.5v-17.1c0-1.4,1.1-2.5,2.5-2.5c1.4,0,2.4,1.1,2.4,2.4l0,14.7
		l9.5,0c8.1,0,14.7-6.6,14.7-14.7c0-8.1-6.6-14.7-14.7-14.7l-7,0l-2.5,0l-4.9,0v-2.5c0-1.4,1.1-2.4,2.5-2.5h12
		c10.8,0,19.6,8.8,19.6,19.6C88.2,267.1,79.4,275.9,68.6,275.9z M69.4,175.9H34.7c-13.6,0-24.6,11-24.6,24.6s11,24.6,24.6,24.6h34.7
		c13.6,0,24.6-11,24.6-24.6S83,175.9,69.4,175.9z M68.6,219.9h-12c-1.3,0-2.5-1.1-2.5-2.5v-17.1c0-1.4,1.1-2.5,2.5-2.5
		c1.4,0,2.4,1.1,2.4,2.4l0,14.7l9.5,0c8.1,0,14.7-6.6,14.7-14.7c0-8.1-6.6-14.7-14.7-14.7l-7,0l-2.5,0l-4.9,0v-2.5
		c0-1.4,1.1-2.4,2.5-2.5h12c10.8,0,19.6,8.8,19.6,19.6C88.2,211.1,79.4,219.9,68.6,219.9z M69.4,120.1H24.6
		C11,120.1,0,131.1,0,144.7c0,13.6,11,24.6,24.6,24.6h44.8c13.6,0,24.6-11,24.6-24.6C94,131.1,83,120.1,69.4,120.1z M68.6,163.9h-12
		c-1.3,0-2.5-1.1-2.5-2.5v-17.1c0-1.4,1.1-2.5,2.5-2.5c1.4,0,2.4,1.1,2.4,2.4l0,14.7l9.5,0c8.1,0,14.7-6.6,14.7-14.7
		c0-8.1-6.6-14.7-14.7-14.7l-7,0l-2.5,0l-4.9,0v-2.5c0-1.4,1.1-2.4,2.5-2.5h12c10.8,0,19.6,8.8,19.6,19.6
		C88.2,155.1,79.4,163.9,68.6,163.9z M34.7,113.5h34.7c13.6,0,24.6-11,24.6-24.6c0-13.6-11-24.6-24.6-24.6H34.7
		c-13.6,0-24.6,11-24.6,24.6C10.1,102.5,21.1,113.5,34.7,113.5z M53.2,89.3c0-1.4,1.1-2.5,2.5-2.5c1.4,0,2.4,1.1,2.4,2.4l0,14.7
		l9.5,0c8.1,0,14.7-6.6,14.7-14.7c0-8.1-6.6-14.7-14.7-14.7l-7,0l-2.5,0l-4.9,0v-2.5c0-1.4,1.1-2.4,2.5-2.5h12
		c10.8,0,19.6,8.8,19.6,19.6c0,10.8-8.8,19.6-19.6,19.6h-12c-1.3,0-2.5-1.1-2.5-2.5V89.3z"/>
</g>
<path fill="#E5E5E5" d="M113,27.1C113,12.1,125.1,0,140,0h68.1c15,0,27.1,12.1,27.1,27.1c0,15-12.1,27.1-27.1,27.1l-68.1,0
	C125.1,54.1,113,42,113,27.1"/>
</svg>
